<?xml version="1.0" encoding="UTF-8" standalone="no"?>
<svg
   version="1.2"
   id="Layer_1"
   x="0px"
   y="0px"
   viewBox="0 0 18.897638 17.009698"
   xml:space="preserve"
   sodipodi:docname="oshw.svg"
   width="5mm"
   height="4.5004826mm"
   inkscape:version="1.1.1 (3bf5ae0d25, 2021-09-20)"
   xmlns:inkscape="http://www.inkscape.org/namespaces/inkscape"
   xmlns:sodipodi="http://sodipodi.sourceforge.net/DTD/sodipodi-0.dtd"
   xmlns="http://www.w3.org/2000/svg"
   xmlns:svg="http://www.w3.org/2000/svg"><defs
   id="defs41" /><sodipodi:namedview
   id="namedview39"
   pagecolor="#ffffff"
   bordercolor="#666666"
   borderopacity="1.0"
   inkscape:pageshadow="2"
   inkscape:pageopacity="0.0"
   inkscape:pagecheckerboard="0"
   showgrid="false"
   showguides="true"
   inkscape:guide-bbox="true"
   units="mm"
   fit-margin-top="0"
   fit-margin-left="0"
   fit-margin-right="0"
   fit-margin-bottom="0"
   inkscape:document-units="mm"
   inkscape:zoom="19.293457"
   inkscape:cx="0.077746565"
   inkscape:cy="7.2822616"
   inkscape:window-width="3357"
   inkscape:window-height="1417"
   inkscape:window-x="75"
   inkscape:window-y="-8"
   inkscape:window-maximized="1"
   inkscape:current-layer="g878"><sodipodi:guide
     position="24.563233,20.184351"
     orientation="-1,0"
     id="guide858"
     inkscape:label=""
     inkscape:locked="false"
     inkscape:color="rgb(0,0,255)" /></sodipodi:namedview>

















<g
   id="g878"
   transform="matrix(0.09874635,0,0,0.09874635,-1.8934612,0)"
   style="stroke-width:10.127"><path
     fill="#0099b0"
     d="M 209.5113,82.337413 186.01389,77.96783 c -0.57175,-0.107203 -1.19781,-0.644646 -1.39078,-1.196383 l -7.20259,-16.80367 c -0.26872,-0.518862 -0.21726,-1.333602 0.11435,-1.816729 l 13.69051,-19.954001 c 0.32732,-0.480268 0.263,-1.210677 -0.15009,-1.623764 l -17.09955,-17.09955 c -0.41309,-0.413088 -1.14207,-0.480268 -1.62233,-0.150084 l -20.3042,13.933496 c -0.48027,0.330185 -1.30359,0.388789 -1.8253,0.131502 l -16.28911,-6.66801 c -0.55316,-0.182959 -1.09203,-0.801876 -1.20067,-1.375053 L 128.21018,1.0420105 C 128.1044,0.46883326 127.53981,0 126.95662,0 h -24.18494 c -0.58174,0 -1.14634,0.46883326 -1.25212,1.0420105 L 96.997034,25.345584 c -0.108632,0.573177 -0.646075,1.192094 -1.200671,1.375053 l -16.290526,6.66801 c -0.52315,0.257287 -1.346467,0.198683 -1.825306,-0.131502 L 57.377764,19.323649 c -0.481697,-0.330184 -1.212106,-0.263004 -1.623765,0.150084 l -17.100978,17.09955 c -0.411658,0.413087 -0.480269,1.143496 -0.150084,1.623764 l 13.691932,19.954001 c 0.328755,0.483127 0.380213,1.297867 0.112921,1.816729 l -7.204024,16.80367 c -0.191535,0.551737 -0.81617,1.08918 -1.390776,1.196383 l -23.49598,4.369583 c -0.574607,0.108632 -1.042011,0.671804 -1.042011,1.254987 l 0.0014,24.18351 c 0,0.58318 0.468833,1.15064 1.04201,1.25498 l 22.919944,4.26524 c 0.573176,0.10435 1.186377,0.64893 1.36076,1.20496 l 7.155425,17.87426 c 0.255857,0.52458 0.195823,1.34505 -0.135791,1.82531 l -13.018699,18.97202 c -0.328755,0.48027 -0.261575,1.21212 0.150084,1.6252 l 17.102408,17.09955 c 0.411659,0.41023 1.142066,0.47741 1.623764,0.15009 l 18.636123,-12.79143 c 0.480268,-0.32876 1.285003,-0.35449 1.786712,-0.0614 l 8.218875,4.38816 c 0.520291,0.26586 1.127774,0.0414 1.350755,-0.49742 l 16.946601,-40.94716 c 0.22442,-0.53887 0,-1.22639 -0.49741,-1.53085 l -2.05687,-1.25928 c -0.38021,-0.23155 -0.89621,-0.63035 -1.30073,-0.99626 -7.419852,-4.75123 -12.342601,-13.06302 -12.342601,-22.528304 0,-14.771107 11.975261,-26.744937 26.744941,-26.744937 14.76967,0 26.7435,11.97383 26.7435,26.744937 0,9.465284 -4.92132,17.777074 -12.34261,22.528304 -0.40164,0.36591 -0.91908,0.76471 -1.29786,0.99626 l -2.05686,1.25928 c -0.49457,0.30446 -0.7204,0.99198 -0.49743,1.53085 l 16.94518,40.94859 c 0.22299,0.53887 0.82903,0.76185 1.35076,0.49741 l 8.21887,-4.38815 c 0.50314,-0.29303 1.30645,-0.26873 1.78671,0.0614 l 18.63755,12.79143 c 0.48028,0.32732 1.21211,0.26014 1.62234,-0.15009 l 17.10241,-17.09955 c 0.41309,-0.41308 0.48026,-1.14492 0.15009,-1.6252 l -13.02013,-18.97202 c -0.32876,-0.48026 -0.39022,-1.30073 -0.13437,-1.8253 l 7.15542,-17.87427 c 0.17582,-0.55602 0.78473,-1.10062 1.35934,-1.20496 l 22.91994,-4.26524 c 0.57175,-0.10434 1.04201,-0.6718 1.04201,-1.25499 l 0.003,-24.183501 c 9.9e-4,-0.584612 -0.46742,-1.147784 -1.03916,-1.256416"
     id="path2"
     style="stroke-width:220.473" /></g>
</svg>
