<?xml version="1.0" encoding="UTF-8" standalone="no"?>
<svg
   version="1.2"
   id="Layer_1"
   x="0px"
   y="0px"
   viewBox="0 0 47.244095 5.2913385"
   xml:space="preserve"
   sodipodi:docname="touchless.svg"
   width="12.5mm"
   height="1.4mm"
   inkscape:version="1.1.1 (3bf5ae0d25, 2021-09-20)"
   xmlns:inkscape="http://www.inkscape.org/namespaces/inkscape"
   xmlns:sodipodi="http://sodipodi.sourceforge.net/DTD/sodipodi-0.dtd"
   xmlns="http://www.w3.org/2000/svg"
   xmlns:svg="http://www.w3.org/2000/svg"><defs
   id="defs41"><inkscape:path-effect
     effect="powerstroke"
     id="path-effect3592"
     is_visible="true"
     lpeversion="1"
     offset_points="0.2,0.018897651 | 1.059496,0.11384701 | 1.7916476,0.035964628"
     not_jump="false"
     sort_points="true"
     interpolator_type="CentripetalCatmullRom"
     interpolator_beta="0.2"
     start_linecap_type="zerowidth"
     linejoin_type="round"
     miter_limit="4"
     scale_width="1"
     end_linecap_type="zerowidth" /><inkscape:path-effect
     effect="powerstroke"
     id="path-effect3197"
     is_visible="true"
     lpeversion="1"
     offset_points="0.2,0.018897651 | 0.99336217,0.11235393 | 1.7916476,0.035964628"
     not_jump="false"
     sort_points="true"
     interpolator_type="CentripetalCatmullRom"
     interpolator_beta="0.2"
     start_linecap_type="zerowidth"
     linejoin_type="round"
     miter_limit="4"
     scale_width="1"
     end_linecap_type="zerowidth" /><inkscape:path-effect
     effect="powerstroke"
     id="path-effect2671"
     is_visible="true"
     lpeversion="1"
     offset_points="0.2,0.018897651 | 0.99336217,0.11235393 | 1.7916476,0.035964628"
     not_jump="false"
     sort_points="true"
     interpolator_type="CentripetalCatmullRom"
     interpolator_beta="0.2"
     start_linecap_type="zerowidth"
     linejoin_type="round"
     miter_limit="4"
     scale_width="1"
     end_linecap_type="zerowidth" /><inkscape:path-effect
     effect="powerstroke"
     id="path-effect2131"
     is_visible="true"
     lpeversion="1"
     offset_points="0.2,0.018897651 | 0.99336217,0.11235393 | 1.7916476,0.035964628"
     not_jump="false"
     sort_points="true"
     interpolator_type="CentripetalCatmullRom"
     interpolator_beta="0.2"
     start_linecap_type="zerowidth"
     linejoin_type="round"
     miter_limit="4"
     scale_width="1"
     end_linecap_type="zerowidth" /><inkscape:path-effect
     effect="powerstroke"
     id="path-effect2026"
     is_visible="true"
     lpeversion="1"
     offset_points="0.2,0.018897651 | 0.99336217,0.11235393 | 1.7916476,0.035964628"
     not_jump="false"
     sort_points="true"
     interpolator_type="CentripetalCatmullRom"
     interpolator_beta="0.2"
     start_linecap_type="zerowidth"
     linejoin_type="round"
     miter_limit="4"
     scale_width="1"
     end_linecap_type="zerowidth" /><inkscape:path-effect
     effect="powerstroke"
     id="path-effect1136"
     is_visible="true"
     lpeversion="1"
     offset_points="0.2,0.018897651 | 1.059496,0.11384701 | 1.7916476,0.035964628"
     not_jump="false"
     sort_points="true"
     interpolator_type="CentripetalCatmullRom"
     interpolator_beta="0.2"
     start_linecap_type="zerowidth"
     linejoin_type="round"
     miter_limit="4"
     scale_width="1"
     end_linecap_type="zerowidth" /></defs><sodipodi:namedview
   id="namedview39"
   pagecolor="#ffffff"
   bordercolor="#666666"
   borderopacity="1.0"
   inkscape:pageshadow="2"
   inkscape:pageopacity="0.0"
   inkscape:pagecheckerboard="0"
   showgrid="false"
   showguides="true"
   inkscape:guide-bbox="true"
   units="mm"
   fit-margin-top="0"
   fit-margin-left="0"
   fit-margin-right="0"
   fit-margin-bottom="0"
   inkscape:document-units="mm"
   inkscape:zoom="16"
   inkscape:cx="25.90625"
   inkscape:cy="3.65625"
   inkscape:window-width="3357"
   inkscape:window-height="1417"
   inkscape:window-x="75"
   inkscape:window-y="-8"
   inkscape:window-maximized="1"
   inkscape:current-layer="Layer_1"
   inkscape:snap-center="true"
   inkscape:snap-object-midpoints="true"><sodipodi:guide
     position="47.244094,24.614162"
     orientation="-1,0"
     id="guide858"
     inkscape:label=""
     inkscape:locked="false"
     inkscape:color="rgb(0,0,255)" /><sodipodi:guide
     position="36.749999,22.510323"
     orientation="0,1"
     id="guide915"
     inkscape:label=""
     inkscape:locked="false"
     inkscape:color="rgb(0,0,255)" /><sodipodi:guide
     position="39.06765,2.7943677"
     orientation="0,-1"
     id="guide48151" /></sodipodi:namedview>


















<g
   aria-label="TOUCHLÆSS"
   id="text34779"
   style="font-size:6.04724px;line-height:1.25;font-family:Broadway;-inkscape-font-specification:Broadway"><path
     d="M 3.5984591,0.53766504 V 1.2693811 H 2.3769167 V 4.4562764 H 1.5182086 V 1.2693811 H 0.26642998 V 0.53766504 Z"
     style="font-weight:bold;font-family:Dubai;-inkscape-font-specification:'Dubai Bold'"
     id="path66612" /><path
     d="m 5.7149866,4.5409378 q -0.6289129,0 -1.0703614,-0.2600313 Q 4.2092239,4.0208752 3.985476,3.5612849 3.7617281,3.0956475 3.7617281,2.4848762 q 0,-0.6772908 0.2721258,-1.1308338 0.2721258,-0.45959021 0.7196216,-0.67729085 0.453543,-0.22374787 1.0038418,-0.22374787 0.6289129,0 1.0643142,0.26003131 Q 7.26308,0.9730663 7.4807806,1.4387038 7.7045285,1.898294 7.7045285,2.5090652 q 0,0.6772909 -0.2721258,1.1368811 Q 7.1663241,4.0994893 6.7127812,4.3232371 6.2652854,4.5409378 5.7149866,4.5409378 Z m 0,-0.7014798 q 0.3567871,0 0.604724,-0.1572283 0.253984,-0.1632754 0.3749288,-0.4595902 0.1269921,-0.302362 0.1269921,-0.7075271 0,-0.6410074 -0.2721258,-0.9977945 -0.2721258,-0.3628344 -0.7921884,-0.3628344 -0.5442516,0 -0.8284719,0.3567871 -0.2842202,0.35074 -0.2842202,0.9675584 0,0.6410074 0.2721257,1.0038418 0.2721258,0.3567872 0.7982357,0.3567872 z"
     style="font-weight:bold;font-family:Dubai;-inkscape-font-specification:'Dubai Bold'"
     id="path66614" /><path
     d="m 9.9722423,4.5409378 q -0.5926295,0 -0.9736056,-0.2177007 Q 8.6176606,4.0994893 8.4422907,3.7245604 8.272968,3.3435843 8.272968,2.8598051 V 0.53766504 H 9.131676 V 2.757002 q 0,0.5079682 0.1995589,0.7921884 0.1995589,0.2781731 0.6954331,0.2781731 0.471684,0 0.665196,-0.2781731 0.193512,-0.2842202 0.193512,-0.731716 V 0.53766504 h 0.858708 V 2.8416634 q 0,0.5986767 -0.229796,0.9796528 -0.229795,0.3749289 -0.628912,0.5502989 -0.393071,0.1693227 -0.9131337,0.1693227 z"
     style="font-weight:bold;font-family:Dubai;-inkscape-font-specification:'Dubai Bold'"
     id="path66616" /><path
     d="m 14.211356,4.5409378 q -0.9857,0 -1.44529,-0.5442516 -0.453543,-0.5502988 -0.453543,-1.4694793 0,-0.7438105 0.253984,-1.2034007 0.253984,-0.46563745 0.671243,-0.66519637 0.423307,-0.20560615 0.949417,-0.20560615 0.368882,0 0.677291,0.0907086 0.308409,0.0846614 0.616818,0.26607855 L 15.160773,1.444751 q -0.429354,-0.278173 -0.931275,-0.278173 -1.021984,0 -1.021984,1.312251 0,0.6531019 0.284221,0.9917473 0.28422,0.3386455 0.804282,0.3386455 0.266079,0 0.465638,-0.06652 0.199559,-0.072567 0.417259,-0.1995589 l 0.332599,0.604724 q -0.326551,0.1935117 -0.641008,0.2963147 -0.308409,0.096756 -0.659149,0.096756 z"
     style="font-weight:bold;font-family:Dubai;-inkscape-font-specification:'Dubai Bold'"
     id="path66618" /><path
     d="m 18.643977,0.53766504 h 0.858708 V 4.4562764 H 18.643977 V 2.8295689 H 16.872135 V 4.4562764 H 16.013427 V 0.53766504 h 0.858708 V 2.1039001 h 1.771842 z"
     style="font-weight:bold;font-family:Dubai;-inkscape-font-specification:'Dubai Bold'"
     id="path66620" /><path
     d="m 21.226145,3.7185132 h 1.777888 V 4.4562764 H 20.367437 V 0.53766504 h 0.858708 z"
     style="font-weight:bold;font-family:Dubai;-inkscape-font-specification:'Dubai Bold'"
     id="path66622" /><path
     d="m 26.844031,3.7547966 h 1.590424 v 0.7014798 h -2.297951 l -0.24189,-0.9373221 h -1.457385 l -0.380976,0.9373221 h -0.894991 v -0.048378 l 1.662991,-3.87023346 h 3.259462 V 1.2330976 H 26.10022 l 0.260031,0.882897 h 1.542047 L 27.805542,2.80538 H 26.565858 Z M 24.715402,2.8295689 h 0.997795 L 25.326173,1.3359007 Z"
     style="font-weight:bold;font-family:Dubai;-inkscape-font-specification:'Dubai Bold'"
     id="path66624" /><path
     d="m 30.224425,4.5409378 q -0.907086,0 -1.542046,-0.4716847 l 0.387023,-0.5986768 q 0.562393,0.3567872 1.100598,0.3567872 0.344692,0 0.538204,-0.1088503 0.199559,-0.1088504 0.199559,-0.326551 0,-0.1330393 -0.06652,-0.2177006 Q 30.780771,3.083553 30.617496,3.0049389 30.460267,2.9202775 30.139764,2.7932855 L 30.000677,2.7388603 Q 29.613654,2.5876793 29.377811,2.4485928 29.141969,2.3095063 29.002882,2.0918057 28.863796,1.874105 28.863796,1.5415068 q 0,-0.3688816 0.211653,-0.61077118 0.211654,-0.24793683 0.544252,-0.36283438 0.332598,-0.11489756 0.707527,-0.11489756 0.338645,0 0.695433,0.11489756 0.362834,0.10885031 0.689385,0.32655095 L 31.318975,1.4870817 q -0.290267,-0.17537 -0.514015,-0.2539841 -0.223748,-0.078614 -0.483779,-0.078614 -0.290268,0 -0.441449,0.096756 -0.145133,0.096756 -0.145133,0.2600313 0,0.1028031 0.06047,0.1874645 0.06047,0.078614 0.217701,0.1632755 0.157228,0.078614 0.453543,0.1874644 l 0.133039,0.048378 q 0.387023,0.1451338 0.622865,0.2721258 0.24189,0.126992 0.405166,0.3628344 0.163275,0.2358423 0.163275,0.6107712 0,0.3930706 -0.205606,0.6651964 -0.205606,0.2660785 -0.562393,0.3991178 -0.35074,0.1330393 -0.798236,0.1330393 z"
     style="font-weight:bold;font-family:Dubai;-inkscape-font-specification:'Dubai Bold'"
     id="path66626" /><path
     d="m 33.647164,4.5409378 q -0.907086,0 -1.542046,-0.4716847 l 0.387023,-0.5986768 q 0.562393,0.3567872 1.100598,0.3567872 0.344692,0 0.538204,-0.1088503 0.199559,-0.1088504 0.199559,-0.326551 0,-0.1330393 -0.06652,-0.2177006 Q 34.20351,3.083553 34.040235,3.0049389 33.883006,2.9202775 33.562503,2.7932855 L 33.423416,2.7388603 Q 33.036393,2.5876793 32.80055,2.4485928 32.564708,2.3095063 32.425622,2.0918057 32.286535,1.874105 32.286535,1.5415068 q 0,-0.3688816 0.211653,-0.61077118 0.211654,-0.24793683 0.544252,-0.36283438 0.332598,-0.11489756 0.707527,-0.11489756 0.338645,0 0.695433,0.11489756 0.362834,0.10885031 0.689385,0.32655095 L 34.741714,1.4870817 q -0.290267,-0.17537 -0.514015,-0.2539841 -0.223748,-0.078614 -0.483779,-0.078614 -0.290268,0 -0.441449,0.096756 -0.145133,0.096756 -0.145133,0.2600313 0,0.1028031 0.06047,0.1874645 0.06047,0.078614 0.217701,0.1632755 0.157228,0.078614 0.453543,0.1874644 l 0.133039,0.048378 q 0.387023,0.1451338 0.622866,0.2721258 0.241889,0.126992 0.405165,0.3628344 0.163275,0.2358423 0.163275,0.6107712 0,0.3930706 -0.205606,0.6651964 -0.205606,0.2660785 -0.562393,0.3991178 -0.35074,0.1330393 -0.798236,0.1330393 z"
     style="font-weight:bold;font-family:Dubai;-inkscape-font-specification:'Dubai Bold'"
     id="path66628" /></g><path
   style="opacity:1;fill:#000000;stroke:#000000;stroke-width:0.0377953;stroke-linecap:round"
   d="m 37.421875,0.46875 c -0.08594,0.0507813 -0.289063,0.453125 -0.210937,0.65625 0.05469,0.1054688 1.070312,1.265625 1.070312,1.265625 0.05469,0.2578125 -1.636719,1.0390625 -1.953125,1.625 -0.08984,0.1796875 0.421875,0.5351563 0.59375,0.5 C 37.3125,4.3828125 37.84375,3.6015625 38.875,2.953125 41.070313,4.9921875 43.16482,4.7454673 43.820312,4.3125 44.028935,4.1366037 43.747399,4.0495478 43.624652,4.0714063 43.007514,4.1813048 42.322836,4.1113908 41.677534,3.8934047 40.565714,3.5178269 39.609227,2.8026565 39.59375,2.53125 39.617188,2.2890625 40.390625,1.8789063 42.628907,0.78515626 42.699219,0.75000001 42.855469,0.40234375 42.445313,0.4296875 40.601563,0.92578125 39.269532,1.9375 39.054688,1.96875 38.839844,1.9609375 38.105237,1.0967996 37.722992,0.61288999 37.58449,0.43755157 37.471292,0.45059671 37.421875,0.46875 Z"
   id="path38896"
   sodipodi:nodetypes="cccccccssccccsc" /><path
   style="opacity:1;fill:#000000;stroke:#000000;stroke-width:0.0377953;stroke-linecap:round"
   d="m 41.441406,3.2460938 c -0.0066,0.07341 0.04598,0.1684921 0.117188,0.1875 0.544804,0.1454238 1.077558,-0.5614734 1.492187,-0.796875 0.04994,-0.028352 0.134271,-0.03168 0.171875,0.011719 0.09109,0.1051282 0.110396,0.6369538 0.429688,0.7460938 0.161306,0.055137 0.336432,-0.079374 0.484375,-0.1640628 0.265978,-0.1522564 0.601055,-0.6178161 0.695312,-0.6015625 0.151292,0.026089 0.360166,0.7295479 0.734375,0.7773437 C 45.871397,3.4452049 46.274445,3.1392555 46.394531,3 46.444557,2.9419889 46.342703,2.8374002 46.273437,2.8046875 46.176027,2.758683 46.055061,2.8825012 45.953125,2.8476563 45.756403,2.7804106 45.247337,1.9514492 44.921875,1.9140625 44.555174,1.8719385 44.186625,2.5297563 43.992187,2.515625 43.818066,2.5029703 43.850141,1.9853422 43.402344,1.8984375 43.14498,1.8484903 42.589078,2.4170188 42.429687,2.375 c -0.146165,-0.038532 0.04646,-0.3575892 -0.132812,-0.4335938 -0.264469,-0.1121228 -0.784379,0.220459 -0.992188,0.4531251 -0.07018,0.078579 0.0018,0.3478362 0.121094,0.2539062 0.05355,-0.04217 0.181527,-0.041208 0.203125,0.023437 0.04228,0.1265331 -0.168934,0.3665389 -0.1875,0.5742193 z"
   id="path42246"
   sodipodi:nodetypes="sasssasssassssssssss" /><text
   xml:space="preserve"
   style="font-style:normal;font-variant:normal;font-weight:normal;font-stretch:normal;font-size:6.04724px;line-height:1.25;font-family:Broadway;-inkscape-font-specification:Broadway"
   x="0.71814597"
   y="-13.574946"
   id="text66610"><tspan
     sodipodi:role="line"
     id="tspan66608"
     x="0.71814597"
     y="-13.574946"
     style="font-style:normal;font-variant:normal;font-weight:bold;font-stretch:normal;font-size:6.04724px;font-family:Dubai;-inkscape-font-specification:'Dubai Bold'">TOUCHLÆSS</tspan></text></svg>
