%TF.GenerationSoftware,KiCad,Pcbnew,8.0.9-8.0.9-0~ubuntu20.04.1*%
%TF.CreationDate,2025-05-20T18:40:30+02:00*%
%TF.ProjectId,tobo,746f626f-2e6b-4696-9361-645f70636258,rev?*%
%TF.SameCoordinates,Original*%
%TF.FileFunction,Copper,L1,Top*%
%TF.FilePolarity,Positive*%
%FSLAX46Y46*%
G04 Gerber Fmt 4.6, Leading zero omitted, Abs format (unit mm)*
G04 Created by KiCad (PCBNEW 8.0.9-8.0.9-0~ubuntu20.04.1) date 2025-05-20 18:40:30*
%MOMM*%
%LPD*%
G01*
G04 APERTURE LIST*
G04 Aperture macros list*
%AMRoundRect*
0 Rectangle with rounded corners*
0 $1 Rounding radius*
0 $2 $3 $4 $5 $6 $7 $8 $9 X,Y pos of 4 corners*
0 Add a 4 corners polygon primitive as box body*
4,1,4,$2,$3,$4,$5,$6,$7,$8,$9,$2,$3,0*
0 Add four circle primitives for the rounded corners*
1,1,$1+$1,$2,$3*
1,1,$1+$1,$4,$5*
1,1,$1+$1,$6,$7*
1,1,$1+$1,$8,$9*
0 Add four rect primitives between the rounded corners*
20,1,$1+$1,$2,$3,$4,$5,0*
20,1,$1+$1,$4,$5,$6,$7,0*
20,1,$1+$1,$6,$7,$8,$9,0*
20,1,$1+$1,$8,$9,$2,$3,0*%
%AMRotRect*
0 Rectangle, with rotation*
0 The origin of the aperture is its center*
0 $1 length*
0 $2 width*
0 $3 Rotation angle, in degrees counterclockwise*
0 Add horizontal line*
21,1,$1,$2,0,0,$3*%
%AMFreePoly0*
4,1,19,0.500000,-0.750000,0.000000,-0.750000,0.000000,-0.744911,-0.071157,-0.744911,-0.207708,-0.704816,-0.327430,-0.627875,-0.420627,-0.520320,-0.479746,-0.390866,-0.500000,-0.250000,-0.500000,0.250000,-0.479746,0.390866,-0.420627,0.520320,-0.327430,0.627875,-0.207708,0.704816,-0.071157,0.744911,0.000000,0.744911,0.000000,0.750000,0.500000,0.750000,0.500000,-0.750000,0.500000,-0.750000,
$1*%
%AMFreePoly1*
4,1,19,0.000000,0.744911,0.071157,0.744911,0.207708,0.704816,0.327430,0.627875,0.420627,0.520320,0.479746,0.390866,0.500000,0.250000,0.500000,-0.250000,0.479746,-0.390866,0.420627,-0.520320,0.327430,-0.627875,0.207708,-0.704816,0.071157,-0.744911,0.000000,-0.744911,0.000000,-0.750000,-0.500000,-0.750000,-0.500000,0.750000,0.000000,0.750000,0.000000,0.744911,0.000000,0.744911,
$1*%
G04 Aperture macros list end*
%TA.AperFunction,SMDPad,CuDef*%
%ADD10RotRect,0.750000X1.800000X70.000000*%
%TD*%
%TA.AperFunction,SMDPad,CuDef*%
%ADD11RotRect,0.600000X1.800000X70.000000*%
%TD*%
%TA.AperFunction,SMDPad,CuDef*%
%ADD12RotRect,0.900000X1.300000X160.000000*%
%TD*%
%TA.AperFunction,SMDPad,CuDef*%
%ADD13RoundRect,0.140000X0.140000X0.170000X-0.140000X0.170000X-0.140000X-0.170000X0.140000X-0.170000X0*%
%TD*%
%TA.AperFunction,SMDPad,CuDef*%
%ADD14R,1.600000X0.550000*%
%TD*%
%TA.AperFunction,SMDPad,CuDef*%
%ADD15R,0.550000X1.600000*%
%TD*%
%TA.AperFunction,SMDPad,CuDef*%
%ADD16R,1.780000X3.430000*%
%TD*%
%TA.AperFunction,SMDPad,CuDef*%
%ADD17RoundRect,0.100000X0.130000X0.100000X-0.130000X0.100000X-0.130000X-0.100000X0.130000X-0.100000X0*%
%TD*%
%TA.AperFunction,SMDPad,CuDef*%
%ADD18RoundRect,0.100000X-0.130000X-0.100000X0.130000X-0.100000X0.130000X0.100000X-0.130000X0.100000X0*%
%TD*%
%TA.AperFunction,SMDPad,CuDef*%
%ADD19C,1.000000*%
%TD*%
%TA.AperFunction,SMDPad,CuDef*%
%ADD20RoundRect,0.140000X-0.140000X-0.170000X0.140000X-0.170000X0.140000X0.170000X-0.140000X0.170000X0*%
%TD*%
%TA.AperFunction,SMDPad,CuDef*%
%ADD21RoundRect,0.100000X0.100000X-0.130000X0.100000X0.130000X-0.100000X0.130000X-0.100000X-0.130000X0*%
%TD*%
%TA.AperFunction,SMDPad,CuDef*%
%ADD22RotRect,0.750000X1.800000X50.000000*%
%TD*%
%TA.AperFunction,SMDPad,CuDef*%
%ADD23RotRect,0.600000X1.800000X50.000000*%
%TD*%
%TA.AperFunction,SMDPad,CuDef*%
%ADD24RotRect,0.900000X1.300000X140.000000*%
%TD*%
%TA.AperFunction,SMDPad,CuDef*%
%ADD25RoundRect,0.100000X-0.100000X0.130000X-0.100000X-0.130000X0.100000X-0.130000X0.100000X0.130000X0*%
%TD*%
%TA.AperFunction,SMDPad,CuDef*%
%ADD26R,1.800000X0.750000*%
%TD*%
%TA.AperFunction,SMDPad,CuDef*%
%ADD27R,1.800000X0.600000*%
%TD*%
%TA.AperFunction,SMDPad,CuDef*%
%ADD28R,0.900000X1.300000*%
%TD*%
%TA.AperFunction,SMDPad,CuDef*%
%ADD29FreePoly0,90.000000*%
%TD*%
%TA.AperFunction,SMDPad,CuDef*%
%ADD30FreePoly1,90.000000*%
%TD*%
%TA.AperFunction,SMDPad,CuDef*%
%ADD31R,0.600000X1.450000*%
%TD*%
%TA.AperFunction,SMDPad,CuDef*%
%ADD32R,0.300000X1.450000*%
%TD*%
%TA.AperFunction,ComponentPad*%
%ADD33O,1.000000X2.100000*%
%TD*%
%TA.AperFunction,ComponentPad*%
%ADD34O,1.000000X1.600000*%
%TD*%
%TA.AperFunction,SMDPad,CuDef*%
%ADD35R,0.300000X1.400000*%
%TD*%
%TA.AperFunction,SMDPad,CuDef*%
%ADD36RoundRect,0.010000X-0.740000X0.090000X-0.740000X-0.090000X0.740000X-0.090000X0.740000X0.090000X0*%
%TD*%
%TA.AperFunction,SMDPad,CuDef*%
%ADD37R,0.800000X0.300000*%
%TD*%
%TA.AperFunction,SMDPad,CuDef*%
%ADD38RotRect,0.750000X1.800000X80.000000*%
%TD*%
%TA.AperFunction,SMDPad,CuDef*%
%ADD39RotRect,0.600000X1.800000X80.000000*%
%TD*%
%TA.AperFunction,SMDPad,CuDef*%
%ADD40RotRect,0.900000X1.300000X170.000000*%
%TD*%
%TA.AperFunction,SMDPad,CuDef*%
%ADD41RoundRect,0.375000X0.375000X-1.625000X0.375000X1.625000X-0.375000X1.625000X-0.375000X-1.625000X0*%
%TD*%
%TA.AperFunction,SMDPad,CuDef*%
%ADD42RoundRect,0.140000X0.170000X-0.140000X0.170000X0.140000X-0.170000X0.140000X-0.170000X-0.140000X0*%
%TD*%
%TA.AperFunction,SMDPad,CuDef*%
%ADD43R,3.430000X1.780000*%
%TD*%
%TA.AperFunction,SMDPad,CuDef*%
%ADD44RoundRect,0.250000X-0.262500X-0.450000X0.262500X-0.450000X0.262500X0.450000X-0.262500X0.450000X0*%
%TD*%
%TA.AperFunction,SMDPad,CuDef*%
%ADD45RoundRect,0.030000X0.470000X-0.120000X0.470000X0.120000X-0.470000X0.120000X-0.470000X-0.120000X0*%
%TD*%
%TA.AperFunction,SMDPad,CuDef*%
%ADD46RoundRect,0.130000X0.520000X-0.695000X0.520000X0.695000X-0.520000X0.695000X-0.520000X-0.695000X0*%
%TD*%
%TA.AperFunction,SMDPad,CuDef*%
%ADD47RotRect,0.750000X1.800000X60.000000*%
%TD*%
%TA.AperFunction,SMDPad,CuDef*%
%ADD48RotRect,0.600000X1.800000X60.000000*%
%TD*%
%TA.AperFunction,SMDPad,CuDef*%
%ADD49RotRect,0.900000X1.300000X150.000000*%
%TD*%
%TA.AperFunction,ViaPad*%
%ADD50C,0.500000*%
%TD*%
%TA.AperFunction,ViaPad*%
%ADD51C,0.610000*%
%TD*%
%TA.AperFunction,Conductor*%
%ADD52C,0.203200*%
%TD*%
%TA.AperFunction,Conductor*%
%ADD53C,0.152400*%
%TD*%
G04 APERTURE END LIST*
D10*
%TO.P,S3,1,COM_1*%
%TO.N,GND*%
X168029311Y-98873505D03*
D11*
%TO.P,S3,2,NO*%
%TO.N,/BTN2*%
X167610337Y-100024629D03*
D10*
%TO.P,S3,3,COM_2*%
%TO.N,GND*%
X167191362Y-101175752D03*
D12*
%TO.P,S3,4,4*%
%TO.N,unconnected-(S3-Pad4)*%
X168810000Y-102430000D03*
%TO.P,S3,5,5*%
%TO.N,unconnected-(S3-Pad5)*%
X170075474Y-98953137D03*
%TD*%
D13*
%TO.P,C1,1*%
%TO.N,/Y4*%
X134792500Y-80250000D03*
%TO.P,C1,2*%
%TO.N,/X3*%
X133832500Y-80250000D03*
%TD*%
D14*
%TO.P,U2,1,PD3*%
%TO.N,/?\u002C?*%
X118150000Y-89750000D03*
%TO.P,U2,2,PD4*%
%TO.N,unconnected-(U2-PD4-Pad2)*%
X118150000Y-90550000D03*
%TO.P,U2,3,GND*%
%TO.N,GND*%
X118150000Y-91350000D03*
%TO.P,U2,4,VCC*%
%TO.N,+BATT*%
X118150000Y-92150000D03*
%TO.P,U2,5,GND*%
%TO.N,GND*%
X118150000Y-92950000D03*
%TO.P,U2,6,VCC*%
%TO.N,+BATT*%
X118150000Y-93750000D03*
%TO.P,U2,7,XTAL1/PB6*%
%TO.N,/2\u002C6*%
X118150000Y-94550000D03*
%TO.P,U2,8,XTAL2/PB7*%
%TO.N,/2\u002C7*%
X118150000Y-95350000D03*
D15*
%TO.P,U2,9,PD5*%
%TO.N,/BTN5*%
X119600000Y-96800000D03*
%TO.P,U2,10,PD6*%
%TO.N,/BTN4*%
X120400000Y-96800000D03*
%TO.P,U2,11,PD7*%
%TO.N,/BTN3*%
X121200000Y-96800000D03*
%TO.P,U2,12,PB0*%
%TO.N,/BTN2*%
X122000000Y-96800000D03*
%TO.P,U2,13,PB1*%
%TO.N,/BTN1*%
X122800000Y-96800000D03*
%TO.P,U2,14,PB2*%
%TO.N,/BTN0*%
X123600000Y-96800000D03*
%TO.P,U2,15,PB3*%
%TO.N,/MOSI*%
X124400000Y-96800000D03*
%TO.P,U2,16,PB4*%
%TO.N,/MISO*%
X125200000Y-96800000D03*
D14*
%TO.P,U2,17,PB5*%
%TO.N,/SCK*%
X126650000Y-95350000D03*
%TO.P,U2,18,AVCC*%
%TO.N,unconnected-(U2-AVCC-Pad18)*%
X126650000Y-94550000D03*
%TO.P,U2,19,ADC6*%
%TO.N,unconnected-(U2-ADC6-Pad19)*%
X126650000Y-93750000D03*
%TO.P,U2,20,AREF*%
%TO.N,unconnected-(U2-AREF-Pad20)*%
X126650000Y-92950000D03*
%TO.P,U2,21,GND*%
%TO.N,GND*%
X126650000Y-92150000D03*
%TO.P,U2,22,ADC7*%
%TO.N,unconnected-(U2-ADC7-Pad22)*%
X126650000Y-91350000D03*
%TO.P,U2,23,PC0*%
%TO.N,/BTN6*%
X126650000Y-90550000D03*
%TO.P,U2,24,PC1*%
%TO.N,/BTN7*%
X126650000Y-89750000D03*
D15*
%TO.P,U2,25,PC2*%
%TO.N,/1\u002C4*%
X125200000Y-88300000D03*
%TO.P,U2,26,PC3*%
%TO.N,/4\u002C4*%
X124400000Y-88300000D03*
%TO.P,U2,27,PC4*%
%TO.N,/2\u002C5*%
X123600000Y-88300000D03*
%TO.P,U2,28,PC5*%
%TO.N,/2\u002C4*%
X122800000Y-88300000D03*
%TO.P,U2,29,~{RESET}/PC6*%
%TO.N,/RESET*%
X122000000Y-88300000D03*
%TO.P,U2,30,PD0*%
%TO.N,/TX*%
X121200000Y-88300000D03*
%TO.P,U2,31,PD1*%
%TO.N,/RX*%
X120400000Y-88300000D03*
%TO.P,U2,32,PD2*%
%TO.N,/3\u002C4*%
X119600000Y-88300000D03*
%TD*%
D16*
%TO.P,U9,1,1*%
%TO.N,/DTR*%
X127366667Y-102500000D03*
%TD*%
D17*
%TO.P,R17,1*%
%TO.N,Net-(J8-CC1)*%
X138270000Y-116950000D03*
%TO.P,R17,2*%
%TO.N,GND*%
X137630000Y-116950000D03*
%TD*%
D18*
%TO.P,R9,1*%
%TO.N,Net-(D1-K)*%
X130824996Y-88349999D03*
%TO.P,R9,2*%
%TO.N,Net-(JP1-A)*%
X131464996Y-88349999D03*
%TD*%
D19*
%TO.P,X\u00BF1,1,1*%
%TO.N,Net-(C10-Pad1)*%
X132200000Y-97600000D03*
%TD*%
D16*
%TO.P,U16,1,1*%
%TO.N,/RESET*%
X131760000Y-75290000D03*
%TD*%
D13*
%TO.P,C15,1*%
%TO.N,/Y6*%
X142760000Y-95800000D03*
%TO.P,C15,2*%
%TO.N,Net-(U4-NC2)*%
X141800000Y-95800000D03*
%TD*%
D20*
%TO.P,C14,1*%
%TO.N,/X2*%
X141805000Y-99070000D03*
%TO.P,C14,2*%
%TO.N,/Y7*%
X142765000Y-99070000D03*
%TD*%
D13*
%TO.P,C6,1*%
%TO.N,Net-(U3-NC1)*%
X134797500Y-87000000D03*
%TO.P,C6,2*%
%TO.N,/X2*%
X133837500Y-87000000D03*
%TD*%
D21*
%TO.P,D4,1,K*%
%TO.N,Net-(D4-K)*%
X130430000Y-83455000D03*
%TO.P,D4,2,A*%
%TO.N,/4\u002C4*%
X130430000Y-82815000D03*
%TD*%
%TO.P,C22,1*%
%TO.N,Net-(U14-VCC)*%
X135700000Y-103675000D03*
%TO.P,C22,2*%
%TO.N,GND*%
X135700000Y-103035000D03*
%TD*%
D22*
%TO.P,S5,1,COM_1*%
%TO.N,GND*%
X163262785Y-107930978D03*
D23*
%TO.P,S5,2,NO*%
%TO.N,/BTN4*%
X162475371Y-108869382D03*
D22*
%TO.P,S5,3,COM_2*%
%TO.N,GND*%
X161687956Y-109807787D03*
D24*
%TO.P,S5,4,4*%
%TO.N,unconnected-(S5-Pad4)*%
X162780000Y-111540000D03*
%TO.P,S5,5,5*%
%TO.N,unconnected-(S5-Pad5)*%
X165158314Y-108705636D03*
%TD*%
D19*
%TO.P,USB5,1,1*%
%TO.N,Net-(U14-VCC)*%
X142600000Y-107500000D03*
%TD*%
D18*
%TO.P,R4,1*%
%TO.N,GND*%
X122035000Y-83900000D03*
%TO.P,R4,2*%
%TO.N,/4\u002C4*%
X122675000Y-83900000D03*
%TD*%
D16*
%TO.P,U10,1,1*%
%TO.N,GND*%
X130700000Y-102500000D03*
%TD*%
D18*
%TO.P,R10,1*%
%TO.N,Net-(D2-K)*%
X130824996Y-87369999D03*
%TO.P,R10,2*%
%TO.N,Net-(JP1-A)*%
X131464996Y-87369999D03*
%TD*%
D21*
%TO.P,R1,1*%
%TO.N,GND*%
X129655000Y-91220000D03*
%TO.P,R1,2*%
%TO.N,/2\u002C7*%
X129655000Y-90580000D03*
%TD*%
D18*
%TO.P,R5,1*%
%TO.N,GND*%
X122035000Y-84800000D03*
%TO.P,R5,2*%
%TO.N,/2\u002C5*%
X122675000Y-84800000D03*
%TD*%
D20*
%TO.P,C4,1*%
%TO.N,Net-(U1-COM2)*%
X141795000Y-81770000D03*
%TO.P,C4,2*%
%TO.N,/X4*%
X142755000Y-81770000D03*
%TD*%
D25*
%TO.P,C19,1*%
%TO.N,GND*%
X132920000Y-103035000D03*
%TO.P,C19,2*%
%TO.N,Net-(U14-V3)*%
X132920000Y-103675000D03*
%TD*%
D26*
%TO.P,S1,1,COM_1*%
%TO.N,GND*%
X169370000Y-88875000D03*
D27*
%TO.P,S1,2,NO*%
%TO.N,/BTN0*%
X169370000Y-90100000D03*
D26*
%TO.P,S1,3,COM_2*%
%TO.N,GND*%
X169370000Y-91325000D03*
D28*
%TO.P,S1,4,4*%
%TO.N,unconnected-(S1-Pad4)*%
X171320000Y-91950000D03*
%TO.P,S1,5,5*%
%TO.N,unconnected-(S1-Pad5)*%
X171320000Y-88250000D03*
%TD*%
D19*
%TO.P,Y\u00BF1,1,1*%
%TO.N,Net-(U5-NC1)*%
X131900000Y-95300000D03*
%TD*%
D18*
%TO.P,R13,1*%
%TO.N,Net-(D5-K)*%
X130824996Y-86389999D03*
%TO.P,R13,2*%
%TO.N,Net-(JP1-A)*%
X131464996Y-86389999D03*
%TD*%
D19*
%TO.P,X1,1,1*%
%TO.N,/X4*%
X146830000Y-85650000D03*
%TD*%
D25*
%TO.P,R15,1*%
%TO.N,Net-(D7-K)*%
X131430000Y-84585000D03*
%TO.P,R15,2*%
%TO.N,Net-(JP1-A)*%
X131430000Y-85225000D03*
%TD*%
D16*
%TO.P,U7,1,1*%
%TO.N,/MISO*%
X125633333Y-75290000D03*
%TD*%
D29*
%TO.P,JP1,1,A*%
%TO.N,Net-(JP1-A)*%
X126510000Y-81980000D03*
D30*
%TO.P,JP1,2,B*%
%TO.N,GND*%
X126510000Y-80680000D03*
%TD*%
D31*
%TO.P,J8,A1,GND*%
%TO.N,GND*%
X136730000Y-118955000D03*
%TO.P,J8,A4,VBUS*%
%TO.N,Net-(U14-VCC)*%
X137530000Y-118955000D03*
D32*
%TO.P,J8,A5,CC1*%
%TO.N,Net-(J8-CC1)*%
X138730000Y-118955000D03*
%TO.P,J8,A6,D+*%
%TO.N,Net-(U14-UD+)*%
X139730000Y-118955000D03*
%TO.P,J8,A7,D-*%
%TO.N,Net-(U14-UD-)*%
X140230000Y-118955000D03*
%TO.P,J8,A8,SBU1*%
%TO.N,unconnected-(J8-SBU1-PadA8)*%
X141230000Y-118955000D03*
D31*
%TO.P,J8,A9,VBUS*%
%TO.N,Net-(U14-VCC)*%
X142430000Y-118955000D03*
%TO.P,J8,A12,GND*%
%TO.N,GND*%
X143230000Y-118955000D03*
%TO.P,J8,B1,GND*%
X143230000Y-118955000D03*
%TO.P,J8,B4,VBUS*%
%TO.N,Net-(U14-VCC)*%
X142430000Y-118955000D03*
D32*
%TO.P,J8,B5,CC2*%
%TO.N,Net-(J8-CC2)*%
X141730000Y-118955000D03*
%TO.P,J8,B6,D+*%
%TO.N,Net-(U14-UD+)*%
X140730000Y-118955000D03*
%TO.P,J8,B7,D-*%
%TO.N,Net-(U14-UD-)*%
X139230000Y-118955000D03*
%TO.P,J8,B8,SBU2*%
%TO.N,unconnected-(J8-SBU2-PadB8)*%
X138230000Y-118955000D03*
D31*
%TO.P,J8,B9,VBUS*%
%TO.N,Net-(U14-VCC)*%
X137530000Y-118955000D03*
%TO.P,J8,B12,GND*%
%TO.N,GND*%
X136730000Y-118955000D03*
D33*
%TO.P,J8,S1,SHIELD*%
X135660000Y-119870000D03*
D34*
X135660000Y-124050000D03*
D33*
X144300000Y-119870000D03*
D34*
X144300000Y-124050000D03*
%TD*%
D25*
%TO.P,R11,1*%
%TO.N,Net-(D3-K)*%
X128430000Y-84585000D03*
%TO.P,R11,2*%
%TO.N,Net-(JP1-A)*%
X128430000Y-85225000D03*
%TD*%
%TO.P,R14,1*%
%TO.N,Net-(D6-K)*%
X129430000Y-84585000D03*
%TO.P,R14,2*%
%TO.N,Net-(JP1-A)*%
X129430000Y-85225000D03*
%TD*%
D17*
%TO.P,D2,1,K*%
%TO.N,Net-(D2-K)*%
X129739997Y-87369999D03*
%TO.P,D2,2,A*%
%TO.N,/2\u002C6*%
X129099997Y-87369999D03*
%TD*%
D19*
%TO.P,V1,1,1*%
%TO.N,+BATT*%
X157750000Y-100070000D03*
%TD*%
%TO.P,Y4,1,1*%
%TO.N,/Y4*%
X132400000Y-91000000D03*
%TD*%
D35*
%TO.P,U14,1,UD+*%
%TO.N,Net-(U14-UD+)*%
X133200000Y-109800000D03*
%TO.P,U14,2,UD-*%
%TO.N,Net-(U14-UD-)*%
X133700000Y-109800000D03*
%TO.P,U14,3,GND*%
%TO.N,GND*%
X134200000Y-109800000D03*
%TO.P,U14,4,~{RTS}*%
%TO.N,/DTR*%
X134700000Y-109800000D03*
%TO.P,U14,5,~{CTS}*%
%TO.N,unconnected-(U14-~{CTS}-Pad5)*%
X135200000Y-109800000D03*
%TO.P,U14,6,TNOW*%
%TO.N,unconnected-(U14-TNOW-Pad6)*%
X135200000Y-105400000D03*
%TO.P,U14,7,VCC*%
%TO.N,Net-(U14-VCC)*%
X134700000Y-105400000D03*
%TO.P,U14,8,TXD*%
%TO.N,/RX*%
X134200000Y-105400000D03*
%TO.P,U14,9,RXD*%
%TO.N,/TX*%
X133700000Y-105400000D03*
%TO.P,U14,10,V3*%
%TO.N,Net-(U14-V3)*%
X133200000Y-105400000D03*
%TD*%
D21*
%TO.P,R16,1*%
%TO.N,Net-(J8-CC2)*%
X141735000Y-117130000D03*
%TO.P,R16,2*%
%TO.N,GND*%
X141735000Y-116490000D03*
%TD*%
D18*
%TO.P,R3,1*%
%TO.N,GND*%
X122060000Y-83000000D03*
%TO.P,R3,2*%
%TO.N,/1\u002C4*%
X122700000Y-83000000D03*
%TD*%
D16*
%TO.P,U11,1,1*%
%TO.N,/TX*%
X124033334Y-102500000D03*
%TD*%
%TO.P,U15,1,1*%
%TO.N,+BATT*%
X119360000Y-83860000D03*
%TD*%
%TO.P,U12,1,1*%
%TO.N,/RX*%
X120700001Y-102500000D03*
%TD*%
D36*
%TO.P,J7,1,Pin_1*%
%TO.N,/BTN0*%
X145910000Y-102540000D03*
%TO.P,J7,2,Pin_2*%
%TO.N,/BTN1*%
X145910000Y-102977500D03*
%TO.P,J7,3,Pin_3*%
%TO.N,/BTN2*%
X145910000Y-103415000D03*
%TO.P,J7,4,Pin_4*%
%TO.N,/BTN3*%
X145910000Y-103852500D03*
%TO.P,J7,5,Pin_5*%
%TO.N,/BTN4*%
X145910000Y-104290000D03*
%TO.P,J7,6,Pin_6*%
%TO.N,/BTN5*%
X145910000Y-104727500D03*
%TO.P,J7,7,Pin_7*%
%TO.N,/BTN6*%
X145910000Y-105165000D03*
%TO.P,J7,8,Pin_8*%
%TO.N,/BTN7*%
X145910000Y-105602500D03*
%TO.P,J7,9,Pin_9*%
%TO.N,GND*%
X145910000Y-106040000D03*
%TD*%
D20*
%TO.P,C13,1*%
%TO.N,/X2*%
X141800000Y-94800000D03*
%TO.P,C13,2*%
%TO.N,/Y6*%
X142760000Y-94800000D03*
%TD*%
D13*
%TO.P,C12,1*%
%TO.N,Net-(U5-NC1)*%
X134817500Y-98000000D03*
%TO.P,C12,2*%
%TO.N,Net-(C10-Pad1)*%
X133857500Y-98000000D03*
%TD*%
D17*
%TO.P,D5,1,K*%
%TO.N,Net-(D5-K)*%
X129739997Y-86389999D03*
%TO.P,D5,2,A*%
%TO.N,/2\u002C5*%
X129099997Y-86389999D03*
%TD*%
D37*
%TO.P,U1,1,NC1*%
%TO.N,/Y4*%
X136375000Y-80750000D03*
%TO.P,U1,2,COM1*%
%TO.N,Net-(U1-COM1)*%
X136375000Y-81250000D03*
%TO.P,U1,3,IN2*%
%TO.N,/4\u002C4*%
X136375000Y-81750000D03*
%TO.P,U1,4,GND*%
%TO.N,GND*%
X136375000Y-82250000D03*
%TO.P,U1,5,NC2*%
%TO.N,/Y4*%
X139475000Y-82250000D03*
%TO.P,U1,6,COM2*%
%TO.N,Net-(U1-COM2)*%
X139475000Y-81750000D03*
%TO.P,U1,7,IN1*%
%TO.N,/3\u002C4*%
X139475000Y-81250000D03*
%TO.P,U1,8,VCC*%
%TO.N,+BATT*%
X139475000Y-80750000D03*
%TD*%
D21*
%TO.P,D6,1,K*%
%TO.N,Net-(D6-K)*%
X129430000Y-83455000D03*
%TO.P,D6,2,A*%
%TO.N,/2\u002C4*%
X129430000Y-82815000D03*
%TD*%
D29*
%TO.P,JP2,1,A*%
%TO.N,Net-(J4-GND)*%
X145899999Y-79880000D03*
D30*
%TO.P,JP2,2,B*%
%TO.N,GND*%
X145899999Y-78580000D03*
%TD*%
D21*
%TO.P,D7,1,K*%
%TO.N,Net-(D7-K)*%
X131430000Y-83455000D03*
%TO.P,D7,2,A*%
%TO.N,/3\u002C4*%
X131430000Y-82815000D03*
%TD*%
D38*
%TO.P,S2,1,COM_1*%
%TO.N,GND*%
X169123593Y-93913102D03*
D39*
%TO.P,S2,2,NO*%
%TO.N,/BTN1*%
X168910874Y-95119492D03*
D38*
%TO.P,S2,3,COM_2*%
%TO.N,GND*%
X168698155Y-96325881D03*
D40*
%TO.P,S2,4,4*%
%TO.N,unconnected-(S2-Pad4)*%
X170510000Y-97280000D03*
%TO.P,S2,5,5*%
%TO.N,unconnected-(S2-Pad5)*%
X171152497Y-93636211D03*
%TD*%
D17*
%TO.P,D1,1,K*%
%TO.N,Net-(D1-K)*%
X129739997Y-88349999D03*
%TO.P,D1,2,A*%
%TO.N,/2\u002C7*%
X129099997Y-88349999D03*
%TD*%
D19*
%TO.P,X2,1,1*%
%TO.N,/Y7*%
X148890000Y-98460000D03*
%TD*%
D41*
%TO.P,J2,1,Pin_1*%
%TO.N,GND*%
X152070000Y-105050000D03*
%TO.P,J2,2,Pin_2*%
%TO.N,Net-(J2-Pin_2)*%
X154320000Y-105050000D03*
%TD*%
D20*
%TO.P,C10,1*%
%TO.N,Net-(C10-Pad1)*%
X133857500Y-99000000D03*
%TO.P,C10,2*%
%TO.N,Net-(U5-COM1)*%
X134817500Y-99000000D03*
%TD*%
D19*
%TO.P,D-1,1,1*%
%TO.N,Net-(U14-UD-)*%
X139000000Y-111100000D03*
%TD*%
D13*
%TO.P,C11,1*%
%TO.N,Net-(U4-NC1)*%
X134797500Y-93300000D03*
%TO.P,C11,2*%
%TO.N,/Y5*%
X133837500Y-93300000D03*
%TD*%
D21*
%TO.P,C21,1*%
%TO.N,Net-(U14-VCC)*%
X134900000Y-103675000D03*
%TO.P,C21,2*%
%TO.N,GND*%
X134900000Y-103035000D03*
%TD*%
D19*
%TO.P,USBG1,1,1*%
%TO.N,GND*%
X139000000Y-107500000D03*
%TD*%
D42*
%TO.P,C20,1*%
%TO.N,Net-(U14-VCC)*%
X133900000Y-103835000D03*
%TO.P,C20,2*%
%TO.N,GND*%
X133900000Y-102875000D03*
%TD*%
D19*
%TO.P,X2,1,1*%
%TO.N,/X2*%
X137000000Y-101700000D03*
%TD*%
D25*
%TO.P,R12,1*%
%TO.N,Net-(D4-K)*%
X130430000Y-84585000D03*
%TO.P,R12,2*%
%TO.N,Net-(JP1-A)*%
X130430000Y-85225000D03*
%TD*%
D43*
%TO.P,U13,1,1*%
%TO.N,GND*%
X153120000Y-108850000D03*
%TD*%
D20*
%TO.P,C7,1*%
%TO.N,Net-(U3-COM2)*%
X141800000Y-88500000D03*
%TO.P,C7,2*%
%TO.N,/X1*%
X142760000Y-88500000D03*
%TD*%
%TO.P,C9,1*%
%TO.N,/Y5*%
X133837500Y-94300000D03*
%TO.P,C9,2*%
%TO.N,/X2*%
X134797500Y-94300000D03*
%TD*%
D37*
%TO.P,U5,1,NC1*%
%TO.N,Net-(U5-NC1)*%
X136400000Y-98500000D03*
%TO.P,U5,2,COM1*%
%TO.N,Net-(U5-COM1)*%
X136400000Y-99000000D03*
%TO.P,U5,3,IN2*%
%TO.N,/2\u002C7*%
X136400000Y-99500000D03*
%TO.P,U5,4,GND*%
%TO.N,GND*%
X136400000Y-100000000D03*
%TO.P,U5,5,NC2*%
%TO.N,Net-(U5-NC2)*%
X139500000Y-100000000D03*
%TO.P,U5,6,COM2*%
%TO.N,/X2*%
X139500000Y-99500000D03*
%TO.P,U5,7,IN1*%
%TO.N,/?\u002C?*%
X139500000Y-99000000D03*
%TO.P,U5,8,VCC*%
%TO.N,+BATT*%
X139500000Y-98500000D03*
%TD*%
D21*
%TO.P,C18,1*%
%TO.N,/DTR*%
X128850000Y-99510000D03*
%TO.P,C18,2*%
%TO.N,/RESET*%
X128850000Y-98870000D03*
%TD*%
D13*
%TO.P,C3,1*%
%TO.N,/X4*%
X142755000Y-82820000D03*
%TO.P,C3,2*%
%TO.N,/Y4*%
X141795000Y-82820000D03*
%TD*%
D20*
%TO.P,C2,1*%
%TO.N,/X3*%
X133832500Y-81250000D03*
%TO.P,C2,2*%
%TO.N,Net-(U1-COM1)*%
X134792500Y-81250000D03*
%TD*%
D37*
%TO.P,U4,1,NC1*%
%TO.N,Net-(U4-NC1)*%
X136380000Y-93750000D03*
%TO.P,U4,2,COM1*%
%TO.N,/X2*%
X136380000Y-94250000D03*
%TO.P,U4,3,IN2*%
%TO.N,/2\u002C6*%
X136380000Y-94750000D03*
%TO.P,U4,4,GND*%
%TO.N,GND*%
X136380000Y-95250000D03*
%TO.P,U4,5,NC2*%
%TO.N,Net-(U4-NC2)*%
X139480000Y-95250000D03*
%TO.P,U4,6,COM2*%
%TO.N,/X2*%
X139480000Y-94750000D03*
%TO.P,U4,7,IN1*%
%TO.N,/2\u002C5*%
X139480000Y-94250000D03*
%TO.P,U4,8,VCC*%
%TO.N,+BATT*%
X139480000Y-93750000D03*
%TD*%
%TO.P,U3,1,NC1*%
%TO.N,Net-(U3-NC1)*%
X136380000Y-87500000D03*
%TO.P,U3,2,COM1*%
%TO.N,/Y4*%
X136380000Y-88000000D03*
%TO.P,U3,3,IN2*%
%TO.N,/1\u002C4*%
X136380000Y-88500000D03*
%TO.P,U3,4,GND*%
%TO.N,GND*%
X136380000Y-89000000D03*
%TO.P,U3,5,NC2*%
%TO.N,/Y4*%
X139480000Y-89000000D03*
%TO.P,U3,6,COM2*%
%TO.N,Net-(U3-COM2)*%
X139480000Y-88500000D03*
%TO.P,U3,7,IN1*%
%TO.N,/2\u002C4*%
X139480000Y-88000000D03*
%TO.P,U3,8,VCC*%
%TO.N,+BATT*%
X139480000Y-87500000D03*
%TD*%
D44*
%TO.P,R27,1*%
%TO.N,+BATT*%
X152480000Y-100870000D03*
%TO.P,R27,2*%
%TO.N,Net-(J2-Pin_2)*%
X154305000Y-100870000D03*
%TD*%
D16*
%TO.P,U8,1,1*%
%TO.N,/SCK*%
X128696666Y-75290000D03*
%TD*%
D20*
%TO.P,C5,1*%
%TO.N,/X2*%
X133837500Y-88000000D03*
%TO.P,C5,2*%
%TO.N,/Y4*%
X134797500Y-88000000D03*
%TD*%
D18*
%TO.P,R7,1*%
%TO.N,+BATT*%
X116580000Y-86280000D03*
%TO.P,R7,2*%
%TO.N,/RESET*%
X117220000Y-86280000D03*
%TD*%
D45*
%TO.P,J4,1,Y0*%
%TO.N,unconnected-(J4-Y0-Pad1)*%
X151220000Y-95470000D03*
%TO.P,J4,2,Y1*%
%TO.N,unconnected-(J4-Y1-Pad2)*%
X151220000Y-94970000D03*
%TO.P,J4,3,Y2*%
%TO.N,unconnected-(J4-Y2-Pad3)*%
X151220000Y-94470000D03*
%TO.P,J4,4,Y10*%
%TO.N,unconnected-(J4-Y10-Pad4)*%
X151220000Y-93970000D03*
%TO.P,J4,5,Y9*%
%TO.N,unconnected-(J4-Y9-Pad5)*%
X151220000Y-93470000D03*
%TO.P,J4,6,Y3*%
%TO.N,unconnected-(J4-Y3-Pad6)*%
X151220000Y-92970000D03*
%TO.P,J4,7,Y8*%
%TO.N,unconnected-(J4-Y8-Pad7)*%
X151220000Y-92470000D03*
%TO.P,J4,8,Y7*%
%TO.N,/Y7*%
X151220000Y-91970000D03*
%TO.P,J4,9,Y6*%
%TO.N,/Y6*%
X151220000Y-91470000D03*
%TO.P,J4,10,Y5*%
%TO.N,/Y5*%
X151220000Y-90970000D03*
%TO.P,J4,11,Y4*%
%TO.N,/Y4*%
X151220000Y-90470000D03*
%TO.P,J4,12,NC*%
%TO.N,unconnected-(J4-NC-Pad12)*%
X151220000Y-89970000D03*
%TO.P,J4,13,X1*%
%TO.N,/X1*%
X151220000Y-89470000D03*
%TO.P,J4,14,X2*%
%TO.N,/X2*%
X151220000Y-88970000D03*
%TO.P,J4,15,X3*%
%TO.N,/X3*%
X151220000Y-88470000D03*
%TO.P,J4,16,X4*%
%TO.N,/X4*%
X151220000Y-87970000D03*
%TO.P,J4,17,X8*%
%TO.N,unconnected-(J4-X8-Pad17)*%
X151220000Y-87470000D03*
%TO.P,J4,18,X7*%
%TO.N,unconnected-(J4-X7-Pad18)*%
X151220000Y-86970000D03*
%TO.P,J4,19,X5*%
%TO.N,unconnected-(J4-X5-Pad19)*%
X151220000Y-86470000D03*
%TO.P,J4,20,X6*%
%TO.N,unconnected-(J4-X6-Pad20)*%
X151220000Y-85970000D03*
%TO.P,J4,21,X0*%
%TO.N,unconnected-(J4-X0-Pad21)*%
X151220000Y-85470000D03*
%TO.P,J4,22,NC*%
%TO.N,unconnected-(J4-NC-Pad22)*%
X151220000Y-84970000D03*
%TO.P,J4,23,GND*%
%TO.N,Net-(J4-GND)*%
X151220000Y-84470000D03*
%TO.P,J4,24,GL*%
%TO.N,unconnected-(J4-GL-Pad24)*%
X151220000Y-83970000D03*
D46*
%TO.P,J4,seat1*%
%TO.N,unconnected-(J4-Padseat1)*%
X153120000Y-97745000D03*
%TO.P,J4,seat2*%
%TO.N,unconnected-(J4-Padseat2)*%
X153120000Y-81695000D03*
%TD*%
D21*
%TO.P,D3,1,K*%
%TO.N,Net-(D3-K)*%
X128430000Y-83455000D03*
%TO.P,D3,2,A*%
%TO.N,/1\u002C4*%
X128430000Y-82815000D03*
%TD*%
D13*
%TO.P,C16,1*%
%TO.N,/Y7*%
X142785000Y-100070000D03*
%TO.P,C16,2*%
%TO.N,Net-(U5-NC2)*%
X141825000Y-100070000D03*
%TD*%
D16*
%TO.P,U6,1,1*%
%TO.N,/MOSI*%
X122570000Y-75290000D03*
%TD*%
D17*
%TO.P,R8,1*%
%TO.N,GND*%
X121940000Y-81200000D03*
%TO.P,R8,2*%
%TO.N,/3\u002C4*%
X121300000Y-81200000D03*
%TD*%
D21*
%TO.P,R2,1*%
%TO.N,GND*%
X130555000Y-91220000D03*
%TO.P,R2,2*%
%TO.N,/2\u002C6*%
X130555000Y-90580000D03*
%TD*%
D13*
%TO.P,C8,1*%
%TO.N,/X1*%
X142760000Y-89500000D03*
%TO.P,C8,2*%
%TO.N,/Y4*%
X141800000Y-89500000D03*
%TD*%
D18*
%TO.P,R6,1*%
%TO.N,GND*%
X122035000Y-85700000D03*
%TO.P,R6,2*%
%TO.N,/2\u002C4*%
X122675000Y-85700000D03*
%TD*%
D19*
%TO.P,D+1,1,1*%
%TO.N,Net-(U14-UD+)*%
X142600000Y-111100000D03*
%TD*%
D13*
%TO.P,C17,1*%
%TO.N,GND*%
X116550000Y-92910000D03*
%TO.P,C17,2*%
%TO.N,+BATT*%
X115590000Y-92910000D03*
%TD*%
D47*
%TO.P,S4,1,COM_1*%
%TO.N,GND*%
X166028751Y-103571972D03*
D48*
%TO.P,S4,2,NO*%
%TO.N,/BTN3*%
X165416251Y-104632853D03*
D47*
%TO.P,S4,3,COM_2*%
%TO.N,GND*%
X164803751Y-105693734D03*
D49*
%TO.P,S4,4,4*%
%TO.N,unconnected-(S4-Pad4)*%
X166180000Y-107210000D03*
%TO.P,S4,5,5*%
%TO.N,unconnected-(S4-Pad5)*%
X168030000Y-104005706D03*
%TD*%
D50*
%TO.N,GND*%
X142934000Y-116950000D03*
X130700000Y-106140000D03*
X150330000Y-103850000D03*
X169470000Y-97900000D03*
X136400000Y-89700000D03*
X164950000Y-107460000D03*
X130810000Y-108710000D03*
X139840000Y-116940000D03*
X141750000Y-115490000D03*
X136400000Y-96300000D03*
X170350000Y-92720000D03*
X152070000Y-102540000D03*
X128120000Y-92150000D03*
X157300000Y-106460000D03*
X136720000Y-84420000D03*
X150320000Y-106140000D03*
X122100000Y-82200000D03*
X167820000Y-88250000D03*
X116610000Y-91350000D03*
X150330000Y-105050000D03*
X136700000Y-116950000D03*
X135500000Y-100900000D03*
X143030000Y-106240000D03*
X167718788Y-102899727D03*
X142910000Y-109250000D03*
X160370000Y-108690000D03*
%TO.N,+BATT*%
X143935000Y-96590000D03*
X148110000Y-96570000D03*
X143935000Y-80190000D03*
X143960000Y-92990000D03*
X143960000Y-86990000D03*
X151300000Y-100870000D03*
X121570000Y-79770000D03*
%TO.N,/MOSI*%
X120610000Y-78030000D03*
X123100000Y-95460000D03*
%TO.N,/SCK*%
X121595000Y-78805000D03*
X123190891Y-94133009D03*
%TO.N,/MISO*%
X123124822Y-94782057D03*
X121282750Y-78172750D03*
%TO.N,/RX*%
X121600000Y-90660000D03*
X127546386Y-97799877D03*
%TO.N,/TX*%
X128198412Y-97822046D03*
X121780000Y-89860000D03*
%TO.N,/BTN3*%
X142330000Y-102800000D03*
X121200000Y-98300000D03*
X162260000Y-99990000D03*
%TO.N,/BTN1*%
X122800000Y-98300000D03*
X164500000Y-91840000D03*
X141030000Y-101650000D03*
%TO.N,/BTN5*%
X142560853Y-104243618D03*
X119600000Y-98300000D03*
%TO.N,/BTN4*%
X120400000Y-98300000D03*
X160040000Y-104420000D03*
X142564209Y-103527497D03*
%TO.N,/BTN7*%
X142620000Y-105610000D03*
X121230000Y-95250000D03*
%TO.N,/BTN0*%
X164210000Y-87930000D03*
X140350000Y-101310000D03*
X123600000Y-98300000D03*
%TO.N,/BTN2*%
X141750000Y-102160000D03*
X122000000Y-98300000D03*
X163630000Y-96210000D03*
%TO.N,/BTN6*%
X142608809Y-104908427D03*
X121966382Y-95273618D03*
%TO.N,Net-(U14-VCC)*%
X142000000Y-121550000D03*
X137900000Y-121550000D03*
%TO.N,Net-(U14-UD+)*%
X133000000Y-111100000D03*
X141210000Y-111990000D03*
%TO.N,/?\u002C?*%
X118940000Y-87090000D03*
X122010000Y-80330000D03*
X117940000Y-81290000D03*
X141710000Y-98090000D03*
%TO.N,/RESET*%
X130045000Y-77835000D03*
X128850185Y-97793399D03*
X118030000Y-86280000D03*
X122392526Y-89635407D03*
%TO.N,/DTR*%
X131990000Y-106390000D03*
X132000000Y-108200000D03*
%TO.N,/1\u002C4*%
X125200000Y-83900000D03*
X128420000Y-82110000D03*
X135000000Y-89200000D03*
%TO.N,/4\u002C4*%
X135000000Y-82300000D03*
X130440000Y-81510000D03*
X124400000Y-84800000D03*
%TO.N,/2\u002C4*%
X122800000Y-86500000D03*
X129450000Y-80354000D03*
X141000000Y-87750000D03*
%TO.N,/3\u002C4*%
X121100000Y-86800000D03*
X131410000Y-79876000D03*
X121200000Y-82000000D03*
X140975000Y-80950000D03*
%TO.N,/2\u002C7*%
X119810000Y-94620000D03*
X124527018Y-90157018D03*
X135000000Y-100000000D03*
X128260000Y-90680000D03*
D51*
X117230000Y-96450000D03*
%TO.N,/2\u002C6*%
X116100000Y-96420000D03*
D50*
X135000000Y-95530000D03*
X126530000Y-87770000D03*
X123230000Y-89940000D03*
X119520000Y-93880000D03*
X130550000Y-89610000D03*
%TO.N,/2\u002C5*%
X126470000Y-86380000D03*
X141000000Y-94000000D03*
X123600000Y-85800000D03*
%TD*%
D52*
%TO.N,Net-(J4-GND)*%
X145899999Y-79880000D02*
X145899999Y-84109999D01*
X146240000Y-84450000D02*
X151200000Y-84450000D01*
X145899999Y-84109999D02*
X146240000Y-84450000D01*
X151200000Y-84450000D02*
X151220000Y-84470000D01*
%TO.N,Net-(U1-COM2)*%
X141955000Y-81770000D02*
X139495000Y-81770000D01*
X139495000Y-81770000D02*
X139475000Y-81750000D01*
%TO.N,Net-(U3-NC1)*%
X135880000Y-87000000D02*
X136380000Y-87500000D01*
X134637500Y-87000000D02*
X135880000Y-87000000D01*
%TO.N,Net-(U3-COM2)*%
X141960000Y-88500000D02*
X139480000Y-88500000D01*
%TO.N,Net-(U4-NC1)*%
X134637500Y-93300000D02*
X135930000Y-93300000D01*
X135930000Y-93300000D02*
X136380000Y-93750000D01*
%TO.N,Net-(U5-NC1)*%
X134830000Y-97630000D02*
X134830000Y-98000000D01*
X135900000Y-98000000D02*
X136400000Y-98500000D01*
X132500000Y-95300000D02*
X134830000Y-97630000D01*
X134830000Y-98000000D02*
X135900000Y-98000000D01*
X131900000Y-95300000D02*
X132500000Y-95300000D01*
%TO.N,Net-(U4-NC2)*%
X141960000Y-95800000D02*
X140030000Y-95800000D01*
X140030000Y-95800000D02*
X139480000Y-95250000D01*
%TO.N,Net-(U5-NC2)*%
X139500000Y-100000000D02*
X141915000Y-100000000D01*
X141915000Y-100000000D02*
X141985000Y-100070000D01*
%TO.N,GND*%
X136400000Y-95270000D02*
X136380000Y-95250000D01*
X118150000Y-91350000D02*
X116610000Y-91350000D01*
X135920000Y-82750000D02*
X135390000Y-83280000D01*
X130700000Y-102500000D02*
X130700000Y-106140000D01*
X122060000Y-83875000D02*
X122035000Y-83900000D01*
X139000000Y-107500000D02*
X138800000Y-107700000D01*
X135710000Y-84470000D02*
X136120000Y-84220000D01*
X121935000Y-84000000D02*
X122035000Y-83900000D01*
X136375000Y-82250000D02*
X135920000Y-82750000D01*
X118150000Y-92950000D02*
X119030000Y-92950000D01*
X119450000Y-92530000D02*
X119450000Y-91650000D01*
X152070000Y-105050000D02*
X152070000Y-107800000D01*
X123840000Y-79300000D02*
X121940000Y-81200000D01*
X122080000Y-82220000D02*
X122080000Y-82980000D01*
X157300000Y-106460000D02*
X158210000Y-107100000D01*
X169002816Y-97900000D02*
X169470000Y-97900000D01*
X133700000Y-100900000D02*
X132200000Y-99400000D01*
X130300000Y-79300000D02*
X126530000Y-79300000D01*
X138800000Y-107700000D02*
X138800000Y-109100000D01*
X129650000Y-92150000D02*
X126650000Y-92150000D01*
X166700996Y-102899727D02*
X167718788Y-102899727D01*
X130700000Y-100900000D02*
X132200000Y-99400000D01*
X140270000Y-109250000D02*
X139960000Y-109560000D01*
X139840000Y-116940000D02*
X139990000Y-116790000D01*
X133900000Y-103035000D02*
X133100000Y-103035000D01*
X122050000Y-82150000D02*
X122100000Y-82200000D01*
X134360000Y-111390000D02*
X136420000Y-111390000D01*
X134012400Y-108710000D02*
X134200000Y-108897600D01*
X118100000Y-92900000D02*
X118150000Y-92950000D01*
X169123593Y-93913102D02*
X169156898Y-93913102D01*
X135500000Y-103035000D02*
X134700000Y-103035000D01*
X167820000Y-88250000D02*
X168745000Y-88250000D01*
X168745000Y-88250000D02*
X169370000Y-88875000D01*
X141750000Y-115490000D02*
X141750000Y-116475006D01*
X136420000Y-111390000D02*
X136600000Y-111210000D01*
X122060000Y-83000000D02*
X122060000Y-83875000D01*
X130440000Y-79300000D02*
X131110000Y-78630000D01*
X163733763Y-107460000D02*
X164950000Y-107460000D01*
X134200000Y-111230000D02*
X134360000Y-111390000D01*
X135360000Y-84410000D02*
X135710000Y-84470000D01*
X145849999Y-78630000D02*
X145899999Y-78580000D01*
X119030000Y-92950000D02*
X119450000Y-92530000D01*
X164950000Y-105839983D02*
X164803751Y-105693734D01*
X129655000Y-92145000D02*
X129650000Y-92150000D01*
X119150000Y-91350000D02*
X118150000Y-91350000D01*
X138800000Y-109100000D02*
X139100000Y-109400000D01*
X169156898Y-93913102D02*
X170350000Y-92720000D01*
X131110000Y-78630000D02*
X145849999Y-78630000D01*
X139990000Y-116790000D02*
X139990000Y-109590000D01*
X122080000Y-82980000D02*
X122060000Y-83000000D01*
X126510000Y-80680000D02*
X126510000Y-79320000D01*
X170350000Y-92720000D02*
X169370000Y-91740000D01*
X136700000Y-107500000D02*
X139000000Y-107500000D01*
X169470000Y-97900000D02*
X168698155Y-97128155D01*
X136700000Y-116950000D02*
X136700000Y-118925000D01*
X143030000Y-106240000D02*
X143230000Y-106040000D01*
X130700000Y-102500000D02*
X130700000Y-100900000D01*
X166028751Y-103571972D02*
X166700996Y-102899727D01*
X152070000Y-107800000D02*
X153120000Y-108850000D01*
X168029311Y-98873505D02*
X169002816Y-97900000D01*
X136600000Y-107600000D02*
X136700000Y-107500000D01*
X130300000Y-79300000D02*
X130440000Y-79300000D01*
X136700000Y-118925000D02*
X136730000Y-118955000D01*
X135500000Y-100900000D02*
X133900000Y-100900000D01*
X133900000Y-100900000D02*
X133700000Y-100900000D01*
X126510000Y-79320000D02*
X126530000Y-79300000D01*
X143385000Y-118955000D02*
X144300000Y-119870000D01*
X136600000Y-111210000D02*
X136600000Y-107600000D01*
X168698155Y-97128155D02*
X168698155Y-96325881D01*
X143230000Y-118955000D02*
X143230000Y-117246000D01*
X141750000Y-116475006D02*
X141735002Y-116490004D01*
X126530000Y-79300000D02*
X123840000Y-79300000D01*
X136700005Y-116949995D02*
X136700000Y-116950000D01*
X167191362Y-102372301D02*
X167191362Y-101175752D01*
X136400000Y-96300000D02*
X136400000Y-95270000D01*
X134200000Y-109800000D02*
X134200000Y-111230000D01*
X130810000Y-108710000D02*
X134012400Y-108710000D01*
X169370000Y-91740000D02*
X169370000Y-91325000D01*
X136380000Y-89000000D02*
X136380000Y-89680000D01*
X137630002Y-116949995D02*
X136700005Y-116949995D01*
X129655000Y-91220000D02*
X129655000Y-92145000D01*
X164950000Y-107460000D02*
X164950000Y-105839983D01*
X139990000Y-109590000D02*
X139960000Y-109560000D01*
X163262785Y-107930978D02*
X163733763Y-107460000D01*
X136410000Y-84430000D02*
X136680000Y-84420000D01*
X152070000Y-102540000D02*
X152070000Y-105050000D01*
X135390000Y-83280000D02*
X135360000Y-84410000D01*
X119450000Y-91650000D02*
X119150000Y-91350000D01*
X153120000Y-108850000D02*
X152710000Y-109260000D01*
X135500000Y-100900000D02*
X136400000Y-100000000D01*
X136380000Y-89680000D02*
X136400000Y-89700000D01*
X129650000Y-92150000D02*
X130500000Y-93000000D01*
X136730000Y-118955000D02*
X136575000Y-118955000D01*
X161310169Y-109430000D02*
X161687956Y-109807787D01*
X158210000Y-107100000D02*
X159520000Y-107980000D01*
X121940000Y-81200000D02*
X122050000Y-81310000D01*
X167718788Y-102899727D02*
X167191362Y-102372301D01*
X136575000Y-118955000D02*
X135660000Y-119870000D01*
X122035000Y-84800000D02*
X122035000Y-85700000D01*
X143230000Y-118955000D02*
X143385000Y-118955000D01*
X152070000Y-103850000D02*
X150330000Y-103850000D01*
X152060000Y-106140000D02*
X150320000Y-106140000D01*
X134200000Y-108897600D02*
X134200000Y-109800000D01*
X136120000Y-84220000D02*
X136410000Y-84430000D01*
X130500000Y-97000000D02*
X130500000Y-97700000D01*
X143230000Y-117246000D02*
X142934000Y-116950000D01*
X133900000Y-103035000D02*
X134700000Y-103035000D01*
X143230000Y-106040000D02*
X145910000Y-106040000D01*
X122100000Y-82200000D02*
X122080000Y-82220000D01*
X139100000Y-109400000D02*
X139800000Y-109400000D01*
X139800000Y-109400000D02*
X139960000Y-109560000D01*
X159520000Y-107980000D02*
X161687956Y-109807787D01*
X122050000Y-81310000D02*
X122050000Y-82150000D01*
X152070000Y-105050000D02*
X150330000Y-105050000D01*
X133900000Y-102875000D02*
X133900000Y-100900000D01*
X116575000Y-92900000D02*
X118100000Y-92900000D01*
X130500000Y-97700000D02*
X132200000Y-99400000D01*
X122035000Y-83900000D02*
X122035000Y-84800000D01*
X130500000Y-93000000D02*
X130500000Y-97000000D01*
X142910000Y-109250000D02*
X140270000Y-109250000D01*
X130555000Y-91220000D02*
X129655000Y-91220000D01*
%TO.N,+BATT*%
X157300000Y-99610000D02*
X157370000Y-99680000D01*
X115940000Y-92150000D02*
X115940000Y-87980000D01*
X115940000Y-92150000D02*
X115589998Y-92500002D01*
X116510000Y-83860000D02*
X116500000Y-83850000D01*
X143960000Y-86990000D02*
X140010000Y-86990000D01*
X143955000Y-96570000D02*
X143935000Y-96590000D01*
X143960000Y-92990000D02*
X140010000Y-92990000D01*
X118150000Y-93750000D02*
X115880000Y-93750000D01*
X118150000Y-92150000D02*
X115940000Y-92150000D01*
X116500000Y-87420000D02*
X115940000Y-87980000D01*
X152480000Y-100870000D02*
X153740000Y-99610000D01*
X140010000Y-86990000D02*
X139500000Y-87500000D01*
X139500000Y-96900000D02*
X139500000Y-98500000D01*
X115880000Y-93750000D02*
X115589998Y-93459998D01*
X139500000Y-87500000D02*
X139480000Y-87500000D01*
X139480000Y-93520000D02*
X139480000Y-93750000D01*
X116500000Y-81910000D02*
X116500000Y-83850000D01*
X121570000Y-79770000D02*
X121340000Y-80000000D01*
X157370000Y-99690000D02*
X157750000Y-100070000D01*
X121340000Y-80000000D02*
X118410000Y-80000000D01*
X115589998Y-93459998D02*
X115589998Y-92909998D01*
X151300000Y-100870000D02*
X152480000Y-100870000D01*
X140010000Y-92990000D02*
X139480000Y-93520000D01*
X116500000Y-83850000D02*
X116500000Y-87420000D01*
X119360000Y-83860000D02*
X116510000Y-83860000D01*
X115589998Y-92500002D02*
X115589998Y-92909998D01*
X143935000Y-96590000D02*
X143925000Y-96600000D01*
X118410000Y-80000000D02*
X116500000Y-81910000D01*
X153740000Y-99610000D02*
X157300000Y-99610000D01*
X140035000Y-80190000D02*
X139475000Y-80750000D01*
X139800000Y-96600000D02*
X139500000Y-96900000D01*
X143925000Y-96600000D02*
X139800000Y-96600000D01*
X148110000Y-96570000D02*
X143955000Y-96570000D01*
X157370000Y-99680000D02*
X157370000Y-99690000D01*
X143935000Y-80190000D02*
X140035000Y-80190000D01*
%TO.N,Net-(U1-COM1)*%
X134632500Y-81250000D02*
X136375000Y-81250000D01*
X136425000Y-81200000D02*
X136375000Y-81250000D01*
%TO.N,/Y4*%
X135250000Y-88000000D02*
X136380000Y-88000000D01*
X139480000Y-89000000D02*
X138480000Y-89000000D01*
X142580000Y-90470000D02*
X151220000Y-90470000D01*
X141000000Y-89500000D02*
X141000000Y-90250000D01*
X139480000Y-89000000D02*
X140500000Y-89000000D01*
X138525000Y-82250000D02*
X137025000Y-80750000D01*
X139475000Y-82250000D02*
X138525000Y-82250000D01*
X140500000Y-89000000D02*
X141000000Y-89500000D01*
X133450000Y-90450000D02*
X133340000Y-90450000D01*
X135320000Y-79440000D02*
X135875000Y-79995000D01*
X133340000Y-90450000D02*
X132700000Y-89810000D01*
X134637500Y-88000000D02*
X135250000Y-88000000D01*
X135875000Y-80250000D02*
X134632500Y-80250000D01*
X141800000Y-89690000D02*
X142580000Y-90470000D01*
X140830000Y-90450000D02*
X133450000Y-90450000D01*
X135875000Y-79995000D02*
X135875000Y-80250000D01*
X133160000Y-79440000D02*
X135320000Y-79440000D01*
X141955000Y-82750000D02*
X139975000Y-82750000D01*
X136380000Y-88000000D02*
X137480000Y-88000000D01*
X132950000Y-90450000D02*
X133450000Y-90450000D01*
X132700000Y-89810000D02*
X132700000Y-79900000D01*
X132400000Y-91000000D02*
X132950000Y-90450000D01*
X141800000Y-89500000D02*
X141800000Y-89690000D01*
X141000000Y-89500000D02*
X141960000Y-89500000D01*
X141000000Y-90250000D02*
X140830000Y-90450000D01*
X138480000Y-89000000D02*
X137480000Y-88000000D01*
X132700000Y-79900000D02*
X133160000Y-79440000D01*
X139975000Y-82750000D02*
X139475000Y-82250000D01*
X136375000Y-80750000D02*
X135875000Y-80250000D01*
X137025000Y-80750000D02*
X136375000Y-80750000D01*
%TO.N,/Y5*%
X133840000Y-92555000D02*
X134495000Y-91900000D01*
X133840000Y-94142500D02*
X133840000Y-92555000D01*
X145120000Y-90970000D02*
X151220000Y-90970000D01*
X134495000Y-91900000D02*
X144190000Y-91900000D01*
X133997500Y-94300000D02*
X133840000Y-94142500D01*
X144190000Y-91900000D02*
X145120000Y-90970000D01*
%TO.N,/Y6*%
X145000000Y-91940000D02*
X145470000Y-91470000D01*
X142740000Y-94800000D02*
X142740000Y-95660000D01*
X145470000Y-91470000D02*
X151220000Y-91470000D01*
X142740000Y-95660000D02*
X142600000Y-95800000D01*
X145000000Y-94300000D02*
X144500000Y-94800000D01*
X145000000Y-91940000D02*
X145000000Y-94300000D01*
X144500000Y-94800000D02*
X142740000Y-94800000D01*
%TO.N,/Y7*%
X145890000Y-100060000D02*
X148070000Y-97880000D01*
X148720000Y-92850000D02*
X149600000Y-91970000D01*
X148310000Y-97880000D02*
X148070000Y-97880000D01*
X149600000Y-91970000D02*
X151220000Y-91970000D01*
X142855000Y-100060000D02*
X145890000Y-100060000D01*
X142765000Y-99070000D02*
X142765000Y-100050000D01*
X148890000Y-98460000D02*
X148310000Y-97880000D01*
X148070000Y-97880000D02*
X148720000Y-97230000D01*
X148720000Y-97230000D02*
X148720000Y-92850000D01*
X142765000Y-100050000D02*
X142785000Y-100070000D01*
%TO.N,Net-(C10-Pad1)*%
X133900000Y-99000000D02*
X133900000Y-98117500D01*
X132200000Y-97600000D02*
X133600000Y-99000000D01*
X133600000Y-99000000D02*
X133900000Y-99000000D01*
X133900000Y-98117500D02*
X134017500Y-98000000D01*
%TO.N,/MOSI*%
X123122382Y-95437618D02*
X123820618Y-95437618D01*
X123100000Y-95460000D02*
X123122382Y-95437618D01*
X122570000Y-76070000D02*
X122570000Y-75290000D01*
X124400000Y-96017000D02*
X124400000Y-96800000D01*
X120610000Y-78030000D02*
X122570000Y-76070000D01*
X123820618Y-95437618D02*
X124400000Y-96017000D01*
%TO.N,/SCK*%
X123484339Y-94426457D02*
X124112351Y-94426457D01*
X121595000Y-78805000D02*
X122070000Y-78330000D01*
X122070000Y-78330000D02*
X128090000Y-78330000D01*
X124112351Y-94426457D02*
X125035894Y-95350000D01*
X123190891Y-94133009D02*
X123484339Y-94426457D01*
X128696666Y-77723334D02*
X128696666Y-75290000D01*
X125035894Y-95350000D02*
X126650000Y-95350000D01*
X128090000Y-78330000D02*
X128696666Y-77723334D01*
%TO.N,/MISO*%
X125200000Y-96017000D02*
X125200000Y-96800000D01*
X121545500Y-77910000D02*
X125010000Y-77910000D01*
X125633333Y-77286667D02*
X125633333Y-75290000D01*
X125010000Y-77910000D02*
X125633333Y-77286667D01*
X123124822Y-94782057D02*
X123965057Y-94782057D01*
X121282750Y-78172750D02*
X121545500Y-77910000D01*
X123965057Y-94782057D02*
X125200000Y-96017000D01*
%TO.N,Net-(U5-COM1)*%
X134657500Y-99000000D02*
X136400000Y-99000000D01*
%TO.N,/RX*%
X125000000Y-100300000D02*
X122900001Y-100300000D01*
X134200000Y-106700000D02*
X134200000Y-105400000D01*
X133280000Y-107620000D02*
X134200000Y-106700000D01*
X127546386Y-97799877D02*
X127500123Y-97799877D01*
X123240000Y-107620000D02*
X133280000Y-107620000D01*
X127500123Y-97799877D02*
X125000000Y-100300000D01*
X121600000Y-90660000D02*
X120400000Y-89460000D01*
X120700001Y-102500000D02*
X120700001Y-105080001D01*
X120700001Y-105080001D02*
X123240000Y-107620000D01*
X122900001Y-100300000D02*
X120700001Y-102500000D01*
X120400000Y-89460000D02*
X120400000Y-88300000D01*
%TO.N,/TX*%
X124033334Y-105433334D02*
X125730000Y-107130000D01*
X132880000Y-107130000D02*
X133700000Y-106310000D01*
X128198412Y-97901588D02*
X124033334Y-102066666D01*
X124033334Y-102066666D02*
X124033334Y-102500000D01*
X121200000Y-89227000D02*
X121200000Y-88300000D01*
X124033334Y-102500000D02*
X124033334Y-105433334D01*
X125730000Y-107130000D02*
X132880000Y-107130000D01*
X121780000Y-89860000D02*
X121780000Y-89807000D01*
X133700000Y-106310000D02*
X133700000Y-105400000D01*
X121780000Y-89807000D02*
X121200000Y-89227000D01*
X128198412Y-97822046D02*
X128198412Y-97901588D01*
%TO.N,Net-(D1-K)*%
X129760000Y-88350000D02*
X130844999Y-88349997D01*
%TO.N,Net-(JP1-A)*%
X128430000Y-85225000D02*
X127135000Y-85225000D01*
X131485006Y-85280006D02*
X131430000Y-85225000D01*
X131464996Y-85259996D02*
X131430000Y-85225000D01*
X131464996Y-86389999D02*
X131464996Y-85259996D01*
X131464996Y-87369999D02*
X131464996Y-86389999D01*
X128430000Y-85225000D02*
X129430000Y-85225000D01*
X127135000Y-85225000D02*
X126510000Y-84600000D01*
X130430000Y-85225000D02*
X131030000Y-85225000D01*
X126510000Y-84600000D02*
X126510000Y-81980000D01*
X131030000Y-85225000D02*
X131430000Y-85225000D01*
X129430000Y-85225000D02*
X130430000Y-85225000D01*
X131464996Y-88349999D02*
X131464996Y-87369999D01*
X131485006Y-87279996D02*
X131485004Y-87279998D01*
%TO.N,Net-(D2-K)*%
X129765000Y-87369996D02*
X130825001Y-87370001D01*
%TO.N,Net-(D3-K)*%
X128430000Y-84585000D02*
X128430000Y-83455000D01*
%TO.N,Net-(D4-K)*%
X130430000Y-84585000D02*
X130430000Y-83455000D01*
%TO.N,Net-(D5-K)*%
X129840000Y-86389999D02*
X130724997Y-86389999D01*
X130715000Y-86299998D02*
X130715003Y-86300001D01*
%TO.N,Net-(D6-K)*%
X129430000Y-84585000D02*
X129430000Y-83455000D01*
%TO.N,Net-(D7-K)*%
X131430000Y-84585000D02*
X131430000Y-83455000D01*
%TO.N,/BTN3*%
X162260000Y-99990000D02*
X163550000Y-101280000D01*
X163550000Y-103170000D02*
X164010000Y-103850000D01*
X163550000Y-101280000D02*
X163550000Y-103170000D01*
X121200000Y-96800000D02*
X121200000Y-98300000D01*
X142549476Y-102800000D02*
X142330000Y-102800000D01*
X143601976Y-103852500D02*
X142549476Y-102800000D01*
X164010000Y-103850000D02*
X165416251Y-104632853D01*
X143640000Y-103852500D02*
X143601976Y-103852500D01*
X145910000Y-103852500D02*
X143640000Y-103852500D01*
%TO.N,/BTN1*%
X142680000Y-101650000D02*
X141030000Y-101650000D01*
X144007500Y-102977500D02*
X145910000Y-102977500D01*
X122800000Y-96800000D02*
X122800000Y-98300000D01*
X144007500Y-102977500D02*
X142680000Y-101650000D01*
X165010000Y-92350000D02*
X164500000Y-91840000D01*
X165510000Y-92350000D02*
X165010000Y-92350000D01*
X165510000Y-92350000D02*
X167020000Y-94770000D01*
X167020000Y-94770000D02*
X168910874Y-95119492D01*
%TO.N,/BTN5*%
X142656765Y-104243618D02*
X143140647Y-104727500D01*
X142560853Y-104243618D02*
X142656765Y-104243618D01*
X143140647Y-104727500D02*
X145910000Y-104727500D01*
X119600000Y-96800000D02*
X119600000Y-98300000D01*
%TO.N,/BTN4*%
X160040000Y-104420000D02*
X161120000Y-105800000D01*
X142564209Y-103527497D02*
X142564209Y-103534209D01*
X120400000Y-96800000D02*
X120400000Y-98300000D01*
X142564209Y-103534209D02*
X143320000Y-104290000D01*
X160730000Y-107350000D02*
X162475371Y-108869382D01*
X161120000Y-105800000D02*
X160730000Y-107350000D01*
X143320000Y-104290000D02*
X145910000Y-104290000D01*
%TO.N,/BTN7*%
X142630000Y-105600000D02*
X145907500Y-105600000D01*
X121230000Y-94166800D02*
X125646800Y-89750000D01*
X145907500Y-105600000D02*
X145910000Y-105602500D01*
X125646800Y-89750000D02*
X126650000Y-89750000D01*
X121230000Y-95250000D02*
X121230000Y-94166800D01*
X142620000Y-105610000D02*
X142630000Y-105600000D01*
%TO.N,/BTN0*%
X165020000Y-88740000D02*
X167410000Y-88740000D01*
X168770000Y-90100000D02*
X169370000Y-90100000D01*
X140514000Y-101146000D02*
X140350000Y-101310000D01*
X142678894Y-101146000D02*
X140514000Y-101146000D01*
X167410000Y-88740000D02*
X168770000Y-90100000D01*
X123600000Y-96800000D02*
X123600000Y-98300000D01*
X164210000Y-87930000D02*
X165020000Y-88740000D01*
X144072894Y-102540000D02*
X142678894Y-101146000D01*
X145910000Y-102540000D02*
X144072894Y-102540000D01*
%TO.N,/BTN2*%
X122000000Y-96800000D02*
X122000000Y-98300000D01*
X164960000Y-97030000D02*
X165320000Y-99170000D01*
X143805000Y-103415000D02*
X142550000Y-102160000D01*
X142550000Y-102160000D02*
X141750000Y-102160000D01*
X164260000Y-96730000D02*
X164960000Y-97030000D01*
X165320000Y-99170000D02*
X167610337Y-100024629D01*
X163630000Y-96210000D02*
X164260000Y-96730000D01*
X143805000Y-103415000D02*
X145910000Y-103415000D01*
%TO.N,/BTN6*%
X121960000Y-94360000D02*
X125770000Y-90550000D01*
X142608809Y-104908427D02*
X142628427Y-104908427D01*
X121960000Y-95267236D02*
X121960000Y-94360000D01*
X121966382Y-95273618D02*
X121960000Y-95267236D01*
X125770000Y-90550000D02*
X126650000Y-90550000D01*
X142628427Y-104908427D02*
X142885000Y-105165000D01*
X142885000Y-105165000D02*
X145910000Y-105165000D01*
%TO.N,Net-(U14-VCC)*%
X133900000Y-103675000D02*
X134700000Y-103675000D01*
X142430000Y-115830000D02*
X142970000Y-115290000D01*
X137530000Y-119680000D02*
X137530000Y-118955000D01*
X137900000Y-121550000D02*
X137900000Y-120050000D01*
X144710000Y-115290000D02*
X146000000Y-114000000D01*
X134700000Y-103675000D02*
X135500000Y-103675000D01*
X146000000Y-110900000D02*
X142600000Y-107500000D01*
X142430000Y-118955000D02*
X142430000Y-115830000D01*
X142430000Y-119720000D02*
X142430000Y-118955000D01*
X142000000Y-121550000D02*
X142000000Y-120150000D01*
X146000000Y-114000000D02*
X146000000Y-110900000D01*
X134700000Y-105400000D02*
X134700000Y-104380000D01*
X138775000Y-103675000D02*
X142600000Y-107500000D01*
X142970000Y-115290000D02*
X144710000Y-115290000D01*
X137900000Y-120050000D02*
X137530000Y-119680000D01*
X134900000Y-104180000D02*
X134900000Y-103675000D01*
X134700000Y-104380000D02*
X134900000Y-104180000D01*
X142000000Y-120150000D02*
X142430000Y-119720000D01*
X135700000Y-103675000D02*
X138775000Y-103675000D01*
%TO.N,Net-(U14-V3)*%
X133200000Y-104310000D02*
X132920000Y-104030000D01*
X133200000Y-105400000D02*
X133200000Y-104310000D01*
X132920000Y-104030000D02*
X132920000Y-103675000D01*
%TO.N,Net-(U14-UD+)*%
X133200000Y-110900000D02*
X133000000Y-111100000D01*
X141710000Y-111990000D02*
X142600000Y-111100000D01*
X141210000Y-111990000D02*
X140500000Y-112700000D01*
X140460000Y-117610000D02*
X140040000Y-117610000D01*
X140500000Y-117650000D02*
X140700000Y-117850000D01*
X140730000Y-117880000D02*
X140700000Y-117850000D01*
X140040000Y-117610000D02*
X139730000Y-117920000D01*
X140500000Y-112700000D02*
X140500000Y-117650000D01*
X133200000Y-109800000D02*
X133200000Y-110900000D01*
X140730000Y-118955000D02*
X140730000Y-117880000D01*
X140700000Y-117850000D02*
X140460000Y-117610000D01*
X139730000Y-117920000D02*
X139730000Y-118955000D01*
X141210000Y-111990000D02*
X141710000Y-111990000D01*
%TO.N,Net-(J8-CC1)*%
X138730000Y-117410007D02*
X138730000Y-118955000D01*
X138269998Y-116950005D02*
X138730000Y-117410007D01*
%TO.N,Net-(J8-CC2)*%
X141730000Y-117134994D02*
X141734998Y-117129996D01*
X141730000Y-118955000D02*
X141730000Y-117134994D01*
%TO.N,Net-(U14-UD-)*%
X139230000Y-118955000D02*
X139230000Y-120180000D01*
X139230000Y-118955000D02*
X139230000Y-111330000D01*
X140230000Y-120120000D02*
X140230000Y-118955000D01*
X139300000Y-120250000D02*
X140100000Y-120250000D01*
X140100000Y-120250000D02*
X140230000Y-120120000D01*
X134100000Y-112000000D02*
X138100000Y-112000000D01*
X138100000Y-112000000D02*
X139000000Y-111100000D01*
X133700000Y-111600000D02*
X134100000Y-112000000D01*
X133700000Y-109800000D02*
X133700000Y-111600000D01*
X139230000Y-111330000D02*
X139000000Y-111100000D01*
X139230000Y-120180000D02*
X139300000Y-120250000D01*
%TO.N,Net-(J2-Pin_2)*%
X154320000Y-105050000D02*
X154320000Y-100885000D01*
X154320000Y-100885000D02*
X154305000Y-100870000D01*
%TO.N,/?\u002C?*%
X116860000Y-87100000D02*
X116860000Y-89580000D01*
X118940000Y-87090000D02*
X118930000Y-87100000D01*
X118800000Y-80430000D02*
X117940000Y-81290000D01*
X117030000Y-89750000D02*
X118150000Y-89750000D01*
X121910000Y-80430000D02*
X119180000Y-80430000D01*
X139500000Y-99000000D02*
X140800000Y-99000000D01*
X116860000Y-89580000D02*
X117030000Y-89750000D01*
X119180000Y-80430000D02*
X118800000Y-80430000D01*
X118930000Y-87100000D02*
X116860000Y-87100000D01*
X140800000Y-99000000D02*
X141710000Y-98090000D01*
X122010000Y-80330000D02*
X121910000Y-80430000D01*
%TO.N,/RESET*%
X128850185Y-98869816D02*
X128850001Y-98870000D01*
X122392526Y-89635407D02*
X122323000Y-89565881D01*
X122000000Y-89227000D02*
X122000000Y-88300000D01*
X128850185Y-97793399D02*
X128850185Y-98869816D01*
X130045000Y-77835000D02*
X131425000Y-77835000D01*
X122323000Y-89550000D02*
X122000000Y-89227000D01*
X122323000Y-89565881D02*
X122323000Y-89550000D01*
X122000000Y-86600000D02*
X121680000Y-86280000D01*
X121680000Y-86280000D02*
X117220000Y-86280000D01*
X122000000Y-88300000D02*
X122000000Y-86600000D01*
X131425000Y-77835000D02*
X131760000Y-77500000D01*
X131760000Y-77500000D02*
X131760000Y-75290000D01*
%TO.N,/DTR*%
X131990000Y-106390000D02*
X131736000Y-106644000D01*
X127366667Y-102500000D02*
X127366667Y-100978332D01*
X127366667Y-106210000D02*
X127366667Y-102500000D01*
X127800667Y-106644000D02*
X127366667Y-106210000D01*
X128849999Y-99510000D02*
X127366667Y-100993332D01*
X132000000Y-108200000D02*
X134500000Y-108200000D01*
X134700000Y-108400000D02*
X134700000Y-109800000D01*
X127366667Y-100993332D02*
X127366667Y-102500000D01*
X131736000Y-106644000D02*
X127800667Y-106644000D01*
X134500000Y-108200000D02*
X134700000Y-108400000D01*
%TO.N,/X3*%
X134000000Y-85000000D02*
X143732894Y-85000000D01*
X145205600Y-86472706D02*
X145205600Y-87828494D01*
X145205600Y-87828494D02*
X145847106Y-88470000D01*
X143732894Y-85000000D02*
X145205600Y-86472706D01*
X145847106Y-88470000D02*
X151220000Y-88470000D01*
X133992500Y-80250000D02*
X133810000Y-80432500D01*
X133810000Y-80432500D02*
X133810000Y-84810000D01*
X133810000Y-84810000D02*
X134000000Y-85000000D01*
%TO.N,/X4*%
X145561200Y-87681200D02*
X145850000Y-87970000D01*
X145850000Y-87970000D02*
X151220000Y-87970000D01*
X142760000Y-81935000D02*
X142595000Y-81770000D01*
X142760000Y-84209999D02*
X142760000Y-82915000D01*
X146830000Y-85650000D02*
X145810000Y-85650000D01*
X145347894Y-86112106D02*
X145561200Y-86325412D01*
X145347894Y-86112106D02*
X143880188Y-84644400D01*
X142595000Y-82750000D02*
X142595000Y-82845000D01*
X145810000Y-85650000D02*
X145347894Y-86112106D01*
X143194401Y-84644400D02*
X142760000Y-84209999D01*
X143880188Y-84644400D02*
X143194401Y-84644400D01*
X142595000Y-82750000D02*
X142760000Y-82585000D01*
X142760000Y-82915000D02*
X142595000Y-82750000D01*
X142760000Y-82585000D02*
X142760000Y-81935000D01*
X145561200Y-86325412D02*
X145561200Y-87681200D01*
%TO.N,/X2*%
X151300000Y-98120000D02*
X151300000Y-97000000D01*
X136330000Y-94300000D02*
X136380000Y-94250000D01*
X144850000Y-87975788D02*
X144850000Y-86620000D01*
X138900000Y-99500000D02*
X139500000Y-99500000D01*
X136380000Y-94250000D02*
X137650000Y-94250000D01*
X144850000Y-86620000D02*
X144230000Y-86000000D01*
X145844212Y-88970000D02*
X151220000Y-88970000D01*
X134015000Y-86000000D02*
X133850000Y-86165000D01*
X139500000Y-99500000D02*
X140990000Y-99500000D01*
X137950000Y-100750000D02*
X138150000Y-100750000D01*
X139530000Y-94800000D02*
X139480000Y-94750000D01*
X137650000Y-94250000D02*
X138150000Y-94750000D01*
X145844212Y-88970000D02*
X144850000Y-87975788D01*
X138150000Y-94750000D02*
X139480000Y-94750000D01*
X138150000Y-100750000D02*
X148670000Y-100750000D01*
X153330000Y-94970000D02*
X153330000Y-89610000D01*
X148670000Y-100750000D02*
X151300000Y-98120000D01*
X140990000Y-99500000D02*
X141420000Y-99070000D01*
X133850000Y-87852500D02*
X133997500Y-88000000D01*
X138150000Y-100750000D02*
X138150000Y-98750000D01*
X138150000Y-94750000D02*
X138150000Y-98750000D01*
X137000000Y-101700000D02*
X137950000Y-100750000D01*
X141960000Y-94800000D02*
X139530000Y-94800000D01*
X133850000Y-86165000D02*
X133850000Y-87852500D01*
X151300000Y-97000000D02*
X153330000Y-94970000D01*
X144230000Y-86000000D02*
X134015000Y-86000000D01*
X141420000Y-99070000D02*
X141805000Y-99070000D01*
X152690000Y-88970000D02*
X151220000Y-88970000D01*
X134637500Y-94300000D02*
X136330000Y-94300000D01*
X138150000Y-98750000D02*
X138900000Y-99500000D01*
X153330000Y-89610000D02*
X152690000Y-88970000D01*
%TO.N,/X1*%
X142770000Y-88670000D02*
X142770000Y-89330000D01*
X142760000Y-89500000D02*
X151190000Y-89500000D01*
X142770000Y-89330000D02*
X142650000Y-89450000D01*
X151190000Y-89500000D02*
X151220000Y-89470000D01*
X142600000Y-88500000D02*
X142770000Y-88670000D01*
%TO.N,/1\u002C4*%
X128430000Y-82120000D02*
X128420000Y-82110000D01*
X135700000Y-88500000D02*
X135000000Y-89200000D01*
X124300000Y-83000000D02*
X122700000Y-83000000D01*
X125200000Y-88200000D02*
X125200000Y-83900000D01*
X128430000Y-82815000D02*
X128430000Y-82120000D01*
X136380000Y-88500000D02*
X135700000Y-88500000D01*
X125200000Y-83900000D02*
X124300000Y-83000000D01*
X125200000Y-88300000D02*
X125200000Y-88200000D01*
%TO.N,/4\u002C4*%
X136375000Y-81750000D02*
X135550000Y-81750000D01*
X124100000Y-83900000D02*
X124400000Y-84200000D01*
X135550000Y-81750000D02*
X135000000Y-82300000D01*
X124400000Y-88300000D02*
X124400000Y-84800000D01*
X122675000Y-83900000D02*
X124100000Y-83900000D01*
X130430000Y-81520000D02*
X130440000Y-81510000D01*
X130430000Y-82815000D02*
X130430000Y-81520000D01*
X124400000Y-84200000D02*
X124400000Y-84800000D01*
%TO.N,/2\u002C4*%
X139480000Y-88000000D02*
X140750000Y-88000000D01*
X129430000Y-80374000D02*
X129450000Y-80354000D01*
X122800000Y-85825000D02*
X122675000Y-85700000D01*
X129430000Y-82815000D02*
X129430000Y-80374000D01*
X122800000Y-86500000D02*
X122800000Y-85825000D01*
X122800000Y-88300000D02*
X122800000Y-86500000D01*
X140750000Y-88000000D02*
X141000000Y-87750000D01*
%TO.N,/3\u002C4*%
X121200000Y-82000000D02*
X121200000Y-81300000D01*
X131430000Y-79896000D02*
X131410000Y-79876000D01*
X131430000Y-82815000D02*
X131430000Y-79896000D01*
X121200000Y-81300000D02*
X121300000Y-81200000D01*
X139475000Y-81250000D02*
X140675000Y-81250000D01*
X119600000Y-87373000D02*
X120173000Y-86800000D01*
X119600000Y-88300000D02*
X119600000Y-87373000D01*
X120173000Y-86800000D02*
X121100000Y-86800000D01*
X140675000Y-81250000D02*
X140975000Y-80950000D01*
%TO.N,/2\u002C7*%
X129565000Y-90670000D02*
X129655000Y-90580000D01*
X118150000Y-95350000D02*
X117190000Y-95350000D01*
X117140000Y-95400000D02*
X117140000Y-96360000D01*
X119810000Y-94620000D02*
X124272982Y-90157018D01*
X124272982Y-90157018D02*
X124527018Y-90157018D01*
X128590001Y-88349999D02*
X129099997Y-88349999D01*
X136400000Y-99500000D02*
X135500000Y-99500000D01*
X117190000Y-95350000D02*
X117140000Y-95400000D01*
X117140000Y-96360000D02*
X117230000Y-96450000D01*
X129099988Y-88360003D02*
X129119996Y-88339995D01*
X128270000Y-90670000D02*
X129565000Y-90670000D01*
X128260000Y-90680000D02*
X128260000Y-88680000D01*
X128260000Y-90680000D02*
X128270000Y-90670000D01*
X135500000Y-99500000D02*
X135000000Y-100000000D01*
X128260000Y-88680000D02*
X128590001Y-88349999D01*
%TO.N,/2\u002C6*%
X123230000Y-90170000D02*
X123230000Y-89940000D01*
X135000000Y-95530000D02*
X135780000Y-94750000D01*
X116130000Y-95160000D02*
X116130000Y-96390000D01*
X126930001Y-87369999D02*
X129099997Y-87369999D01*
X119520000Y-93880000D02*
X123230000Y-90170000D01*
X126530000Y-87770000D02*
X126930001Y-87369999D01*
X130555000Y-89615000D02*
X130550000Y-89610000D01*
X130555000Y-90580000D02*
X130555000Y-89615000D01*
X116130000Y-96390000D02*
X116100000Y-96420000D01*
X116740000Y-94550000D02*
X118150000Y-94550000D01*
X116130000Y-95160000D02*
X116740000Y-94550000D01*
X135780000Y-94750000D02*
X136380000Y-94750000D01*
%TO.N,/2\u002C5*%
X123600000Y-85100000D02*
X123300000Y-84800000D01*
X129099997Y-86389999D02*
X126479999Y-86389999D01*
D53*
X126479999Y-86389999D02*
X126470000Y-86380000D01*
D52*
X139480000Y-94250000D02*
X140750000Y-94250000D01*
X123300000Y-84800000D02*
X122675000Y-84800000D01*
X123600000Y-85800000D02*
X123600000Y-85100000D01*
X123600000Y-88300000D02*
X123600000Y-85800000D01*
X140750000Y-94250000D02*
X141000000Y-94000000D01*
%TD*%
M02*
