%TF.GenerationSoftware,KiCad,Pcbnew,8.0.9-8.0.9-0~ubuntu20.04.1*%
%TF.CreationDate,2025-05-20T18:40:30+02:00*%
%TF.ProjectId,tobo,746f626f-2e6b-4696-9361-645f70636258,rev?*%
%TF.SameCoordinates,Original*%
%TF.FileFunction,Legend,Bot*%
%TF.FilePolarity,Positive*%
%FSLAX46Y46*%
G04 Gerber Fmt 4.6, Leading zero omitted, Abs format (unit mm)*
G04 Created by KiCad (PCBNEW 8.0.9-8.0.9-0~ubuntu20.04.1) date 2025-05-20 18:40:30*
%MOMM*%
%LPD*%
G01*
G04 APERTURE LIST*
%ADD10C,0.212158*%
%ADD11C,0.150000*%
%ADD12C,0.100000*%
%ADD13C,0.212522*%
%ADD14C,0.202158*%
%ADD15C,0.200000*%
%ADD16C,0.180000*%
G04 APERTURE END LIST*
D10*
X151988921Y-98500000D02*
G75*
G02*
X151776763Y-98500000I-106079J0D01*
G01*
X151776763Y-98500000D02*
G75*
G02*
X151988921Y-98500000I106079J0D01*
G01*
D11*
X151300000Y-98450000D02*
X151300000Y-96900000D01*
D12*
X165480000Y-89000000D02*
X165460000Y-88460000D01*
X133370000Y-77488125D02*
X156002500Y-77500000D01*
X133370000Y-77488125D02*
X133370000Y-72711874D01*
X132600000Y-112800000D02*
X134570000Y-112800000D01*
D11*
X140322490Y-90000000D02*
G75*
G02*
X139677510Y-90000000I-322490J0D01*
G01*
X139677510Y-90000000D02*
G75*
G02*
X140322490Y-90000000I322490J0D01*
G01*
D12*
X138979106Y-112799718D02*
X140930000Y-112800283D01*
D11*
X117110000Y-94570000D02*
X118540000Y-96000000D01*
D12*
X160210000Y-105545000D02*
X161490000Y-103715000D01*
X165280000Y-93310000D02*
X165460000Y-91280000D01*
X156000000Y-109480000D02*
X156002500Y-77500000D01*
X145290000Y-112800000D02*
X147450000Y-112800000D01*
D13*
X150689103Y-94700000D02*
G75*
G02*
X150476581Y-94700000I-106261J0D01*
G01*
X150476581Y-94700000D02*
G75*
G02*
X150689103Y-94700000I106261J0D01*
G01*
D11*
X140094868Y-90000000D02*
G75*
G02*
X139905132Y-90000000I-94868J0D01*
G01*
X139905132Y-90000000D02*
G75*
G02*
X140094868Y-90000000I94868J0D01*
G01*
D12*
X164340000Y-97590000D02*
X164860000Y-95630000D01*
D11*
X140519711Y-90000000D02*
G75*
G02*
X139480289Y-90000000I-519711J0D01*
G01*
X139480289Y-90000000D02*
G75*
G02*
X140519711Y-90000000I519711J0D01*
G01*
X152700000Y-94700000D02*
X150600000Y-94700000D01*
X150000000Y-96275000D02*
X150000000Y-94725000D01*
X152700000Y-99100000D02*
X150600000Y-99100000D01*
D12*
X162640000Y-101740000D02*
X163550000Y-99770000D01*
X158480000Y-107570000D02*
X158770000Y-107260000D01*
X121544999Y-72710000D02*
X133370000Y-72711874D01*
D11*
X150600000Y-99100000D02*
X150600000Y-96400000D01*
D13*
X150689103Y-96400000D02*
G75*
G02*
X150476581Y-96400000I-106261J0D01*
G01*
X150476581Y-96400000D02*
G75*
G02*
X150689103Y-96400000I106261J0D01*
G01*
D14*
X151983921Y-96900000D02*
G75*
G02*
X151781763Y-96900000I-101079J0D01*
G01*
X151781763Y-96900000D02*
G75*
G02*
X151983921Y-96900000I101079J0D01*
G01*
D11*
X151900000Y-99100000D02*
X151900000Y-98500000D01*
X152700000Y-96900000D02*
X151900000Y-96900000D01*
D15*
X157493482Y-85091027D02*
X157445863Y-85043408D01*
X157445863Y-85043408D02*
X157350625Y-84995789D01*
X157350625Y-84995789D02*
X157112530Y-84995789D01*
X157112530Y-84995789D02*
X157017292Y-85043408D01*
X157017292Y-85043408D02*
X156969673Y-85091027D01*
X156969673Y-85091027D02*
X156922054Y-85186265D01*
X156922054Y-85186265D02*
X156922054Y-85281503D01*
X156922054Y-85281503D02*
X156969673Y-85424360D01*
X156969673Y-85424360D02*
X157541101Y-85995789D01*
X157541101Y-85995789D02*
X156922054Y-85995789D01*
X160583959Y-81567219D02*
X160917292Y-81091028D01*
X161155387Y-81567219D02*
X161155387Y-80567219D01*
X161155387Y-80567219D02*
X160774435Y-80567219D01*
X160774435Y-80567219D02*
X160679197Y-80614838D01*
X160679197Y-80614838D02*
X160631578Y-80662457D01*
X160631578Y-80662457D02*
X160583959Y-80757695D01*
X160583959Y-80757695D02*
X160583959Y-80900552D01*
X160583959Y-80900552D02*
X160631578Y-80995790D01*
X160631578Y-80995790D02*
X160679197Y-81043409D01*
X160679197Y-81043409D02*
X160774435Y-81091028D01*
X160774435Y-81091028D02*
X161155387Y-81091028D01*
X160155387Y-81043409D02*
X159822054Y-81043409D01*
X159679197Y-81567219D02*
X160155387Y-81567219D01*
X160155387Y-81567219D02*
X160155387Y-80567219D01*
X160155387Y-80567219D02*
X159679197Y-80567219D01*
X159393482Y-80567219D02*
X159060149Y-81567219D01*
X159060149Y-81567219D02*
X158726816Y-80567219D01*
X161155387Y-97019600D02*
X161012530Y-97067219D01*
X161012530Y-97067219D02*
X160774435Y-97067219D01*
X160774435Y-97067219D02*
X160679197Y-97019600D01*
X160679197Y-97019600D02*
X160631578Y-96971980D01*
X160631578Y-96971980D02*
X160583959Y-96876742D01*
X160583959Y-96876742D02*
X160583959Y-96781504D01*
X160583959Y-96781504D02*
X160631578Y-96686266D01*
X160631578Y-96686266D02*
X160679197Y-96638647D01*
X160679197Y-96638647D02*
X160774435Y-96591028D01*
X160774435Y-96591028D02*
X160964911Y-96543409D01*
X160964911Y-96543409D02*
X161060149Y-96495790D01*
X161060149Y-96495790D02*
X161107768Y-96448171D01*
X161107768Y-96448171D02*
X161155387Y-96352933D01*
X161155387Y-96352933D02*
X161155387Y-96257695D01*
X161155387Y-96257695D02*
X161107768Y-96162457D01*
X161107768Y-96162457D02*
X161060149Y-96114838D01*
X161060149Y-96114838D02*
X160964911Y-96067219D01*
X160964911Y-96067219D02*
X160726816Y-96067219D01*
X160726816Y-96067219D02*
X160583959Y-96114838D01*
X160298244Y-96067219D02*
X159726816Y-96067219D01*
X160012530Y-97067219D02*
X160012530Y-96067219D01*
X158822054Y-96971980D02*
X158869673Y-97019600D01*
X158869673Y-97019600D02*
X159012530Y-97067219D01*
X159012530Y-97067219D02*
X159107768Y-97067219D01*
X159107768Y-97067219D02*
X159250625Y-97019600D01*
X159250625Y-97019600D02*
X159345863Y-96924361D01*
X159345863Y-96924361D02*
X159393482Y-96829123D01*
X159393482Y-96829123D02*
X159441101Y-96638647D01*
X159441101Y-96638647D02*
X159441101Y-96495790D01*
X159441101Y-96495790D02*
X159393482Y-96305314D01*
X159393482Y-96305314D02*
X159345863Y-96210076D01*
X159345863Y-96210076D02*
X159250625Y-96114838D01*
X159250625Y-96114838D02*
X159107768Y-96067219D01*
X159107768Y-96067219D02*
X159012530Y-96067219D01*
X159012530Y-96067219D02*
X158869673Y-96114838D01*
X158869673Y-96114838D02*
X158822054Y-96162457D01*
X157327563Y-98703357D02*
X157422801Y-98655738D01*
X157422801Y-98655738D02*
X157470420Y-98608119D01*
X157470420Y-98608119D02*
X157518039Y-98512881D01*
X157518039Y-98512881D02*
X157518039Y-98465262D01*
X157518039Y-98465262D02*
X157470420Y-98370024D01*
X157470420Y-98370024D02*
X157422801Y-98322405D01*
X157422801Y-98322405D02*
X157327563Y-98274786D01*
X157327563Y-98274786D02*
X157137087Y-98274786D01*
X157137087Y-98274786D02*
X157041849Y-98322405D01*
X157041849Y-98322405D02*
X156994230Y-98370024D01*
X156994230Y-98370024D02*
X156946611Y-98465262D01*
X156946611Y-98465262D02*
X156946611Y-98512881D01*
X156946611Y-98512881D02*
X156994230Y-98608119D01*
X156994230Y-98608119D02*
X157041849Y-98655738D01*
X157041849Y-98655738D02*
X157137087Y-98703357D01*
X157137087Y-98703357D02*
X157327563Y-98703357D01*
X157327563Y-98703357D02*
X157422801Y-98750976D01*
X157422801Y-98750976D02*
X157470420Y-98798595D01*
X157470420Y-98798595D02*
X157518039Y-98893833D01*
X157518039Y-98893833D02*
X157518039Y-99084309D01*
X157518039Y-99084309D02*
X157470420Y-99179547D01*
X157470420Y-99179547D02*
X157422801Y-99227167D01*
X157422801Y-99227167D02*
X157327563Y-99274786D01*
X157327563Y-99274786D02*
X157137087Y-99274786D01*
X157137087Y-99274786D02*
X157041849Y-99227167D01*
X157041849Y-99227167D02*
X156994230Y-99179547D01*
X156994230Y-99179547D02*
X156946611Y-99084309D01*
X156946611Y-99084309D02*
X156946611Y-98893833D01*
X156946611Y-98893833D02*
X156994230Y-98798595D01*
X156994230Y-98798595D02*
X157041849Y-98750976D01*
X157041849Y-98750976D02*
X157137087Y-98703357D01*
X157255387Y-80567219D02*
X157160149Y-80567219D01*
X157160149Y-80567219D02*
X157064911Y-80614838D01*
X157064911Y-80614838D02*
X157017292Y-80662457D01*
X157017292Y-80662457D02*
X156969673Y-80757695D01*
X156969673Y-80757695D02*
X156922054Y-80948171D01*
X156922054Y-80948171D02*
X156922054Y-81186266D01*
X156922054Y-81186266D02*
X156969673Y-81376742D01*
X156969673Y-81376742D02*
X157017292Y-81471980D01*
X157017292Y-81471980D02*
X157064911Y-81519600D01*
X157064911Y-81519600D02*
X157160149Y-81567219D01*
X157160149Y-81567219D02*
X157255387Y-81567219D01*
X157255387Y-81567219D02*
X157350625Y-81519600D01*
X157350625Y-81519600D02*
X157398244Y-81471980D01*
X157398244Y-81471980D02*
X157445863Y-81376742D01*
X157445863Y-81376742D02*
X157493482Y-81186266D01*
X157493482Y-81186266D02*
X157493482Y-80948171D01*
X157493482Y-80948171D02*
X157445863Y-80757695D01*
X157445863Y-80757695D02*
X157398244Y-80662457D01*
X157398244Y-80662457D02*
X157350625Y-80614838D01*
X157350625Y-80614838D02*
X157255387Y-80567219D01*
X156969673Y-91638644D02*
X157445863Y-91638644D01*
X157445863Y-91638644D02*
X157493482Y-92114834D01*
X157493482Y-92114834D02*
X157445863Y-92067215D01*
X157445863Y-92067215D02*
X157350625Y-92019596D01*
X157350625Y-92019596D02*
X157112530Y-92019596D01*
X157112530Y-92019596D02*
X157017292Y-92067215D01*
X157017292Y-92067215D02*
X156969673Y-92114834D01*
X156969673Y-92114834D02*
X156922054Y-92210072D01*
X156922054Y-92210072D02*
X156922054Y-92448167D01*
X156922054Y-92448167D02*
X156969673Y-92543405D01*
X156969673Y-92543405D02*
X157017292Y-92591025D01*
X157017292Y-92591025D02*
X157112530Y-92638644D01*
X157112530Y-92638644D02*
X157350625Y-92638644D01*
X157350625Y-92638644D02*
X157445863Y-92591025D01*
X157445863Y-92591025D02*
X157493482Y-92543405D01*
X161964911Y-92281504D02*
X161488721Y-92281504D01*
X162060149Y-92567219D02*
X161726816Y-91567219D01*
X161726816Y-91567219D02*
X161393483Y-92567219D01*
X161107768Y-92519600D02*
X160964911Y-92567219D01*
X160964911Y-92567219D02*
X160726816Y-92567219D01*
X160726816Y-92567219D02*
X160631578Y-92519600D01*
X160631578Y-92519600D02*
X160583959Y-92471980D01*
X160583959Y-92471980D02*
X160536340Y-92376742D01*
X160536340Y-92376742D02*
X160536340Y-92281504D01*
X160536340Y-92281504D02*
X160583959Y-92186266D01*
X160583959Y-92186266D02*
X160631578Y-92138647D01*
X160631578Y-92138647D02*
X160726816Y-92091028D01*
X160726816Y-92091028D02*
X160917292Y-92043409D01*
X160917292Y-92043409D02*
X161012530Y-91995790D01*
X161012530Y-91995790D02*
X161060149Y-91948171D01*
X161060149Y-91948171D02*
X161107768Y-91852933D01*
X161107768Y-91852933D02*
X161107768Y-91757695D01*
X161107768Y-91757695D02*
X161060149Y-91662457D01*
X161060149Y-91662457D02*
X161012530Y-91614838D01*
X161012530Y-91614838D02*
X160917292Y-91567219D01*
X160917292Y-91567219D02*
X160679197Y-91567219D01*
X160679197Y-91567219D02*
X160536340Y-91614838D01*
X160155387Y-92519600D02*
X160012530Y-92567219D01*
X160012530Y-92567219D02*
X159774435Y-92567219D01*
X159774435Y-92567219D02*
X159679197Y-92519600D01*
X159679197Y-92519600D02*
X159631578Y-92471980D01*
X159631578Y-92471980D02*
X159583959Y-92376742D01*
X159583959Y-92376742D02*
X159583959Y-92281504D01*
X159583959Y-92281504D02*
X159631578Y-92186266D01*
X159631578Y-92186266D02*
X159679197Y-92138647D01*
X159679197Y-92138647D02*
X159774435Y-92091028D01*
X159774435Y-92091028D02*
X159964911Y-92043409D01*
X159964911Y-92043409D02*
X160060149Y-91995790D01*
X160060149Y-91995790D02*
X160107768Y-91948171D01*
X160107768Y-91948171D02*
X160155387Y-91852933D01*
X160155387Y-91852933D02*
X160155387Y-91757695D01*
X160155387Y-91757695D02*
X160107768Y-91662457D01*
X160107768Y-91662457D02*
X160060149Y-91614838D01*
X160060149Y-91614838D02*
X159964911Y-91567219D01*
X159964911Y-91567219D02*
X159726816Y-91567219D01*
X159726816Y-91567219D02*
X159583959Y-91614838D01*
X159298244Y-91567219D02*
X158726816Y-91567219D01*
X159012530Y-92567219D02*
X159012530Y-91567219D01*
X162869673Y-94867219D02*
X163345863Y-94867219D01*
X163345863Y-94867219D02*
X163345863Y-93867219D01*
X162536339Y-94867219D02*
X162536339Y-93867219D01*
X162107768Y-94819600D02*
X161964911Y-94867219D01*
X161964911Y-94867219D02*
X161726816Y-94867219D01*
X161726816Y-94867219D02*
X161631578Y-94819600D01*
X161631578Y-94819600D02*
X161583959Y-94771980D01*
X161583959Y-94771980D02*
X161536340Y-94676742D01*
X161536340Y-94676742D02*
X161536340Y-94581504D01*
X161536340Y-94581504D02*
X161583959Y-94486266D01*
X161583959Y-94486266D02*
X161631578Y-94438647D01*
X161631578Y-94438647D02*
X161726816Y-94391028D01*
X161726816Y-94391028D02*
X161917292Y-94343409D01*
X161917292Y-94343409D02*
X162012530Y-94295790D01*
X162012530Y-94295790D02*
X162060149Y-94248171D01*
X162060149Y-94248171D02*
X162107768Y-94152933D01*
X162107768Y-94152933D02*
X162107768Y-94057695D01*
X162107768Y-94057695D02*
X162060149Y-93962457D01*
X162060149Y-93962457D02*
X162012530Y-93914838D01*
X162012530Y-93914838D02*
X161917292Y-93867219D01*
X161917292Y-93867219D02*
X161679197Y-93867219D01*
X161679197Y-93867219D02*
X161536340Y-93914838D01*
X161250625Y-93867219D02*
X160679197Y-93867219D01*
X160964911Y-94867219D02*
X160964911Y-93867219D01*
X160345863Y-94343409D02*
X160012530Y-94343409D01*
X159869673Y-94867219D02*
X160345863Y-94867219D01*
X160345863Y-94867219D02*
X160345863Y-93867219D01*
X160345863Y-93867219D02*
X159869673Y-93867219D01*
X159441101Y-94867219D02*
X159441101Y-93867219D01*
X159441101Y-93867219D02*
X158869673Y-94867219D01*
X158869673Y-94867219D02*
X158869673Y-93867219D01*
D11*
X160254063Y-74934471D02*
X160258758Y-74880801D01*
X160258758Y-74880801D02*
X160238967Y-74797949D01*
X160238967Y-74797949D02*
X160116531Y-74652036D01*
X160116531Y-74652036D02*
X160038374Y-74618157D01*
X160038374Y-74618157D02*
X159984704Y-74613462D01*
X159984704Y-74613462D02*
X159901852Y-74633254D01*
X159901852Y-74633254D02*
X159843487Y-74682228D01*
X159843487Y-74682228D02*
X159780426Y-74784872D01*
X159780426Y-74784872D02*
X159724080Y-75428910D01*
X159724080Y-75428910D02*
X159405747Y-75049535D01*
X159553326Y-73980835D02*
X159798198Y-74272661D01*
X159798198Y-74272661D02*
X159530859Y-74546715D01*
X159530859Y-74546715D02*
X159535554Y-74493045D01*
X159535554Y-74493045D02*
X159515762Y-74410193D01*
X159515762Y-74410193D02*
X159393327Y-74264280D01*
X159393327Y-74264280D02*
X159315170Y-74230402D01*
X159315170Y-74230402D02*
X159261500Y-74225706D01*
X159261500Y-74225706D02*
X159178648Y-74245498D01*
X159178648Y-74245498D02*
X159032734Y-74367933D01*
X159032734Y-74367933D02*
X158998856Y-74446090D01*
X158998856Y-74446090D02*
X158994161Y-74499760D01*
X158994161Y-74499760D02*
X159013952Y-74582613D01*
X159013952Y-74582613D02*
X159136388Y-74728526D01*
X159136388Y-74728526D02*
X159214545Y-74762404D01*
X159214545Y-74762404D02*
X159268215Y-74767099D01*
X158753985Y-74154264D02*
X158700315Y-74149568D01*
X158700315Y-74149568D02*
X158695619Y-74203238D01*
X158695619Y-74203238D02*
X158749289Y-74207934D01*
X158749289Y-74207934D02*
X158753985Y-74154264D01*
X158753985Y-74154264D02*
X158695619Y-74203238D01*
X158818712Y-73105355D02*
X159063584Y-73397182D01*
X159063584Y-73397182D02*
X158796244Y-73671236D01*
X158796244Y-73671236D02*
X158800940Y-73617566D01*
X158800940Y-73617566D02*
X158781148Y-73534714D01*
X158781148Y-73534714D02*
X158658712Y-73388800D01*
X158658712Y-73388800D02*
X158580555Y-73354922D01*
X158580555Y-73354922D02*
X158526886Y-73350227D01*
X158526886Y-73350227D02*
X158444033Y-73370018D01*
X158444033Y-73370018D02*
X158298120Y-73492454D01*
X158298120Y-73492454D02*
X158264242Y-73570611D01*
X158264242Y-73570611D02*
X158259546Y-73624281D01*
X158259546Y-73624281D02*
X158279338Y-73707133D01*
X158279338Y-73707133D02*
X158401774Y-73853047D01*
X158401774Y-73853047D02*
X158479931Y-73886925D01*
X158479931Y-73886925D02*
X158533600Y-73891620D01*
X157961005Y-73327759D02*
X158369562Y-72984939D01*
X158311197Y-73033913D02*
X158315892Y-72980243D01*
X158315892Y-72980243D02*
X158296101Y-72897391D01*
X158296101Y-72897391D02*
X158222639Y-72809843D01*
X158222639Y-72809843D02*
X158144482Y-72775965D01*
X158144482Y-72775965D02*
X158061630Y-72795756D01*
X158061630Y-72795756D02*
X157740621Y-73065115D01*
X158061630Y-72795756D02*
X158095508Y-72717599D01*
X158095508Y-72717599D02*
X158075716Y-72634747D01*
X158075716Y-72634747D02*
X158002255Y-72547199D01*
X158002255Y-72547199D02*
X157924098Y-72513321D01*
X157924098Y-72513321D02*
X157841245Y-72533113D01*
X157841245Y-72533113D02*
X157520236Y-72802471D01*
X157275365Y-72510644D02*
X157683922Y-72167824D01*
X157625556Y-72216799D02*
X157630252Y-72163129D01*
X157630252Y-72163129D02*
X157610460Y-72080276D01*
X157610460Y-72080276D02*
X157536999Y-71992729D01*
X157536999Y-71992729D02*
X157458842Y-71958850D01*
X157458842Y-71958850D02*
X157375989Y-71978642D01*
X157375989Y-71978642D02*
X157054980Y-72248001D01*
X157375989Y-71978642D02*
X157409868Y-71900485D01*
X157409868Y-71900485D02*
X157390076Y-71817633D01*
X157390076Y-71817633D02*
X157316614Y-71730085D01*
X157316614Y-71730085D02*
X157238458Y-71696207D01*
X157238458Y-71696207D02*
X157155605Y-71715998D01*
X157155605Y-71715998D02*
X156834596Y-71985357D01*
D15*
X161060149Y-89843409D02*
X161393482Y-89843409D01*
X161393482Y-90367219D02*
X161393482Y-89367219D01*
X161393482Y-89367219D02*
X160917292Y-89367219D01*
X160631577Y-89367219D02*
X160393482Y-90367219D01*
X160393482Y-90367219D02*
X160203006Y-89652933D01*
X160203006Y-89652933D02*
X160012530Y-90367219D01*
X160012530Y-90367219D02*
X159774435Y-89367219D01*
X159393482Y-90367219D02*
X159393482Y-89367219D01*
X159393482Y-89367219D02*
X159155387Y-89367219D01*
X159155387Y-89367219D02*
X159012530Y-89414838D01*
X159012530Y-89414838D02*
X158917292Y-89510076D01*
X158917292Y-89510076D02*
X158869673Y-89605314D01*
X158869673Y-89605314D02*
X158822054Y-89795790D01*
X158822054Y-89795790D02*
X158822054Y-89938647D01*
X158822054Y-89938647D02*
X158869673Y-90129123D01*
X158869673Y-90129123D02*
X158917292Y-90224361D01*
X158917292Y-90224361D02*
X159012530Y-90319600D01*
X159012530Y-90319600D02*
X159155387Y-90367219D01*
X159155387Y-90367219D02*
X159393482Y-90367219D01*
X157541101Y-96067219D02*
X156874435Y-96067219D01*
X156874435Y-96067219D02*
X157303006Y-97067219D01*
X162488720Y-87167219D02*
X162155387Y-88167219D01*
X162155387Y-88167219D02*
X161822054Y-87167219D01*
X161298244Y-87167219D02*
X161107768Y-87167219D01*
X161107768Y-87167219D02*
X161012530Y-87214838D01*
X161012530Y-87214838D02*
X160917292Y-87310076D01*
X160917292Y-87310076D02*
X160869673Y-87500552D01*
X160869673Y-87500552D02*
X160869673Y-87833885D01*
X160869673Y-87833885D02*
X160917292Y-88024361D01*
X160917292Y-88024361D02*
X161012530Y-88119600D01*
X161012530Y-88119600D02*
X161107768Y-88167219D01*
X161107768Y-88167219D02*
X161298244Y-88167219D01*
X161298244Y-88167219D02*
X161393482Y-88119600D01*
X161393482Y-88119600D02*
X161488720Y-88024361D01*
X161488720Y-88024361D02*
X161536339Y-87833885D01*
X161536339Y-87833885D02*
X161536339Y-87500552D01*
X161536339Y-87500552D02*
X161488720Y-87310076D01*
X161488720Y-87310076D02*
X161393482Y-87214838D01*
X161393482Y-87214838D02*
X161298244Y-87167219D01*
X159964911Y-88167219D02*
X160441101Y-88167219D01*
X160441101Y-88167219D02*
X160441101Y-87167219D01*
X159631577Y-87786266D02*
X158869673Y-87786266D01*
D11*
X133685704Y-75497982D02*
X134104752Y-75497982D01*
X134104752Y-75497982D02*
X134180942Y-75536077D01*
X134180942Y-75536077D02*
X134219038Y-75612268D01*
X134219038Y-75612268D02*
X134219038Y-75764649D01*
X134219038Y-75764649D02*
X134180942Y-75840839D01*
X133723800Y-75497982D02*
X133685704Y-75574173D01*
X133685704Y-75574173D02*
X133685704Y-75764649D01*
X133685704Y-75764649D02*
X133723800Y-75840839D01*
X133723800Y-75840839D02*
X133799990Y-75878935D01*
X133799990Y-75878935D02*
X133876180Y-75878935D01*
X133876180Y-75878935D02*
X133952371Y-75840839D01*
X133952371Y-75840839D02*
X133990466Y-75764649D01*
X133990466Y-75764649D02*
X133990466Y-75574173D01*
X133990466Y-75574173D02*
X134028561Y-75497982D01*
X133685704Y-74774172D02*
X134485704Y-74774172D01*
X133723800Y-74774172D02*
X133685704Y-74850363D01*
X133685704Y-74850363D02*
X133685704Y-75002744D01*
X133685704Y-75002744D02*
X133723800Y-75078934D01*
X133723800Y-75078934D02*
X133761895Y-75117029D01*
X133761895Y-75117029D02*
X133838085Y-75155125D01*
X133838085Y-75155125D02*
X134066657Y-75155125D01*
X134066657Y-75155125D02*
X134142847Y-75117029D01*
X134142847Y-75117029D02*
X134180942Y-75078934D01*
X134180942Y-75078934D02*
X134219038Y-75002744D01*
X134219038Y-75002744D02*
X134219038Y-74850363D01*
X134219038Y-74850363D02*
X134180942Y-74774172D01*
X133685704Y-73440838D02*
X134104752Y-73440838D01*
X134104752Y-73440838D02*
X134180942Y-73478933D01*
X134180942Y-73478933D02*
X134219038Y-73555124D01*
X134219038Y-73555124D02*
X134219038Y-73707505D01*
X134219038Y-73707505D02*
X134180942Y-73783695D01*
X133723800Y-73440838D02*
X133685704Y-73517029D01*
X133685704Y-73517029D02*
X133685704Y-73707505D01*
X133685704Y-73707505D02*
X133723800Y-73783695D01*
X133723800Y-73783695D02*
X133799990Y-73821791D01*
X133799990Y-73821791D02*
X133876180Y-73821791D01*
X133876180Y-73821791D02*
X133952371Y-73783695D01*
X133952371Y-73783695D02*
X133990466Y-73707505D01*
X133990466Y-73707505D02*
X133990466Y-73517029D01*
X133990466Y-73517029D02*
X134028561Y-73440838D01*
X134219038Y-73059885D02*
X133685704Y-73059885D01*
X134142847Y-73059885D02*
X134180942Y-73021790D01*
X134180942Y-73021790D02*
X134219038Y-72945600D01*
X134219038Y-72945600D02*
X134219038Y-72831314D01*
X134219038Y-72831314D02*
X134180942Y-72755123D01*
X134180942Y-72755123D02*
X134104752Y-72717028D01*
X134104752Y-72717028D02*
X133685704Y-72717028D01*
X133383792Y-72252772D02*
X133898022Y-71639936D01*
X133408279Y-72223589D02*
X133442157Y-72301746D01*
X133442157Y-72301746D02*
X133558888Y-72399695D01*
X133558888Y-72399695D02*
X133641740Y-72419487D01*
X133641740Y-72419487D02*
X133695410Y-72414791D01*
X133695410Y-72414791D02*
X133773567Y-72380913D01*
X133773567Y-72380913D02*
X133920490Y-72205817D01*
X133920490Y-72205817D02*
X133940281Y-72122965D01*
X133940281Y-72122965D02*
X133935586Y-72069295D01*
X133935586Y-72069295D02*
X133901708Y-71991138D01*
X133901708Y-71991138D02*
X133784977Y-71893189D01*
X133784977Y-71893189D02*
X133702125Y-71873398D01*
X141688935Y-66330485D02*
X141650839Y-66292390D01*
X141650839Y-66292390D02*
X141574649Y-66254295D01*
X141574649Y-66254295D02*
X141384173Y-66254295D01*
X141384173Y-66254295D02*
X141307982Y-66292390D01*
X141307982Y-66292390D02*
X141269887Y-66330485D01*
X141269887Y-66330485D02*
X141231792Y-66406676D01*
X141231792Y-66406676D02*
X141231792Y-66482866D01*
X141231792Y-66482866D02*
X141269887Y-66597152D01*
X141269887Y-66597152D02*
X141727030Y-67054295D01*
X141727030Y-67054295D02*
X141231792Y-67054295D01*
X140546077Y-66520961D02*
X140546077Y-67054295D01*
X140736553Y-66216200D02*
X140927030Y-66787628D01*
X140927030Y-66787628D02*
X140431791Y-66787628D01*
X140127029Y-67054295D02*
X140127029Y-66520961D01*
X140127029Y-66597152D02*
X140088934Y-66559057D01*
X140088934Y-66559057D02*
X140012744Y-66520961D01*
X140012744Y-66520961D02*
X139898458Y-66520961D01*
X139898458Y-66520961D02*
X139822267Y-66559057D01*
X139822267Y-66559057D02*
X139784172Y-66635247D01*
X139784172Y-66635247D02*
X139784172Y-67054295D01*
X139784172Y-66635247D02*
X139746077Y-66559057D01*
X139746077Y-66559057D02*
X139669886Y-66520961D01*
X139669886Y-66520961D02*
X139555601Y-66520961D01*
X139555601Y-66520961D02*
X139479410Y-66559057D01*
X139479410Y-66559057D02*
X139441315Y-66635247D01*
X139441315Y-66635247D02*
X139441315Y-67054295D01*
X139060362Y-67054295D02*
X139060362Y-66520961D01*
X139060362Y-66597152D02*
X139022267Y-66559057D01*
X139022267Y-66559057D02*
X138946077Y-66520961D01*
X138946077Y-66520961D02*
X138831791Y-66520961D01*
X138831791Y-66520961D02*
X138755600Y-66559057D01*
X138755600Y-66559057D02*
X138717505Y-66635247D01*
X138717505Y-66635247D02*
X138717505Y-67054295D01*
X138717505Y-66635247D02*
X138679410Y-66559057D01*
X138679410Y-66559057D02*
X138603219Y-66520961D01*
X138603219Y-66520961D02*
X138488934Y-66520961D01*
X138488934Y-66520961D02*
X138412743Y-66559057D01*
X138412743Y-66559057D02*
X138374648Y-66635247D01*
X138374648Y-66635247D02*
X138374648Y-67054295D01*
D15*
X157017292Y-93852929D02*
X157207768Y-93852929D01*
X157207768Y-93852929D02*
X157303006Y-93900548D01*
X157303006Y-93900548D02*
X157350625Y-93948167D01*
X157350625Y-93948167D02*
X157445863Y-94091024D01*
X157445863Y-94091024D02*
X157493482Y-94281500D01*
X157493482Y-94281500D02*
X157493482Y-94662452D01*
X157493482Y-94662452D02*
X157445863Y-94757690D01*
X157445863Y-94757690D02*
X157398244Y-94805310D01*
X157398244Y-94805310D02*
X157303006Y-94852929D01*
X157303006Y-94852929D02*
X157112530Y-94852929D01*
X157112530Y-94852929D02*
X157017292Y-94805310D01*
X157017292Y-94805310D02*
X156969673Y-94757690D01*
X156969673Y-94757690D02*
X156922054Y-94662452D01*
X156922054Y-94662452D02*
X156922054Y-94424357D01*
X156922054Y-94424357D02*
X156969673Y-94329119D01*
X156969673Y-94329119D02*
X157017292Y-94281500D01*
X157017292Y-94281500D02*
X157112530Y-94233881D01*
X157112530Y-94233881D02*
X157303006Y-94233881D01*
X157303006Y-94233881D02*
X157398244Y-94281500D01*
X157398244Y-94281500D02*
X157445863Y-94329119D01*
X157445863Y-94329119D02*
X157493482Y-94424357D01*
X161012530Y-99171980D02*
X161060149Y-99219600D01*
X161060149Y-99219600D02*
X161203006Y-99267219D01*
X161203006Y-99267219D02*
X161298244Y-99267219D01*
X161298244Y-99267219D02*
X161441101Y-99219600D01*
X161441101Y-99219600D02*
X161536339Y-99124361D01*
X161536339Y-99124361D02*
X161583958Y-99029123D01*
X161583958Y-99029123D02*
X161631577Y-98838647D01*
X161631577Y-98838647D02*
X161631577Y-98695790D01*
X161631577Y-98695790D02*
X161583958Y-98505314D01*
X161583958Y-98505314D02*
X161536339Y-98410076D01*
X161536339Y-98410076D02*
X161441101Y-98314838D01*
X161441101Y-98314838D02*
X161298244Y-98267219D01*
X161298244Y-98267219D02*
X161203006Y-98267219D01*
X161203006Y-98267219D02*
X161060149Y-98314838D01*
X161060149Y-98314838D02*
X161012530Y-98362457D01*
X160393482Y-98267219D02*
X160203006Y-98267219D01*
X160203006Y-98267219D02*
X160107768Y-98314838D01*
X160107768Y-98314838D02*
X160012530Y-98410076D01*
X160012530Y-98410076D02*
X159964911Y-98600552D01*
X159964911Y-98600552D02*
X159964911Y-98933885D01*
X159964911Y-98933885D02*
X160012530Y-99124361D01*
X160012530Y-99124361D02*
X160107768Y-99219600D01*
X160107768Y-99219600D02*
X160203006Y-99267219D01*
X160203006Y-99267219D02*
X160393482Y-99267219D01*
X160393482Y-99267219D02*
X160488720Y-99219600D01*
X160488720Y-99219600D02*
X160583958Y-99124361D01*
X160583958Y-99124361D02*
X160631577Y-98933885D01*
X160631577Y-98933885D02*
X160631577Y-98600552D01*
X160631577Y-98600552D02*
X160583958Y-98410076D01*
X160583958Y-98410076D02*
X160488720Y-98314838D01*
X160488720Y-98314838D02*
X160393482Y-98267219D01*
X159536339Y-99267219D02*
X159536339Y-98267219D01*
X159536339Y-98267219D02*
X159203006Y-98981504D01*
X159203006Y-98981504D02*
X158869673Y-98267219D01*
X158869673Y-98267219D02*
X158869673Y-99267219D01*
X156922054Y-83781504D02*
X157493482Y-83781504D01*
X157207768Y-83781504D02*
X157207768Y-82781504D01*
X157207768Y-82781504D02*
X157303006Y-82924361D01*
X157303006Y-82924361D02*
X157398244Y-83019599D01*
X157398244Y-83019599D02*
X157493482Y-83067218D01*
D11*
X132097982Y-72256200D02*
X132174173Y-72294295D01*
X132174173Y-72294295D02*
X132326554Y-72294295D01*
X132326554Y-72294295D02*
X132402744Y-72256200D01*
X132402744Y-72256200D02*
X132440839Y-72218104D01*
X132440839Y-72218104D02*
X132478935Y-72141914D01*
X132478935Y-72141914D02*
X132478935Y-71913342D01*
X132478935Y-71913342D02*
X132440839Y-71837152D01*
X132440839Y-71837152D02*
X132402744Y-71799057D01*
X132402744Y-71799057D02*
X132326554Y-71760961D01*
X132326554Y-71760961D02*
X132174173Y-71760961D01*
X132174173Y-71760961D02*
X132097982Y-71799057D01*
X131412268Y-71760961D02*
X131412268Y-72294295D01*
X131755125Y-71760961D02*
X131755125Y-72180009D01*
X131755125Y-72180009D02*
X131717030Y-72256200D01*
X131717030Y-72256200D02*
X131640840Y-72294295D01*
X131640840Y-72294295D02*
X131526554Y-72294295D01*
X131526554Y-72294295D02*
X131450363Y-72256200D01*
X131450363Y-72256200D02*
X131412268Y-72218104D01*
X131145601Y-71760961D02*
X130840839Y-71760961D01*
X131031315Y-71494295D02*
X131031315Y-72180009D01*
X131031315Y-72180009D02*
X130993220Y-72256200D01*
X130993220Y-72256200D02*
X130917030Y-72294295D01*
X130917030Y-72294295D02*
X130840839Y-72294295D01*
X129964648Y-72294295D02*
X129964648Y-71494295D01*
X129621791Y-72294295D02*
X129621791Y-71875247D01*
X129621791Y-71875247D02*
X129659886Y-71799057D01*
X129659886Y-71799057D02*
X129736077Y-71760961D01*
X129736077Y-71760961D02*
X129850363Y-71760961D01*
X129850363Y-71760961D02*
X129926553Y-71799057D01*
X129926553Y-71799057D02*
X129964648Y-71837152D01*
X128936076Y-72256200D02*
X129012267Y-72294295D01*
X129012267Y-72294295D02*
X129164648Y-72294295D01*
X129164648Y-72294295D02*
X129240838Y-72256200D01*
X129240838Y-72256200D02*
X129278934Y-72180009D01*
X129278934Y-72180009D02*
X129278934Y-71875247D01*
X129278934Y-71875247D02*
X129240838Y-71799057D01*
X129240838Y-71799057D02*
X129164648Y-71760961D01*
X129164648Y-71760961D02*
X129012267Y-71760961D01*
X129012267Y-71760961D02*
X128936076Y-71799057D01*
X128936076Y-71799057D02*
X128897981Y-71875247D01*
X128897981Y-71875247D02*
X128897981Y-71951438D01*
X128897981Y-71951438D02*
X129278934Y-72027628D01*
X128555124Y-72294295D02*
X128555124Y-71760961D01*
X128555124Y-71913342D02*
X128517029Y-71837152D01*
X128517029Y-71837152D02*
X128478934Y-71799057D01*
X128478934Y-71799057D02*
X128402743Y-71760961D01*
X128402743Y-71760961D02*
X128326553Y-71760961D01*
X127755124Y-72256200D02*
X127831315Y-72294295D01*
X127831315Y-72294295D02*
X127983696Y-72294295D01*
X127983696Y-72294295D02*
X128059886Y-72256200D01*
X128059886Y-72256200D02*
X128097982Y-72180009D01*
X128097982Y-72180009D02*
X128097982Y-71875247D01*
X128097982Y-71875247D02*
X128059886Y-71799057D01*
X128059886Y-71799057D02*
X127983696Y-71760961D01*
X127983696Y-71760961D02*
X127831315Y-71760961D01*
X127831315Y-71760961D02*
X127755124Y-71799057D01*
X127755124Y-71799057D02*
X127717029Y-71875247D01*
X127717029Y-71875247D02*
X127717029Y-71951438D01*
X127717029Y-71951438D02*
X128097982Y-72027628D01*
X127374172Y-72218104D02*
X127336077Y-72256200D01*
X127336077Y-72256200D02*
X127374172Y-72294295D01*
X127374172Y-72294295D02*
X127412268Y-72256200D01*
X127412268Y-72256200D02*
X127374172Y-72218104D01*
X127374172Y-72218104D02*
X127374172Y-72294295D01*
X127374172Y-71989533D02*
X127412268Y-71532390D01*
X127412268Y-71532390D02*
X127374172Y-71494295D01*
X127374172Y-71494295D02*
X127336077Y-71532390D01*
X127336077Y-71532390D02*
X127374172Y-71989533D01*
X127374172Y-71989533D02*
X127374172Y-71494295D01*
D15*
X161917292Y-85967219D02*
X161917292Y-84967219D01*
X161917292Y-84967219D02*
X161536340Y-84967219D01*
X161536340Y-84967219D02*
X161441102Y-85014838D01*
X161441102Y-85014838D02*
X161393483Y-85062457D01*
X161393483Y-85062457D02*
X161345864Y-85157695D01*
X161345864Y-85157695D02*
X161345864Y-85300552D01*
X161345864Y-85300552D02*
X161393483Y-85395790D01*
X161393483Y-85395790D02*
X161441102Y-85443409D01*
X161441102Y-85443409D02*
X161536340Y-85491028D01*
X161536340Y-85491028D02*
X161917292Y-85491028D01*
X160441102Y-85967219D02*
X160917292Y-85967219D01*
X160917292Y-85967219D02*
X160917292Y-84967219D01*
X160155387Y-85681504D02*
X159679197Y-85681504D01*
X160250625Y-85967219D02*
X159917292Y-84967219D01*
X159917292Y-84967219D02*
X159583959Y-85967219D01*
X159060149Y-85491028D02*
X159060149Y-85967219D01*
X159393482Y-84967219D02*
X159060149Y-85491028D01*
X159060149Y-85491028D02*
X158726816Y-84967219D01*
X157017292Y-89757692D02*
X157017292Y-90424359D01*
X157255387Y-89376740D02*
X157493482Y-90091025D01*
X157493482Y-90091025D02*
X156874435Y-90091025D01*
X162488720Y-82767219D02*
X162155387Y-83767219D01*
X162155387Y-83767219D02*
X161822054Y-82767219D01*
X161298244Y-82767219D02*
X161107768Y-82767219D01*
X161107768Y-82767219D02*
X161012530Y-82814838D01*
X161012530Y-82814838D02*
X160917292Y-82910076D01*
X160917292Y-82910076D02*
X160869673Y-83100552D01*
X160869673Y-83100552D02*
X160869673Y-83433885D01*
X160869673Y-83433885D02*
X160917292Y-83624361D01*
X160917292Y-83624361D02*
X161012530Y-83719600D01*
X161012530Y-83719600D02*
X161107768Y-83767219D01*
X161107768Y-83767219D02*
X161298244Y-83767219D01*
X161298244Y-83767219D02*
X161393482Y-83719600D01*
X161393482Y-83719600D02*
X161488720Y-83624361D01*
X161488720Y-83624361D02*
X161536339Y-83433885D01*
X161536339Y-83433885D02*
X161536339Y-83100552D01*
X161536339Y-83100552D02*
X161488720Y-82910076D01*
X161488720Y-82910076D02*
X161393482Y-82814838D01*
X161393482Y-82814838D02*
X161298244Y-82767219D01*
X159964911Y-83767219D02*
X160441101Y-83767219D01*
X160441101Y-83767219D02*
X160441101Y-82767219D01*
X159631577Y-83386266D02*
X158869673Y-83386266D01*
X159250625Y-83767219D02*
X159250625Y-83005314D01*
D16*
X150856068Y-87241388D02*
X150903687Y-87384245D01*
X150903687Y-87384245D02*
X150951306Y-87431864D01*
X150951306Y-87431864D02*
X151046544Y-87479483D01*
X151046544Y-87479483D02*
X151189401Y-87479483D01*
X151189401Y-87479483D02*
X151284639Y-87431864D01*
X151284639Y-87431864D02*
X151332259Y-87384245D01*
X151332259Y-87384245D02*
X151379878Y-87289007D01*
X151379878Y-87289007D02*
X151379878Y-86908055D01*
X151379878Y-86908055D02*
X150379878Y-86908055D01*
X150379878Y-86908055D02*
X150379878Y-87241388D01*
X150379878Y-87241388D02*
X150427497Y-87336626D01*
X150427497Y-87336626D02*
X150475116Y-87384245D01*
X150475116Y-87384245D02*
X150570354Y-87431864D01*
X150570354Y-87431864D02*
X150665592Y-87431864D01*
X150665592Y-87431864D02*
X150760830Y-87384245D01*
X150760830Y-87384245D02*
X150808449Y-87336626D01*
X150808449Y-87336626D02*
X150856068Y-87241388D01*
X150856068Y-87241388D02*
X150856068Y-86908055D01*
X150379878Y-87908055D02*
X151189401Y-87908055D01*
X151189401Y-87908055D02*
X151284639Y-87955674D01*
X151284639Y-87955674D02*
X151332259Y-88003293D01*
X151332259Y-88003293D02*
X151379878Y-88098531D01*
X151379878Y-88098531D02*
X151379878Y-88289007D01*
X151379878Y-88289007D02*
X151332259Y-88384245D01*
X151332259Y-88384245D02*
X151284639Y-88431864D01*
X151284639Y-88431864D02*
X151189401Y-88479483D01*
X151189401Y-88479483D02*
X150379878Y-88479483D01*
X150379878Y-88812817D02*
X150379878Y-89384245D01*
X151379878Y-89098531D02*
X150379878Y-89098531D01*
X150379878Y-89574722D02*
X150379878Y-90146150D01*
X151379878Y-89860436D02*
X150379878Y-89860436D01*
X150379878Y-90669960D02*
X150379878Y-90860436D01*
X150379878Y-90860436D02*
X150427497Y-90955674D01*
X150427497Y-90955674D02*
X150522735Y-91050912D01*
X150522735Y-91050912D02*
X150713211Y-91098531D01*
X150713211Y-91098531D02*
X151046544Y-91098531D01*
X151046544Y-91098531D02*
X151237020Y-91050912D01*
X151237020Y-91050912D02*
X151332259Y-90955674D01*
X151332259Y-90955674D02*
X151379878Y-90860436D01*
X151379878Y-90860436D02*
X151379878Y-90669960D01*
X151379878Y-90669960D02*
X151332259Y-90574722D01*
X151332259Y-90574722D02*
X151237020Y-90479484D01*
X151237020Y-90479484D02*
X151046544Y-90431865D01*
X151046544Y-90431865D02*
X150713211Y-90431865D01*
X150713211Y-90431865D02*
X150522735Y-90479484D01*
X150522735Y-90479484D02*
X150427497Y-90574722D01*
X150427497Y-90574722D02*
X150379878Y-90669960D01*
X151379878Y-91527103D02*
X150379878Y-91527103D01*
X150379878Y-91527103D02*
X151379878Y-92098531D01*
X151379878Y-92098531D02*
X150379878Y-92098531D01*
X151332259Y-92527103D02*
X151379878Y-92669960D01*
X151379878Y-92669960D02*
X151379878Y-92908055D01*
X151379878Y-92908055D02*
X151332259Y-93003293D01*
X151332259Y-93003293D02*
X151284639Y-93050912D01*
X151284639Y-93050912D02*
X151189401Y-93098531D01*
X151189401Y-93098531D02*
X151094163Y-93098531D01*
X151094163Y-93098531D02*
X150998925Y-93050912D01*
X150998925Y-93050912D02*
X150951306Y-93003293D01*
X150951306Y-93003293D02*
X150903687Y-92908055D01*
X150903687Y-92908055D02*
X150856068Y-92717579D01*
X150856068Y-92717579D02*
X150808449Y-92622341D01*
X150808449Y-92622341D02*
X150760830Y-92574722D01*
X150760830Y-92574722D02*
X150665592Y-92527103D01*
X150665592Y-92527103D02*
X150570354Y-92527103D01*
X150570354Y-92527103D02*
X150475116Y-92574722D01*
X150475116Y-92574722D02*
X150427497Y-92622341D01*
X150427497Y-92622341D02*
X150379878Y-92717579D01*
X150379878Y-92717579D02*
X150379878Y-92955674D01*
X150379878Y-92955674D02*
X150427497Y-93098531D01*
X151284639Y-93527103D02*
X151332259Y-93574722D01*
X151332259Y-93574722D02*
X151379878Y-93527103D01*
X151379878Y-93527103D02*
X151332259Y-93479484D01*
X151332259Y-93479484D02*
X151284639Y-93527103D01*
X151284639Y-93527103D02*
X151379878Y-93527103D01*
X150998925Y-93527103D02*
X150427497Y-93479484D01*
X150427497Y-93479484D02*
X150379878Y-93527103D01*
X150379878Y-93527103D02*
X150427497Y-93574722D01*
X150427497Y-93574722D02*
X150998925Y-93527103D01*
X150998925Y-93527103D02*
X150379878Y-93527103D01*
D11*
X133688391Y-76532596D02*
X133708183Y-76615448D01*
X133708183Y-76615448D02*
X133806131Y-76732179D01*
X133806131Y-76732179D02*
X133884288Y-76766057D01*
X133884288Y-76766057D02*
X133967141Y-76746265D01*
X133967141Y-76746265D02*
X134200602Y-76550368D01*
X134200602Y-76550368D02*
X134234480Y-76472211D01*
X134234480Y-76472211D02*
X134214688Y-76389359D01*
X134214688Y-76389359D02*
X134116740Y-76272628D01*
X134116740Y-76272628D02*
X134038583Y-76238750D01*
X134038583Y-76238750D02*
X133955730Y-76258542D01*
X133955730Y-76258542D02*
X133897365Y-76307516D01*
X133897365Y-76307516D02*
X134083871Y-76648317D01*
X132588935Y-111550485D02*
X132550839Y-111512390D01*
X132550839Y-111512390D02*
X132474649Y-111474295D01*
X132474649Y-111474295D02*
X132284173Y-111474295D01*
X132284173Y-111474295D02*
X132207982Y-111512390D01*
X132207982Y-111512390D02*
X132169887Y-111550485D01*
X132169887Y-111550485D02*
X132131792Y-111626676D01*
X132131792Y-111626676D02*
X132131792Y-111702866D01*
X132131792Y-111702866D02*
X132169887Y-111817152D01*
X132169887Y-111817152D02*
X132627030Y-112274295D01*
X132627030Y-112274295D02*
X132131792Y-112274295D01*
X131827030Y-111550485D02*
X131788934Y-111512390D01*
X131788934Y-111512390D02*
X131712744Y-111474295D01*
X131712744Y-111474295D02*
X131522268Y-111474295D01*
X131522268Y-111474295D02*
X131446077Y-111512390D01*
X131446077Y-111512390D02*
X131407982Y-111550485D01*
X131407982Y-111550485D02*
X131369887Y-111626676D01*
X131369887Y-111626676D02*
X131369887Y-111702866D01*
X131369887Y-111702866D02*
X131407982Y-111817152D01*
X131407982Y-111817152D02*
X131865125Y-112274295D01*
X131865125Y-112274295D02*
X131369887Y-112274295D01*
X131027029Y-112198104D02*
X130988934Y-112236200D01*
X130988934Y-112236200D02*
X131027029Y-112274295D01*
X131027029Y-112274295D02*
X131065125Y-112236200D01*
X131065125Y-112236200D02*
X131027029Y-112198104D01*
X131027029Y-112198104D02*
X131027029Y-112274295D01*
X130265125Y-111474295D02*
X130646077Y-111474295D01*
X130646077Y-111474295D02*
X130684173Y-111855247D01*
X130684173Y-111855247D02*
X130646077Y-111817152D01*
X130646077Y-111817152D02*
X130569887Y-111779057D01*
X130569887Y-111779057D02*
X130379411Y-111779057D01*
X130379411Y-111779057D02*
X130303220Y-111817152D01*
X130303220Y-111817152D02*
X130265125Y-111855247D01*
X130265125Y-111855247D02*
X130227030Y-111931438D01*
X130227030Y-111931438D02*
X130227030Y-112121914D01*
X130227030Y-112121914D02*
X130265125Y-112198104D01*
X130265125Y-112198104D02*
X130303220Y-112236200D01*
X130303220Y-112236200D02*
X130379411Y-112274295D01*
X130379411Y-112274295D02*
X130569887Y-112274295D01*
X130569887Y-112274295D02*
X130646077Y-112236200D01*
X130646077Y-112236200D02*
X130684173Y-112198104D01*
X129884172Y-112274295D02*
X129884172Y-111740961D01*
X129884172Y-111817152D02*
X129846077Y-111779057D01*
X129846077Y-111779057D02*
X129769887Y-111740961D01*
X129769887Y-111740961D02*
X129655601Y-111740961D01*
X129655601Y-111740961D02*
X129579410Y-111779057D01*
X129579410Y-111779057D02*
X129541315Y-111855247D01*
X129541315Y-111855247D02*
X129541315Y-112274295D01*
X129541315Y-111855247D02*
X129503220Y-111779057D01*
X129503220Y-111779057D02*
X129427029Y-111740961D01*
X129427029Y-111740961D02*
X129312744Y-111740961D01*
X129312744Y-111740961D02*
X129236553Y-111779057D01*
X129236553Y-111779057D02*
X129198458Y-111855247D01*
X129198458Y-111855247D02*
X129198458Y-112274295D01*
X128817505Y-112274295D02*
X128817505Y-111740961D01*
X128817505Y-111817152D02*
X128779410Y-111779057D01*
X128779410Y-111779057D02*
X128703220Y-111740961D01*
X128703220Y-111740961D02*
X128588934Y-111740961D01*
X128588934Y-111740961D02*
X128512743Y-111779057D01*
X128512743Y-111779057D02*
X128474648Y-111855247D01*
X128474648Y-111855247D02*
X128474648Y-112274295D01*
X128474648Y-111855247D02*
X128436553Y-111779057D01*
X128436553Y-111779057D02*
X128360362Y-111740961D01*
X128360362Y-111740961D02*
X128246077Y-111740961D01*
X128246077Y-111740961D02*
X128169886Y-111779057D01*
X128169886Y-111779057D02*
X128131791Y-111855247D01*
X128131791Y-111855247D02*
X128131791Y-112274295D01*
D15*
X157541101Y-87210074D02*
X156922054Y-87210074D01*
X156922054Y-87210074D02*
X157255387Y-87591026D01*
X157255387Y-87591026D02*
X157112530Y-87591026D01*
X157112530Y-87591026D02*
X157017292Y-87638645D01*
X157017292Y-87638645D02*
X156969673Y-87686264D01*
X156969673Y-87686264D02*
X156922054Y-87781502D01*
X156922054Y-87781502D02*
X156922054Y-88019597D01*
X156922054Y-88019597D02*
X156969673Y-88114835D01*
X156969673Y-88114835D02*
X157017292Y-88162455D01*
X157017292Y-88162455D02*
X157112530Y-88210074D01*
X157112530Y-88210074D02*
X157398244Y-88210074D01*
X157398244Y-88210074D02*
X157493482Y-88162455D01*
X157493482Y-88162455D02*
X157541101Y-88114835D01*
D11*
X155900839Y-77054295D02*
X155900839Y-76254295D01*
X155634173Y-76520961D02*
X155329411Y-76520961D01*
X155519887Y-77054295D02*
X155519887Y-76368580D01*
X155519887Y-76368580D02*
X155481792Y-76292390D01*
X155481792Y-76292390D02*
X155405602Y-76254295D01*
X155405602Y-76254295D02*
X155329411Y-76254295D01*
X154529411Y-76520961D02*
X154338935Y-77054295D01*
X154148458Y-76520961D02*
X154338935Y-77054295D01*
X154338935Y-77054295D02*
X154415125Y-77244771D01*
X154415125Y-77244771D02*
X154453220Y-77282866D01*
X154453220Y-77282866D02*
X154529411Y-77320961D01*
X153729411Y-77054295D02*
X153805601Y-77016200D01*
X153805601Y-77016200D02*
X153843696Y-76978104D01*
X153843696Y-76978104D02*
X153881792Y-76901914D01*
X153881792Y-76901914D02*
X153881792Y-76673342D01*
X153881792Y-76673342D02*
X153843696Y-76597152D01*
X153843696Y-76597152D02*
X153805601Y-76559057D01*
X153805601Y-76559057D02*
X153729411Y-76520961D01*
X153729411Y-76520961D02*
X153615125Y-76520961D01*
X153615125Y-76520961D02*
X153538934Y-76559057D01*
X153538934Y-76559057D02*
X153500839Y-76597152D01*
X153500839Y-76597152D02*
X153462744Y-76673342D01*
X153462744Y-76673342D02*
X153462744Y-76901914D01*
X153462744Y-76901914D02*
X153500839Y-76978104D01*
X153500839Y-76978104D02*
X153538934Y-77016200D01*
X153538934Y-77016200D02*
X153615125Y-77054295D01*
X153615125Y-77054295D02*
X153729411Y-77054295D01*
X152777029Y-76520961D02*
X152777029Y-77054295D01*
X153119886Y-76520961D02*
X153119886Y-76940009D01*
X153119886Y-76940009D02*
X153081791Y-77016200D01*
X153081791Y-77016200D02*
X153005601Y-77054295D01*
X153005601Y-77054295D02*
X152891315Y-77054295D01*
X152891315Y-77054295D02*
X152815124Y-77016200D01*
X152815124Y-77016200D02*
X152777029Y-76978104D01*
X151786552Y-76520961D02*
X151786552Y-77054295D01*
X151786552Y-76597152D02*
X151748457Y-76559057D01*
X151748457Y-76559057D02*
X151672267Y-76520961D01*
X151672267Y-76520961D02*
X151557981Y-76520961D01*
X151557981Y-76520961D02*
X151481790Y-76559057D01*
X151481790Y-76559057D02*
X151443695Y-76635247D01*
X151443695Y-76635247D02*
X151443695Y-77054295D01*
X150757980Y-77016200D02*
X150834171Y-77054295D01*
X150834171Y-77054295D02*
X150986552Y-77054295D01*
X150986552Y-77054295D02*
X151062742Y-77016200D01*
X151062742Y-77016200D02*
X151100838Y-76940009D01*
X151100838Y-76940009D02*
X151100838Y-76635247D01*
X151100838Y-76635247D02*
X151062742Y-76559057D01*
X151062742Y-76559057D02*
X150986552Y-76520961D01*
X150986552Y-76520961D02*
X150834171Y-76520961D01*
X150834171Y-76520961D02*
X150757980Y-76559057D01*
X150757980Y-76559057D02*
X150719885Y-76635247D01*
X150719885Y-76635247D02*
X150719885Y-76711438D01*
X150719885Y-76711438D02*
X151100838Y-76787628D01*
X150072266Y-77016200D02*
X150148457Y-77054295D01*
X150148457Y-77054295D02*
X150300838Y-77054295D01*
X150300838Y-77054295D02*
X150377028Y-77016200D01*
X150377028Y-77016200D02*
X150415124Y-76940009D01*
X150415124Y-76940009D02*
X150415124Y-76635247D01*
X150415124Y-76635247D02*
X150377028Y-76559057D01*
X150377028Y-76559057D02*
X150300838Y-76520961D01*
X150300838Y-76520961D02*
X150148457Y-76520961D01*
X150148457Y-76520961D02*
X150072266Y-76559057D01*
X150072266Y-76559057D02*
X150034171Y-76635247D01*
X150034171Y-76635247D02*
X150034171Y-76711438D01*
X150034171Y-76711438D02*
X150415124Y-76787628D01*
X149348457Y-77054295D02*
X149348457Y-76254295D01*
X149348457Y-77016200D02*
X149424648Y-77054295D01*
X149424648Y-77054295D02*
X149577029Y-77054295D01*
X149577029Y-77054295D02*
X149653219Y-77016200D01*
X149653219Y-77016200D02*
X149691314Y-76978104D01*
X149691314Y-76978104D02*
X149729410Y-76901914D01*
X149729410Y-76901914D02*
X149729410Y-76673342D01*
X149729410Y-76673342D02*
X149691314Y-76597152D01*
X149691314Y-76597152D02*
X149653219Y-76559057D01*
X149653219Y-76559057D02*
X149577029Y-76520961D01*
X149577029Y-76520961D02*
X149424648Y-76520961D01*
X149424648Y-76520961D02*
X149348457Y-76559057D01*
X148015123Y-77054295D02*
X148015123Y-76635247D01*
X148015123Y-76635247D02*
X148053218Y-76559057D01*
X148053218Y-76559057D02*
X148129409Y-76520961D01*
X148129409Y-76520961D02*
X148281790Y-76520961D01*
X148281790Y-76520961D02*
X148357980Y-76559057D01*
X148015123Y-77016200D02*
X148091314Y-77054295D01*
X148091314Y-77054295D02*
X148281790Y-77054295D01*
X148281790Y-77054295D02*
X148357980Y-77016200D01*
X148357980Y-77016200D02*
X148396076Y-76940009D01*
X148396076Y-76940009D02*
X148396076Y-76863819D01*
X148396076Y-76863819D02*
X148357980Y-76787628D01*
X148357980Y-76787628D02*
X148281790Y-76749533D01*
X148281790Y-76749533D02*
X148091314Y-76749533D01*
X148091314Y-76749533D02*
X148015123Y-76711438D01*
X147062742Y-77016200D02*
X146986551Y-77054295D01*
X146986551Y-77054295D02*
X146834170Y-77054295D01*
X146834170Y-77054295D02*
X146757980Y-77016200D01*
X146757980Y-77016200D02*
X146719884Y-76940009D01*
X146719884Y-76940009D02*
X146719884Y-76901914D01*
X146719884Y-76901914D02*
X146757980Y-76825723D01*
X146757980Y-76825723D02*
X146834170Y-76787628D01*
X146834170Y-76787628D02*
X146948456Y-76787628D01*
X146948456Y-76787628D02*
X147024646Y-76749533D01*
X147024646Y-76749533D02*
X147062742Y-76673342D01*
X147062742Y-76673342D02*
X147062742Y-76635247D01*
X147062742Y-76635247D02*
X147024646Y-76559057D01*
X147024646Y-76559057D02*
X146948456Y-76520961D01*
X146948456Y-76520961D02*
X146834170Y-76520961D01*
X146834170Y-76520961D02*
X146757980Y-76559057D01*
X146377027Y-77054295D02*
X146377027Y-76520961D01*
X146377027Y-76597152D02*
X146338932Y-76559057D01*
X146338932Y-76559057D02*
X146262742Y-76520961D01*
X146262742Y-76520961D02*
X146148456Y-76520961D01*
X146148456Y-76520961D02*
X146072265Y-76559057D01*
X146072265Y-76559057D02*
X146034170Y-76635247D01*
X146034170Y-76635247D02*
X146034170Y-77054295D01*
X146034170Y-76635247D02*
X145996075Y-76559057D01*
X145996075Y-76559057D02*
X145919884Y-76520961D01*
X145919884Y-76520961D02*
X145805599Y-76520961D01*
X145805599Y-76520961D02*
X145729408Y-76559057D01*
X145729408Y-76559057D02*
X145691313Y-76635247D01*
X145691313Y-76635247D02*
X145691313Y-77054295D01*
X144967503Y-77054295D02*
X144967503Y-76635247D01*
X144967503Y-76635247D02*
X145005598Y-76559057D01*
X145005598Y-76559057D02*
X145081789Y-76520961D01*
X145081789Y-76520961D02*
X145234170Y-76520961D01*
X145234170Y-76520961D02*
X145310360Y-76559057D01*
X144967503Y-77016200D02*
X145043694Y-77054295D01*
X145043694Y-77054295D02*
X145234170Y-77054295D01*
X145234170Y-77054295D02*
X145310360Y-77016200D01*
X145310360Y-77016200D02*
X145348456Y-76940009D01*
X145348456Y-76940009D02*
X145348456Y-76863819D01*
X145348456Y-76863819D02*
X145310360Y-76787628D01*
X145310360Y-76787628D02*
X145234170Y-76749533D01*
X145234170Y-76749533D02*
X145043694Y-76749533D01*
X145043694Y-76749533D02*
X144967503Y-76711438D01*
X144472265Y-77054295D02*
X144548455Y-77016200D01*
X144548455Y-77016200D02*
X144586550Y-76940009D01*
X144586550Y-76940009D02*
X144586550Y-76254295D01*
X144053217Y-77054295D02*
X144129407Y-77016200D01*
X144129407Y-77016200D02*
X144167502Y-76940009D01*
X144167502Y-76940009D02*
X144167502Y-76254295D01*
X143443692Y-77016200D02*
X143519883Y-77054295D01*
X143519883Y-77054295D02*
X143672264Y-77054295D01*
X143672264Y-77054295D02*
X143748454Y-77016200D01*
X143748454Y-77016200D02*
X143786550Y-76940009D01*
X143786550Y-76940009D02*
X143786550Y-76635247D01*
X143786550Y-76635247D02*
X143748454Y-76559057D01*
X143748454Y-76559057D02*
X143672264Y-76520961D01*
X143672264Y-76520961D02*
X143519883Y-76520961D01*
X143519883Y-76520961D02*
X143443692Y-76559057D01*
X143443692Y-76559057D02*
X143405597Y-76635247D01*
X143405597Y-76635247D02*
X143405597Y-76711438D01*
X143405597Y-76711438D02*
X143786550Y-76787628D01*
X143062740Y-77054295D02*
X143062740Y-76520961D01*
X143062740Y-76673342D02*
X143024645Y-76597152D01*
X143024645Y-76597152D02*
X142986550Y-76559057D01*
X142986550Y-76559057D02*
X142910359Y-76520961D01*
X142910359Y-76520961D02*
X142834169Y-76520961D01*
X141957978Y-77054295D02*
X141957978Y-76254295D01*
X141957978Y-76559057D02*
X141881788Y-76520961D01*
X141881788Y-76520961D02*
X141729407Y-76520961D01*
X141729407Y-76520961D02*
X141653216Y-76559057D01*
X141653216Y-76559057D02*
X141615121Y-76597152D01*
X141615121Y-76597152D02*
X141577026Y-76673342D01*
X141577026Y-76673342D02*
X141577026Y-76901914D01*
X141577026Y-76901914D02*
X141615121Y-76978104D01*
X141615121Y-76978104D02*
X141653216Y-77016200D01*
X141653216Y-77016200D02*
X141729407Y-77054295D01*
X141729407Y-77054295D02*
X141881788Y-77054295D01*
X141881788Y-77054295D02*
X141957978Y-77016200D01*
X141119883Y-77054295D02*
X141196073Y-77016200D01*
X141196073Y-77016200D02*
X141234168Y-76978104D01*
X141234168Y-76978104D02*
X141272264Y-76901914D01*
X141272264Y-76901914D02*
X141272264Y-76673342D01*
X141272264Y-76673342D02*
X141234168Y-76597152D01*
X141234168Y-76597152D02*
X141196073Y-76559057D01*
X141196073Y-76559057D02*
X141119883Y-76520961D01*
X141119883Y-76520961D02*
X141005597Y-76520961D01*
X141005597Y-76520961D02*
X140929406Y-76559057D01*
X140929406Y-76559057D02*
X140891311Y-76597152D01*
X140891311Y-76597152D02*
X140853216Y-76673342D01*
X140853216Y-76673342D02*
X140853216Y-76901914D01*
X140853216Y-76901914D02*
X140891311Y-76978104D01*
X140891311Y-76978104D02*
X140929406Y-77016200D01*
X140929406Y-77016200D02*
X141005597Y-77054295D01*
X141005597Y-77054295D02*
X141119883Y-77054295D01*
X140167501Y-77054295D02*
X140167501Y-76635247D01*
X140167501Y-76635247D02*
X140205596Y-76559057D01*
X140205596Y-76559057D02*
X140281787Y-76520961D01*
X140281787Y-76520961D02*
X140434168Y-76520961D01*
X140434168Y-76520961D02*
X140510358Y-76559057D01*
X140167501Y-77016200D02*
X140243692Y-77054295D01*
X140243692Y-77054295D02*
X140434168Y-77054295D01*
X140434168Y-77054295D02*
X140510358Y-77016200D01*
X140510358Y-77016200D02*
X140548454Y-76940009D01*
X140548454Y-76940009D02*
X140548454Y-76863819D01*
X140548454Y-76863819D02*
X140510358Y-76787628D01*
X140510358Y-76787628D02*
X140434168Y-76749533D01*
X140434168Y-76749533D02*
X140243692Y-76749533D01*
X140243692Y-76749533D02*
X140167501Y-76711438D01*
X139786548Y-77054295D02*
X139786548Y-76520961D01*
X139786548Y-76673342D02*
X139748453Y-76597152D01*
X139748453Y-76597152D02*
X139710358Y-76559057D01*
X139710358Y-76559057D02*
X139634167Y-76520961D01*
X139634167Y-76520961D02*
X139557977Y-76520961D01*
X138948453Y-77054295D02*
X138948453Y-76254295D01*
X138948453Y-77016200D02*
X139024644Y-77054295D01*
X139024644Y-77054295D02*
X139177025Y-77054295D01*
X139177025Y-77054295D02*
X139253215Y-77016200D01*
X139253215Y-77016200D02*
X139291310Y-76978104D01*
X139291310Y-76978104D02*
X139329406Y-76901914D01*
X139329406Y-76901914D02*
X139329406Y-76673342D01*
X139329406Y-76673342D02*
X139291310Y-76597152D01*
X139291310Y-76597152D02*
X139253215Y-76559057D01*
X139253215Y-76559057D02*
X139177025Y-76520961D01*
X139177025Y-76520961D02*
X139024644Y-76520961D01*
X139024644Y-76520961D02*
X138948453Y-76559057D01*
X138529405Y-77016200D02*
X138529405Y-77054295D01*
X138529405Y-77054295D02*
X138567500Y-77130485D01*
X138567500Y-77130485D02*
X138605596Y-77168580D01*
X137234167Y-76520961D02*
X137234167Y-77168580D01*
X137234167Y-77168580D02*
X137272262Y-77244771D01*
X137272262Y-77244771D02*
X137310358Y-77282866D01*
X137310358Y-77282866D02*
X137386548Y-77320961D01*
X137386548Y-77320961D02*
X137500834Y-77320961D01*
X137500834Y-77320961D02*
X137577024Y-77282866D01*
X137234167Y-77016200D02*
X137310358Y-77054295D01*
X137310358Y-77054295D02*
X137462739Y-77054295D01*
X137462739Y-77054295D02*
X137538929Y-77016200D01*
X137538929Y-77016200D02*
X137577024Y-76978104D01*
X137577024Y-76978104D02*
X137615120Y-76901914D01*
X137615120Y-76901914D02*
X137615120Y-76673342D01*
X137615120Y-76673342D02*
X137577024Y-76597152D01*
X137577024Y-76597152D02*
X137538929Y-76559057D01*
X137538929Y-76559057D02*
X137462739Y-76520961D01*
X137462739Y-76520961D02*
X137310358Y-76520961D01*
X137310358Y-76520961D02*
X137234167Y-76559057D01*
X136738929Y-77054295D02*
X136815119Y-77016200D01*
X136815119Y-77016200D02*
X136853214Y-76978104D01*
X136853214Y-76978104D02*
X136891310Y-76901914D01*
X136891310Y-76901914D02*
X136891310Y-76673342D01*
X136891310Y-76673342D02*
X136853214Y-76597152D01*
X136853214Y-76597152D02*
X136815119Y-76559057D01*
X136815119Y-76559057D02*
X136738929Y-76520961D01*
X136738929Y-76520961D02*
X136624643Y-76520961D01*
X136624643Y-76520961D02*
X136548452Y-76559057D01*
X136548452Y-76559057D02*
X136510357Y-76597152D01*
X136510357Y-76597152D02*
X136472262Y-76673342D01*
X136472262Y-76673342D02*
X136472262Y-76901914D01*
X136472262Y-76901914D02*
X136510357Y-76978104D01*
X136510357Y-76978104D02*
X136548452Y-77016200D01*
X136548452Y-77016200D02*
X136624643Y-77054295D01*
X136624643Y-77054295D02*
X136738929Y-77054295D01*
X135177023Y-77054295D02*
X135177023Y-76635247D01*
X135177023Y-76635247D02*
X135215118Y-76559057D01*
X135215118Y-76559057D02*
X135291309Y-76520961D01*
X135291309Y-76520961D02*
X135443690Y-76520961D01*
X135443690Y-76520961D02*
X135519880Y-76559057D01*
X135177023Y-77016200D02*
X135253214Y-77054295D01*
X135253214Y-77054295D02*
X135443690Y-77054295D01*
X135443690Y-77054295D02*
X135519880Y-77016200D01*
X135519880Y-77016200D02*
X135557976Y-76940009D01*
X135557976Y-76940009D02*
X135557976Y-76863819D01*
X135557976Y-76863819D02*
X135519880Y-76787628D01*
X135519880Y-76787628D02*
X135443690Y-76749533D01*
X135443690Y-76749533D02*
X135253214Y-76749533D01*
X135253214Y-76749533D02*
X135177023Y-76711438D01*
X134796070Y-77054295D02*
X134796070Y-76254295D01*
X134453213Y-77054295D02*
X134453213Y-76635247D01*
X134453213Y-76635247D02*
X134491308Y-76559057D01*
X134491308Y-76559057D02*
X134567499Y-76520961D01*
X134567499Y-76520961D02*
X134681785Y-76520961D01*
X134681785Y-76520961D02*
X134757975Y-76559057D01*
X134757975Y-76559057D02*
X134796070Y-76597152D01*
M02*
