%TF.GenerationSoftware,KiCad,Pcbnew,8.0.9-8.0.9-0~ubuntu20.04.1*%
%TF.CreationDate,2025-05-20T18:40:30+02:00*%
%TF.ProjectId,tobo,746f626f-2e6b-4696-9361-645f70636258,rev?*%
%TF.SameCoordinates,Original*%
%TF.FileFunction,Soldermask,Bot*%
%TF.FilePolarity,Negative*%
%FSLAX46Y46*%
G04 Gerber Fmt 4.6, Leading zero omitted, Abs format (unit mm)*
G04 Created by KiCad (PCBNEW 8.0.9-8.0.9-0~ubuntu20.04.1) date 2025-05-20 18:40:30*
%MOMM*%
%LPD*%
G01*
G04 APERTURE LIST*
G04 APERTURE END LIST*
G36*
X135851342Y-123288060D02*
G01*
X135964381Y-123353323D01*
X136056677Y-123445619D01*
X136121940Y-123558658D01*
X136155722Y-123684737D01*
X136160000Y-123750000D01*
X136160000Y-124350000D01*
X136155722Y-124415263D01*
X136121940Y-124541342D01*
X136056677Y-124654381D01*
X135964381Y-124746677D01*
X135851342Y-124811940D01*
X135725263Y-124845722D01*
X135594737Y-124845722D01*
X135468658Y-124811940D01*
X135355619Y-124746677D01*
X135263323Y-124654381D01*
X135198060Y-124541342D01*
X135164278Y-124415263D01*
X135160000Y-124350000D01*
X135160000Y-123750000D01*
X135164278Y-123684737D01*
X135198060Y-123558658D01*
X135263323Y-123445619D01*
X135355619Y-123353323D01*
X135468658Y-123288060D01*
X135594737Y-123254278D01*
X135725263Y-123254278D01*
X135851342Y-123288060D01*
G37*
G36*
X144491342Y-123288060D02*
G01*
X144604381Y-123353323D01*
X144696677Y-123445619D01*
X144761940Y-123558658D01*
X144795722Y-123684737D01*
X144800000Y-123750000D01*
X144800000Y-124350000D01*
X144795722Y-124415263D01*
X144761940Y-124541342D01*
X144696677Y-124654381D01*
X144604381Y-124746677D01*
X144491342Y-124811940D01*
X144365263Y-124845722D01*
X144234737Y-124845722D01*
X144108658Y-124811940D01*
X143995619Y-124746677D01*
X143903323Y-124654381D01*
X143838060Y-124541342D01*
X143804278Y-124415263D01*
X143800000Y-124350000D01*
X143800000Y-123750000D01*
X143804278Y-123684737D01*
X143838060Y-123558658D01*
X143903323Y-123445619D01*
X143995619Y-123353323D01*
X144108658Y-123288060D01*
X144234737Y-123254278D01*
X144365263Y-123254278D01*
X144491342Y-123288060D01*
G37*
G36*
X137922975Y-121304570D02*
G01*
X137943275Y-121304570D01*
X137967740Y-121313474D01*
X137995671Y-121319030D01*
X138010823Y-121329154D01*
X138024610Y-121334172D01*
X138049145Y-121354760D01*
X138076777Y-121373223D01*
X138083961Y-121383974D01*
X138090909Y-121389805D01*
X138110313Y-121423413D01*
X138130970Y-121454329D01*
X138132445Y-121461748D01*
X138134187Y-121464764D01*
X138143096Y-121515292D01*
X138150000Y-121550000D01*
X138143095Y-121584710D01*
X138134187Y-121635235D01*
X138132446Y-121638250D01*
X138130970Y-121645671D01*
X138110308Y-121676592D01*
X138090909Y-121710194D01*
X138083962Y-121716022D01*
X138076777Y-121726777D01*
X138049139Y-121745243D01*
X138024610Y-121765827D01*
X138010825Y-121770843D01*
X137995671Y-121780970D01*
X137967739Y-121786525D01*
X137943275Y-121795430D01*
X137922975Y-121795430D01*
X137900000Y-121800000D01*
X137877025Y-121795430D01*
X137856725Y-121795430D01*
X137832260Y-121786525D01*
X137804329Y-121780970D01*
X137789175Y-121770844D01*
X137775389Y-121765827D01*
X137750855Y-121745240D01*
X137723223Y-121726777D01*
X137716038Y-121716024D01*
X137709090Y-121710194D01*
X137689683Y-121676581D01*
X137669030Y-121645671D01*
X137667554Y-121638253D01*
X137665812Y-121635235D01*
X137656895Y-121584666D01*
X137650000Y-121550000D01*
X137656894Y-121515336D01*
X137665812Y-121464764D01*
X137667554Y-121461745D01*
X137669030Y-121454329D01*
X137689677Y-121423427D01*
X137709089Y-121389806D01*
X137716039Y-121383973D01*
X137723223Y-121373223D01*
X137750852Y-121354761D01*
X137775390Y-121334172D01*
X137789176Y-121329154D01*
X137804329Y-121319030D01*
X137832259Y-121313474D01*
X137856725Y-121304570D01*
X137877025Y-121304570D01*
X137900000Y-121300000D01*
X137922975Y-121304570D01*
G37*
G36*
X142022975Y-121304570D02*
G01*
X142043275Y-121304570D01*
X142067740Y-121313474D01*
X142095671Y-121319030D01*
X142110823Y-121329154D01*
X142124610Y-121334172D01*
X142149145Y-121354760D01*
X142176777Y-121373223D01*
X142183961Y-121383974D01*
X142190909Y-121389805D01*
X142210313Y-121423413D01*
X142230970Y-121454329D01*
X142232445Y-121461748D01*
X142234187Y-121464764D01*
X142243096Y-121515292D01*
X142250000Y-121550000D01*
X142243095Y-121584710D01*
X142234187Y-121635235D01*
X142232446Y-121638250D01*
X142230970Y-121645671D01*
X142210308Y-121676592D01*
X142190909Y-121710194D01*
X142183962Y-121716022D01*
X142176777Y-121726777D01*
X142149139Y-121745243D01*
X142124610Y-121765827D01*
X142110825Y-121770843D01*
X142095671Y-121780970D01*
X142067739Y-121786525D01*
X142043275Y-121795430D01*
X142022975Y-121795430D01*
X142000000Y-121800000D01*
X141977025Y-121795430D01*
X141956725Y-121795430D01*
X141932260Y-121786525D01*
X141904329Y-121780970D01*
X141889175Y-121770844D01*
X141875389Y-121765827D01*
X141850855Y-121745240D01*
X141823223Y-121726777D01*
X141816038Y-121716024D01*
X141809090Y-121710194D01*
X141789683Y-121676581D01*
X141769030Y-121645671D01*
X141767554Y-121638253D01*
X141765812Y-121635235D01*
X141756895Y-121584666D01*
X141750000Y-121550000D01*
X141756894Y-121515336D01*
X141765812Y-121464764D01*
X141767554Y-121461745D01*
X141769030Y-121454329D01*
X141789677Y-121423427D01*
X141809089Y-121389806D01*
X141816039Y-121383973D01*
X141823223Y-121373223D01*
X141850852Y-121354761D01*
X141875390Y-121334172D01*
X141889176Y-121329154D01*
X141904329Y-121319030D01*
X141932259Y-121313474D01*
X141956725Y-121304570D01*
X141977025Y-121304570D01*
X142000000Y-121300000D01*
X142022975Y-121304570D01*
G37*
G36*
X135851342Y-118858060D02*
G01*
X135964381Y-118923323D01*
X136056677Y-119015619D01*
X136121940Y-119128658D01*
X136155722Y-119254737D01*
X136160000Y-119320000D01*
X136160000Y-120420000D01*
X136155722Y-120485263D01*
X136121940Y-120611342D01*
X136056677Y-120724381D01*
X135964381Y-120816677D01*
X135851342Y-120881940D01*
X135725263Y-120915722D01*
X135594737Y-120915722D01*
X135468658Y-120881940D01*
X135355619Y-120816677D01*
X135263323Y-120724381D01*
X135198060Y-120611342D01*
X135164278Y-120485263D01*
X135160000Y-120420000D01*
X135160000Y-119320000D01*
X135164278Y-119254737D01*
X135198060Y-119128658D01*
X135263323Y-119015619D01*
X135355619Y-118923323D01*
X135468658Y-118858060D01*
X135594737Y-118824278D01*
X135725263Y-118824278D01*
X135851342Y-118858060D01*
G37*
G36*
X144491342Y-118858060D02*
G01*
X144604381Y-118923323D01*
X144696677Y-119015619D01*
X144761940Y-119128658D01*
X144795722Y-119254737D01*
X144800000Y-119320000D01*
X144800000Y-120420000D01*
X144795722Y-120485263D01*
X144761940Y-120611342D01*
X144696677Y-120724381D01*
X144604381Y-120816677D01*
X144491342Y-120881940D01*
X144365263Y-120915722D01*
X144234737Y-120915722D01*
X144108658Y-120881940D01*
X143995619Y-120816677D01*
X143903323Y-120724381D01*
X143838060Y-120611342D01*
X143804278Y-120485263D01*
X143800000Y-120420000D01*
X143800000Y-119320000D01*
X143804278Y-119254737D01*
X143838060Y-119128658D01*
X143903323Y-119015619D01*
X143995619Y-118923323D01*
X144108658Y-118858060D01*
X144234737Y-118824278D01*
X144365263Y-118824278D01*
X144491342Y-118858060D01*
G37*
G36*
X137117174Y-120079937D02*
G01*
X137146436Y-120079937D01*
X137168978Y-120088141D01*
X137190237Y-120091509D01*
X137220265Y-120106809D01*
X137252500Y-120118542D01*
X137266735Y-120130487D01*
X137280658Y-120137581D01*
X137309175Y-120166098D01*
X137338964Y-120191094D01*
X137345511Y-120202434D01*
X137352418Y-120209341D01*
X137374345Y-120252375D01*
X137395400Y-120288843D01*
X137396708Y-120296266D01*
X137398490Y-120299762D01*
X137408770Y-120364668D01*
X137415000Y-120400000D01*
X137408769Y-120435335D01*
X137398490Y-120500237D01*
X137396709Y-120503731D01*
X137395400Y-120511157D01*
X137374340Y-120547631D01*
X137352418Y-120590658D01*
X137345512Y-120597563D01*
X137338964Y-120608906D01*
X137309168Y-120633907D01*
X137280658Y-120662418D01*
X137266738Y-120669510D01*
X137252500Y-120681458D01*
X137220258Y-120693193D01*
X137190237Y-120708490D01*
X137168983Y-120711856D01*
X137146436Y-120720063D01*
X137117168Y-120720063D01*
X137090000Y-120724366D01*
X137062832Y-120720063D01*
X137033564Y-120720063D01*
X137011017Y-120711856D01*
X136989762Y-120708490D01*
X136959737Y-120693191D01*
X136927500Y-120681458D01*
X136913262Y-120669511D01*
X136899341Y-120662418D01*
X136870824Y-120633901D01*
X136841036Y-120608906D01*
X136834488Y-120597565D01*
X136827581Y-120590658D01*
X136805650Y-120547617D01*
X136784600Y-120511157D01*
X136783291Y-120503734D01*
X136781509Y-120500237D01*
X136771220Y-120435279D01*
X136765000Y-120400000D01*
X136771220Y-120364723D01*
X136781509Y-120299762D01*
X136783291Y-120296263D01*
X136784600Y-120288843D01*
X136805646Y-120252390D01*
X136827581Y-120209341D01*
X136834489Y-120202432D01*
X136841036Y-120191094D01*
X136870818Y-120166103D01*
X136899341Y-120137581D01*
X136913265Y-120130485D01*
X136927500Y-120118542D01*
X136959731Y-120106810D01*
X136989762Y-120091509D01*
X137011022Y-120088141D01*
X137033564Y-120079937D01*
X137062825Y-120079937D01*
X137090000Y-120075633D01*
X137117174Y-120079937D01*
G37*
G36*
X142897174Y-120079937D02*
G01*
X142926436Y-120079937D01*
X142948978Y-120088141D01*
X142970237Y-120091509D01*
X143000265Y-120106809D01*
X143032500Y-120118542D01*
X143046735Y-120130487D01*
X143060658Y-120137581D01*
X143089175Y-120166098D01*
X143118964Y-120191094D01*
X143125511Y-120202434D01*
X143132418Y-120209341D01*
X143154345Y-120252375D01*
X143175400Y-120288843D01*
X143176708Y-120296266D01*
X143178490Y-120299762D01*
X143188770Y-120364668D01*
X143195000Y-120400000D01*
X143188769Y-120435335D01*
X143178490Y-120500237D01*
X143176709Y-120503731D01*
X143175400Y-120511157D01*
X143154340Y-120547631D01*
X143132418Y-120590658D01*
X143125512Y-120597563D01*
X143118964Y-120608906D01*
X143089168Y-120633907D01*
X143060658Y-120662418D01*
X143046738Y-120669510D01*
X143032500Y-120681458D01*
X143000258Y-120693193D01*
X142970237Y-120708490D01*
X142948983Y-120711856D01*
X142926436Y-120720063D01*
X142897168Y-120720063D01*
X142870000Y-120724366D01*
X142842832Y-120720063D01*
X142813564Y-120720063D01*
X142791017Y-120711856D01*
X142769762Y-120708490D01*
X142739737Y-120693191D01*
X142707500Y-120681458D01*
X142693262Y-120669511D01*
X142679341Y-120662418D01*
X142650824Y-120633901D01*
X142621036Y-120608906D01*
X142614488Y-120597565D01*
X142607581Y-120590658D01*
X142585650Y-120547617D01*
X142564600Y-120511157D01*
X142563291Y-120503734D01*
X142561509Y-120500237D01*
X142551220Y-120435279D01*
X142545000Y-120400000D01*
X142551220Y-120364723D01*
X142561509Y-120299762D01*
X142563291Y-120296263D01*
X142564600Y-120288843D01*
X142585646Y-120252390D01*
X142607581Y-120209341D01*
X142614489Y-120202432D01*
X142621036Y-120191094D01*
X142650818Y-120166103D01*
X142679341Y-120137581D01*
X142693265Y-120130485D01*
X142707500Y-120118542D01*
X142739731Y-120106810D01*
X142769762Y-120091509D01*
X142791022Y-120088141D01*
X142813564Y-120079937D01*
X142842825Y-120079937D01*
X142870000Y-120075633D01*
X142897174Y-120079937D01*
G37*
G36*
X136722975Y-116704570D02*
G01*
X136743275Y-116704570D01*
X136767740Y-116713474D01*
X136795671Y-116719030D01*
X136810823Y-116729154D01*
X136824610Y-116734172D01*
X136849145Y-116754760D01*
X136876777Y-116773223D01*
X136883961Y-116783974D01*
X136890909Y-116789805D01*
X136910313Y-116823413D01*
X136930970Y-116854329D01*
X136932445Y-116861748D01*
X136934187Y-116864764D01*
X136943096Y-116915292D01*
X136950000Y-116950000D01*
X136943095Y-116984710D01*
X136934187Y-117035235D01*
X136932446Y-117038250D01*
X136930970Y-117045671D01*
X136910308Y-117076592D01*
X136890909Y-117110194D01*
X136883962Y-117116022D01*
X136876777Y-117126777D01*
X136849139Y-117145243D01*
X136824610Y-117165827D01*
X136810825Y-117170843D01*
X136795671Y-117180970D01*
X136767739Y-117186525D01*
X136743275Y-117195430D01*
X136722975Y-117195430D01*
X136700000Y-117200000D01*
X136677025Y-117195430D01*
X136656725Y-117195430D01*
X136632260Y-117186525D01*
X136604329Y-117180970D01*
X136589175Y-117170844D01*
X136575389Y-117165827D01*
X136550855Y-117145240D01*
X136523223Y-117126777D01*
X136516038Y-117116024D01*
X136509090Y-117110194D01*
X136489683Y-117076581D01*
X136469030Y-117045671D01*
X136467554Y-117038253D01*
X136465812Y-117035235D01*
X136456895Y-116984666D01*
X136450000Y-116950000D01*
X136456894Y-116915336D01*
X136465812Y-116864764D01*
X136467554Y-116861745D01*
X136469030Y-116854329D01*
X136489677Y-116823427D01*
X136509089Y-116789806D01*
X136516039Y-116783973D01*
X136523223Y-116773223D01*
X136550852Y-116754761D01*
X136575390Y-116734172D01*
X136589176Y-116729154D01*
X136604329Y-116719030D01*
X136632259Y-116713474D01*
X136656725Y-116704570D01*
X136677025Y-116704570D01*
X136700000Y-116700000D01*
X136722975Y-116704570D01*
G37*
G36*
X142956975Y-116704570D02*
G01*
X142977275Y-116704570D01*
X143001740Y-116713474D01*
X143029671Y-116719030D01*
X143044823Y-116729154D01*
X143058610Y-116734172D01*
X143083145Y-116754760D01*
X143110777Y-116773223D01*
X143117961Y-116783974D01*
X143124909Y-116789805D01*
X143144313Y-116823413D01*
X143164970Y-116854329D01*
X143166445Y-116861748D01*
X143168187Y-116864764D01*
X143177096Y-116915292D01*
X143184000Y-116950000D01*
X143177095Y-116984710D01*
X143168187Y-117035235D01*
X143166446Y-117038250D01*
X143164970Y-117045671D01*
X143144308Y-117076592D01*
X143124909Y-117110194D01*
X143117962Y-117116022D01*
X143110777Y-117126777D01*
X143083139Y-117145243D01*
X143058610Y-117165827D01*
X143044825Y-117170843D01*
X143029671Y-117180970D01*
X143001739Y-117186525D01*
X142977275Y-117195430D01*
X142956975Y-117195430D01*
X142934000Y-117200000D01*
X142911025Y-117195430D01*
X142890725Y-117195430D01*
X142866260Y-117186525D01*
X142838329Y-117180970D01*
X142823175Y-117170844D01*
X142809389Y-117165827D01*
X142784855Y-117145240D01*
X142757223Y-117126777D01*
X142750038Y-117116024D01*
X142743090Y-117110194D01*
X142723683Y-117076581D01*
X142703030Y-117045671D01*
X142701554Y-117038253D01*
X142699812Y-117035235D01*
X142690895Y-116984666D01*
X142684000Y-116950000D01*
X142690894Y-116915336D01*
X142699812Y-116864764D01*
X142701554Y-116861745D01*
X142703030Y-116854329D01*
X142723677Y-116823427D01*
X142743089Y-116789806D01*
X142750039Y-116783973D01*
X142757223Y-116773223D01*
X142784852Y-116754761D01*
X142809390Y-116734172D01*
X142823176Y-116729154D01*
X142838329Y-116719030D01*
X142866259Y-116713474D01*
X142890725Y-116704570D01*
X142911025Y-116704570D01*
X142934000Y-116700000D01*
X142956975Y-116704570D01*
G37*
G36*
X139862975Y-116694570D02*
G01*
X139883275Y-116694570D01*
X139907740Y-116703474D01*
X139935671Y-116709030D01*
X139950823Y-116719154D01*
X139964610Y-116724172D01*
X139989145Y-116744760D01*
X140016777Y-116763223D01*
X140023961Y-116773974D01*
X140030909Y-116779805D01*
X140050313Y-116813413D01*
X140070970Y-116844329D01*
X140072445Y-116851748D01*
X140074187Y-116854764D01*
X140083096Y-116905292D01*
X140090000Y-116940000D01*
X140083095Y-116974710D01*
X140074187Y-117025235D01*
X140072446Y-117028250D01*
X140070970Y-117035671D01*
X140050308Y-117066592D01*
X140030909Y-117100194D01*
X140023962Y-117106022D01*
X140016777Y-117116777D01*
X139989139Y-117135243D01*
X139964610Y-117155827D01*
X139950825Y-117160843D01*
X139935671Y-117170970D01*
X139907739Y-117176525D01*
X139883275Y-117185430D01*
X139862975Y-117185430D01*
X139840000Y-117190000D01*
X139817025Y-117185430D01*
X139796725Y-117185430D01*
X139772260Y-117176525D01*
X139744329Y-117170970D01*
X139729175Y-117160844D01*
X139715389Y-117155827D01*
X139690855Y-117135240D01*
X139663223Y-117116777D01*
X139656038Y-117106024D01*
X139649090Y-117100194D01*
X139629683Y-117066581D01*
X139609030Y-117035671D01*
X139607554Y-117028253D01*
X139605812Y-117025235D01*
X139596895Y-116974666D01*
X139590000Y-116940000D01*
X139596894Y-116905336D01*
X139605812Y-116854764D01*
X139607554Y-116851745D01*
X139609030Y-116844329D01*
X139629677Y-116813427D01*
X139649089Y-116779806D01*
X139656039Y-116773973D01*
X139663223Y-116763223D01*
X139690852Y-116744761D01*
X139715390Y-116724172D01*
X139729176Y-116719154D01*
X139744329Y-116709030D01*
X139772259Y-116703474D01*
X139796725Y-116694570D01*
X139817025Y-116694570D01*
X139840000Y-116690000D01*
X139862975Y-116694570D01*
G37*
G36*
X141772975Y-115244570D02*
G01*
X141793275Y-115244570D01*
X141817740Y-115253474D01*
X141845671Y-115259030D01*
X141860823Y-115269154D01*
X141874610Y-115274172D01*
X141899145Y-115294760D01*
X141926777Y-115313223D01*
X141933961Y-115323974D01*
X141940909Y-115329805D01*
X141960313Y-115363413D01*
X141980970Y-115394329D01*
X141982445Y-115401748D01*
X141984187Y-115404764D01*
X141993096Y-115455292D01*
X142000000Y-115490000D01*
X141993095Y-115524710D01*
X141984187Y-115575235D01*
X141982446Y-115578250D01*
X141980970Y-115585671D01*
X141960308Y-115616592D01*
X141940909Y-115650194D01*
X141933962Y-115656022D01*
X141926777Y-115666777D01*
X141899139Y-115685243D01*
X141874610Y-115705827D01*
X141860825Y-115710843D01*
X141845671Y-115720970D01*
X141817739Y-115726525D01*
X141793275Y-115735430D01*
X141772975Y-115735430D01*
X141750000Y-115740000D01*
X141727025Y-115735430D01*
X141706725Y-115735430D01*
X141682260Y-115726525D01*
X141654329Y-115720970D01*
X141639175Y-115710844D01*
X141625389Y-115705827D01*
X141600855Y-115685240D01*
X141573223Y-115666777D01*
X141566038Y-115656024D01*
X141559090Y-115650194D01*
X141539683Y-115616581D01*
X141519030Y-115585671D01*
X141517554Y-115578253D01*
X141515812Y-115575235D01*
X141506895Y-115524666D01*
X141500000Y-115490000D01*
X141506894Y-115455336D01*
X141515812Y-115404764D01*
X141517554Y-115401745D01*
X141519030Y-115394329D01*
X141539677Y-115363427D01*
X141559089Y-115329806D01*
X141566039Y-115323973D01*
X141573223Y-115313223D01*
X141600852Y-115294761D01*
X141625390Y-115274172D01*
X141639176Y-115269154D01*
X141654329Y-115259030D01*
X141682259Y-115253474D01*
X141706725Y-115244570D01*
X141727025Y-115244570D01*
X141750000Y-115240000D01*
X141772975Y-115244570D01*
G37*
G36*
X141232975Y-111744570D02*
G01*
X141253275Y-111744570D01*
X141277740Y-111753474D01*
X141305671Y-111759030D01*
X141320823Y-111769154D01*
X141334610Y-111774172D01*
X141359145Y-111794760D01*
X141386777Y-111813223D01*
X141393961Y-111823974D01*
X141400909Y-111829805D01*
X141420313Y-111863413D01*
X141440970Y-111894329D01*
X141442445Y-111901748D01*
X141444187Y-111904764D01*
X141453096Y-111955292D01*
X141460000Y-111990000D01*
X141453095Y-112024710D01*
X141444187Y-112075235D01*
X141442446Y-112078250D01*
X141440970Y-112085671D01*
X141420308Y-112116592D01*
X141400909Y-112150194D01*
X141393962Y-112156022D01*
X141386777Y-112166777D01*
X141359139Y-112185243D01*
X141334610Y-112205827D01*
X141320825Y-112210843D01*
X141305671Y-112220970D01*
X141277739Y-112226525D01*
X141253275Y-112235430D01*
X141232975Y-112235430D01*
X141210000Y-112240000D01*
X141187025Y-112235430D01*
X141166725Y-112235430D01*
X141142260Y-112226525D01*
X141114329Y-112220970D01*
X141099175Y-112210844D01*
X141085389Y-112205827D01*
X141060855Y-112185240D01*
X141033223Y-112166777D01*
X141026038Y-112156024D01*
X141019090Y-112150194D01*
X140999683Y-112116581D01*
X140979030Y-112085671D01*
X140977554Y-112078253D01*
X140975812Y-112075235D01*
X140966895Y-112024666D01*
X140960000Y-111990000D01*
X140966894Y-111955336D01*
X140975812Y-111904764D01*
X140977554Y-111901745D01*
X140979030Y-111894329D01*
X140999677Y-111863427D01*
X141019089Y-111829806D01*
X141026039Y-111823973D01*
X141033223Y-111813223D01*
X141060852Y-111794761D01*
X141085390Y-111774172D01*
X141099176Y-111769154D01*
X141114329Y-111759030D01*
X141142259Y-111753474D01*
X141166725Y-111744570D01*
X141187025Y-111744570D01*
X141210000Y-111740000D01*
X141232975Y-111744570D01*
G37*
G36*
X133022975Y-110854570D02*
G01*
X133043275Y-110854570D01*
X133067740Y-110863474D01*
X133095671Y-110869030D01*
X133110823Y-110879154D01*
X133124610Y-110884172D01*
X133149145Y-110904760D01*
X133176777Y-110923223D01*
X133183961Y-110933974D01*
X133190909Y-110939805D01*
X133210313Y-110973413D01*
X133230970Y-111004329D01*
X133232445Y-111011748D01*
X133234187Y-111014764D01*
X133243096Y-111065292D01*
X133250000Y-111100000D01*
X133243095Y-111134710D01*
X133234187Y-111185235D01*
X133232446Y-111188250D01*
X133230970Y-111195671D01*
X133210308Y-111226592D01*
X133190909Y-111260194D01*
X133183962Y-111266022D01*
X133176777Y-111276777D01*
X133149139Y-111295243D01*
X133124610Y-111315827D01*
X133110825Y-111320843D01*
X133095671Y-111330970D01*
X133067739Y-111336525D01*
X133043275Y-111345430D01*
X133022975Y-111345430D01*
X133000000Y-111350000D01*
X132977025Y-111345430D01*
X132956725Y-111345430D01*
X132932260Y-111336525D01*
X132904329Y-111330970D01*
X132889175Y-111320844D01*
X132875389Y-111315827D01*
X132850855Y-111295240D01*
X132823223Y-111276777D01*
X132816038Y-111266024D01*
X132809090Y-111260194D01*
X132789683Y-111226581D01*
X132769030Y-111195671D01*
X132767554Y-111188253D01*
X132765812Y-111185235D01*
X132756895Y-111134666D01*
X132750000Y-111100000D01*
X132756894Y-111065336D01*
X132765812Y-111014764D01*
X132767554Y-111011745D01*
X132769030Y-111004329D01*
X132789677Y-110973427D01*
X132809089Y-110939806D01*
X132816039Y-110933973D01*
X132823223Y-110923223D01*
X132850852Y-110904761D01*
X132875390Y-110884172D01*
X132889176Y-110879154D01*
X132904329Y-110869030D01*
X132932259Y-110863474D01*
X132956725Y-110854570D01*
X132977025Y-110854570D01*
X133000000Y-110850000D01*
X133022975Y-110854570D01*
G37*
G36*
X142932975Y-109004570D02*
G01*
X142953275Y-109004570D01*
X142977740Y-109013474D01*
X143005671Y-109019030D01*
X143020823Y-109029154D01*
X143034610Y-109034172D01*
X143059145Y-109054760D01*
X143086777Y-109073223D01*
X143093961Y-109083974D01*
X143100909Y-109089805D01*
X143120313Y-109123413D01*
X143140970Y-109154329D01*
X143142445Y-109161748D01*
X143144187Y-109164764D01*
X143153096Y-109215292D01*
X143160000Y-109250000D01*
X143153095Y-109284710D01*
X143144187Y-109335235D01*
X143142446Y-109338250D01*
X143140970Y-109345671D01*
X143120308Y-109376592D01*
X143100909Y-109410194D01*
X143093962Y-109416022D01*
X143086777Y-109426777D01*
X143059139Y-109445243D01*
X143034610Y-109465827D01*
X143020825Y-109470843D01*
X143005671Y-109480970D01*
X142977739Y-109486525D01*
X142953275Y-109495430D01*
X142932975Y-109495430D01*
X142910000Y-109500000D01*
X142887025Y-109495430D01*
X142866725Y-109495430D01*
X142842260Y-109486525D01*
X142814329Y-109480970D01*
X142799175Y-109470844D01*
X142785389Y-109465827D01*
X142760855Y-109445240D01*
X142733223Y-109426777D01*
X142726038Y-109416024D01*
X142719090Y-109410194D01*
X142699683Y-109376581D01*
X142679030Y-109345671D01*
X142677554Y-109338253D01*
X142675812Y-109335235D01*
X142666895Y-109284666D01*
X142660000Y-109250000D01*
X142666894Y-109215336D01*
X142675812Y-109164764D01*
X142677554Y-109161745D01*
X142679030Y-109154329D01*
X142699677Y-109123427D01*
X142719089Y-109089806D01*
X142726039Y-109083973D01*
X142733223Y-109073223D01*
X142760852Y-109054761D01*
X142785390Y-109034172D01*
X142799176Y-109029154D01*
X142814329Y-109019030D01*
X142842259Y-109013474D01*
X142866725Y-109004570D01*
X142887025Y-109004570D01*
X142910000Y-109000000D01*
X142932975Y-109004570D01*
G37*
G36*
X130832975Y-108464570D02*
G01*
X130853275Y-108464570D01*
X130877740Y-108473474D01*
X130905671Y-108479030D01*
X130920823Y-108489154D01*
X130934610Y-108494172D01*
X130959145Y-108514760D01*
X130986777Y-108533223D01*
X130993961Y-108543974D01*
X131000909Y-108549805D01*
X131020313Y-108583413D01*
X131040970Y-108614329D01*
X131042445Y-108621748D01*
X131044187Y-108624764D01*
X131053096Y-108675292D01*
X131060000Y-108710000D01*
X131053095Y-108744710D01*
X131044187Y-108795235D01*
X131042446Y-108798250D01*
X131040970Y-108805671D01*
X131020308Y-108836592D01*
X131000909Y-108870194D01*
X130993962Y-108876022D01*
X130986777Y-108886777D01*
X130959139Y-108905243D01*
X130934610Y-108925827D01*
X130920825Y-108930843D01*
X130905671Y-108940970D01*
X130877739Y-108946525D01*
X130853275Y-108955430D01*
X130832975Y-108955430D01*
X130810000Y-108960000D01*
X130787025Y-108955430D01*
X130766725Y-108955430D01*
X130742260Y-108946525D01*
X130714329Y-108940970D01*
X130699175Y-108930844D01*
X130685389Y-108925827D01*
X130660855Y-108905240D01*
X130633223Y-108886777D01*
X130626038Y-108876024D01*
X130619090Y-108870194D01*
X130599683Y-108836581D01*
X130579030Y-108805671D01*
X130577554Y-108798253D01*
X130575812Y-108795235D01*
X130566895Y-108744666D01*
X130560000Y-108710000D01*
X130566894Y-108675336D01*
X130575812Y-108624764D01*
X130577554Y-108621745D01*
X130579030Y-108614329D01*
X130599677Y-108583427D01*
X130619089Y-108549806D01*
X130626039Y-108543973D01*
X130633223Y-108533223D01*
X130660852Y-108514761D01*
X130685390Y-108494172D01*
X130699176Y-108489154D01*
X130714329Y-108479030D01*
X130742259Y-108473474D01*
X130766725Y-108464570D01*
X130787025Y-108464570D01*
X130810000Y-108460000D01*
X130832975Y-108464570D01*
G37*
G36*
X160392975Y-108444570D02*
G01*
X160413275Y-108444570D01*
X160437740Y-108453474D01*
X160465671Y-108459030D01*
X160480823Y-108469154D01*
X160494610Y-108474172D01*
X160519145Y-108494760D01*
X160546777Y-108513223D01*
X160553961Y-108523974D01*
X160560909Y-108529805D01*
X160580313Y-108563413D01*
X160600970Y-108594329D01*
X160602445Y-108601748D01*
X160604187Y-108604764D01*
X160613096Y-108655292D01*
X160620000Y-108690000D01*
X160613095Y-108724710D01*
X160604187Y-108775235D01*
X160602446Y-108778250D01*
X160600970Y-108785671D01*
X160580308Y-108816592D01*
X160560909Y-108850194D01*
X160553962Y-108856022D01*
X160546777Y-108866777D01*
X160519139Y-108885243D01*
X160494610Y-108905827D01*
X160480825Y-108910843D01*
X160465671Y-108920970D01*
X160437739Y-108926525D01*
X160413275Y-108935430D01*
X160392975Y-108935430D01*
X160370000Y-108940000D01*
X160347025Y-108935430D01*
X160326725Y-108935430D01*
X160302260Y-108926525D01*
X160274329Y-108920970D01*
X160259175Y-108910844D01*
X160245389Y-108905827D01*
X160220855Y-108885240D01*
X160193223Y-108866777D01*
X160186038Y-108856024D01*
X160179090Y-108850194D01*
X160159683Y-108816581D01*
X160139030Y-108785671D01*
X160137554Y-108778253D01*
X160135812Y-108775235D01*
X160126895Y-108724666D01*
X160120000Y-108690000D01*
X160126894Y-108655336D01*
X160135812Y-108604764D01*
X160137554Y-108601745D01*
X160139030Y-108594329D01*
X160159677Y-108563427D01*
X160179089Y-108529806D01*
X160186039Y-108523973D01*
X160193223Y-108513223D01*
X160220852Y-108494761D01*
X160245390Y-108474172D01*
X160259176Y-108469154D01*
X160274329Y-108459030D01*
X160302259Y-108453474D01*
X160326725Y-108444570D01*
X160347025Y-108444570D01*
X160370000Y-108440000D01*
X160392975Y-108444570D01*
G37*
G36*
X132022975Y-107954570D02*
G01*
X132043275Y-107954570D01*
X132067740Y-107963474D01*
X132095671Y-107969030D01*
X132110823Y-107979154D01*
X132124610Y-107984172D01*
X132149145Y-108004760D01*
X132176777Y-108023223D01*
X132183961Y-108033974D01*
X132190909Y-108039805D01*
X132210313Y-108073413D01*
X132230970Y-108104329D01*
X132232445Y-108111748D01*
X132234187Y-108114764D01*
X132243096Y-108165292D01*
X132250000Y-108200000D01*
X132243095Y-108234710D01*
X132234187Y-108285235D01*
X132232446Y-108288250D01*
X132230970Y-108295671D01*
X132210308Y-108326592D01*
X132190909Y-108360194D01*
X132183962Y-108366022D01*
X132176777Y-108376777D01*
X132149139Y-108395243D01*
X132124610Y-108415827D01*
X132110825Y-108420843D01*
X132095671Y-108430970D01*
X132067739Y-108436525D01*
X132043275Y-108445430D01*
X132022975Y-108445430D01*
X132000000Y-108450000D01*
X131977025Y-108445430D01*
X131956725Y-108445430D01*
X131932260Y-108436525D01*
X131904329Y-108430970D01*
X131889175Y-108420844D01*
X131875389Y-108415827D01*
X131850855Y-108395240D01*
X131823223Y-108376777D01*
X131816038Y-108366024D01*
X131809090Y-108360194D01*
X131789683Y-108326581D01*
X131769030Y-108295671D01*
X131767554Y-108288253D01*
X131765812Y-108285235D01*
X131756895Y-108234666D01*
X131750000Y-108200000D01*
X131756894Y-108165336D01*
X131765812Y-108114764D01*
X131767554Y-108111745D01*
X131769030Y-108104329D01*
X131789677Y-108073427D01*
X131809089Y-108039806D01*
X131816039Y-108033973D01*
X131823223Y-108023223D01*
X131850852Y-108004761D01*
X131875390Y-107984172D01*
X131889176Y-107979154D01*
X131904329Y-107969030D01*
X131932259Y-107963474D01*
X131956725Y-107954570D01*
X131977025Y-107954570D01*
X132000000Y-107950000D01*
X132022975Y-107954570D01*
G37*
G36*
X164972975Y-107214570D02*
G01*
X164993275Y-107214570D01*
X165017740Y-107223474D01*
X165045671Y-107229030D01*
X165060823Y-107239154D01*
X165074610Y-107244172D01*
X165099145Y-107264760D01*
X165126777Y-107283223D01*
X165133961Y-107293974D01*
X165140909Y-107299805D01*
X165160313Y-107333413D01*
X165180970Y-107364329D01*
X165182445Y-107371748D01*
X165184187Y-107374764D01*
X165193096Y-107425292D01*
X165200000Y-107460000D01*
X165193095Y-107494710D01*
X165184187Y-107545235D01*
X165182446Y-107548250D01*
X165180970Y-107555671D01*
X165160308Y-107586592D01*
X165140909Y-107620194D01*
X165133962Y-107626022D01*
X165126777Y-107636777D01*
X165099139Y-107655243D01*
X165074610Y-107675827D01*
X165060825Y-107680843D01*
X165045671Y-107690970D01*
X165017739Y-107696525D01*
X164993275Y-107705430D01*
X164972975Y-107705430D01*
X164950000Y-107710000D01*
X164927025Y-107705430D01*
X164906725Y-107705430D01*
X164882260Y-107696525D01*
X164854329Y-107690970D01*
X164839175Y-107680844D01*
X164825389Y-107675827D01*
X164800855Y-107655240D01*
X164773223Y-107636777D01*
X164766038Y-107626024D01*
X164759090Y-107620194D01*
X164739683Y-107586581D01*
X164719030Y-107555671D01*
X164717554Y-107548253D01*
X164715812Y-107545235D01*
X164706895Y-107494666D01*
X164700000Y-107460000D01*
X164706894Y-107425336D01*
X164715812Y-107374764D01*
X164717554Y-107371745D01*
X164719030Y-107364329D01*
X164739677Y-107333427D01*
X164759089Y-107299806D01*
X164766039Y-107293973D01*
X164773223Y-107283223D01*
X164800852Y-107264761D01*
X164825390Y-107244172D01*
X164839176Y-107239154D01*
X164854329Y-107229030D01*
X164882259Y-107223474D01*
X164906725Y-107214570D01*
X164927025Y-107214570D01*
X164950000Y-107210000D01*
X164972975Y-107214570D01*
G37*
G36*
X157322975Y-106214570D02*
G01*
X157343275Y-106214570D01*
X157367740Y-106223474D01*
X157395671Y-106229030D01*
X157410823Y-106239154D01*
X157424610Y-106244172D01*
X157449145Y-106264760D01*
X157476777Y-106283223D01*
X157483961Y-106293974D01*
X157490909Y-106299805D01*
X157510313Y-106333413D01*
X157530970Y-106364329D01*
X157532445Y-106371748D01*
X157534187Y-106374764D01*
X157543096Y-106425292D01*
X157550000Y-106460000D01*
X157543095Y-106494710D01*
X157534187Y-106545235D01*
X157532446Y-106548250D01*
X157530970Y-106555671D01*
X157510308Y-106586592D01*
X157490909Y-106620194D01*
X157483962Y-106626022D01*
X157476777Y-106636777D01*
X157449139Y-106655243D01*
X157424610Y-106675827D01*
X157410825Y-106680843D01*
X157395671Y-106690970D01*
X157367739Y-106696525D01*
X157343275Y-106705430D01*
X157322975Y-106705430D01*
X157300000Y-106710000D01*
X157277025Y-106705430D01*
X157256725Y-106705430D01*
X157232260Y-106696525D01*
X157204329Y-106690970D01*
X157189175Y-106680844D01*
X157175389Y-106675827D01*
X157150855Y-106655240D01*
X157123223Y-106636777D01*
X157116038Y-106626024D01*
X157109090Y-106620194D01*
X157089683Y-106586581D01*
X157069030Y-106555671D01*
X157067554Y-106548253D01*
X157065812Y-106545235D01*
X157056895Y-106494666D01*
X157050000Y-106460000D01*
X157056894Y-106425336D01*
X157065812Y-106374764D01*
X157067554Y-106371745D01*
X157069030Y-106364329D01*
X157089677Y-106333427D01*
X157109089Y-106299806D01*
X157116039Y-106293973D01*
X157123223Y-106283223D01*
X157150852Y-106264761D01*
X157175390Y-106244172D01*
X157189176Y-106239154D01*
X157204329Y-106229030D01*
X157232259Y-106223474D01*
X157256725Y-106214570D01*
X157277025Y-106214570D01*
X157300000Y-106210000D01*
X157322975Y-106214570D01*
G37*
G36*
X132012975Y-106144570D02*
G01*
X132033275Y-106144570D01*
X132057740Y-106153474D01*
X132085671Y-106159030D01*
X132100823Y-106169154D01*
X132114610Y-106174172D01*
X132139145Y-106194760D01*
X132166777Y-106213223D01*
X132173961Y-106223974D01*
X132180909Y-106229805D01*
X132200313Y-106263413D01*
X132220970Y-106294329D01*
X132222445Y-106301748D01*
X132224187Y-106304764D01*
X132233096Y-106355292D01*
X132240000Y-106390000D01*
X132233095Y-106424710D01*
X132224187Y-106475235D01*
X132222446Y-106478250D01*
X132220970Y-106485671D01*
X132200308Y-106516592D01*
X132180909Y-106550194D01*
X132173962Y-106556022D01*
X132166777Y-106566777D01*
X132139139Y-106585243D01*
X132114610Y-106605827D01*
X132100825Y-106610843D01*
X132085671Y-106620970D01*
X132057739Y-106626525D01*
X132033275Y-106635430D01*
X132012975Y-106635430D01*
X131990000Y-106640000D01*
X131967025Y-106635430D01*
X131946725Y-106635430D01*
X131922260Y-106626525D01*
X131894329Y-106620970D01*
X131879175Y-106610844D01*
X131865389Y-106605827D01*
X131840855Y-106585240D01*
X131813223Y-106566777D01*
X131806038Y-106556024D01*
X131799090Y-106550194D01*
X131779683Y-106516581D01*
X131759030Y-106485671D01*
X131757554Y-106478253D01*
X131755812Y-106475235D01*
X131746895Y-106424666D01*
X131740000Y-106390000D01*
X131746894Y-106355336D01*
X131755812Y-106304764D01*
X131757554Y-106301745D01*
X131759030Y-106294329D01*
X131779677Y-106263427D01*
X131799089Y-106229806D01*
X131806039Y-106223973D01*
X131813223Y-106213223D01*
X131840852Y-106194761D01*
X131865390Y-106174172D01*
X131879176Y-106169154D01*
X131894329Y-106159030D01*
X131922259Y-106153474D01*
X131946725Y-106144570D01*
X131967025Y-106144570D01*
X131990000Y-106140000D01*
X132012975Y-106144570D01*
G37*
G36*
X143052975Y-105994570D02*
G01*
X143073275Y-105994570D01*
X143097740Y-106003474D01*
X143125671Y-106009030D01*
X143140823Y-106019154D01*
X143154610Y-106024172D01*
X143179145Y-106044760D01*
X143206777Y-106063223D01*
X143213961Y-106073974D01*
X143220909Y-106079805D01*
X143240313Y-106113413D01*
X143260970Y-106144329D01*
X143262445Y-106151748D01*
X143264187Y-106154764D01*
X143273096Y-106205292D01*
X143280000Y-106240000D01*
X143273095Y-106274710D01*
X143264187Y-106325235D01*
X143262446Y-106328250D01*
X143260970Y-106335671D01*
X143240308Y-106366592D01*
X143220909Y-106400194D01*
X143213962Y-106406022D01*
X143206777Y-106416777D01*
X143179139Y-106435243D01*
X143154610Y-106455827D01*
X143140825Y-106460843D01*
X143125671Y-106470970D01*
X143097739Y-106476525D01*
X143073275Y-106485430D01*
X143052975Y-106485430D01*
X143030000Y-106490000D01*
X143007025Y-106485430D01*
X142986725Y-106485430D01*
X142962260Y-106476525D01*
X142934329Y-106470970D01*
X142919175Y-106460844D01*
X142905389Y-106455827D01*
X142880855Y-106435240D01*
X142853223Y-106416777D01*
X142846038Y-106406024D01*
X142839090Y-106400194D01*
X142819683Y-106366581D01*
X142799030Y-106335671D01*
X142797554Y-106328253D01*
X142795812Y-106325235D01*
X142786895Y-106274666D01*
X142780000Y-106240000D01*
X142786894Y-106205336D01*
X142795812Y-106154764D01*
X142797554Y-106151745D01*
X142799030Y-106144329D01*
X142819677Y-106113427D01*
X142839089Y-106079806D01*
X142846039Y-106073973D01*
X142853223Y-106063223D01*
X142880852Y-106044761D01*
X142905390Y-106024172D01*
X142919176Y-106019154D01*
X142934329Y-106009030D01*
X142962259Y-106003474D01*
X142986725Y-105994570D01*
X143007025Y-105994570D01*
X143030000Y-105990000D01*
X143052975Y-105994570D01*
G37*
G36*
X130722975Y-105894570D02*
G01*
X130743275Y-105894570D01*
X130767740Y-105903474D01*
X130795671Y-105909030D01*
X130810823Y-105919154D01*
X130824610Y-105924172D01*
X130849145Y-105944760D01*
X130876777Y-105963223D01*
X130883961Y-105973974D01*
X130890909Y-105979805D01*
X130910313Y-106013413D01*
X130930970Y-106044329D01*
X130932445Y-106051748D01*
X130934187Y-106054764D01*
X130943096Y-106105292D01*
X130950000Y-106140000D01*
X130943095Y-106174710D01*
X130934187Y-106225235D01*
X130932446Y-106228250D01*
X130930970Y-106235671D01*
X130910308Y-106266592D01*
X130890909Y-106300194D01*
X130883962Y-106306022D01*
X130876777Y-106316777D01*
X130849139Y-106335243D01*
X130824610Y-106355827D01*
X130810825Y-106360843D01*
X130795671Y-106370970D01*
X130767739Y-106376525D01*
X130743275Y-106385430D01*
X130722975Y-106385430D01*
X130700000Y-106390000D01*
X130677025Y-106385430D01*
X130656725Y-106385430D01*
X130632260Y-106376525D01*
X130604329Y-106370970D01*
X130589175Y-106360844D01*
X130575389Y-106355827D01*
X130550855Y-106335240D01*
X130523223Y-106316777D01*
X130516038Y-106306024D01*
X130509090Y-106300194D01*
X130489683Y-106266581D01*
X130469030Y-106235671D01*
X130467554Y-106228253D01*
X130465812Y-106225235D01*
X130456895Y-106174666D01*
X130450000Y-106140000D01*
X130456894Y-106105336D01*
X130465812Y-106054764D01*
X130467554Y-106051745D01*
X130469030Y-106044329D01*
X130489677Y-106013427D01*
X130509089Y-105979806D01*
X130516039Y-105973973D01*
X130523223Y-105963223D01*
X130550852Y-105944761D01*
X130575390Y-105924172D01*
X130589176Y-105919154D01*
X130604329Y-105909030D01*
X130632259Y-105903474D01*
X130656725Y-105894570D01*
X130677025Y-105894570D01*
X130700000Y-105890000D01*
X130722975Y-105894570D01*
G37*
G36*
X150342975Y-105894570D02*
G01*
X150363275Y-105894570D01*
X150387740Y-105903474D01*
X150415671Y-105909030D01*
X150430823Y-105919154D01*
X150444610Y-105924172D01*
X150469145Y-105944760D01*
X150496777Y-105963223D01*
X150503961Y-105973974D01*
X150510909Y-105979805D01*
X150530313Y-106013413D01*
X150550970Y-106044329D01*
X150552445Y-106051748D01*
X150554187Y-106054764D01*
X150563096Y-106105292D01*
X150570000Y-106140000D01*
X150563095Y-106174710D01*
X150554187Y-106225235D01*
X150552446Y-106228250D01*
X150550970Y-106235671D01*
X150530308Y-106266592D01*
X150510909Y-106300194D01*
X150503962Y-106306022D01*
X150496777Y-106316777D01*
X150469139Y-106335243D01*
X150444610Y-106355827D01*
X150430825Y-106360843D01*
X150415671Y-106370970D01*
X150387739Y-106376525D01*
X150363275Y-106385430D01*
X150342975Y-106385430D01*
X150320000Y-106390000D01*
X150297025Y-106385430D01*
X150276725Y-106385430D01*
X150252260Y-106376525D01*
X150224329Y-106370970D01*
X150209175Y-106360844D01*
X150195389Y-106355827D01*
X150170855Y-106335240D01*
X150143223Y-106316777D01*
X150136038Y-106306024D01*
X150129090Y-106300194D01*
X150109683Y-106266581D01*
X150089030Y-106235671D01*
X150087554Y-106228253D01*
X150085812Y-106225235D01*
X150076895Y-106174666D01*
X150070000Y-106140000D01*
X150076894Y-106105336D01*
X150085812Y-106054764D01*
X150087554Y-106051745D01*
X150089030Y-106044329D01*
X150109677Y-106013427D01*
X150129089Y-105979806D01*
X150136039Y-105973973D01*
X150143223Y-105963223D01*
X150170852Y-105944761D01*
X150195390Y-105924172D01*
X150209176Y-105919154D01*
X150224329Y-105909030D01*
X150252259Y-105903474D01*
X150276725Y-105894570D01*
X150297025Y-105894570D01*
X150320000Y-105890000D01*
X150342975Y-105894570D01*
G37*
G36*
X142642975Y-105364570D02*
G01*
X142663275Y-105364570D01*
X142687740Y-105373474D01*
X142715671Y-105379030D01*
X142730823Y-105389154D01*
X142744610Y-105394172D01*
X142769145Y-105414760D01*
X142796777Y-105433223D01*
X142803961Y-105443974D01*
X142810909Y-105449805D01*
X142830313Y-105483413D01*
X142850970Y-105514329D01*
X142852445Y-105521748D01*
X142854187Y-105524764D01*
X142863096Y-105575292D01*
X142870000Y-105610000D01*
X142863095Y-105644710D01*
X142854187Y-105695235D01*
X142852446Y-105698250D01*
X142850970Y-105705671D01*
X142830308Y-105736592D01*
X142810909Y-105770194D01*
X142803962Y-105776022D01*
X142796777Y-105786777D01*
X142769139Y-105805243D01*
X142744610Y-105825827D01*
X142730825Y-105830843D01*
X142715671Y-105840970D01*
X142687739Y-105846525D01*
X142663275Y-105855430D01*
X142642975Y-105855430D01*
X142620000Y-105860000D01*
X142597025Y-105855430D01*
X142576725Y-105855430D01*
X142552260Y-105846525D01*
X142524329Y-105840970D01*
X142509175Y-105830844D01*
X142495389Y-105825827D01*
X142470855Y-105805240D01*
X142443223Y-105786777D01*
X142436038Y-105776024D01*
X142429090Y-105770194D01*
X142409683Y-105736581D01*
X142389030Y-105705671D01*
X142387554Y-105698253D01*
X142385812Y-105695235D01*
X142376895Y-105644666D01*
X142370000Y-105610000D01*
X142376894Y-105575336D01*
X142385812Y-105524764D01*
X142387554Y-105521745D01*
X142389030Y-105514329D01*
X142409677Y-105483427D01*
X142429089Y-105449806D01*
X142436039Y-105443973D01*
X142443223Y-105433223D01*
X142470852Y-105414761D01*
X142495390Y-105394172D01*
X142509176Y-105389154D01*
X142524329Y-105379030D01*
X142552259Y-105373474D01*
X142576725Y-105364570D01*
X142597025Y-105364570D01*
X142620000Y-105360000D01*
X142642975Y-105364570D01*
G37*
G36*
X150352975Y-104804570D02*
G01*
X150373275Y-104804570D01*
X150397740Y-104813474D01*
X150425671Y-104819030D01*
X150440823Y-104829154D01*
X150454610Y-104834172D01*
X150479145Y-104854760D01*
X150506777Y-104873223D01*
X150513961Y-104883974D01*
X150520909Y-104889805D01*
X150540313Y-104923413D01*
X150560970Y-104954329D01*
X150562445Y-104961748D01*
X150564187Y-104964764D01*
X150573096Y-105015292D01*
X150580000Y-105050000D01*
X150573095Y-105084710D01*
X150564187Y-105135235D01*
X150562446Y-105138250D01*
X150560970Y-105145671D01*
X150540308Y-105176592D01*
X150520909Y-105210194D01*
X150513962Y-105216022D01*
X150506777Y-105226777D01*
X150479139Y-105245243D01*
X150454610Y-105265827D01*
X150440825Y-105270843D01*
X150425671Y-105280970D01*
X150397739Y-105286525D01*
X150373275Y-105295430D01*
X150352975Y-105295430D01*
X150330000Y-105300000D01*
X150307025Y-105295430D01*
X150286725Y-105295430D01*
X150262260Y-105286525D01*
X150234329Y-105280970D01*
X150219175Y-105270844D01*
X150205389Y-105265827D01*
X150180855Y-105245240D01*
X150153223Y-105226777D01*
X150146038Y-105216024D01*
X150139090Y-105210194D01*
X150119683Y-105176581D01*
X150099030Y-105145671D01*
X150097554Y-105138253D01*
X150095812Y-105135235D01*
X150086895Y-105084666D01*
X150080000Y-105050000D01*
X150086894Y-105015336D01*
X150095812Y-104964764D01*
X150097554Y-104961745D01*
X150099030Y-104954329D01*
X150119677Y-104923427D01*
X150139089Y-104889806D01*
X150146039Y-104883973D01*
X150153223Y-104873223D01*
X150180852Y-104854761D01*
X150205390Y-104834172D01*
X150219176Y-104829154D01*
X150234329Y-104819030D01*
X150262259Y-104813474D01*
X150286725Y-104804570D01*
X150307025Y-104804570D01*
X150330000Y-104800000D01*
X150352975Y-104804570D01*
G37*
G36*
X142631784Y-104662997D02*
G01*
X142652084Y-104662997D01*
X142676549Y-104671901D01*
X142704480Y-104677457D01*
X142719632Y-104687581D01*
X142733419Y-104692599D01*
X142757954Y-104713187D01*
X142785586Y-104731650D01*
X142792770Y-104742401D01*
X142799718Y-104748232D01*
X142819122Y-104781840D01*
X142839779Y-104812756D01*
X142841254Y-104820175D01*
X142842996Y-104823191D01*
X142851905Y-104873719D01*
X142858809Y-104908427D01*
X142851904Y-104943137D01*
X142842996Y-104993662D01*
X142841255Y-104996677D01*
X142839779Y-105004098D01*
X142819117Y-105035019D01*
X142799718Y-105068621D01*
X142792771Y-105074449D01*
X142785586Y-105085204D01*
X142757948Y-105103670D01*
X142733419Y-105124254D01*
X142719634Y-105129270D01*
X142704480Y-105139397D01*
X142676548Y-105144952D01*
X142652084Y-105153857D01*
X142631784Y-105153857D01*
X142608809Y-105158427D01*
X142585834Y-105153857D01*
X142565534Y-105153857D01*
X142541069Y-105144952D01*
X142513138Y-105139397D01*
X142497984Y-105129271D01*
X142484198Y-105124254D01*
X142459664Y-105103667D01*
X142432032Y-105085204D01*
X142424847Y-105074451D01*
X142417899Y-105068621D01*
X142398492Y-105035008D01*
X142377839Y-105004098D01*
X142376363Y-104996680D01*
X142374621Y-104993662D01*
X142365704Y-104943093D01*
X142358809Y-104908427D01*
X142365703Y-104873763D01*
X142374621Y-104823191D01*
X142376363Y-104820172D01*
X142377839Y-104812756D01*
X142398486Y-104781854D01*
X142417898Y-104748233D01*
X142424848Y-104742400D01*
X142432032Y-104731650D01*
X142459661Y-104713188D01*
X142484199Y-104692599D01*
X142497985Y-104687581D01*
X142513138Y-104677457D01*
X142541068Y-104671901D01*
X142565534Y-104662997D01*
X142585834Y-104662997D01*
X142608809Y-104658427D01*
X142631784Y-104662997D01*
G37*
G36*
X160062975Y-104174570D02*
G01*
X160083275Y-104174570D01*
X160107740Y-104183474D01*
X160135671Y-104189030D01*
X160150823Y-104199154D01*
X160164610Y-104204172D01*
X160189145Y-104224760D01*
X160216777Y-104243223D01*
X160223961Y-104253974D01*
X160230909Y-104259805D01*
X160250313Y-104293413D01*
X160270970Y-104324329D01*
X160272445Y-104331748D01*
X160274187Y-104334764D01*
X160283096Y-104385292D01*
X160290000Y-104420000D01*
X160283095Y-104454710D01*
X160274187Y-104505235D01*
X160272446Y-104508250D01*
X160270970Y-104515671D01*
X160250308Y-104546592D01*
X160230909Y-104580194D01*
X160223962Y-104586022D01*
X160216777Y-104596777D01*
X160189139Y-104615243D01*
X160164610Y-104635827D01*
X160150825Y-104640843D01*
X160135671Y-104650970D01*
X160107739Y-104656525D01*
X160083275Y-104665430D01*
X160062975Y-104665430D01*
X160040000Y-104670000D01*
X160017025Y-104665430D01*
X159996725Y-104665430D01*
X159972260Y-104656525D01*
X159944329Y-104650970D01*
X159929175Y-104640844D01*
X159915389Y-104635827D01*
X159890855Y-104615240D01*
X159863223Y-104596777D01*
X159856038Y-104586024D01*
X159849090Y-104580194D01*
X159829683Y-104546581D01*
X159809030Y-104515671D01*
X159807554Y-104508253D01*
X159805812Y-104505235D01*
X159796895Y-104454666D01*
X159790000Y-104420000D01*
X159796894Y-104385336D01*
X159805812Y-104334764D01*
X159807554Y-104331745D01*
X159809030Y-104324329D01*
X159829677Y-104293427D01*
X159849089Y-104259806D01*
X159856039Y-104253973D01*
X159863223Y-104243223D01*
X159890852Y-104224761D01*
X159915390Y-104204172D01*
X159929176Y-104199154D01*
X159944329Y-104189030D01*
X159972259Y-104183474D01*
X159996725Y-104174570D01*
X160017025Y-104174570D01*
X160040000Y-104170000D01*
X160062975Y-104174570D01*
G37*
G36*
X142583828Y-103998188D02*
G01*
X142604128Y-103998188D01*
X142628593Y-104007092D01*
X142656524Y-104012648D01*
X142671676Y-104022772D01*
X142685463Y-104027790D01*
X142709998Y-104048378D01*
X142737630Y-104066841D01*
X142744814Y-104077592D01*
X142751762Y-104083423D01*
X142771166Y-104117031D01*
X142791823Y-104147947D01*
X142793298Y-104155366D01*
X142795040Y-104158382D01*
X142803949Y-104208910D01*
X142810853Y-104243618D01*
X142803948Y-104278328D01*
X142795040Y-104328853D01*
X142793299Y-104331868D01*
X142791823Y-104339289D01*
X142771161Y-104370210D01*
X142751762Y-104403812D01*
X142744815Y-104409640D01*
X142737630Y-104420395D01*
X142709992Y-104438861D01*
X142685463Y-104459445D01*
X142671678Y-104464461D01*
X142656524Y-104474588D01*
X142628592Y-104480143D01*
X142604128Y-104489048D01*
X142583828Y-104489048D01*
X142560853Y-104493618D01*
X142537878Y-104489048D01*
X142517578Y-104489048D01*
X142493113Y-104480143D01*
X142465182Y-104474588D01*
X142450028Y-104464462D01*
X142436242Y-104459445D01*
X142411708Y-104438858D01*
X142384076Y-104420395D01*
X142376891Y-104409642D01*
X142369943Y-104403812D01*
X142350536Y-104370199D01*
X142329883Y-104339289D01*
X142328407Y-104331871D01*
X142326665Y-104328853D01*
X142317748Y-104278284D01*
X142310853Y-104243618D01*
X142317747Y-104208954D01*
X142326665Y-104158382D01*
X142328407Y-104155363D01*
X142329883Y-104147947D01*
X142350530Y-104117045D01*
X142369942Y-104083424D01*
X142376892Y-104077591D01*
X142384076Y-104066841D01*
X142411705Y-104048379D01*
X142436243Y-104027790D01*
X142450029Y-104022772D01*
X142465182Y-104012648D01*
X142493112Y-104007092D01*
X142517578Y-103998188D01*
X142537878Y-103998188D01*
X142560853Y-103993618D01*
X142583828Y-103998188D01*
G37*
G36*
X150352975Y-103604570D02*
G01*
X150373275Y-103604570D01*
X150397740Y-103613474D01*
X150425671Y-103619030D01*
X150440823Y-103629154D01*
X150454610Y-103634172D01*
X150479145Y-103654760D01*
X150506777Y-103673223D01*
X150513961Y-103683974D01*
X150520909Y-103689805D01*
X150540313Y-103723413D01*
X150560970Y-103754329D01*
X150562445Y-103761748D01*
X150564187Y-103764764D01*
X150573096Y-103815292D01*
X150580000Y-103850000D01*
X150573095Y-103884710D01*
X150564187Y-103935235D01*
X150562446Y-103938250D01*
X150560970Y-103945671D01*
X150540308Y-103976592D01*
X150520909Y-104010194D01*
X150513962Y-104016022D01*
X150506777Y-104026777D01*
X150479139Y-104045243D01*
X150454610Y-104065827D01*
X150440825Y-104070843D01*
X150425671Y-104080970D01*
X150397739Y-104086525D01*
X150373275Y-104095430D01*
X150352975Y-104095430D01*
X150330000Y-104100000D01*
X150307025Y-104095430D01*
X150286725Y-104095430D01*
X150262260Y-104086525D01*
X150234329Y-104080970D01*
X150219175Y-104070844D01*
X150205389Y-104065827D01*
X150180855Y-104045240D01*
X150153223Y-104026777D01*
X150146038Y-104016024D01*
X150139090Y-104010194D01*
X150119683Y-103976581D01*
X150099030Y-103945671D01*
X150097554Y-103938253D01*
X150095812Y-103935235D01*
X150086895Y-103884666D01*
X150080000Y-103850000D01*
X150086894Y-103815336D01*
X150095812Y-103764764D01*
X150097554Y-103761745D01*
X150099030Y-103754329D01*
X150119677Y-103723427D01*
X150139089Y-103689806D01*
X150146039Y-103683973D01*
X150153223Y-103673223D01*
X150180852Y-103654761D01*
X150205390Y-103634172D01*
X150219176Y-103629154D01*
X150234329Y-103619030D01*
X150262259Y-103613474D01*
X150286725Y-103604570D01*
X150307025Y-103604570D01*
X150330000Y-103600000D01*
X150352975Y-103604570D01*
G37*
G36*
X142587184Y-103282067D02*
G01*
X142607484Y-103282067D01*
X142631949Y-103290971D01*
X142659880Y-103296527D01*
X142675032Y-103306651D01*
X142688819Y-103311669D01*
X142713354Y-103332257D01*
X142740986Y-103350720D01*
X142748170Y-103361471D01*
X142755118Y-103367302D01*
X142774522Y-103400910D01*
X142795179Y-103431826D01*
X142796654Y-103439245D01*
X142798396Y-103442261D01*
X142807305Y-103492789D01*
X142814209Y-103527497D01*
X142807304Y-103562207D01*
X142798396Y-103612732D01*
X142796655Y-103615747D01*
X142795179Y-103623168D01*
X142774517Y-103654089D01*
X142755118Y-103687691D01*
X142748171Y-103693519D01*
X142740986Y-103704274D01*
X142713348Y-103722740D01*
X142688819Y-103743324D01*
X142675034Y-103748340D01*
X142659880Y-103758467D01*
X142631948Y-103764022D01*
X142607484Y-103772927D01*
X142587184Y-103772927D01*
X142564209Y-103777497D01*
X142541234Y-103772927D01*
X142520934Y-103772927D01*
X142496469Y-103764022D01*
X142468538Y-103758467D01*
X142453384Y-103748341D01*
X142439598Y-103743324D01*
X142415064Y-103722737D01*
X142387432Y-103704274D01*
X142380247Y-103693521D01*
X142373299Y-103687691D01*
X142353892Y-103654078D01*
X142333239Y-103623168D01*
X142331763Y-103615750D01*
X142330021Y-103612732D01*
X142321104Y-103562163D01*
X142314209Y-103527497D01*
X142321103Y-103492833D01*
X142330021Y-103442261D01*
X142331763Y-103439242D01*
X142333239Y-103431826D01*
X142353886Y-103400924D01*
X142373298Y-103367303D01*
X142380248Y-103361470D01*
X142387432Y-103350720D01*
X142415061Y-103332258D01*
X142439599Y-103311669D01*
X142453385Y-103306651D01*
X142468538Y-103296527D01*
X142496468Y-103290971D01*
X142520934Y-103282067D01*
X142541234Y-103282067D01*
X142564209Y-103277497D01*
X142587184Y-103282067D01*
G37*
G36*
X167741763Y-102654297D02*
G01*
X167762063Y-102654297D01*
X167786528Y-102663201D01*
X167814459Y-102668757D01*
X167829611Y-102678881D01*
X167843398Y-102683899D01*
X167867933Y-102704487D01*
X167895565Y-102722950D01*
X167902749Y-102733701D01*
X167909697Y-102739532D01*
X167929101Y-102773140D01*
X167949758Y-102804056D01*
X167951233Y-102811475D01*
X167952975Y-102814491D01*
X167961884Y-102865019D01*
X167968788Y-102899727D01*
X167961883Y-102934437D01*
X167952975Y-102984962D01*
X167951234Y-102987977D01*
X167949758Y-102995398D01*
X167929096Y-103026319D01*
X167909697Y-103059921D01*
X167902750Y-103065749D01*
X167895565Y-103076504D01*
X167867927Y-103094970D01*
X167843398Y-103115554D01*
X167829613Y-103120570D01*
X167814459Y-103130697D01*
X167786527Y-103136252D01*
X167762063Y-103145157D01*
X167741763Y-103145157D01*
X167718788Y-103149727D01*
X167695813Y-103145157D01*
X167675513Y-103145157D01*
X167651048Y-103136252D01*
X167623117Y-103130697D01*
X167607963Y-103120571D01*
X167594177Y-103115554D01*
X167569643Y-103094967D01*
X167542011Y-103076504D01*
X167534826Y-103065751D01*
X167527878Y-103059921D01*
X167508471Y-103026308D01*
X167487818Y-102995398D01*
X167486342Y-102987980D01*
X167484600Y-102984962D01*
X167475683Y-102934393D01*
X167468788Y-102899727D01*
X167475682Y-102865063D01*
X167484600Y-102814491D01*
X167486342Y-102811472D01*
X167487818Y-102804056D01*
X167508465Y-102773154D01*
X167527877Y-102739533D01*
X167534827Y-102733700D01*
X167542011Y-102722950D01*
X167569640Y-102704488D01*
X167594178Y-102683899D01*
X167607964Y-102678881D01*
X167623117Y-102668757D01*
X167651047Y-102663201D01*
X167675513Y-102654297D01*
X167695813Y-102654297D01*
X167718788Y-102649727D01*
X167741763Y-102654297D01*
G37*
G36*
X142352975Y-102554570D02*
G01*
X142373275Y-102554570D01*
X142397740Y-102563474D01*
X142425671Y-102569030D01*
X142440823Y-102579154D01*
X142454610Y-102584172D01*
X142479145Y-102604760D01*
X142506777Y-102623223D01*
X142513961Y-102633974D01*
X142520909Y-102639805D01*
X142540313Y-102673413D01*
X142560970Y-102704329D01*
X142562445Y-102711748D01*
X142564187Y-102714764D01*
X142573096Y-102765292D01*
X142580000Y-102800000D01*
X142573095Y-102834710D01*
X142564187Y-102885235D01*
X142562446Y-102888250D01*
X142560970Y-102895671D01*
X142540308Y-102926592D01*
X142520909Y-102960194D01*
X142513962Y-102966022D01*
X142506777Y-102976777D01*
X142479139Y-102995243D01*
X142454610Y-103015827D01*
X142440825Y-103020843D01*
X142425671Y-103030970D01*
X142397739Y-103036525D01*
X142373275Y-103045430D01*
X142352975Y-103045430D01*
X142330000Y-103050000D01*
X142307025Y-103045430D01*
X142286725Y-103045430D01*
X142262260Y-103036525D01*
X142234329Y-103030970D01*
X142219175Y-103020844D01*
X142205389Y-103015827D01*
X142180855Y-102995240D01*
X142153223Y-102976777D01*
X142146038Y-102966024D01*
X142139090Y-102960194D01*
X142119683Y-102926581D01*
X142099030Y-102895671D01*
X142097554Y-102888253D01*
X142095812Y-102885235D01*
X142086895Y-102834666D01*
X142080000Y-102800000D01*
X142086894Y-102765336D01*
X142095812Y-102714764D01*
X142097554Y-102711745D01*
X142099030Y-102704329D01*
X142119677Y-102673427D01*
X142139089Y-102639806D01*
X142146039Y-102633973D01*
X142153223Y-102623223D01*
X142180852Y-102604761D01*
X142205390Y-102584172D01*
X142219176Y-102579154D01*
X142234329Y-102569030D01*
X142262259Y-102563474D01*
X142286725Y-102554570D01*
X142307025Y-102554570D01*
X142330000Y-102550000D01*
X142352975Y-102554570D01*
G37*
G36*
X152092975Y-102294570D02*
G01*
X152113275Y-102294570D01*
X152137740Y-102303474D01*
X152165671Y-102309030D01*
X152180823Y-102319154D01*
X152194610Y-102324172D01*
X152219145Y-102344760D01*
X152246777Y-102363223D01*
X152253961Y-102373974D01*
X152260909Y-102379805D01*
X152280313Y-102413413D01*
X152300970Y-102444329D01*
X152302445Y-102451748D01*
X152304187Y-102454764D01*
X152313096Y-102505292D01*
X152320000Y-102540000D01*
X152313095Y-102574710D01*
X152304187Y-102625235D01*
X152302446Y-102628250D01*
X152300970Y-102635671D01*
X152280308Y-102666592D01*
X152260909Y-102700194D01*
X152253962Y-102706022D01*
X152246777Y-102716777D01*
X152219139Y-102735243D01*
X152194610Y-102755827D01*
X152180825Y-102760843D01*
X152165671Y-102770970D01*
X152137739Y-102776525D01*
X152113275Y-102785430D01*
X152092975Y-102785430D01*
X152070000Y-102790000D01*
X152047025Y-102785430D01*
X152026725Y-102785430D01*
X152002260Y-102776525D01*
X151974329Y-102770970D01*
X151959175Y-102760844D01*
X151945389Y-102755827D01*
X151920855Y-102735240D01*
X151893223Y-102716777D01*
X151886038Y-102706024D01*
X151879090Y-102700194D01*
X151859683Y-102666581D01*
X151839030Y-102635671D01*
X151837554Y-102628253D01*
X151835812Y-102625235D01*
X151826895Y-102574666D01*
X151820000Y-102540000D01*
X151826894Y-102505336D01*
X151835812Y-102454764D01*
X151837554Y-102451745D01*
X151839030Y-102444329D01*
X151859677Y-102413427D01*
X151879089Y-102379806D01*
X151886039Y-102373973D01*
X151893223Y-102363223D01*
X151920852Y-102344761D01*
X151945390Y-102324172D01*
X151959176Y-102319154D01*
X151974329Y-102309030D01*
X152002259Y-102303474D01*
X152026725Y-102294570D01*
X152047025Y-102294570D01*
X152070000Y-102290000D01*
X152092975Y-102294570D01*
G37*
G36*
X141772975Y-101914570D02*
G01*
X141793275Y-101914570D01*
X141817740Y-101923474D01*
X141845671Y-101929030D01*
X141860823Y-101939154D01*
X141874610Y-101944172D01*
X141899145Y-101964760D01*
X141926777Y-101983223D01*
X141933961Y-101993974D01*
X141940909Y-101999805D01*
X141960313Y-102033413D01*
X141980970Y-102064329D01*
X141982445Y-102071748D01*
X141984187Y-102074764D01*
X141993096Y-102125292D01*
X142000000Y-102160000D01*
X141993095Y-102194710D01*
X141984187Y-102245235D01*
X141982446Y-102248250D01*
X141980970Y-102255671D01*
X141960308Y-102286592D01*
X141940909Y-102320194D01*
X141933962Y-102326022D01*
X141926777Y-102336777D01*
X141899139Y-102355243D01*
X141874610Y-102375827D01*
X141860825Y-102380843D01*
X141845671Y-102390970D01*
X141817739Y-102396525D01*
X141793275Y-102405430D01*
X141772975Y-102405430D01*
X141750000Y-102410000D01*
X141727025Y-102405430D01*
X141706725Y-102405430D01*
X141682260Y-102396525D01*
X141654329Y-102390970D01*
X141639175Y-102380844D01*
X141625389Y-102375827D01*
X141600855Y-102355240D01*
X141573223Y-102336777D01*
X141566038Y-102326024D01*
X141559090Y-102320194D01*
X141539683Y-102286581D01*
X141519030Y-102255671D01*
X141517554Y-102248253D01*
X141515812Y-102245235D01*
X141506895Y-102194666D01*
X141500000Y-102160000D01*
X141506894Y-102125336D01*
X141515812Y-102074764D01*
X141517554Y-102071745D01*
X141519030Y-102064329D01*
X141539677Y-102033427D01*
X141559089Y-101999806D01*
X141566039Y-101993973D01*
X141573223Y-101983223D01*
X141600852Y-101964761D01*
X141625390Y-101944172D01*
X141639176Y-101939154D01*
X141654329Y-101929030D01*
X141682259Y-101923474D01*
X141706725Y-101914570D01*
X141727025Y-101914570D01*
X141750000Y-101910000D01*
X141772975Y-101914570D01*
G37*
G36*
X141052975Y-101404570D02*
G01*
X141073275Y-101404570D01*
X141097740Y-101413474D01*
X141125671Y-101419030D01*
X141140823Y-101429154D01*
X141154610Y-101434172D01*
X141179145Y-101454760D01*
X141206777Y-101473223D01*
X141213961Y-101483974D01*
X141220909Y-101489805D01*
X141240313Y-101523413D01*
X141260970Y-101554329D01*
X141262445Y-101561748D01*
X141264187Y-101564764D01*
X141273096Y-101615292D01*
X141280000Y-101650000D01*
X141273095Y-101684710D01*
X141264187Y-101735235D01*
X141262446Y-101738250D01*
X141260970Y-101745671D01*
X141240308Y-101776592D01*
X141220909Y-101810194D01*
X141213962Y-101816022D01*
X141206777Y-101826777D01*
X141179139Y-101845243D01*
X141154610Y-101865827D01*
X141140825Y-101870843D01*
X141125671Y-101880970D01*
X141097739Y-101886525D01*
X141073275Y-101895430D01*
X141052975Y-101895430D01*
X141030000Y-101900000D01*
X141007025Y-101895430D01*
X140986725Y-101895430D01*
X140962260Y-101886525D01*
X140934329Y-101880970D01*
X140919175Y-101870844D01*
X140905389Y-101865827D01*
X140880855Y-101845240D01*
X140853223Y-101826777D01*
X140846038Y-101816024D01*
X140839090Y-101810194D01*
X140819683Y-101776581D01*
X140799030Y-101745671D01*
X140797554Y-101738253D01*
X140795812Y-101735235D01*
X140786895Y-101684666D01*
X140780000Y-101650000D01*
X140786894Y-101615336D01*
X140795812Y-101564764D01*
X140797554Y-101561745D01*
X140799030Y-101554329D01*
X140819677Y-101523427D01*
X140839089Y-101489806D01*
X140846039Y-101483973D01*
X140853223Y-101473223D01*
X140880852Y-101454761D01*
X140905390Y-101434172D01*
X140919176Y-101429154D01*
X140934329Y-101419030D01*
X140962259Y-101413474D01*
X140986725Y-101404570D01*
X141007025Y-101404570D01*
X141030000Y-101400000D01*
X141052975Y-101404570D01*
G37*
G36*
X140372975Y-101064570D02*
G01*
X140393275Y-101064570D01*
X140417740Y-101073474D01*
X140445671Y-101079030D01*
X140460823Y-101089154D01*
X140474610Y-101094172D01*
X140499145Y-101114760D01*
X140526777Y-101133223D01*
X140533961Y-101143974D01*
X140540909Y-101149805D01*
X140560313Y-101183413D01*
X140580970Y-101214329D01*
X140582445Y-101221748D01*
X140584187Y-101224764D01*
X140593096Y-101275292D01*
X140600000Y-101310000D01*
X140593095Y-101344710D01*
X140584187Y-101395235D01*
X140582446Y-101398250D01*
X140580970Y-101405671D01*
X140560308Y-101436592D01*
X140540909Y-101470194D01*
X140533962Y-101476022D01*
X140526777Y-101486777D01*
X140499139Y-101505243D01*
X140474610Y-101525827D01*
X140460825Y-101530843D01*
X140445671Y-101540970D01*
X140417739Y-101546525D01*
X140393275Y-101555430D01*
X140372975Y-101555430D01*
X140350000Y-101560000D01*
X140327025Y-101555430D01*
X140306725Y-101555430D01*
X140282260Y-101546525D01*
X140254329Y-101540970D01*
X140239175Y-101530844D01*
X140225389Y-101525827D01*
X140200855Y-101505240D01*
X140173223Y-101486777D01*
X140166038Y-101476024D01*
X140159090Y-101470194D01*
X140139683Y-101436581D01*
X140119030Y-101405671D01*
X140117554Y-101398253D01*
X140115812Y-101395235D01*
X140106895Y-101344666D01*
X140100000Y-101310000D01*
X140106894Y-101275336D01*
X140115812Y-101224764D01*
X140117554Y-101221745D01*
X140119030Y-101214329D01*
X140139677Y-101183427D01*
X140159089Y-101149806D01*
X140166039Y-101143973D01*
X140173223Y-101133223D01*
X140200852Y-101114761D01*
X140225390Y-101094172D01*
X140239176Y-101089154D01*
X140254329Y-101079030D01*
X140282259Y-101073474D01*
X140306725Y-101064570D01*
X140327025Y-101064570D01*
X140350000Y-101060000D01*
X140372975Y-101064570D01*
G37*
G36*
X135522975Y-100654570D02*
G01*
X135543275Y-100654570D01*
X135567740Y-100663474D01*
X135595671Y-100669030D01*
X135610823Y-100679154D01*
X135624610Y-100684172D01*
X135649145Y-100704760D01*
X135676777Y-100723223D01*
X135683961Y-100733974D01*
X135690909Y-100739805D01*
X135710313Y-100773413D01*
X135730970Y-100804329D01*
X135732445Y-100811748D01*
X135734187Y-100814764D01*
X135743096Y-100865292D01*
X135750000Y-100900000D01*
X135743095Y-100934710D01*
X135734187Y-100985235D01*
X135732446Y-100988250D01*
X135730970Y-100995671D01*
X135710308Y-101026592D01*
X135690909Y-101060194D01*
X135683962Y-101066022D01*
X135676777Y-101076777D01*
X135649139Y-101095243D01*
X135624610Y-101115827D01*
X135610825Y-101120843D01*
X135595671Y-101130970D01*
X135567739Y-101136525D01*
X135543275Y-101145430D01*
X135522975Y-101145430D01*
X135500000Y-101150000D01*
X135477025Y-101145430D01*
X135456725Y-101145430D01*
X135432260Y-101136525D01*
X135404329Y-101130970D01*
X135389175Y-101120844D01*
X135375389Y-101115827D01*
X135350855Y-101095240D01*
X135323223Y-101076777D01*
X135316038Y-101066024D01*
X135309090Y-101060194D01*
X135289683Y-101026581D01*
X135269030Y-100995671D01*
X135267554Y-100988253D01*
X135265812Y-100985235D01*
X135256895Y-100934666D01*
X135250000Y-100900000D01*
X135256894Y-100865336D01*
X135265812Y-100814764D01*
X135267554Y-100811745D01*
X135269030Y-100804329D01*
X135289677Y-100773427D01*
X135309089Y-100739806D01*
X135316039Y-100733973D01*
X135323223Y-100723223D01*
X135350852Y-100704761D01*
X135375390Y-100684172D01*
X135389176Y-100679154D01*
X135404329Y-100669030D01*
X135432259Y-100663474D01*
X135456725Y-100654570D01*
X135477025Y-100654570D01*
X135500000Y-100650000D01*
X135522975Y-100654570D01*
G37*
G36*
X151322975Y-100624570D02*
G01*
X151343275Y-100624570D01*
X151367740Y-100633474D01*
X151395671Y-100639030D01*
X151410823Y-100649154D01*
X151424610Y-100654172D01*
X151449145Y-100674760D01*
X151476777Y-100693223D01*
X151483961Y-100703974D01*
X151490909Y-100709805D01*
X151510313Y-100743413D01*
X151530970Y-100774329D01*
X151532445Y-100781748D01*
X151534187Y-100784764D01*
X151543096Y-100835292D01*
X151550000Y-100870000D01*
X151543095Y-100904710D01*
X151534187Y-100955235D01*
X151532446Y-100958250D01*
X151530970Y-100965671D01*
X151510308Y-100996592D01*
X151490909Y-101030194D01*
X151483962Y-101036022D01*
X151476777Y-101046777D01*
X151449139Y-101065243D01*
X151424610Y-101085827D01*
X151410825Y-101090843D01*
X151395671Y-101100970D01*
X151367739Y-101106525D01*
X151343275Y-101115430D01*
X151322975Y-101115430D01*
X151300000Y-101120000D01*
X151277025Y-101115430D01*
X151256725Y-101115430D01*
X151232260Y-101106525D01*
X151204329Y-101100970D01*
X151189175Y-101090844D01*
X151175389Y-101085827D01*
X151150855Y-101065240D01*
X151123223Y-101046777D01*
X151116038Y-101036024D01*
X151109090Y-101030194D01*
X151089683Y-100996581D01*
X151069030Y-100965671D01*
X151067554Y-100958253D01*
X151065812Y-100955235D01*
X151056895Y-100904666D01*
X151050000Y-100870000D01*
X151056894Y-100835336D01*
X151065812Y-100784764D01*
X151067554Y-100781745D01*
X151069030Y-100774329D01*
X151089677Y-100743427D01*
X151109089Y-100709806D01*
X151116039Y-100703973D01*
X151123223Y-100693223D01*
X151150852Y-100674761D01*
X151175390Y-100654172D01*
X151189176Y-100649154D01*
X151204329Y-100639030D01*
X151232259Y-100633474D01*
X151256725Y-100624570D01*
X151277025Y-100624570D01*
X151300000Y-100620000D01*
X151322975Y-100624570D01*
G37*
G36*
X135022975Y-99754570D02*
G01*
X135043275Y-99754570D01*
X135067740Y-99763474D01*
X135095671Y-99769030D01*
X135110823Y-99779154D01*
X135124610Y-99784172D01*
X135149145Y-99804760D01*
X135176777Y-99823223D01*
X135183961Y-99833974D01*
X135190909Y-99839805D01*
X135210313Y-99873413D01*
X135230970Y-99904329D01*
X135232445Y-99911748D01*
X135234187Y-99914764D01*
X135243096Y-99965292D01*
X135250000Y-100000000D01*
X135243095Y-100034710D01*
X135234187Y-100085235D01*
X135232446Y-100088250D01*
X135230970Y-100095671D01*
X135210308Y-100126592D01*
X135190909Y-100160194D01*
X135183962Y-100166022D01*
X135176777Y-100176777D01*
X135149139Y-100195243D01*
X135124610Y-100215827D01*
X135110825Y-100220843D01*
X135095671Y-100230970D01*
X135067739Y-100236525D01*
X135043275Y-100245430D01*
X135022975Y-100245430D01*
X135000000Y-100250000D01*
X134977025Y-100245430D01*
X134956725Y-100245430D01*
X134932260Y-100236525D01*
X134904329Y-100230970D01*
X134889175Y-100220844D01*
X134875389Y-100215827D01*
X134850855Y-100195240D01*
X134823223Y-100176777D01*
X134816038Y-100166024D01*
X134809090Y-100160194D01*
X134789683Y-100126581D01*
X134769030Y-100095671D01*
X134767554Y-100088253D01*
X134765812Y-100085235D01*
X134756895Y-100034666D01*
X134750000Y-100000000D01*
X134756894Y-99965336D01*
X134765812Y-99914764D01*
X134767554Y-99911745D01*
X134769030Y-99904329D01*
X134789677Y-99873427D01*
X134809089Y-99839806D01*
X134816039Y-99833973D01*
X134823223Y-99823223D01*
X134850852Y-99804761D01*
X134875390Y-99784172D01*
X134889176Y-99779154D01*
X134904329Y-99769030D01*
X134932259Y-99763474D01*
X134956725Y-99754570D01*
X134977025Y-99754570D01*
X135000000Y-99750000D01*
X135022975Y-99754570D01*
G37*
G36*
X162282975Y-99744570D02*
G01*
X162303275Y-99744570D01*
X162327740Y-99753474D01*
X162355671Y-99759030D01*
X162370823Y-99769154D01*
X162384610Y-99774172D01*
X162409145Y-99794760D01*
X162436777Y-99813223D01*
X162443961Y-99823974D01*
X162450909Y-99829805D01*
X162470313Y-99863413D01*
X162490970Y-99894329D01*
X162492445Y-99901748D01*
X162494187Y-99904764D01*
X162503096Y-99955292D01*
X162510000Y-99990000D01*
X162503095Y-100024710D01*
X162494187Y-100075235D01*
X162492446Y-100078250D01*
X162490970Y-100085671D01*
X162470308Y-100116592D01*
X162450909Y-100150194D01*
X162443962Y-100156022D01*
X162436777Y-100166777D01*
X162409139Y-100185243D01*
X162384610Y-100205827D01*
X162370825Y-100210843D01*
X162355671Y-100220970D01*
X162327739Y-100226525D01*
X162303275Y-100235430D01*
X162282975Y-100235430D01*
X162260000Y-100240000D01*
X162237025Y-100235430D01*
X162216725Y-100235430D01*
X162192260Y-100226525D01*
X162164329Y-100220970D01*
X162149175Y-100210844D01*
X162135389Y-100205827D01*
X162110855Y-100185240D01*
X162083223Y-100166777D01*
X162076038Y-100156024D01*
X162069090Y-100150194D01*
X162049683Y-100116581D01*
X162029030Y-100085671D01*
X162027554Y-100078253D01*
X162025812Y-100075235D01*
X162016895Y-100024666D01*
X162010000Y-99990000D01*
X162016894Y-99955336D01*
X162025812Y-99904764D01*
X162027554Y-99901745D01*
X162029030Y-99894329D01*
X162049677Y-99863427D01*
X162069089Y-99829806D01*
X162076039Y-99823973D01*
X162083223Y-99813223D01*
X162110852Y-99794761D01*
X162135390Y-99774172D01*
X162149176Y-99769154D01*
X162164329Y-99759030D01*
X162192259Y-99753474D01*
X162216725Y-99744570D01*
X162237025Y-99744570D01*
X162260000Y-99740000D01*
X162282975Y-99744570D01*
G37*
G36*
X155769134Y-98319806D02*
G01*
X155785355Y-98330645D01*
X155796194Y-98346866D01*
X155800000Y-98366000D01*
X155800000Y-99266000D01*
X155796194Y-99285134D01*
X155785355Y-99301355D01*
X155769134Y-99312194D01*
X155750000Y-99316000D01*
X152850000Y-99316000D01*
X152830866Y-99312194D01*
X152814645Y-99301355D01*
X152803806Y-99285134D01*
X152800000Y-99266000D01*
X152800000Y-98366000D01*
X152803806Y-98346866D01*
X152814645Y-98330645D01*
X152830866Y-98319806D01*
X152850000Y-98316000D01*
X155750000Y-98316000D01*
X155769134Y-98319806D01*
G37*
G36*
X119622975Y-98054570D02*
G01*
X119643275Y-98054570D01*
X119667740Y-98063474D01*
X119695671Y-98069030D01*
X119710823Y-98079154D01*
X119724610Y-98084172D01*
X119749145Y-98104760D01*
X119776777Y-98123223D01*
X119783961Y-98133974D01*
X119790909Y-98139805D01*
X119810313Y-98173413D01*
X119830970Y-98204329D01*
X119832445Y-98211748D01*
X119834187Y-98214764D01*
X119843096Y-98265292D01*
X119850000Y-98300000D01*
X119843095Y-98334710D01*
X119834187Y-98385235D01*
X119832446Y-98388250D01*
X119830970Y-98395671D01*
X119810308Y-98426592D01*
X119790909Y-98460194D01*
X119783962Y-98466022D01*
X119776777Y-98476777D01*
X119749139Y-98495243D01*
X119724610Y-98515827D01*
X119710825Y-98520843D01*
X119695671Y-98530970D01*
X119667739Y-98536525D01*
X119643275Y-98545430D01*
X119622975Y-98545430D01*
X119600000Y-98550000D01*
X119577025Y-98545430D01*
X119556725Y-98545430D01*
X119532260Y-98536525D01*
X119504329Y-98530970D01*
X119489175Y-98520844D01*
X119475389Y-98515827D01*
X119450855Y-98495240D01*
X119423223Y-98476777D01*
X119416038Y-98466024D01*
X119409090Y-98460194D01*
X119389683Y-98426581D01*
X119369030Y-98395671D01*
X119367554Y-98388253D01*
X119365812Y-98385235D01*
X119356895Y-98334666D01*
X119350000Y-98300000D01*
X119356894Y-98265336D01*
X119365812Y-98214764D01*
X119367554Y-98211745D01*
X119369030Y-98204329D01*
X119389677Y-98173427D01*
X119409089Y-98139806D01*
X119416039Y-98133973D01*
X119423223Y-98123223D01*
X119450852Y-98104761D01*
X119475390Y-98084172D01*
X119489176Y-98079154D01*
X119504329Y-98069030D01*
X119532259Y-98063474D01*
X119556725Y-98054570D01*
X119577025Y-98054570D01*
X119600000Y-98050000D01*
X119622975Y-98054570D01*
G37*
G36*
X120422975Y-98054570D02*
G01*
X120443275Y-98054570D01*
X120467740Y-98063474D01*
X120495671Y-98069030D01*
X120510823Y-98079154D01*
X120524610Y-98084172D01*
X120549145Y-98104760D01*
X120576777Y-98123223D01*
X120583961Y-98133974D01*
X120590909Y-98139805D01*
X120610313Y-98173413D01*
X120630970Y-98204329D01*
X120632445Y-98211748D01*
X120634187Y-98214764D01*
X120643096Y-98265292D01*
X120650000Y-98300000D01*
X120643095Y-98334710D01*
X120634187Y-98385235D01*
X120632446Y-98388250D01*
X120630970Y-98395671D01*
X120610308Y-98426592D01*
X120590909Y-98460194D01*
X120583962Y-98466022D01*
X120576777Y-98476777D01*
X120549139Y-98495243D01*
X120524610Y-98515827D01*
X120510825Y-98520843D01*
X120495671Y-98530970D01*
X120467739Y-98536525D01*
X120443275Y-98545430D01*
X120422975Y-98545430D01*
X120400000Y-98550000D01*
X120377025Y-98545430D01*
X120356725Y-98545430D01*
X120332260Y-98536525D01*
X120304329Y-98530970D01*
X120289175Y-98520844D01*
X120275389Y-98515827D01*
X120250855Y-98495240D01*
X120223223Y-98476777D01*
X120216038Y-98466024D01*
X120209090Y-98460194D01*
X120189683Y-98426581D01*
X120169030Y-98395671D01*
X120167554Y-98388253D01*
X120165812Y-98385235D01*
X120156895Y-98334666D01*
X120150000Y-98300000D01*
X120156894Y-98265336D01*
X120165812Y-98214764D01*
X120167554Y-98211745D01*
X120169030Y-98204329D01*
X120189677Y-98173427D01*
X120209089Y-98139806D01*
X120216039Y-98133973D01*
X120223223Y-98123223D01*
X120250852Y-98104761D01*
X120275390Y-98084172D01*
X120289176Y-98079154D01*
X120304329Y-98069030D01*
X120332259Y-98063474D01*
X120356725Y-98054570D01*
X120377025Y-98054570D01*
X120400000Y-98050000D01*
X120422975Y-98054570D01*
G37*
G36*
X121222975Y-98054570D02*
G01*
X121243275Y-98054570D01*
X121267740Y-98063474D01*
X121295671Y-98069030D01*
X121310823Y-98079154D01*
X121324610Y-98084172D01*
X121349145Y-98104760D01*
X121376777Y-98123223D01*
X121383961Y-98133974D01*
X121390909Y-98139805D01*
X121410313Y-98173413D01*
X121430970Y-98204329D01*
X121432445Y-98211748D01*
X121434187Y-98214764D01*
X121443096Y-98265292D01*
X121450000Y-98300000D01*
X121443095Y-98334710D01*
X121434187Y-98385235D01*
X121432446Y-98388250D01*
X121430970Y-98395671D01*
X121410308Y-98426592D01*
X121390909Y-98460194D01*
X121383962Y-98466022D01*
X121376777Y-98476777D01*
X121349139Y-98495243D01*
X121324610Y-98515827D01*
X121310825Y-98520843D01*
X121295671Y-98530970D01*
X121267739Y-98536525D01*
X121243275Y-98545430D01*
X121222975Y-98545430D01*
X121200000Y-98550000D01*
X121177025Y-98545430D01*
X121156725Y-98545430D01*
X121132260Y-98536525D01*
X121104329Y-98530970D01*
X121089175Y-98520844D01*
X121075389Y-98515827D01*
X121050855Y-98495240D01*
X121023223Y-98476777D01*
X121016038Y-98466024D01*
X121009090Y-98460194D01*
X120989683Y-98426581D01*
X120969030Y-98395671D01*
X120967554Y-98388253D01*
X120965812Y-98385235D01*
X120956895Y-98334666D01*
X120950000Y-98300000D01*
X120956894Y-98265336D01*
X120965812Y-98214764D01*
X120967554Y-98211745D01*
X120969030Y-98204329D01*
X120989677Y-98173427D01*
X121009089Y-98139806D01*
X121016039Y-98133973D01*
X121023223Y-98123223D01*
X121050852Y-98104761D01*
X121075390Y-98084172D01*
X121089176Y-98079154D01*
X121104329Y-98069030D01*
X121132259Y-98063474D01*
X121156725Y-98054570D01*
X121177025Y-98054570D01*
X121200000Y-98050000D01*
X121222975Y-98054570D01*
G37*
G36*
X122022975Y-98054570D02*
G01*
X122043275Y-98054570D01*
X122067740Y-98063474D01*
X122095671Y-98069030D01*
X122110823Y-98079154D01*
X122124610Y-98084172D01*
X122149145Y-98104760D01*
X122176777Y-98123223D01*
X122183961Y-98133974D01*
X122190909Y-98139805D01*
X122210313Y-98173413D01*
X122230970Y-98204329D01*
X122232445Y-98211748D01*
X122234187Y-98214764D01*
X122243096Y-98265292D01*
X122250000Y-98300000D01*
X122243095Y-98334710D01*
X122234187Y-98385235D01*
X122232446Y-98388250D01*
X122230970Y-98395671D01*
X122210308Y-98426592D01*
X122190909Y-98460194D01*
X122183962Y-98466022D01*
X122176777Y-98476777D01*
X122149139Y-98495243D01*
X122124610Y-98515827D01*
X122110825Y-98520843D01*
X122095671Y-98530970D01*
X122067739Y-98536525D01*
X122043275Y-98545430D01*
X122022975Y-98545430D01*
X122000000Y-98550000D01*
X121977025Y-98545430D01*
X121956725Y-98545430D01*
X121932260Y-98536525D01*
X121904329Y-98530970D01*
X121889175Y-98520844D01*
X121875389Y-98515827D01*
X121850855Y-98495240D01*
X121823223Y-98476777D01*
X121816038Y-98466024D01*
X121809090Y-98460194D01*
X121789683Y-98426581D01*
X121769030Y-98395671D01*
X121767554Y-98388253D01*
X121765812Y-98385235D01*
X121756895Y-98334666D01*
X121750000Y-98300000D01*
X121756894Y-98265336D01*
X121765812Y-98214764D01*
X121767554Y-98211745D01*
X121769030Y-98204329D01*
X121789677Y-98173427D01*
X121809089Y-98139806D01*
X121816039Y-98133973D01*
X121823223Y-98123223D01*
X121850852Y-98104761D01*
X121875390Y-98084172D01*
X121889176Y-98079154D01*
X121904329Y-98069030D01*
X121932259Y-98063474D01*
X121956725Y-98054570D01*
X121977025Y-98054570D01*
X122000000Y-98050000D01*
X122022975Y-98054570D01*
G37*
G36*
X122822975Y-98054570D02*
G01*
X122843275Y-98054570D01*
X122867740Y-98063474D01*
X122895671Y-98069030D01*
X122910823Y-98079154D01*
X122924610Y-98084172D01*
X122949145Y-98104760D01*
X122976777Y-98123223D01*
X122983961Y-98133974D01*
X122990909Y-98139805D01*
X123010313Y-98173413D01*
X123030970Y-98204329D01*
X123032445Y-98211748D01*
X123034187Y-98214764D01*
X123043096Y-98265292D01*
X123050000Y-98300000D01*
X123043095Y-98334710D01*
X123034187Y-98385235D01*
X123032446Y-98388250D01*
X123030970Y-98395671D01*
X123010308Y-98426592D01*
X122990909Y-98460194D01*
X122983962Y-98466022D01*
X122976777Y-98476777D01*
X122949139Y-98495243D01*
X122924610Y-98515827D01*
X122910825Y-98520843D01*
X122895671Y-98530970D01*
X122867739Y-98536525D01*
X122843275Y-98545430D01*
X122822975Y-98545430D01*
X122800000Y-98550000D01*
X122777025Y-98545430D01*
X122756725Y-98545430D01*
X122732260Y-98536525D01*
X122704329Y-98530970D01*
X122689175Y-98520844D01*
X122675389Y-98515827D01*
X122650855Y-98495240D01*
X122623223Y-98476777D01*
X122616038Y-98466024D01*
X122609090Y-98460194D01*
X122589683Y-98426581D01*
X122569030Y-98395671D01*
X122567554Y-98388253D01*
X122565812Y-98385235D01*
X122556895Y-98334666D01*
X122550000Y-98300000D01*
X122556894Y-98265336D01*
X122565812Y-98214764D01*
X122567554Y-98211745D01*
X122569030Y-98204329D01*
X122589677Y-98173427D01*
X122609089Y-98139806D01*
X122616039Y-98133973D01*
X122623223Y-98123223D01*
X122650852Y-98104761D01*
X122675390Y-98084172D01*
X122689176Y-98079154D01*
X122704329Y-98069030D01*
X122732259Y-98063474D01*
X122756725Y-98054570D01*
X122777025Y-98054570D01*
X122800000Y-98050000D01*
X122822975Y-98054570D01*
G37*
G36*
X123622975Y-98054570D02*
G01*
X123643275Y-98054570D01*
X123667740Y-98063474D01*
X123695671Y-98069030D01*
X123710823Y-98079154D01*
X123724610Y-98084172D01*
X123749145Y-98104760D01*
X123776777Y-98123223D01*
X123783961Y-98133974D01*
X123790909Y-98139805D01*
X123810313Y-98173413D01*
X123830970Y-98204329D01*
X123832445Y-98211748D01*
X123834187Y-98214764D01*
X123843096Y-98265292D01*
X123850000Y-98300000D01*
X123843095Y-98334710D01*
X123834187Y-98385235D01*
X123832446Y-98388250D01*
X123830970Y-98395671D01*
X123810308Y-98426592D01*
X123790909Y-98460194D01*
X123783962Y-98466022D01*
X123776777Y-98476777D01*
X123749139Y-98495243D01*
X123724610Y-98515827D01*
X123710825Y-98520843D01*
X123695671Y-98530970D01*
X123667739Y-98536525D01*
X123643275Y-98545430D01*
X123622975Y-98545430D01*
X123600000Y-98550000D01*
X123577025Y-98545430D01*
X123556725Y-98545430D01*
X123532260Y-98536525D01*
X123504329Y-98530970D01*
X123489175Y-98520844D01*
X123475389Y-98515827D01*
X123450855Y-98495240D01*
X123423223Y-98476777D01*
X123416038Y-98466024D01*
X123409090Y-98460194D01*
X123389683Y-98426581D01*
X123369030Y-98395671D01*
X123367554Y-98388253D01*
X123365812Y-98385235D01*
X123356895Y-98334666D01*
X123350000Y-98300000D01*
X123356894Y-98265336D01*
X123365812Y-98214764D01*
X123367554Y-98211745D01*
X123369030Y-98204329D01*
X123389677Y-98173427D01*
X123409089Y-98139806D01*
X123416039Y-98133973D01*
X123423223Y-98123223D01*
X123450852Y-98104761D01*
X123475390Y-98084172D01*
X123489176Y-98079154D01*
X123504329Y-98069030D01*
X123532259Y-98063474D01*
X123556725Y-98054570D01*
X123577025Y-98054570D01*
X123600000Y-98050000D01*
X123622975Y-98054570D01*
G37*
G36*
X141732975Y-97844570D02*
G01*
X141753275Y-97844570D01*
X141777740Y-97853474D01*
X141805671Y-97859030D01*
X141820823Y-97869154D01*
X141834610Y-97874172D01*
X141859145Y-97894760D01*
X141886777Y-97913223D01*
X141893961Y-97923974D01*
X141900909Y-97929805D01*
X141920313Y-97963413D01*
X141940970Y-97994329D01*
X141942445Y-98001748D01*
X141944187Y-98004764D01*
X141953096Y-98055292D01*
X141960000Y-98090000D01*
X141953095Y-98124710D01*
X141944187Y-98175235D01*
X141942446Y-98178250D01*
X141940970Y-98185671D01*
X141920308Y-98216592D01*
X141900909Y-98250194D01*
X141893962Y-98256022D01*
X141886777Y-98266777D01*
X141859139Y-98285243D01*
X141834610Y-98305827D01*
X141820825Y-98310843D01*
X141805671Y-98320970D01*
X141777739Y-98326525D01*
X141753275Y-98335430D01*
X141732975Y-98335430D01*
X141710000Y-98340000D01*
X141687025Y-98335430D01*
X141666725Y-98335430D01*
X141642260Y-98326525D01*
X141614329Y-98320970D01*
X141599175Y-98310844D01*
X141585389Y-98305827D01*
X141560855Y-98285240D01*
X141533223Y-98266777D01*
X141526038Y-98256024D01*
X141519090Y-98250194D01*
X141499683Y-98216581D01*
X141479030Y-98185671D01*
X141477554Y-98178253D01*
X141475812Y-98175235D01*
X141466895Y-98124666D01*
X141460000Y-98090000D01*
X141466894Y-98055336D01*
X141475812Y-98004764D01*
X141477554Y-98001745D01*
X141479030Y-97994329D01*
X141499677Y-97963427D01*
X141519089Y-97929806D01*
X141526039Y-97923973D01*
X141533223Y-97913223D01*
X141560852Y-97894761D01*
X141585390Y-97874172D01*
X141599176Y-97869154D01*
X141614329Y-97859030D01*
X141642259Y-97853474D01*
X141666725Y-97844570D01*
X141687025Y-97844570D01*
X141710000Y-97840000D01*
X141732975Y-97844570D01*
G37*
G36*
X169492975Y-97654570D02*
G01*
X169513275Y-97654570D01*
X169537740Y-97663474D01*
X169565671Y-97669030D01*
X169580823Y-97679154D01*
X169594610Y-97684172D01*
X169619145Y-97704760D01*
X169646777Y-97723223D01*
X169653961Y-97733974D01*
X169660909Y-97739805D01*
X169680313Y-97773413D01*
X169700970Y-97804329D01*
X169702445Y-97811748D01*
X169704187Y-97814764D01*
X169713096Y-97865292D01*
X169720000Y-97900000D01*
X169713095Y-97934710D01*
X169704187Y-97985235D01*
X169702446Y-97988250D01*
X169700970Y-97995671D01*
X169680308Y-98026592D01*
X169660909Y-98060194D01*
X169653962Y-98066022D01*
X169646777Y-98076777D01*
X169619139Y-98095243D01*
X169594610Y-98115827D01*
X169580825Y-98120843D01*
X169565671Y-98130970D01*
X169537739Y-98136525D01*
X169513275Y-98145430D01*
X169492975Y-98145430D01*
X169470000Y-98150000D01*
X169447025Y-98145430D01*
X169426725Y-98145430D01*
X169402260Y-98136525D01*
X169374329Y-98130970D01*
X169359175Y-98120844D01*
X169345389Y-98115827D01*
X169320855Y-98095240D01*
X169293223Y-98076777D01*
X169286038Y-98066024D01*
X169279090Y-98060194D01*
X169259683Y-98026581D01*
X169239030Y-97995671D01*
X169237554Y-97988253D01*
X169235812Y-97985235D01*
X169226895Y-97934666D01*
X169220000Y-97900000D01*
X169226894Y-97865336D01*
X169235812Y-97814764D01*
X169237554Y-97811745D01*
X169239030Y-97804329D01*
X169259677Y-97773427D01*
X169279089Y-97739806D01*
X169286039Y-97733973D01*
X169293223Y-97723223D01*
X169320852Y-97704761D01*
X169345390Y-97684172D01*
X169359176Y-97679154D01*
X169374329Y-97669030D01*
X169402259Y-97663474D01*
X169426725Y-97654570D01*
X169447025Y-97654570D01*
X169470000Y-97650000D01*
X169492975Y-97654570D01*
G37*
G36*
X128221387Y-97576616D02*
G01*
X128241687Y-97576616D01*
X128266152Y-97585520D01*
X128294083Y-97591076D01*
X128309235Y-97601200D01*
X128323022Y-97606218D01*
X128347557Y-97626806D01*
X128375189Y-97645269D01*
X128382373Y-97656020D01*
X128389321Y-97661851D01*
X128408725Y-97695459D01*
X128429382Y-97726375D01*
X128430857Y-97733794D01*
X128432599Y-97736810D01*
X128441508Y-97787338D01*
X128448412Y-97822046D01*
X128441507Y-97856756D01*
X128432599Y-97907281D01*
X128430858Y-97910296D01*
X128429382Y-97917717D01*
X128408720Y-97948638D01*
X128389321Y-97982240D01*
X128382374Y-97988068D01*
X128375189Y-97998823D01*
X128347551Y-98017289D01*
X128323022Y-98037873D01*
X128309237Y-98042889D01*
X128294083Y-98053016D01*
X128266151Y-98058571D01*
X128241687Y-98067476D01*
X128221387Y-98067476D01*
X128198412Y-98072046D01*
X128175437Y-98067476D01*
X128155137Y-98067476D01*
X128130672Y-98058571D01*
X128102741Y-98053016D01*
X128087587Y-98042890D01*
X128073801Y-98037873D01*
X128049267Y-98017286D01*
X128021635Y-97998823D01*
X128014450Y-97988070D01*
X128007502Y-97982240D01*
X127988095Y-97948627D01*
X127967442Y-97917717D01*
X127965966Y-97910299D01*
X127964224Y-97907281D01*
X127955307Y-97856712D01*
X127948412Y-97822046D01*
X127955306Y-97787382D01*
X127964224Y-97736810D01*
X127965966Y-97733791D01*
X127967442Y-97726375D01*
X127988089Y-97695473D01*
X128007501Y-97661852D01*
X128014451Y-97656019D01*
X128021635Y-97645269D01*
X128049264Y-97626807D01*
X128073802Y-97606218D01*
X128087588Y-97601200D01*
X128102741Y-97591076D01*
X128130671Y-97585520D01*
X128155137Y-97576616D01*
X128175437Y-97576616D01*
X128198412Y-97572046D01*
X128221387Y-97576616D01*
G37*
G36*
X127569361Y-97554447D02*
G01*
X127589661Y-97554447D01*
X127614126Y-97563351D01*
X127642057Y-97568907D01*
X127657209Y-97579031D01*
X127670996Y-97584049D01*
X127695531Y-97604637D01*
X127723163Y-97623100D01*
X127730347Y-97633851D01*
X127737295Y-97639682D01*
X127756699Y-97673290D01*
X127777356Y-97704206D01*
X127778831Y-97711625D01*
X127780573Y-97714641D01*
X127789482Y-97765169D01*
X127796386Y-97799877D01*
X127789481Y-97834587D01*
X127780573Y-97885112D01*
X127778832Y-97888127D01*
X127777356Y-97895548D01*
X127756694Y-97926469D01*
X127737295Y-97960071D01*
X127730348Y-97965899D01*
X127723163Y-97976654D01*
X127695525Y-97995120D01*
X127670996Y-98015704D01*
X127657211Y-98020720D01*
X127642057Y-98030847D01*
X127614125Y-98036402D01*
X127589661Y-98045307D01*
X127569361Y-98045307D01*
X127546386Y-98049877D01*
X127523411Y-98045307D01*
X127503111Y-98045307D01*
X127478646Y-98036402D01*
X127450715Y-98030847D01*
X127435561Y-98020721D01*
X127421775Y-98015704D01*
X127397241Y-97995117D01*
X127369609Y-97976654D01*
X127362424Y-97965901D01*
X127355476Y-97960071D01*
X127336069Y-97926458D01*
X127315416Y-97895548D01*
X127313940Y-97888130D01*
X127312198Y-97885112D01*
X127303281Y-97834543D01*
X127296386Y-97799877D01*
X127303280Y-97765213D01*
X127312198Y-97714641D01*
X127313940Y-97711622D01*
X127315416Y-97704206D01*
X127336063Y-97673304D01*
X127355475Y-97639683D01*
X127362425Y-97633850D01*
X127369609Y-97623100D01*
X127397238Y-97604638D01*
X127421776Y-97584049D01*
X127435562Y-97579031D01*
X127450715Y-97568907D01*
X127478645Y-97563351D01*
X127503111Y-97554447D01*
X127523411Y-97554447D01*
X127546386Y-97549877D01*
X127569361Y-97554447D01*
G37*
G36*
X128873160Y-97547969D02*
G01*
X128893460Y-97547969D01*
X128917925Y-97556873D01*
X128945856Y-97562429D01*
X128961008Y-97572553D01*
X128974795Y-97577571D01*
X128999330Y-97598159D01*
X129026962Y-97616622D01*
X129034146Y-97627373D01*
X129041094Y-97633204D01*
X129060498Y-97666812D01*
X129081155Y-97697728D01*
X129082630Y-97705147D01*
X129084372Y-97708163D01*
X129093281Y-97758691D01*
X129100185Y-97793399D01*
X129093280Y-97828109D01*
X129084372Y-97878634D01*
X129082631Y-97881649D01*
X129081155Y-97889070D01*
X129060493Y-97919991D01*
X129041094Y-97953593D01*
X129034147Y-97959421D01*
X129026962Y-97970176D01*
X128999324Y-97988642D01*
X128974795Y-98009226D01*
X128961010Y-98014242D01*
X128945856Y-98024369D01*
X128917924Y-98029924D01*
X128893460Y-98038829D01*
X128873160Y-98038829D01*
X128850185Y-98043399D01*
X128827210Y-98038829D01*
X128806910Y-98038829D01*
X128782445Y-98029924D01*
X128754514Y-98024369D01*
X128739360Y-98014243D01*
X128725574Y-98009226D01*
X128701040Y-97988639D01*
X128673408Y-97970176D01*
X128666223Y-97959423D01*
X128659275Y-97953593D01*
X128639868Y-97919980D01*
X128619215Y-97889070D01*
X128617739Y-97881652D01*
X128615997Y-97878634D01*
X128607080Y-97828065D01*
X128600185Y-97793399D01*
X128607079Y-97758735D01*
X128615997Y-97708163D01*
X128617739Y-97705144D01*
X128619215Y-97697728D01*
X128639862Y-97666826D01*
X128659274Y-97633205D01*
X128666224Y-97627372D01*
X128673408Y-97616622D01*
X128701037Y-97598160D01*
X128725575Y-97577571D01*
X128739361Y-97572553D01*
X128754514Y-97562429D01*
X128782444Y-97556873D01*
X128806910Y-97547969D01*
X128827210Y-97547969D01*
X128850185Y-97543399D01*
X128873160Y-97547969D01*
G37*
G36*
X155769134Y-96097306D02*
G01*
X155785355Y-96108145D01*
X155796194Y-96124366D01*
X155800000Y-96143500D01*
X155800000Y-97043500D01*
X155796194Y-97062634D01*
X155785355Y-97078855D01*
X155769134Y-97089694D01*
X155750000Y-97093500D01*
X152850000Y-97093500D01*
X152830866Y-97089694D01*
X152814645Y-97078855D01*
X152803806Y-97062634D01*
X152800000Y-97043500D01*
X152800000Y-96143500D01*
X152803806Y-96124366D01*
X152814645Y-96108145D01*
X152830866Y-96097306D01*
X152850000Y-96093500D01*
X155750000Y-96093500D01*
X155769134Y-96097306D01*
G37*
G36*
X143957975Y-96344570D02*
G01*
X143978275Y-96344570D01*
X144002740Y-96353474D01*
X144030671Y-96359030D01*
X144045823Y-96369154D01*
X144059610Y-96374172D01*
X144084145Y-96394760D01*
X144111777Y-96413223D01*
X144118961Y-96423974D01*
X144125909Y-96429805D01*
X144145313Y-96463413D01*
X144165970Y-96494329D01*
X144167445Y-96501748D01*
X144169187Y-96504764D01*
X144178096Y-96555292D01*
X144185000Y-96590000D01*
X144178095Y-96624710D01*
X144169187Y-96675235D01*
X144167446Y-96678250D01*
X144165970Y-96685671D01*
X144145308Y-96716592D01*
X144125909Y-96750194D01*
X144118962Y-96756022D01*
X144111777Y-96766777D01*
X144084139Y-96785243D01*
X144059610Y-96805827D01*
X144045825Y-96810843D01*
X144030671Y-96820970D01*
X144002739Y-96826525D01*
X143978275Y-96835430D01*
X143957975Y-96835430D01*
X143935000Y-96840000D01*
X143912025Y-96835430D01*
X143891725Y-96835430D01*
X143867260Y-96826525D01*
X143839329Y-96820970D01*
X143824175Y-96810844D01*
X143810389Y-96805827D01*
X143785855Y-96785240D01*
X143758223Y-96766777D01*
X143751038Y-96756024D01*
X143744090Y-96750194D01*
X143724683Y-96716581D01*
X143704030Y-96685671D01*
X143702554Y-96678253D01*
X143700812Y-96675235D01*
X143691895Y-96624666D01*
X143685000Y-96590000D01*
X143691894Y-96555336D01*
X143700812Y-96504764D01*
X143702554Y-96501745D01*
X143704030Y-96494329D01*
X143724677Y-96463427D01*
X143744089Y-96429806D01*
X143751039Y-96423973D01*
X143758223Y-96413223D01*
X143785852Y-96394761D01*
X143810390Y-96374172D01*
X143824176Y-96369154D01*
X143839329Y-96359030D01*
X143867259Y-96353474D01*
X143891725Y-96344570D01*
X143912025Y-96344570D01*
X143935000Y-96340000D01*
X143957975Y-96344570D01*
G37*
G36*
X148132975Y-96324570D02*
G01*
X148153275Y-96324570D01*
X148177740Y-96333474D01*
X148205671Y-96339030D01*
X148220823Y-96349154D01*
X148234610Y-96354172D01*
X148259145Y-96374760D01*
X148286777Y-96393223D01*
X148293961Y-96403974D01*
X148300909Y-96409805D01*
X148320313Y-96443413D01*
X148340970Y-96474329D01*
X148342445Y-96481748D01*
X148344187Y-96484764D01*
X148353096Y-96535292D01*
X148360000Y-96570000D01*
X148353095Y-96604710D01*
X148344187Y-96655235D01*
X148342446Y-96658250D01*
X148340970Y-96665671D01*
X148320308Y-96696592D01*
X148300909Y-96730194D01*
X148293962Y-96736022D01*
X148286777Y-96746777D01*
X148259139Y-96765243D01*
X148234610Y-96785827D01*
X148220825Y-96790843D01*
X148205671Y-96800970D01*
X148177739Y-96806525D01*
X148153275Y-96815430D01*
X148132975Y-96815430D01*
X148110000Y-96820000D01*
X148087025Y-96815430D01*
X148066725Y-96815430D01*
X148042260Y-96806525D01*
X148014329Y-96800970D01*
X147999175Y-96790844D01*
X147985389Y-96785827D01*
X147960855Y-96765240D01*
X147933223Y-96746777D01*
X147926038Y-96736024D01*
X147919090Y-96730194D01*
X147899683Y-96696581D01*
X147879030Y-96665671D01*
X147877554Y-96658253D01*
X147875812Y-96655235D01*
X147866895Y-96604666D01*
X147860000Y-96570000D01*
X147866894Y-96535336D01*
X147875812Y-96484764D01*
X147877554Y-96481745D01*
X147879030Y-96474329D01*
X147899677Y-96443427D01*
X147919089Y-96409806D01*
X147926039Y-96403973D01*
X147933223Y-96393223D01*
X147960852Y-96374761D01*
X147985390Y-96354172D01*
X147999176Y-96349154D01*
X148014329Y-96339030D01*
X148042259Y-96333474D01*
X148066725Y-96324570D01*
X148087025Y-96324570D01*
X148110000Y-96320000D01*
X148132975Y-96324570D01*
G37*
G36*
X117255261Y-96149634D02*
G01*
X117282963Y-96149634D01*
X117304305Y-96157401D01*
X117324055Y-96160530D01*
X117351945Y-96174741D01*
X117382500Y-96185862D01*
X117395995Y-96197186D01*
X117408903Y-96203763D01*
X117435340Y-96230200D01*
X117463644Y-96253950D01*
X117469864Y-96264724D01*
X117476236Y-96271096D01*
X117496471Y-96310808D01*
X117516606Y-96345684D01*
X117517857Y-96352781D01*
X117519469Y-96355944D01*
X117528770Y-96414670D01*
X117535000Y-96450000D01*
X117528769Y-96485333D01*
X117519469Y-96544055D01*
X117517857Y-96547217D01*
X117516606Y-96554316D01*
X117496466Y-96589198D01*
X117476236Y-96628903D01*
X117469866Y-96635272D01*
X117463644Y-96646050D01*
X117435334Y-96669804D01*
X117408903Y-96696236D01*
X117395998Y-96702811D01*
X117382500Y-96714138D01*
X117351938Y-96725261D01*
X117324055Y-96739469D01*
X117304310Y-96742596D01*
X117282963Y-96750366D01*
X117255255Y-96750366D01*
X117230000Y-96754366D01*
X117204745Y-96750366D01*
X117177037Y-96750366D01*
X117155690Y-96742596D01*
X117135944Y-96739469D01*
X117108057Y-96725259D01*
X117077500Y-96714138D01*
X117064002Y-96702812D01*
X117051096Y-96696236D01*
X117024659Y-96669799D01*
X116996356Y-96646050D01*
X116990135Y-96635275D01*
X116983763Y-96628903D01*
X116963524Y-96589183D01*
X116943394Y-96554316D01*
X116942142Y-96547220D01*
X116940530Y-96544055D01*
X116931220Y-96485277D01*
X116925000Y-96450000D01*
X116931219Y-96414726D01*
X116940530Y-96355944D01*
X116942143Y-96352778D01*
X116943394Y-96345684D01*
X116963520Y-96310823D01*
X116983763Y-96271096D01*
X116990136Y-96264722D01*
X116996356Y-96253950D01*
X117024653Y-96230205D01*
X117051096Y-96203763D01*
X117064005Y-96197185D01*
X117077500Y-96185862D01*
X117108050Y-96174742D01*
X117135944Y-96160530D01*
X117155694Y-96157401D01*
X117177037Y-96149634D01*
X117204739Y-96149634D01*
X117230000Y-96145633D01*
X117255261Y-96149634D01*
G37*
G36*
X116125261Y-96119634D02*
G01*
X116152963Y-96119634D01*
X116174305Y-96127401D01*
X116194055Y-96130530D01*
X116221945Y-96144741D01*
X116252500Y-96155862D01*
X116265995Y-96167186D01*
X116278903Y-96173763D01*
X116305340Y-96200200D01*
X116333644Y-96223950D01*
X116339864Y-96234724D01*
X116346236Y-96241096D01*
X116366471Y-96280808D01*
X116386606Y-96315684D01*
X116387857Y-96322781D01*
X116389469Y-96325944D01*
X116398770Y-96384670D01*
X116405000Y-96420000D01*
X116398769Y-96455333D01*
X116389469Y-96514055D01*
X116387857Y-96517217D01*
X116386606Y-96524316D01*
X116366466Y-96559198D01*
X116346236Y-96598903D01*
X116339866Y-96605272D01*
X116333644Y-96616050D01*
X116305334Y-96639804D01*
X116278903Y-96666236D01*
X116265998Y-96672811D01*
X116252500Y-96684138D01*
X116221938Y-96695261D01*
X116194055Y-96709469D01*
X116174310Y-96712596D01*
X116152963Y-96720366D01*
X116125255Y-96720366D01*
X116100000Y-96724366D01*
X116074745Y-96720366D01*
X116047037Y-96720366D01*
X116025690Y-96712596D01*
X116005944Y-96709469D01*
X115978057Y-96695259D01*
X115947500Y-96684138D01*
X115934002Y-96672812D01*
X115921096Y-96666236D01*
X115894659Y-96639799D01*
X115866356Y-96616050D01*
X115860135Y-96605275D01*
X115853763Y-96598903D01*
X115833524Y-96559183D01*
X115813394Y-96524316D01*
X115812142Y-96517220D01*
X115810530Y-96514055D01*
X115801220Y-96455277D01*
X115795000Y-96420000D01*
X115801219Y-96384726D01*
X115810530Y-96325944D01*
X115812143Y-96322778D01*
X115813394Y-96315684D01*
X115833520Y-96280823D01*
X115853763Y-96241096D01*
X115860136Y-96234722D01*
X115866356Y-96223950D01*
X115894653Y-96200205D01*
X115921096Y-96173763D01*
X115934005Y-96167185D01*
X115947500Y-96155862D01*
X115978050Y-96144742D01*
X116005944Y-96130530D01*
X116025694Y-96127401D01*
X116047037Y-96119634D01*
X116074739Y-96119634D01*
X116100000Y-96115633D01*
X116125261Y-96119634D01*
G37*
G36*
X136422975Y-96054570D02*
G01*
X136443275Y-96054570D01*
X136467740Y-96063474D01*
X136495671Y-96069030D01*
X136510823Y-96079154D01*
X136524610Y-96084172D01*
X136549145Y-96104760D01*
X136576777Y-96123223D01*
X136583961Y-96133974D01*
X136590909Y-96139805D01*
X136610313Y-96173413D01*
X136630970Y-96204329D01*
X136632445Y-96211748D01*
X136634187Y-96214764D01*
X136643096Y-96265292D01*
X136650000Y-96300000D01*
X136643095Y-96334710D01*
X136634187Y-96385235D01*
X136632446Y-96388250D01*
X136630970Y-96395671D01*
X136610308Y-96426592D01*
X136590909Y-96460194D01*
X136583962Y-96466022D01*
X136576777Y-96476777D01*
X136549139Y-96495243D01*
X136524610Y-96515827D01*
X136510825Y-96520843D01*
X136495671Y-96530970D01*
X136467739Y-96536525D01*
X136443275Y-96545430D01*
X136422975Y-96545430D01*
X136400000Y-96550000D01*
X136377025Y-96545430D01*
X136356725Y-96545430D01*
X136332260Y-96536525D01*
X136304329Y-96530970D01*
X136289175Y-96520844D01*
X136275389Y-96515827D01*
X136250855Y-96495240D01*
X136223223Y-96476777D01*
X136216038Y-96466024D01*
X136209090Y-96460194D01*
X136189683Y-96426581D01*
X136169030Y-96395671D01*
X136167554Y-96388253D01*
X136165812Y-96385235D01*
X136156895Y-96334666D01*
X136150000Y-96300000D01*
X136156894Y-96265336D01*
X136165812Y-96214764D01*
X136167554Y-96211745D01*
X136169030Y-96204329D01*
X136189677Y-96173427D01*
X136209089Y-96139806D01*
X136216039Y-96133973D01*
X136223223Y-96123223D01*
X136250852Y-96104761D01*
X136275390Y-96084172D01*
X136289176Y-96079154D01*
X136304329Y-96069030D01*
X136332259Y-96063474D01*
X136356725Y-96054570D01*
X136377025Y-96054570D01*
X136400000Y-96050000D01*
X136422975Y-96054570D01*
G37*
G36*
X163652975Y-95964570D02*
G01*
X163673275Y-95964570D01*
X163697740Y-95973474D01*
X163725671Y-95979030D01*
X163740823Y-95989154D01*
X163754610Y-95994172D01*
X163779145Y-96014760D01*
X163806777Y-96033223D01*
X163813961Y-96043974D01*
X163820909Y-96049805D01*
X163840313Y-96083413D01*
X163860970Y-96114329D01*
X163862445Y-96121748D01*
X163864187Y-96124764D01*
X163873096Y-96175292D01*
X163880000Y-96210000D01*
X163873095Y-96244710D01*
X163864187Y-96295235D01*
X163862446Y-96298250D01*
X163860970Y-96305671D01*
X163840308Y-96336592D01*
X163820909Y-96370194D01*
X163813962Y-96376022D01*
X163806777Y-96386777D01*
X163779139Y-96405243D01*
X163754610Y-96425827D01*
X163740825Y-96430843D01*
X163725671Y-96440970D01*
X163697739Y-96446525D01*
X163673275Y-96455430D01*
X163652975Y-96455430D01*
X163630000Y-96460000D01*
X163607025Y-96455430D01*
X163586725Y-96455430D01*
X163562260Y-96446525D01*
X163534329Y-96440970D01*
X163519175Y-96430844D01*
X163505389Y-96425827D01*
X163480855Y-96405240D01*
X163453223Y-96386777D01*
X163446038Y-96376024D01*
X163439090Y-96370194D01*
X163419683Y-96336581D01*
X163399030Y-96305671D01*
X163397554Y-96298253D01*
X163395812Y-96295235D01*
X163386895Y-96244666D01*
X163380000Y-96210000D01*
X163386894Y-96175336D01*
X163395812Y-96124764D01*
X163397554Y-96121745D01*
X163399030Y-96114329D01*
X163419677Y-96083427D01*
X163439089Y-96049806D01*
X163446039Y-96043973D01*
X163453223Y-96033223D01*
X163480852Y-96014761D01*
X163505390Y-95994172D01*
X163519176Y-95989154D01*
X163534329Y-95979030D01*
X163562259Y-95973474D01*
X163586725Y-95964570D01*
X163607025Y-95964570D01*
X163630000Y-95960000D01*
X163652975Y-95964570D01*
G37*
G36*
X135022975Y-95284570D02*
G01*
X135043275Y-95284570D01*
X135067740Y-95293474D01*
X135095671Y-95299030D01*
X135110823Y-95309154D01*
X135124610Y-95314172D01*
X135149145Y-95334760D01*
X135176777Y-95353223D01*
X135183961Y-95363974D01*
X135190909Y-95369805D01*
X135210313Y-95403413D01*
X135230970Y-95434329D01*
X135232445Y-95441748D01*
X135234187Y-95444764D01*
X135243096Y-95495292D01*
X135250000Y-95530000D01*
X135243095Y-95564710D01*
X135234187Y-95615235D01*
X135232446Y-95618250D01*
X135230970Y-95625671D01*
X135210308Y-95656592D01*
X135190909Y-95690194D01*
X135183962Y-95696022D01*
X135176777Y-95706777D01*
X135149139Y-95725243D01*
X135124610Y-95745827D01*
X135110825Y-95750843D01*
X135095671Y-95760970D01*
X135067739Y-95766525D01*
X135043275Y-95775430D01*
X135022975Y-95775430D01*
X135000000Y-95780000D01*
X134977025Y-95775430D01*
X134956725Y-95775430D01*
X134932260Y-95766525D01*
X134904329Y-95760970D01*
X134889175Y-95750844D01*
X134875389Y-95745827D01*
X134850855Y-95725240D01*
X134823223Y-95706777D01*
X134816038Y-95696024D01*
X134809090Y-95690194D01*
X134789683Y-95656581D01*
X134769030Y-95625671D01*
X134767554Y-95618253D01*
X134765812Y-95615235D01*
X134756895Y-95564666D01*
X134750000Y-95530000D01*
X134756894Y-95495336D01*
X134765812Y-95444764D01*
X134767554Y-95441745D01*
X134769030Y-95434329D01*
X134789677Y-95403427D01*
X134809089Y-95369806D01*
X134816039Y-95363973D01*
X134823223Y-95353223D01*
X134850852Y-95334761D01*
X134875390Y-95314172D01*
X134889176Y-95309154D01*
X134904329Y-95299030D01*
X134932259Y-95293474D01*
X134956725Y-95284570D01*
X134977025Y-95284570D01*
X135000000Y-95280000D01*
X135022975Y-95284570D01*
G37*
G36*
X123122975Y-95214570D02*
G01*
X123143275Y-95214570D01*
X123167740Y-95223474D01*
X123195671Y-95229030D01*
X123210823Y-95239154D01*
X123224610Y-95244172D01*
X123249145Y-95264760D01*
X123276777Y-95283223D01*
X123283961Y-95293974D01*
X123290909Y-95299805D01*
X123310313Y-95333413D01*
X123330970Y-95364329D01*
X123332445Y-95371748D01*
X123334187Y-95374764D01*
X123343096Y-95425292D01*
X123350000Y-95460000D01*
X123343095Y-95494710D01*
X123334187Y-95545235D01*
X123332446Y-95548250D01*
X123330970Y-95555671D01*
X123310308Y-95586592D01*
X123290909Y-95620194D01*
X123283962Y-95626022D01*
X123276777Y-95636777D01*
X123249139Y-95655243D01*
X123224610Y-95675827D01*
X123210825Y-95680843D01*
X123195671Y-95690970D01*
X123167739Y-95696525D01*
X123143275Y-95705430D01*
X123122975Y-95705430D01*
X123100000Y-95710000D01*
X123077025Y-95705430D01*
X123056725Y-95705430D01*
X123032260Y-95696525D01*
X123004329Y-95690970D01*
X122989175Y-95680844D01*
X122975389Y-95675827D01*
X122950855Y-95655240D01*
X122923223Y-95636777D01*
X122916038Y-95626024D01*
X122909090Y-95620194D01*
X122889683Y-95586581D01*
X122869030Y-95555671D01*
X122867554Y-95548253D01*
X122865812Y-95545235D01*
X122856895Y-95494666D01*
X122850000Y-95460000D01*
X122856894Y-95425336D01*
X122865812Y-95374764D01*
X122867554Y-95371745D01*
X122869030Y-95364329D01*
X122889677Y-95333427D01*
X122909089Y-95299806D01*
X122916039Y-95293973D01*
X122923223Y-95283223D01*
X122950852Y-95264761D01*
X122975390Y-95244172D01*
X122989176Y-95239154D01*
X123004329Y-95229030D01*
X123032259Y-95223474D01*
X123056725Y-95214570D01*
X123077025Y-95214570D01*
X123100000Y-95210000D01*
X123122975Y-95214570D01*
G37*
G36*
X121989357Y-95028188D02*
G01*
X122009657Y-95028188D01*
X122034122Y-95037092D01*
X122062053Y-95042648D01*
X122077205Y-95052772D01*
X122090992Y-95057790D01*
X122115527Y-95078378D01*
X122143159Y-95096841D01*
X122150343Y-95107592D01*
X122157291Y-95113423D01*
X122176695Y-95147031D01*
X122197352Y-95177947D01*
X122198827Y-95185366D01*
X122200569Y-95188382D01*
X122209478Y-95238910D01*
X122216382Y-95273618D01*
X122209477Y-95308328D01*
X122200569Y-95358853D01*
X122198828Y-95361868D01*
X122197352Y-95369289D01*
X122176690Y-95400210D01*
X122157291Y-95433812D01*
X122150344Y-95439640D01*
X122143159Y-95450395D01*
X122115521Y-95468861D01*
X122090992Y-95489445D01*
X122077207Y-95494461D01*
X122062053Y-95504588D01*
X122034121Y-95510143D01*
X122009657Y-95519048D01*
X121989357Y-95519048D01*
X121966382Y-95523618D01*
X121943407Y-95519048D01*
X121923107Y-95519048D01*
X121898642Y-95510143D01*
X121870711Y-95504588D01*
X121855557Y-95494462D01*
X121841771Y-95489445D01*
X121817237Y-95468858D01*
X121789605Y-95450395D01*
X121782420Y-95439642D01*
X121775472Y-95433812D01*
X121756065Y-95400199D01*
X121735412Y-95369289D01*
X121733936Y-95361871D01*
X121732194Y-95358853D01*
X121723277Y-95308284D01*
X121716382Y-95273618D01*
X121723276Y-95238954D01*
X121732194Y-95188382D01*
X121733936Y-95185363D01*
X121735412Y-95177947D01*
X121756059Y-95147045D01*
X121775471Y-95113424D01*
X121782421Y-95107591D01*
X121789605Y-95096841D01*
X121817234Y-95078379D01*
X121841772Y-95057790D01*
X121855558Y-95052772D01*
X121870711Y-95042648D01*
X121898641Y-95037092D01*
X121923107Y-95028188D01*
X121943407Y-95028188D01*
X121966382Y-95023618D01*
X121989357Y-95028188D01*
G37*
G36*
X121252975Y-95004570D02*
G01*
X121273275Y-95004570D01*
X121297740Y-95013474D01*
X121325671Y-95019030D01*
X121340823Y-95029154D01*
X121354610Y-95034172D01*
X121379145Y-95054760D01*
X121406777Y-95073223D01*
X121413961Y-95083974D01*
X121420909Y-95089805D01*
X121440313Y-95123413D01*
X121460970Y-95154329D01*
X121462445Y-95161748D01*
X121464187Y-95164764D01*
X121473096Y-95215292D01*
X121480000Y-95250000D01*
X121473095Y-95284710D01*
X121464187Y-95335235D01*
X121462446Y-95338250D01*
X121460970Y-95345671D01*
X121440308Y-95376592D01*
X121420909Y-95410194D01*
X121413962Y-95416022D01*
X121406777Y-95426777D01*
X121379139Y-95445243D01*
X121354610Y-95465827D01*
X121340825Y-95470843D01*
X121325671Y-95480970D01*
X121297739Y-95486525D01*
X121273275Y-95495430D01*
X121252975Y-95495430D01*
X121230000Y-95500000D01*
X121207025Y-95495430D01*
X121186725Y-95495430D01*
X121162260Y-95486525D01*
X121134329Y-95480970D01*
X121119175Y-95470844D01*
X121105389Y-95465827D01*
X121080855Y-95445240D01*
X121053223Y-95426777D01*
X121046038Y-95416024D01*
X121039090Y-95410194D01*
X121019683Y-95376581D01*
X120999030Y-95345671D01*
X120997554Y-95338253D01*
X120995812Y-95335235D01*
X120986895Y-95284666D01*
X120980000Y-95250000D01*
X120986894Y-95215336D01*
X120995812Y-95164764D01*
X120997554Y-95161745D01*
X120999030Y-95154329D01*
X121019677Y-95123427D01*
X121039089Y-95089806D01*
X121046039Y-95083973D01*
X121053223Y-95073223D01*
X121080852Y-95054761D01*
X121105390Y-95034172D01*
X121119176Y-95029154D01*
X121134329Y-95019030D01*
X121162259Y-95013474D01*
X121186725Y-95004570D01*
X121207025Y-95004570D01*
X121230000Y-95000000D01*
X121252975Y-95004570D01*
G37*
G36*
X123147797Y-94536627D02*
G01*
X123168097Y-94536627D01*
X123192562Y-94545531D01*
X123220493Y-94551087D01*
X123235645Y-94561211D01*
X123249432Y-94566229D01*
X123273967Y-94586817D01*
X123301599Y-94605280D01*
X123308783Y-94616031D01*
X123315731Y-94621862D01*
X123335135Y-94655470D01*
X123355792Y-94686386D01*
X123357267Y-94693805D01*
X123359009Y-94696821D01*
X123367918Y-94747349D01*
X123374822Y-94782057D01*
X123367917Y-94816767D01*
X123359009Y-94867292D01*
X123357268Y-94870307D01*
X123355792Y-94877728D01*
X123335130Y-94908649D01*
X123315731Y-94942251D01*
X123308784Y-94948079D01*
X123301599Y-94958834D01*
X123273961Y-94977300D01*
X123249432Y-94997884D01*
X123235647Y-95002900D01*
X123220493Y-95013027D01*
X123192561Y-95018582D01*
X123168097Y-95027487D01*
X123147797Y-95027487D01*
X123124822Y-95032057D01*
X123101847Y-95027487D01*
X123081547Y-95027487D01*
X123057082Y-95018582D01*
X123029151Y-95013027D01*
X123013997Y-95002901D01*
X123000211Y-94997884D01*
X122975677Y-94977297D01*
X122948045Y-94958834D01*
X122940860Y-94948081D01*
X122933912Y-94942251D01*
X122914505Y-94908638D01*
X122893852Y-94877728D01*
X122892376Y-94870310D01*
X122890634Y-94867292D01*
X122881717Y-94816723D01*
X122874822Y-94782057D01*
X122881716Y-94747393D01*
X122890634Y-94696821D01*
X122892376Y-94693802D01*
X122893852Y-94686386D01*
X122914499Y-94655484D01*
X122933911Y-94621863D01*
X122940861Y-94616030D01*
X122948045Y-94605280D01*
X122975674Y-94586818D01*
X123000212Y-94566229D01*
X123013998Y-94561211D01*
X123029151Y-94551087D01*
X123057081Y-94545531D01*
X123081547Y-94536627D01*
X123101847Y-94536627D01*
X123124822Y-94532057D01*
X123147797Y-94536627D01*
G37*
G36*
X155769134Y-93874806D02*
G01*
X155785355Y-93885645D01*
X155796194Y-93901866D01*
X155800000Y-93921000D01*
X155800000Y-94821000D01*
X155796194Y-94840134D01*
X155785355Y-94856355D01*
X155769134Y-94867194D01*
X155750000Y-94871000D01*
X152850000Y-94871000D01*
X152830866Y-94867194D01*
X152814645Y-94856355D01*
X152803806Y-94840134D01*
X152800000Y-94821000D01*
X152800000Y-93921000D01*
X152803806Y-93901866D01*
X152814645Y-93885645D01*
X152830866Y-93874806D01*
X152850000Y-93871000D01*
X155750000Y-93871000D01*
X155769134Y-93874806D01*
G37*
G36*
X119832975Y-94374570D02*
G01*
X119853275Y-94374570D01*
X119877740Y-94383474D01*
X119905671Y-94389030D01*
X119920823Y-94399154D01*
X119934610Y-94404172D01*
X119959145Y-94424760D01*
X119986777Y-94443223D01*
X119993961Y-94453974D01*
X120000909Y-94459805D01*
X120020313Y-94493413D01*
X120040970Y-94524329D01*
X120042445Y-94531748D01*
X120044187Y-94534764D01*
X120053096Y-94585292D01*
X120060000Y-94620000D01*
X120053095Y-94654710D01*
X120044187Y-94705235D01*
X120042446Y-94708250D01*
X120040970Y-94715671D01*
X120020308Y-94746592D01*
X120000909Y-94780194D01*
X119993962Y-94786022D01*
X119986777Y-94796777D01*
X119959139Y-94815243D01*
X119934610Y-94835827D01*
X119920825Y-94840843D01*
X119905671Y-94850970D01*
X119877739Y-94856525D01*
X119853275Y-94865430D01*
X119832975Y-94865430D01*
X119810000Y-94870000D01*
X119787025Y-94865430D01*
X119766725Y-94865430D01*
X119742260Y-94856525D01*
X119714329Y-94850970D01*
X119699175Y-94840844D01*
X119685389Y-94835827D01*
X119660855Y-94815240D01*
X119633223Y-94796777D01*
X119626038Y-94786024D01*
X119619090Y-94780194D01*
X119599683Y-94746581D01*
X119579030Y-94715671D01*
X119577554Y-94708253D01*
X119575812Y-94705235D01*
X119566895Y-94654666D01*
X119560000Y-94620000D01*
X119566894Y-94585336D01*
X119575812Y-94534764D01*
X119577554Y-94531745D01*
X119579030Y-94524329D01*
X119599677Y-94493427D01*
X119619089Y-94459806D01*
X119626039Y-94453973D01*
X119633223Y-94443223D01*
X119660852Y-94424761D01*
X119685390Y-94404172D01*
X119699176Y-94399154D01*
X119714329Y-94389030D01*
X119742259Y-94383474D01*
X119766725Y-94374570D01*
X119787025Y-94374570D01*
X119810000Y-94370000D01*
X119832975Y-94374570D01*
G37*
G36*
X123213866Y-93887579D02*
G01*
X123234166Y-93887579D01*
X123258631Y-93896483D01*
X123286562Y-93902039D01*
X123301714Y-93912163D01*
X123315501Y-93917181D01*
X123340036Y-93937769D01*
X123367668Y-93956232D01*
X123374852Y-93966983D01*
X123381800Y-93972814D01*
X123401204Y-94006422D01*
X123421861Y-94037338D01*
X123423336Y-94044757D01*
X123425078Y-94047773D01*
X123433987Y-94098301D01*
X123440891Y-94133009D01*
X123433986Y-94167719D01*
X123425078Y-94218244D01*
X123423337Y-94221259D01*
X123421861Y-94228680D01*
X123401199Y-94259601D01*
X123381800Y-94293203D01*
X123374853Y-94299031D01*
X123367668Y-94309786D01*
X123340030Y-94328252D01*
X123315501Y-94348836D01*
X123301716Y-94353852D01*
X123286562Y-94363979D01*
X123258630Y-94369534D01*
X123234166Y-94378439D01*
X123213866Y-94378439D01*
X123190891Y-94383009D01*
X123167916Y-94378439D01*
X123147616Y-94378439D01*
X123123151Y-94369534D01*
X123095220Y-94363979D01*
X123080066Y-94353853D01*
X123066280Y-94348836D01*
X123041746Y-94328249D01*
X123014114Y-94309786D01*
X123006929Y-94299033D01*
X122999981Y-94293203D01*
X122980574Y-94259590D01*
X122959921Y-94228680D01*
X122958445Y-94221262D01*
X122956703Y-94218244D01*
X122947786Y-94167675D01*
X122940891Y-94133009D01*
X122947785Y-94098345D01*
X122956703Y-94047773D01*
X122958445Y-94044754D01*
X122959921Y-94037338D01*
X122980568Y-94006436D01*
X122999980Y-93972815D01*
X123006930Y-93966982D01*
X123014114Y-93956232D01*
X123041743Y-93937770D01*
X123066281Y-93917181D01*
X123080067Y-93912163D01*
X123095220Y-93902039D01*
X123123150Y-93896483D01*
X123147616Y-93887579D01*
X123167916Y-93887579D01*
X123190891Y-93883009D01*
X123213866Y-93887579D01*
G37*
G36*
X141022975Y-93754570D02*
G01*
X141043275Y-93754570D01*
X141067740Y-93763474D01*
X141095671Y-93769030D01*
X141110823Y-93779154D01*
X141124610Y-93784172D01*
X141149145Y-93804760D01*
X141176777Y-93823223D01*
X141183961Y-93833974D01*
X141190909Y-93839805D01*
X141210313Y-93873413D01*
X141230970Y-93904329D01*
X141232445Y-93911748D01*
X141234187Y-93914764D01*
X141243096Y-93965292D01*
X141250000Y-94000000D01*
X141243095Y-94034710D01*
X141234187Y-94085235D01*
X141232446Y-94088250D01*
X141230970Y-94095671D01*
X141210308Y-94126592D01*
X141190909Y-94160194D01*
X141183962Y-94166022D01*
X141176777Y-94176777D01*
X141149139Y-94195243D01*
X141124610Y-94215827D01*
X141110825Y-94220843D01*
X141095671Y-94230970D01*
X141067739Y-94236525D01*
X141043275Y-94245430D01*
X141022975Y-94245430D01*
X141000000Y-94250000D01*
X140977025Y-94245430D01*
X140956725Y-94245430D01*
X140932260Y-94236525D01*
X140904329Y-94230970D01*
X140889175Y-94220844D01*
X140875389Y-94215827D01*
X140850855Y-94195240D01*
X140823223Y-94176777D01*
X140816038Y-94166024D01*
X140809090Y-94160194D01*
X140789683Y-94126581D01*
X140769030Y-94095671D01*
X140767554Y-94088253D01*
X140765812Y-94085235D01*
X140756895Y-94034666D01*
X140750000Y-94000000D01*
X140756894Y-93965336D01*
X140765812Y-93914764D01*
X140767554Y-93911745D01*
X140769030Y-93904329D01*
X140789677Y-93873427D01*
X140809089Y-93839806D01*
X140816039Y-93833973D01*
X140823223Y-93823223D01*
X140850852Y-93804761D01*
X140875390Y-93784172D01*
X140889176Y-93779154D01*
X140904329Y-93769030D01*
X140932259Y-93763474D01*
X140956725Y-93754570D01*
X140977025Y-93754570D01*
X141000000Y-93750000D01*
X141022975Y-93754570D01*
G37*
G36*
X119542975Y-93634570D02*
G01*
X119563275Y-93634570D01*
X119587740Y-93643474D01*
X119615671Y-93649030D01*
X119630823Y-93659154D01*
X119644610Y-93664172D01*
X119669145Y-93684760D01*
X119696777Y-93703223D01*
X119703961Y-93713974D01*
X119710909Y-93719805D01*
X119730313Y-93753413D01*
X119750970Y-93784329D01*
X119752445Y-93791748D01*
X119754187Y-93794764D01*
X119763096Y-93845292D01*
X119770000Y-93880000D01*
X119763095Y-93914710D01*
X119754187Y-93965235D01*
X119752446Y-93968250D01*
X119750970Y-93975671D01*
X119730308Y-94006592D01*
X119710909Y-94040194D01*
X119703962Y-94046022D01*
X119696777Y-94056777D01*
X119669139Y-94075243D01*
X119644610Y-94095827D01*
X119630825Y-94100843D01*
X119615671Y-94110970D01*
X119587739Y-94116525D01*
X119563275Y-94125430D01*
X119542975Y-94125430D01*
X119520000Y-94130000D01*
X119497025Y-94125430D01*
X119476725Y-94125430D01*
X119452260Y-94116525D01*
X119424329Y-94110970D01*
X119409175Y-94100844D01*
X119395389Y-94095827D01*
X119370855Y-94075240D01*
X119343223Y-94056777D01*
X119336038Y-94046024D01*
X119329090Y-94040194D01*
X119309683Y-94006581D01*
X119289030Y-93975671D01*
X119287554Y-93968253D01*
X119285812Y-93965235D01*
X119276895Y-93914666D01*
X119270000Y-93880000D01*
X119276894Y-93845336D01*
X119285812Y-93794764D01*
X119287554Y-93791745D01*
X119289030Y-93784329D01*
X119309677Y-93753427D01*
X119329089Y-93719806D01*
X119336039Y-93713973D01*
X119343223Y-93703223D01*
X119370852Y-93684761D01*
X119395390Y-93664172D01*
X119409176Y-93659154D01*
X119424329Y-93649030D01*
X119452259Y-93643474D01*
X119476725Y-93634570D01*
X119497025Y-93634570D01*
X119520000Y-93630000D01*
X119542975Y-93634570D01*
G37*
G36*
X143982975Y-92744570D02*
G01*
X144003275Y-92744570D01*
X144027740Y-92753474D01*
X144055671Y-92759030D01*
X144070823Y-92769154D01*
X144084610Y-92774172D01*
X144109145Y-92794760D01*
X144136777Y-92813223D01*
X144143961Y-92823974D01*
X144150909Y-92829805D01*
X144170313Y-92863413D01*
X144190970Y-92894329D01*
X144192445Y-92901748D01*
X144194187Y-92904764D01*
X144203096Y-92955292D01*
X144210000Y-92990000D01*
X144203095Y-93024710D01*
X144194187Y-93075235D01*
X144192446Y-93078250D01*
X144190970Y-93085671D01*
X144170308Y-93116592D01*
X144150909Y-93150194D01*
X144143962Y-93156022D01*
X144136777Y-93166777D01*
X144109139Y-93185243D01*
X144084610Y-93205827D01*
X144070825Y-93210843D01*
X144055671Y-93220970D01*
X144027739Y-93226525D01*
X144003275Y-93235430D01*
X143982975Y-93235430D01*
X143960000Y-93240000D01*
X143937025Y-93235430D01*
X143916725Y-93235430D01*
X143892260Y-93226525D01*
X143864329Y-93220970D01*
X143849175Y-93210844D01*
X143835389Y-93205827D01*
X143810855Y-93185240D01*
X143783223Y-93166777D01*
X143776038Y-93156024D01*
X143769090Y-93150194D01*
X143749683Y-93116581D01*
X143729030Y-93085671D01*
X143727554Y-93078253D01*
X143725812Y-93075235D01*
X143716895Y-93024666D01*
X143710000Y-92990000D01*
X143716894Y-92955336D01*
X143725812Y-92904764D01*
X143727554Y-92901745D01*
X143729030Y-92894329D01*
X143749677Y-92863427D01*
X143769089Y-92829806D01*
X143776039Y-92823973D01*
X143783223Y-92813223D01*
X143810852Y-92794761D01*
X143835390Y-92774172D01*
X143849176Y-92769154D01*
X143864329Y-92759030D01*
X143892259Y-92753474D01*
X143916725Y-92744570D01*
X143937025Y-92744570D01*
X143960000Y-92740000D01*
X143982975Y-92744570D01*
G37*
G36*
X170372975Y-92474570D02*
G01*
X170393275Y-92474570D01*
X170417740Y-92483474D01*
X170445671Y-92489030D01*
X170460823Y-92499154D01*
X170474610Y-92504172D01*
X170499145Y-92524760D01*
X170526777Y-92543223D01*
X170533961Y-92553974D01*
X170540909Y-92559805D01*
X170560313Y-92593413D01*
X170580970Y-92624329D01*
X170582445Y-92631748D01*
X170584187Y-92634764D01*
X170593096Y-92685292D01*
X170600000Y-92720000D01*
X170593095Y-92754710D01*
X170584187Y-92805235D01*
X170582446Y-92808250D01*
X170580970Y-92815671D01*
X170560308Y-92846592D01*
X170540909Y-92880194D01*
X170533962Y-92886022D01*
X170526777Y-92896777D01*
X170499139Y-92915243D01*
X170474610Y-92935827D01*
X170460825Y-92940843D01*
X170445671Y-92950970D01*
X170417739Y-92956525D01*
X170393275Y-92965430D01*
X170372975Y-92965430D01*
X170350000Y-92970000D01*
X170327025Y-92965430D01*
X170306725Y-92965430D01*
X170282260Y-92956525D01*
X170254329Y-92950970D01*
X170239175Y-92940844D01*
X170225389Y-92935827D01*
X170200855Y-92915240D01*
X170173223Y-92896777D01*
X170166038Y-92886024D01*
X170159090Y-92880194D01*
X170139683Y-92846581D01*
X170119030Y-92815671D01*
X170117554Y-92808253D01*
X170115812Y-92805235D01*
X170106895Y-92754666D01*
X170100000Y-92720000D01*
X170106894Y-92685336D01*
X170115812Y-92634764D01*
X170117554Y-92631745D01*
X170119030Y-92624329D01*
X170139677Y-92593427D01*
X170159089Y-92559806D01*
X170166039Y-92553973D01*
X170173223Y-92543223D01*
X170200852Y-92524761D01*
X170225390Y-92504172D01*
X170239176Y-92499154D01*
X170254329Y-92489030D01*
X170282259Y-92483474D01*
X170306725Y-92474570D01*
X170327025Y-92474570D01*
X170350000Y-92470000D01*
X170372975Y-92474570D01*
G37*
G36*
X155769134Y-91652306D02*
G01*
X155785355Y-91663145D01*
X155796194Y-91679366D01*
X155800000Y-91698500D01*
X155800000Y-92598500D01*
X155796194Y-92617634D01*
X155785355Y-92633855D01*
X155769134Y-92644694D01*
X155750000Y-92648500D01*
X152850000Y-92648500D01*
X152830866Y-92644694D01*
X152814645Y-92633855D01*
X152803806Y-92617634D01*
X152800000Y-92598500D01*
X152800000Y-91698500D01*
X152803806Y-91679366D01*
X152814645Y-91663145D01*
X152830866Y-91652306D01*
X152850000Y-91648500D01*
X155750000Y-91648500D01*
X155769134Y-91652306D01*
G37*
G36*
X128142975Y-91904570D02*
G01*
X128163275Y-91904570D01*
X128187740Y-91913474D01*
X128215671Y-91919030D01*
X128230823Y-91929154D01*
X128244610Y-91934172D01*
X128269145Y-91954760D01*
X128296777Y-91973223D01*
X128303961Y-91983974D01*
X128310909Y-91989805D01*
X128330313Y-92023413D01*
X128350970Y-92054329D01*
X128352445Y-92061748D01*
X128354187Y-92064764D01*
X128363096Y-92115292D01*
X128370000Y-92150000D01*
X128363095Y-92184710D01*
X128354187Y-92235235D01*
X128352446Y-92238250D01*
X128350970Y-92245671D01*
X128330308Y-92276592D01*
X128310909Y-92310194D01*
X128303962Y-92316022D01*
X128296777Y-92326777D01*
X128269139Y-92345243D01*
X128244610Y-92365827D01*
X128230825Y-92370843D01*
X128215671Y-92380970D01*
X128187739Y-92386525D01*
X128163275Y-92395430D01*
X128142975Y-92395430D01*
X128120000Y-92400000D01*
X128097025Y-92395430D01*
X128076725Y-92395430D01*
X128052260Y-92386525D01*
X128024329Y-92380970D01*
X128009175Y-92370844D01*
X127995389Y-92365827D01*
X127970855Y-92345240D01*
X127943223Y-92326777D01*
X127936038Y-92316024D01*
X127929090Y-92310194D01*
X127909683Y-92276581D01*
X127889030Y-92245671D01*
X127887554Y-92238253D01*
X127885812Y-92235235D01*
X127876895Y-92184666D01*
X127870000Y-92150000D01*
X127876894Y-92115336D01*
X127885812Y-92064764D01*
X127887554Y-92061745D01*
X127889030Y-92054329D01*
X127909677Y-92023427D01*
X127929089Y-91989806D01*
X127936039Y-91983973D01*
X127943223Y-91973223D01*
X127970852Y-91954761D01*
X127995390Y-91934172D01*
X128009176Y-91929154D01*
X128024329Y-91919030D01*
X128052259Y-91913474D01*
X128076725Y-91904570D01*
X128097025Y-91904570D01*
X128120000Y-91900000D01*
X128142975Y-91904570D01*
G37*
G36*
X164522975Y-91594570D02*
G01*
X164543275Y-91594570D01*
X164567740Y-91603474D01*
X164595671Y-91609030D01*
X164610823Y-91619154D01*
X164624610Y-91624172D01*
X164649145Y-91644760D01*
X164676777Y-91663223D01*
X164683961Y-91673974D01*
X164690909Y-91679805D01*
X164710313Y-91713413D01*
X164730970Y-91744329D01*
X164732445Y-91751748D01*
X164734187Y-91754764D01*
X164743096Y-91805292D01*
X164750000Y-91840000D01*
X164743095Y-91874710D01*
X164734187Y-91925235D01*
X164732446Y-91928250D01*
X164730970Y-91935671D01*
X164710308Y-91966592D01*
X164690909Y-92000194D01*
X164683962Y-92006022D01*
X164676777Y-92016777D01*
X164649139Y-92035243D01*
X164624610Y-92055827D01*
X164610825Y-92060843D01*
X164595671Y-92070970D01*
X164567739Y-92076525D01*
X164543275Y-92085430D01*
X164522975Y-92085430D01*
X164500000Y-92090000D01*
X164477025Y-92085430D01*
X164456725Y-92085430D01*
X164432260Y-92076525D01*
X164404329Y-92070970D01*
X164389175Y-92060844D01*
X164375389Y-92055827D01*
X164350855Y-92035240D01*
X164323223Y-92016777D01*
X164316038Y-92006024D01*
X164309090Y-92000194D01*
X164289683Y-91966581D01*
X164269030Y-91935671D01*
X164267554Y-91928253D01*
X164265812Y-91925235D01*
X164256895Y-91874666D01*
X164250000Y-91840000D01*
X164256894Y-91805336D01*
X164265812Y-91754764D01*
X164267554Y-91751745D01*
X164269030Y-91744329D01*
X164289677Y-91713427D01*
X164309089Y-91679806D01*
X164316039Y-91673973D01*
X164323223Y-91663223D01*
X164350852Y-91644761D01*
X164375390Y-91624172D01*
X164389176Y-91619154D01*
X164404329Y-91609030D01*
X164432259Y-91603474D01*
X164456725Y-91594570D01*
X164477025Y-91594570D01*
X164500000Y-91590000D01*
X164522975Y-91594570D01*
G37*
G36*
X149243827Y-91705761D02*
G01*
X149247071Y-91707929D01*
X149249239Y-91711173D01*
X149250000Y-91715000D01*
X149250000Y-91895000D01*
X149249239Y-91898827D01*
X149247071Y-91902071D01*
X149243827Y-91904239D01*
X149240000Y-91905000D01*
X147760000Y-91905000D01*
X147756173Y-91904239D01*
X147752929Y-91902071D01*
X147750761Y-91898827D01*
X147750000Y-91895000D01*
X147750000Y-91715000D01*
X147750761Y-91711173D01*
X147752929Y-91707929D01*
X147756173Y-91705761D01*
X147760000Y-91705000D01*
X149240000Y-91705000D01*
X149243827Y-91705761D01*
G37*
G36*
X116632975Y-91104570D02*
G01*
X116653275Y-91104570D01*
X116677740Y-91113474D01*
X116705671Y-91119030D01*
X116720823Y-91129154D01*
X116734610Y-91134172D01*
X116759145Y-91154760D01*
X116786777Y-91173223D01*
X116793961Y-91183974D01*
X116800909Y-91189805D01*
X116820313Y-91223413D01*
X116840970Y-91254329D01*
X116842445Y-91261748D01*
X116844187Y-91264764D01*
X116853096Y-91315292D01*
X116860000Y-91350000D01*
X116853095Y-91384710D01*
X116844187Y-91435235D01*
X116842446Y-91438250D01*
X116840970Y-91445671D01*
X116820308Y-91476592D01*
X116800909Y-91510194D01*
X116793962Y-91516022D01*
X116786777Y-91526777D01*
X116759139Y-91545243D01*
X116734610Y-91565827D01*
X116720825Y-91570843D01*
X116705671Y-91580970D01*
X116677739Y-91586525D01*
X116653275Y-91595430D01*
X116632975Y-91595430D01*
X116610000Y-91600000D01*
X116587025Y-91595430D01*
X116566725Y-91595430D01*
X116542260Y-91586525D01*
X116514329Y-91580970D01*
X116499175Y-91570844D01*
X116485389Y-91565827D01*
X116460855Y-91545240D01*
X116433223Y-91526777D01*
X116426038Y-91516024D01*
X116419090Y-91510194D01*
X116399683Y-91476581D01*
X116379030Y-91445671D01*
X116377554Y-91438253D01*
X116375812Y-91435235D01*
X116366895Y-91384666D01*
X116360000Y-91350000D01*
X116366894Y-91315336D01*
X116375812Y-91264764D01*
X116377554Y-91261745D01*
X116379030Y-91254329D01*
X116399677Y-91223427D01*
X116419089Y-91189806D01*
X116426039Y-91183973D01*
X116433223Y-91173223D01*
X116460852Y-91154761D01*
X116485390Y-91134172D01*
X116499176Y-91129154D01*
X116514329Y-91119030D01*
X116542259Y-91113474D01*
X116566725Y-91104570D01*
X116587025Y-91104570D01*
X116610000Y-91100000D01*
X116632975Y-91104570D01*
G37*
G36*
X149243827Y-91268261D02*
G01*
X149247071Y-91270429D01*
X149249239Y-91273673D01*
X149250000Y-91277500D01*
X149250000Y-91457500D01*
X149249239Y-91461327D01*
X149247071Y-91464571D01*
X149243827Y-91466739D01*
X149240000Y-91467500D01*
X147760000Y-91467500D01*
X147756173Y-91466739D01*
X147752929Y-91464571D01*
X147750761Y-91461327D01*
X147750000Y-91457500D01*
X147750000Y-91277500D01*
X147750761Y-91273673D01*
X147752929Y-91270429D01*
X147756173Y-91268261D01*
X147760000Y-91267500D01*
X149240000Y-91267500D01*
X149243827Y-91268261D01*
G37*
G36*
X149243827Y-90830761D02*
G01*
X149247071Y-90832929D01*
X149249239Y-90836173D01*
X149250000Y-90840000D01*
X149250000Y-91020000D01*
X149249239Y-91023827D01*
X149247071Y-91027071D01*
X149243827Y-91029239D01*
X149240000Y-91030000D01*
X147760000Y-91030000D01*
X147756173Y-91029239D01*
X147752929Y-91027071D01*
X147750761Y-91023827D01*
X147750000Y-91020000D01*
X147750000Y-90840000D01*
X147750761Y-90836173D01*
X147752929Y-90832929D01*
X147756173Y-90830761D01*
X147760000Y-90830000D01*
X149240000Y-90830000D01*
X149243827Y-90830761D01*
G37*
G36*
X128282975Y-90434570D02*
G01*
X128303275Y-90434570D01*
X128327740Y-90443474D01*
X128355671Y-90449030D01*
X128370823Y-90459154D01*
X128384610Y-90464172D01*
X128409145Y-90484760D01*
X128436777Y-90503223D01*
X128443961Y-90513974D01*
X128450909Y-90519805D01*
X128470313Y-90553413D01*
X128490970Y-90584329D01*
X128492445Y-90591748D01*
X128494187Y-90594764D01*
X128503096Y-90645292D01*
X128510000Y-90680000D01*
X128503095Y-90714710D01*
X128494187Y-90765235D01*
X128492446Y-90768250D01*
X128490970Y-90775671D01*
X128470308Y-90806592D01*
X128450909Y-90840194D01*
X128443962Y-90846022D01*
X128436777Y-90856777D01*
X128409139Y-90875243D01*
X128384610Y-90895827D01*
X128370825Y-90900843D01*
X128355671Y-90910970D01*
X128327739Y-90916525D01*
X128303275Y-90925430D01*
X128282975Y-90925430D01*
X128260000Y-90930000D01*
X128237025Y-90925430D01*
X128216725Y-90925430D01*
X128192260Y-90916525D01*
X128164329Y-90910970D01*
X128149175Y-90900844D01*
X128135389Y-90895827D01*
X128110855Y-90875240D01*
X128083223Y-90856777D01*
X128076038Y-90846024D01*
X128069090Y-90840194D01*
X128049683Y-90806581D01*
X128029030Y-90775671D01*
X128027554Y-90768253D01*
X128025812Y-90765235D01*
X128016895Y-90714666D01*
X128010000Y-90680000D01*
X128016894Y-90645336D01*
X128025812Y-90594764D01*
X128027554Y-90591745D01*
X128029030Y-90584329D01*
X128049677Y-90553427D01*
X128069089Y-90519806D01*
X128076039Y-90513973D01*
X128083223Y-90503223D01*
X128110852Y-90484761D01*
X128135390Y-90464172D01*
X128149176Y-90459154D01*
X128164329Y-90449030D01*
X128192259Y-90443474D01*
X128216725Y-90434570D01*
X128237025Y-90434570D01*
X128260000Y-90430000D01*
X128282975Y-90434570D01*
G37*
G36*
X121622975Y-90414570D02*
G01*
X121643275Y-90414570D01*
X121667740Y-90423474D01*
X121695671Y-90429030D01*
X121710823Y-90439154D01*
X121724610Y-90444172D01*
X121749145Y-90464760D01*
X121776777Y-90483223D01*
X121783961Y-90493974D01*
X121790909Y-90499805D01*
X121810313Y-90533413D01*
X121830970Y-90564329D01*
X121832445Y-90571748D01*
X121834187Y-90574764D01*
X121843096Y-90625292D01*
X121850000Y-90660000D01*
X121843095Y-90694710D01*
X121834187Y-90745235D01*
X121832446Y-90748250D01*
X121830970Y-90755671D01*
X121810308Y-90786592D01*
X121790909Y-90820194D01*
X121783962Y-90826022D01*
X121776777Y-90836777D01*
X121749139Y-90855243D01*
X121724610Y-90875827D01*
X121710825Y-90880843D01*
X121695671Y-90890970D01*
X121667739Y-90896525D01*
X121643275Y-90905430D01*
X121622975Y-90905430D01*
X121600000Y-90910000D01*
X121577025Y-90905430D01*
X121556725Y-90905430D01*
X121532260Y-90896525D01*
X121504329Y-90890970D01*
X121489175Y-90880844D01*
X121475389Y-90875827D01*
X121450855Y-90855240D01*
X121423223Y-90836777D01*
X121416038Y-90826024D01*
X121409090Y-90820194D01*
X121389683Y-90786581D01*
X121369030Y-90755671D01*
X121367554Y-90748253D01*
X121365812Y-90745235D01*
X121356895Y-90694666D01*
X121350000Y-90660000D01*
X121356894Y-90625336D01*
X121365812Y-90574764D01*
X121367554Y-90571745D01*
X121369030Y-90564329D01*
X121389677Y-90533427D01*
X121409089Y-90499806D01*
X121416039Y-90493973D01*
X121423223Y-90483223D01*
X121450852Y-90464761D01*
X121475390Y-90444172D01*
X121489176Y-90439154D01*
X121504329Y-90429030D01*
X121532259Y-90423474D01*
X121556725Y-90414570D01*
X121577025Y-90414570D01*
X121600000Y-90410000D01*
X121622975Y-90414570D01*
G37*
G36*
X149243827Y-90393261D02*
G01*
X149247071Y-90395429D01*
X149249239Y-90398673D01*
X149250000Y-90402500D01*
X149250000Y-90582500D01*
X149249239Y-90586327D01*
X149247071Y-90589571D01*
X149243827Y-90591739D01*
X149240000Y-90592500D01*
X147760000Y-90592500D01*
X147756173Y-90591739D01*
X147752929Y-90589571D01*
X147750761Y-90586327D01*
X147750000Y-90582500D01*
X147750000Y-90402500D01*
X147750761Y-90398673D01*
X147752929Y-90395429D01*
X147756173Y-90393261D01*
X147760000Y-90392500D01*
X149240000Y-90392500D01*
X149243827Y-90393261D01*
G37*
G36*
X155769134Y-89429806D02*
G01*
X155785355Y-89440645D01*
X155796194Y-89456866D01*
X155800000Y-89476000D01*
X155800000Y-90376000D01*
X155796194Y-90395134D01*
X155785355Y-90411355D01*
X155769134Y-90422194D01*
X155750000Y-90426000D01*
X152850000Y-90426000D01*
X152830866Y-90422194D01*
X152814645Y-90411355D01*
X152803806Y-90395134D01*
X152800000Y-90376000D01*
X152800000Y-89476000D01*
X152803806Y-89456866D01*
X152814645Y-89440645D01*
X152830866Y-89429806D01*
X152850000Y-89426000D01*
X155750000Y-89426000D01*
X155769134Y-89429806D01*
G37*
G36*
X124549993Y-89911588D02*
G01*
X124570293Y-89911588D01*
X124594758Y-89920492D01*
X124622689Y-89926048D01*
X124637841Y-89936172D01*
X124651628Y-89941190D01*
X124676163Y-89961778D01*
X124703795Y-89980241D01*
X124710979Y-89990992D01*
X124717927Y-89996823D01*
X124737331Y-90030431D01*
X124757988Y-90061347D01*
X124759463Y-90068766D01*
X124761205Y-90071782D01*
X124770114Y-90122310D01*
X124777018Y-90157018D01*
X124770113Y-90191728D01*
X124761205Y-90242253D01*
X124759464Y-90245268D01*
X124757988Y-90252689D01*
X124737326Y-90283610D01*
X124717927Y-90317212D01*
X124710980Y-90323040D01*
X124703795Y-90333795D01*
X124676157Y-90352261D01*
X124651628Y-90372845D01*
X124637843Y-90377861D01*
X124622689Y-90387988D01*
X124594757Y-90393543D01*
X124570293Y-90402448D01*
X124549993Y-90402448D01*
X124527018Y-90407018D01*
X124504043Y-90402448D01*
X124483743Y-90402448D01*
X124459278Y-90393543D01*
X124431347Y-90387988D01*
X124416193Y-90377862D01*
X124402407Y-90372845D01*
X124377873Y-90352258D01*
X124350241Y-90333795D01*
X124343056Y-90323042D01*
X124336108Y-90317212D01*
X124316701Y-90283599D01*
X124296048Y-90252689D01*
X124294572Y-90245271D01*
X124292830Y-90242253D01*
X124283913Y-90191684D01*
X124277018Y-90157018D01*
X124283912Y-90122354D01*
X124292830Y-90071782D01*
X124294572Y-90068763D01*
X124296048Y-90061347D01*
X124316695Y-90030445D01*
X124336107Y-89996824D01*
X124343057Y-89990991D01*
X124350241Y-89980241D01*
X124377870Y-89961779D01*
X124402408Y-89941190D01*
X124416194Y-89936172D01*
X124431347Y-89926048D01*
X124459277Y-89920492D01*
X124483743Y-89911588D01*
X124504043Y-89911588D01*
X124527018Y-89907018D01*
X124549993Y-89911588D01*
G37*
G36*
X123252975Y-89694570D02*
G01*
X123273275Y-89694570D01*
X123297740Y-89703474D01*
X123325671Y-89709030D01*
X123340823Y-89719154D01*
X123354610Y-89724172D01*
X123379145Y-89744760D01*
X123406777Y-89763223D01*
X123413961Y-89773974D01*
X123420909Y-89779805D01*
X123440313Y-89813413D01*
X123460970Y-89844329D01*
X123462445Y-89851748D01*
X123464187Y-89854764D01*
X123473096Y-89905292D01*
X123480000Y-89940000D01*
X123473095Y-89974710D01*
X123464187Y-90025235D01*
X123462446Y-90028250D01*
X123460970Y-90035671D01*
X123440308Y-90066592D01*
X123420909Y-90100194D01*
X123413962Y-90106022D01*
X123406777Y-90116777D01*
X123379139Y-90135243D01*
X123354610Y-90155827D01*
X123340825Y-90160843D01*
X123325671Y-90170970D01*
X123297739Y-90176525D01*
X123273275Y-90185430D01*
X123252975Y-90185430D01*
X123230000Y-90190000D01*
X123207025Y-90185430D01*
X123186725Y-90185430D01*
X123162260Y-90176525D01*
X123134329Y-90170970D01*
X123119175Y-90160844D01*
X123105389Y-90155827D01*
X123080855Y-90135240D01*
X123053223Y-90116777D01*
X123046038Y-90106024D01*
X123039090Y-90100194D01*
X123019683Y-90066581D01*
X122999030Y-90035671D01*
X122997554Y-90028253D01*
X122995812Y-90025235D01*
X122986895Y-89974666D01*
X122980000Y-89940000D01*
X122986894Y-89905336D01*
X122995812Y-89854764D01*
X122997554Y-89851745D01*
X122999030Y-89844329D01*
X123019677Y-89813427D01*
X123039089Y-89779806D01*
X123046039Y-89773973D01*
X123053223Y-89763223D01*
X123080852Y-89744761D01*
X123105390Y-89724172D01*
X123119176Y-89719154D01*
X123134329Y-89709030D01*
X123162259Y-89703474D01*
X123186725Y-89694570D01*
X123207025Y-89694570D01*
X123230000Y-89690000D01*
X123252975Y-89694570D01*
G37*
G36*
X149243827Y-89955761D02*
G01*
X149247071Y-89957929D01*
X149249239Y-89961173D01*
X149250000Y-89965000D01*
X149250000Y-90145000D01*
X149249239Y-90148827D01*
X149247071Y-90152071D01*
X149243827Y-90154239D01*
X149240000Y-90155000D01*
X147760000Y-90155000D01*
X147756173Y-90154239D01*
X147752929Y-90152071D01*
X147750761Y-90148827D01*
X147750000Y-90145000D01*
X147750000Y-89965000D01*
X147750761Y-89961173D01*
X147752929Y-89957929D01*
X147756173Y-89955761D01*
X147760000Y-89955000D01*
X149240000Y-89955000D01*
X149243827Y-89955761D01*
G37*
G36*
X121802975Y-89614570D02*
G01*
X121823275Y-89614570D01*
X121847740Y-89623474D01*
X121875671Y-89629030D01*
X121890823Y-89639154D01*
X121904610Y-89644172D01*
X121929145Y-89664760D01*
X121956777Y-89683223D01*
X121963961Y-89693974D01*
X121970909Y-89699805D01*
X121990313Y-89733413D01*
X122010970Y-89764329D01*
X122012445Y-89771748D01*
X122014187Y-89774764D01*
X122023096Y-89825292D01*
X122030000Y-89860000D01*
X122023095Y-89894710D01*
X122014187Y-89945235D01*
X122012446Y-89948250D01*
X122010970Y-89955671D01*
X121990308Y-89986592D01*
X121970909Y-90020194D01*
X121963962Y-90026022D01*
X121956777Y-90036777D01*
X121929139Y-90055243D01*
X121904610Y-90075827D01*
X121890825Y-90080843D01*
X121875671Y-90090970D01*
X121847739Y-90096525D01*
X121823275Y-90105430D01*
X121802975Y-90105430D01*
X121780000Y-90110000D01*
X121757025Y-90105430D01*
X121736725Y-90105430D01*
X121712260Y-90096525D01*
X121684329Y-90090970D01*
X121669175Y-90080844D01*
X121655389Y-90075827D01*
X121630855Y-90055240D01*
X121603223Y-90036777D01*
X121596038Y-90026024D01*
X121589090Y-90020194D01*
X121569683Y-89986581D01*
X121549030Y-89955671D01*
X121547554Y-89948253D01*
X121545812Y-89945235D01*
X121536895Y-89894666D01*
X121530000Y-89860000D01*
X121536894Y-89825336D01*
X121545812Y-89774764D01*
X121547554Y-89771745D01*
X121549030Y-89764329D01*
X121569677Y-89733427D01*
X121589089Y-89699806D01*
X121596039Y-89693973D01*
X121603223Y-89683223D01*
X121630852Y-89664761D01*
X121655390Y-89644172D01*
X121669176Y-89639154D01*
X121684329Y-89629030D01*
X121712259Y-89623474D01*
X121736725Y-89614570D01*
X121757025Y-89614570D01*
X121780000Y-89610000D01*
X121802975Y-89614570D01*
G37*
G36*
X136422975Y-89454570D02*
G01*
X136443275Y-89454570D01*
X136467740Y-89463474D01*
X136495671Y-89469030D01*
X136510823Y-89479154D01*
X136524610Y-89484172D01*
X136549145Y-89504760D01*
X136576777Y-89523223D01*
X136583961Y-89533974D01*
X136590909Y-89539805D01*
X136610313Y-89573413D01*
X136630970Y-89604329D01*
X136632445Y-89611748D01*
X136634187Y-89614764D01*
X136643096Y-89665292D01*
X136650000Y-89700000D01*
X136643095Y-89734710D01*
X136634187Y-89785235D01*
X136632446Y-89788250D01*
X136630970Y-89795671D01*
X136610308Y-89826592D01*
X136590909Y-89860194D01*
X136583962Y-89866022D01*
X136576777Y-89876777D01*
X136549139Y-89895243D01*
X136524610Y-89915827D01*
X136510825Y-89920843D01*
X136495671Y-89930970D01*
X136467739Y-89936525D01*
X136443275Y-89945430D01*
X136422975Y-89945430D01*
X136400000Y-89950000D01*
X136377025Y-89945430D01*
X136356725Y-89945430D01*
X136332260Y-89936525D01*
X136304329Y-89930970D01*
X136289175Y-89920844D01*
X136275389Y-89915827D01*
X136250855Y-89895240D01*
X136223223Y-89876777D01*
X136216038Y-89866024D01*
X136209090Y-89860194D01*
X136189683Y-89826581D01*
X136169030Y-89795671D01*
X136167554Y-89788253D01*
X136165812Y-89785235D01*
X136156895Y-89734666D01*
X136150000Y-89700000D01*
X136156894Y-89665336D01*
X136165812Y-89614764D01*
X136167554Y-89611745D01*
X136169030Y-89604329D01*
X136189677Y-89573427D01*
X136209089Y-89539806D01*
X136216039Y-89533973D01*
X136223223Y-89523223D01*
X136250852Y-89504761D01*
X136275390Y-89484172D01*
X136289176Y-89479154D01*
X136304329Y-89469030D01*
X136332259Y-89463474D01*
X136356725Y-89454570D01*
X136377025Y-89454570D01*
X136400000Y-89450000D01*
X136422975Y-89454570D01*
G37*
G36*
X122415501Y-89389977D02*
G01*
X122435801Y-89389977D01*
X122460266Y-89398881D01*
X122488197Y-89404437D01*
X122503349Y-89414561D01*
X122517136Y-89419579D01*
X122541671Y-89440167D01*
X122569303Y-89458630D01*
X122576487Y-89469381D01*
X122583435Y-89475212D01*
X122602839Y-89508820D01*
X122623496Y-89539736D01*
X122624971Y-89547155D01*
X122626713Y-89550171D01*
X122635622Y-89600699D01*
X122642526Y-89635407D01*
X122635621Y-89670117D01*
X122626713Y-89720642D01*
X122624972Y-89723657D01*
X122623496Y-89731078D01*
X122602834Y-89761999D01*
X122583435Y-89795601D01*
X122576488Y-89801429D01*
X122569303Y-89812184D01*
X122541665Y-89830650D01*
X122517136Y-89851234D01*
X122503351Y-89856250D01*
X122488197Y-89866377D01*
X122460265Y-89871932D01*
X122435801Y-89880837D01*
X122415501Y-89880837D01*
X122392526Y-89885407D01*
X122369551Y-89880837D01*
X122349251Y-89880837D01*
X122324786Y-89871932D01*
X122296855Y-89866377D01*
X122281701Y-89856251D01*
X122267915Y-89851234D01*
X122243381Y-89830647D01*
X122215749Y-89812184D01*
X122208564Y-89801431D01*
X122201616Y-89795601D01*
X122182209Y-89761988D01*
X122161556Y-89731078D01*
X122160080Y-89723660D01*
X122158338Y-89720642D01*
X122149421Y-89670073D01*
X122142526Y-89635407D01*
X122149420Y-89600743D01*
X122158338Y-89550171D01*
X122160080Y-89547152D01*
X122161556Y-89539736D01*
X122182203Y-89508834D01*
X122201615Y-89475213D01*
X122208565Y-89469380D01*
X122215749Y-89458630D01*
X122243378Y-89440168D01*
X122267916Y-89419579D01*
X122281702Y-89414561D01*
X122296855Y-89404437D01*
X122324785Y-89398881D01*
X122349251Y-89389977D01*
X122369551Y-89389977D01*
X122392526Y-89385407D01*
X122415501Y-89389977D01*
G37*
G36*
X130572975Y-89364570D02*
G01*
X130593275Y-89364570D01*
X130617740Y-89373474D01*
X130645671Y-89379030D01*
X130660823Y-89389154D01*
X130674610Y-89394172D01*
X130699145Y-89414760D01*
X130726777Y-89433223D01*
X130733961Y-89443974D01*
X130740909Y-89449805D01*
X130760313Y-89483413D01*
X130780970Y-89514329D01*
X130782445Y-89521748D01*
X130784187Y-89524764D01*
X130793096Y-89575292D01*
X130800000Y-89610000D01*
X130793095Y-89644710D01*
X130784187Y-89695235D01*
X130782446Y-89698250D01*
X130780970Y-89705671D01*
X130760308Y-89736592D01*
X130740909Y-89770194D01*
X130733962Y-89776022D01*
X130726777Y-89786777D01*
X130699139Y-89805243D01*
X130674610Y-89825827D01*
X130660825Y-89830843D01*
X130645671Y-89840970D01*
X130617739Y-89846525D01*
X130593275Y-89855430D01*
X130572975Y-89855430D01*
X130550000Y-89860000D01*
X130527025Y-89855430D01*
X130506725Y-89855430D01*
X130482260Y-89846525D01*
X130454329Y-89840970D01*
X130439175Y-89830844D01*
X130425389Y-89825827D01*
X130400855Y-89805240D01*
X130373223Y-89786777D01*
X130366038Y-89776024D01*
X130359090Y-89770194D01*
X130339683Y-89736581D01*
X130319030Y-89705671D01*
X130317554Y-89698253D01*
X130315812Y-89695235D01*
X130306895Y-89644666D01*
X130300000Y-89610000D01*
X130306894Y-89575336D01*
X130315812Y-89524764D01*
X130317554Y-89521745D01*
X130319030Y-89514329D01*
X130339677Y-89483427D01*
X130359089Y-89449806D01*
X130366039Y-89443973D01*
X130373223Y-89433223D01*
X130400852Y-89414761D01*
X130425390Y-89394172D01*
X130439176Y-89389154D01*
X130454329Y-89379030D01*
X130482259Y-89373474D01*
X130506725Y-89364570D01*
X130527025Y-89364570D01*
X130550000Y-89360000D01*
X130572975Y-89364570D01*
G37*
G36*
X149243827Y-89518261D02*
G01*
X149247071Y-89520429D01*
X149249239Y-89523673D01*
X149250000Y-89527500D01*
X149250000Y-89707500D01*
X149249239Y-89711327D01*
X149247071Y-89714571D01*
X149243827Y-89716739D01*
X149240000Y-89717500D01*
X147760000Y-89717500D01*
X147756173Y-89716739D01*
X147752929Y-89714571D01*
X147750761Y-89711327D01*
X147750000Y-89707500D01*
X147750000Y-89527500D01*
X147750761Y-89523673D01*
X147752929Y-89520429D01*
X147756173Y-89518261D01*
X147760000Y-89517500D01*
X149240000Y-89517500D01*
X149243827Y-89518261D01*
G37*
G36*
X135022975Y-88954570D02*
G01*
X135043275Y-88954570D01*
X135067740Y-88963474D01*
X135095671Y-88969030D01*
X135110823Y-88979154D01*
X135124610Y-88984172D01*
X135149145Y-89004760D01*
X135176777Y-89023223D01*
X135183961Y-89033974D01*
X135190909Y-89039805D01*
X135210313Y-89073413D01*
X135230970Y-89104329D01*
X135232445Y-89111748D01*
X135234187Y-89114764D01*
X135243096Y-89165292D01*
X135250000Y-89200000D01*
X135243095Y-89234710D01*
X135234187Y-89285235D01*
X135232446Y-89288250D01*
X135230970Y-89295671D01*
X135210308Y-89326592D01*
X135190909Y-89360194D01*
X135183962Y-89366022D01*
X135176777Y-89376777D01*
X135149139Y-89395243D01*
X135124610Y-89415827D01*
X135110825Y-89420843D01*
X135095671Y-89430970D01*
X135067739Y-89436525D01*
X135043275Y-89445430D01*
X135022975Y-89445430D01*
X135000000Y-89450000D01*
X134977025Y-89445430D01*
X134956725Y-89445430D01*
X134932260Y-89436525D01*
X134904329Y-89430970D01*
X134889175Y-89420844D01*
X134875389Y-89415827D01*
X134850855Y-89395240D01*
X134823223Y-89376777D01*
X134816038Y-89366024D01*
X134809090Y-89360194D01*
X134789683Y-89326581D01*
X134769030Y-89295671D01*
X134767554Y-89288253D01*
X134765812Y-89285235D01*
X134756895Y-89234666D01*
X134750000Y-89200000D01*
X134756894Y-89165336D01*
X134765812Y-89114764D01*
X134767554Y-89111745D01*
X134769030Y-89104329D01*
X134789677Y-89073427D01*
X134809089Y-89039806D01*
X134816039Y-89033973D01*
X134823223Y-89023223D01*
X134850852Y-89004761D01*
X134875390Y-88984172D01*
X134889176Y-88979154D01*
X134904329Y-88969030D01*
X134932259Y-88963474D01*
X134956725Y-88954570D01*
X134977025Y-88954570D01*
X135000000Y-88950000D01*
X135022975Y-88954570D01*
G37*
G36*
X149243827Y-89080761D02*
G01*
X149247071Y-89082929D01*
X149249239Y-89086173D01*
X149250000Y-89090000D01*
X149250000Y-89270000D01*
X149249239Y-89273827D01*
X149247071Y-89277071D01*
X149243827Y-89279239D01*
X149240000Y-89280000D01*
X147760000Y-89280000D01*
X147756173Y-89279239D01*
X147752929Y-89277071D01*
X147750761Y-89273827D01*
X147750000Y-89270000D01*
X147750000Y-89090000D01*
X147750761Y-89086173D01*
X147752929Y-89082929D01*
X147756173Y-89080761D01*
X147760000Y-89080000D01*
X149240000Y-89080000D01*
X149243827Y-89080761D01*
G37*
G36*
X149243827Y-88643261D02*
G01*
X149247071Y-88645429D01*
X149249239Y-88648673D01*
X149250000Y-88652500D01*
X149250000Y-88832500D01*
X149249239Y-88836327D01*
X149247071Y-88839571D01*
X149243827Y-88841739D01*
X149240000Y-88842500D01*
X147760000Y-88842500D01*
X147756173Y-88841739D01*
X147752929Y-88839571D01*
X147750761Y-88836327D01*
X147750000Y-88832500D01*
X147750000Y-88652500D01*
X147750761Y-88648673D01*
X147752929Y-88645429D01*
X147756173Y-88643261D01*
X147760000Y-88642500D01*
X149240000Y-88642500D01*
X149243827Y-88643261D01*
G37*
G36*
X167842975Y-88004570D02*
G01*
X167863275Y-88004570D01*
X167887740Y-88013474D01*
X167915671Y-88019030D01*
X167930823Y-88029154D01*
X167944610Y-88034172D01*
X167969145Y-88054760D01*
X167996777Y-88073223D01*
X168003961Y-88083974D01*
X168010909Y-88089805D01*
X168030313Y-88123413D01*
X168050970Y-88154329D01*
X168052445Y-88161748D01*
X168054187Y-88164764D01*
X168063096Y-88215292D01*
X168070000Y-88250000D01*
X168063095Y-88284710D01*
X168054187Y-88335235D01*
X168052446Y-88338250D01*
X168050970Y-88345671D01*
X168030308Y-88376592D01*
X168010909Y-88410194D01*
X168003962Y-88416022D01*
X167996777Y-88426777D01*
X167969139Y-88445243D01*
X167944610Y-88465827D01*
X167930825Y-88470843D01*
X167915671Y-88480970D01*
X167887739Y-88486525D01*
X167863275Y-88495430D01*
X167842975Y-88495430D01*
X167820000Y-88500000D01*
X167797025Y-88495430D01*
X167776725Y-88495430D01*
X167752260Y-88486525D01*
X167724329Y-88480970D01*
X167709175Y-88470844D01*
X167695389Y-88465827D01*
X167670855Y-88445240D01*
X167643223Y-88426777D01*
X167636038Y-88416024D01*
X167629090Y-88410194D01*
X167609683Y-88376581D01*
X167589030Y-88345671D01*
X167587554Y-88338253D01*
X167585812Y-88335235D01*
X167576895Y-88284666D01*
X167570000Y-88250000D01*
X167576894Y-88215336D01*
X167585812Y-88164764D01*
X167587554Y-88161745D01*
X167589030Y-88154329D01*
X167609677Y-88123427D01*
X167629089Y-88089806D01*
X167636039Y-88083973D01*
X167643223Y-88073223D01*
X167670852Y-88054761D01*
X167695390Y-88034172D01*
X167709176Y-88029154D01*
X167724329Y-88019030D01*
X167752259Y-88013474D01*
X167776725Y-88004570D01*
X167797025Y-88004570D01*
X167820000Y-88000000D01*
X167842975Y-88004570D01*
G37*
G36*
X149243827Y-88205761D02*
G01*
X149247071Y-88207929D01*
X149249239Y-88211173D01*
X149250000Y-88215000D01*
X149250000Y-88395000D01*
X149249239Y-88398827D01*
X149247071Y-88402071D01*
X149243827Y-88404239D01*
X149240000Y-88405000D01*
X147760000Y-88405000D01*
X147756173Y-88404239D01*
X147752929Y-88402071D01*
X147750761Y-88398827D01*
X147750000Y-88395000D01*
X147750000Y-88215000D01*
X147750761Y-88211173D01*
X147752929Y-88207929D01*
X147756173Y-88205761D01*
X147760000Y-88205000D01*
X149240000Y-88205000D01*
X149243827Y-88205761D01*
G37*
G36*
X155769134Y-87207306D02*
G01*
X155785355Y-87218145D01*
X155796194Y-87234366D01*
X155800000Y-87253500D01*
X155800000Y-88153500D01*
X155796194Y-88172634D01*
X155785355Y-88188855D01*
X155769134Y-88199694D01*
X155750000Y-88203500D01*
X152850000Y-88203500D01*
X152830866Y-88199694D01*
X152814645Y-88188855D01*
X152803806Y-88172634D01*
X152800000Y-88153500D01*
X152800000Y-87253500D01*
X152803806Y-87234366D01*
X152814645Y-87218145D01*
X152830866Y-87207306D01*
X152850000Y-87203500D01*
X155750000Y-87203500D01*
X155769134Y-87207306D01*
G37*
G36*
X164232975Y-87684570D02*
G01*
X164253275Y-87684570D01*
X164277740Y-87693474D01*
X164305671Y-87699030D01*
X164320823Y-87709154D01*
X164334610Y-87714172D01*
X164359145Y-87734760D01*
X164386777Y-87753223D01*
X164393961Y-87763974D01*
X164400909Y-87769805D01*
X164420313Y-87803413D01*
X164440970Y-87834329D01*
X164442445Y-87841748D01*
X164444187Y-87844764D01*
X164453096Y-87895292D01*
X164460000Y-87930000D01*
X164453095Y-87964710D01*
X164444187Y-88015235D01*
X164442446Y-88018250D01*
X164440970Y-88025671D01*
X164420308Y-88056592D01*
X164400909Y-88090194D01*
X164393962Y-88096022D01*
X164386777Y-88106777D01*
X164359139Y-88125243D01*
X164334610Y-88145827D01*
X164320825Y-88150843D01*
X164305671Y-88160970D01*
X164277739Y-88166525D01*
X164253275Y-88175430D01*
X164232975Y-88175430D01*
X164210000Y-88180000D01*
X164187025Y-88175430D01*
X164166725Y-88175430D01*
X164142260Y-88166525D01*
X164114329Y-88160970D01*
X164099175Y-88150844D01*
X164085389Y-88145827D01*
X164060855Y-88125240D01*
X164033223Y-88106777D01*
X164026038Y-88096024D01*
X164019090Y-88090194D01*
X163999683Y-88056581D01*
X163979030Y-88025671D01*
X163977554Y-88018253D01*
X163975812Y-88015235D01*
X163966895Y-87964666D01*
X163960000Y-87930000D01*
X163966894Y-87895336D01*
X163975812Y-87844764D01*
X163977554Y-87841745D01*
X163979030Y-87834329D01*
X163999677Y-87803427D01*
X164019089Y-87769806D01*
X164026039Y-87763973D01*
X164033223Y-87753223D01*
X164060852Y-87734761D01*
X164085390Y-87714172D01*
X164099176Y-87709154D01*
X164114329Y-87699030D01*
X164142259Y-87693474D01*
X164166725Y-87684570D01*
X164187025Y-87684570D01*
X164210000Y-87680000D01*
X164232975Y-87684570D01*
G37*
G36*
X126552975Y-87524570D02*
G01*
X126573275Y-87524570D01*
X126597740Y-87533474D01*
X126625671Y-87539030D01*
X126640823Y-87549154D01*
X126654610Y-87554172D01*
X126679145Y-87574760D01*
X126706777Y-87593223D01*
X126713961Y-87603974D01*
X126720909Y-87609805D01*
X126740313Y-87643413D01*
X126760970Y-87674329D01*
X126762445Y-87681748D01*
X126764187Y-87684764D01*
X126773096Y-87735292D01*
X126780000Y-87770000D01*
X126773095Y-87804710D01*
X126764187Y-87855235D01*
X126762446Y-87858250D01*
X126760970Y-87865671D01*
X126740308Y-87896592D01*
X126720909Y-87930194D01*
X126713962Y-87936022D01*
X126706777Y-87946777D01*
X126679139Y-87965243D01*
X126654610Y-87985827D01*
X126640825Y-87990843D01*
X126625671Y-88000970D01*
X126597739Y-88006525D01*
X126573275Y-88015430D01*
X126552975Y-88015430D01*
X126530000Y-88020000D01*
X126507025Y-88015430D01*
X126486725Y-88015430D01*
X126462260Y-88006525D01*
X126434329Y-88000970D01*
X126419175Y-87990844D01*
X126405389Y-87985827D01*
X126380855Y-87965240D01*
X126353223Y-87946777D01*
X126346038Y-87936024D01*
X126339090Y-87930194D01*
X126319683Y-87896581D01*
X126299030Y-87865671D01*
X126297554Y-87858253D01*
X126295812Y-87855235D01*
X126286895Y-87804666D01*
X126280000Y-87770000D01*
X126286894Y-87735336D01*
X126295812Y-87684764D01*
X126297554Y-87681745D01*
X126299030Y-87674329D01*
X126319677Y-87643427D01*
X126339089Y-87609806D01*
X126346039Y-87603973D01*
X126353223Y-87593223D01*
X126380852Y-87574761D01*
X126405390Y-87554172D01*
X126419176Y-87549154D01*
X126434329Y-87539030D01*
X126462259Y-87533474D01*
X126486725Y-87524570D01*
X126507025Y-87524570D01*
X126530000Y-87520000D01*
X126552975Y-87524570D01*
G37*
G36*
X141022975Y-87504570D02*
G01*
X141043275Y-87504570D01*
X141067740Y-87513474D01*
X141095671Y-87519030D01*
X141110823Y-87529154D01*
X141124610Y-87534172D01*
X141149145Y-87554760D01*
X141176777Y-87573223D01*
X141183961Y-87583974D01*
X141190909Y-87589805D01*
X141210313Y-87623413D01*
X141230970Y-87654329D01*
X141232445Y-87661748D01*
X141234187Y-87664764D01*
X141243096Y-87715292D01*
X141250000Y-87750000D01*
X141243095Y-87784710D01*
X141234187Y-87835235D01*
X141232446Y-87838250D01*
X141230970Y-87845671D01*
X141210308Y-87876592D01*
X141190909Y-87910194D01*
X141183962Y-87916022D01*
X141176777Y-87926777D01*
X141149139Y-87945243D01*
X141124610Y-87965827D01*
X141110825Y-87970843D01*
X141095671Y-87980970D01*
X141067739Y-87986525D01*
X141043275Y-87995430D01*
X141022975Y-87995430D01*
X141000000Y-88000000D01*
X140977025Y-87995430D01*
X140956725Y-87995430D01*
X140932260Y-87986525D01*
X140904329Y-87980970D01*
X140889175Y-87970844D01*
X140875389Y-87965827D01*
X140850855Y-87945240D01*
X140823223Y-87926777D01*
X140816038Y-87916024D01*
X140809090Y-87910194D01*
X140789683Y-87876581D01*
X140769030Y-87845671D01*
X140767554Y-87838253D01*
X140765812Y-87835235D01*
X140756895Y-87784666D01*
X140750000Y-87750000D01*
X140756894Y-87715336D01*
X140765812Y-87664764D01*
X140767554Y-87661745D01*
X140769030Y-87654329D01*
X140789677Y-87623427D01*
X140809089Y-87589806D01*
X140816039Y-87583973D01*
X140823223Y-87573223D01*
X140850852Y-87554761D01*
X140875390Y-87534172D01*
X140889176Y-87529154D01*
X140904329Y-87519030D01*
X140932259Y-87513474D01*
X140956725Y-87504570D01*
X140977025Y-87504570D01*
X141000000Y-87500000D01*
X141022975Y-87504570D01*
G37*
G36*
X118962975Y-86844570D02*
G01*
X118983275Y-86844570D01*
X119007740Y-86853474D01*
X119035671Y-86859030D01*
X119050823Y-86869154D01*
X119064610Y-86874172D01*
X119089145Y-86894760D01*
X119116777Y-86913223D01*
X119123961Y-86923974D01*
X119130909Y-86929805D01*
X119150313Y-86963413D01*
X119170970Y-86994329D01*
X119172445Y-87001748D01*
X119174187Y-87004764D01*
X119183096Y-87055292D01*
X119190000Y-87090000D01*
X119183095Y-87124710D01*
X119174187Y-87175235D01*
X119172446Y-87178250D01*
X119170970Y-87185671D01*
X119150308Y-87216592D01*
X119130909Y-87250194D01*
X119123962Y-87256022D01*
X119116777Y-87266777D01*
X119089139Y-87285243D01*
X119064610Y-87305827D01*
X119050825Y-87310843D01*
X119035671Y-87320970D01*
X119007739Y-87326525D01*
X118983275Y-87335430D01*
X118962975Y-87335430D01*
X118940000Y-87340000D01*
X118917025Y-87335430D01*
X118896725Y-87335430D01*
X118872260Y-87326525D01*
X118844329Y-87320970D01*
X118829175Y-87310844D01*
X118815389Y-87305827D01*
X118790855Y-87285240D01*
X118763223Y-87266777D01*
X118756038Y-87256024D01*
X118749090Y-87250194D01*
X118729683Y-87216581D01*
X118709030Y-87185671D01*
X118707554Y-87178253D01*
X118705812Y-87175235D01*
X118696895Y-87124666D01*
X118690000Y-87090000D01*
X118696894Y-87055336D01*
X118705812Y-87004764D01*
X118707554Y-87001745D01*
X118709030Y-86994329D01*
X118729677Y-86963427D01*
X118749089Y-86929806D01*
X118756039Y-86923973D01*
X118763223Y-86913223D01*
X118790852Y-86894761D01*
X118815390Y-86874172D01*
X118829176Y-86869154D01*
X118844329Y-86859030D01*
X118872259Y-86853474D01*
X118896725Y-86844570D01*
X118917025Y-86844570D01*
X118940000Y-86840000D01*
X118962975Y-86844570D01*
G37*
G36*
X143982975Y-86744570D02*
G01*
X144003275Y-86744570D01*
X144027740Y-86753474D01*
X144055671Y-86759030D01*
X144070823Y-86769154D01*
X144084610Y-86774172D01*
X144109145Y-86794760D01*
X144136777Y-86813223D01*
X144143961Y-86823974D01*
X144150909Y-86829805D01*
X144170313Y-86863413D01*
X144190970Y-86894329D01*
X144192445Y-86901748D01*
X144194187Y-86904764D01*
X144203096Y-86955292D01*
X144210000Y-86990000D01*
X144203095Y-87024710D01*
X144194187Y-87075235D01*
X144192446Y-87078250D01*
X144190970Y-87085671D01*
X144170308Y-87116592D01*
X144150909Y-87150194D01*
X144143962Y-87156022D01*
X144136777Y-87166777D01*
X144109139Y-87185243D01*
X144084610Y-87205827D01*
X144070825Y-87210843D01*
X144055671Y-87220970D01*
X144027739Y-87226525D01*
X144003275Y-87235430D01*
X143982975Y-87235430D01*
X143960000Y-87240000D01*
X143937025Y-87235430D01*
X143916725Y-87235430D01*
X143892260Y-87226525D01*
X143864329Y-87220970D01*
X143849175Y-87210844D01*
X143835389Y-87205827D01*
X143810855Y-87185240D01*
X143783223Y-87166777D01*
X143776038Y-87156024D01*
X143769090Y-87150194D01*
X143749683Y-87116581D01*
X143729030Y-87085671D01*
X143727554Y-87078253D01*
X143725812Y-87075235D01*
X143716895Y-87024666D01*
X143710000Y-86990000D01*
X143716894Y-86955336D01*
X143725812Y-86904764D01*
X143727554Y-86901745D01*
X143729030Y-86894329D01*
X143749677Y-86863427D01*
X143769089Y-86829806D01*
X143776039Y-86823973D01*
X143783223Y-86813223D01*
X143810852Y-86794761D01*
X143835390Y-86774172D01*
X143849176Y-86769154D01*
X143864329Y-86759030D01*
X143892259Y-86753474D01*
X143916725Y-86744570D01*
X143937025Y-86744570D01*
X143960000Y-86740000D01*
X143982975Y-86744570D01*
G37*
G36*
X121122975Y-86554570D02*
G01*
X121143275Y-86554570D01*
X121167740Y-86563474D01*
X121195671Y-86569030D01*
X121210823Y-86579154D01*
X121224610Y-86584172D01*
X121249145Y-86604760D01*
X121276777Y-86623223D01*
X121283961Y-86633974D01*
X121290909Y-86639805D01*
X121310313Y-86673413D01*
X121330970Y-86704329D01*
X121332445Y-86711748D01*
X121334187Y-86714764D01*
X121343096Y-86765292D01*
X121350000Y-86800000D01*
X121343095Y-86834710D01*
X121334187Y-86885235D01*
X121332446Y-86888250D01*
X121330970Y-86895671D01*
X121310308Y-86926592D01*
X121290909Y-86960194D01*
X121283962Y-86966022D01*
X121276777Y-86976777D01*
X121249139Y-86995243D01*
X121224610Y-87015827D01*
X121210825Y-87020843D01*
X121195671Y-87030970D01*
X121167739Y-87036525D01*
X121143275Y-87045430D01*
X121122975Y-87045430D01*
X121100000Y-87050000D01*
X121077025Y-87045430D01*
X121056725Y-87045430D01*
X121032260Y-87036525D01*
X121004329Y-87030970D01*
X120989175Y-87020844D01*
X120975389Y-87015827D01*
X120950855Y-86995240D01*
X120923223Y-86976777D01*
X120916038Y-86966024D01*
X120909090Y-86960194D01*
X120889683Y-86926581D01*
X120869030Y-86895671D01*
X120867554Y-86888253D01*
X120865812Y-86885235D01*
X120856895Y-86834666D01*
X120850000Y-86800000D01*
X120856894Y-86765336D01*
X120865812Y-86714764D01*
X120867554Y-86711745D01*
X120869030Y-86704329D01*
X120889677Y-86673427D01*
X120909089Y-86639806D01*
X120916039Y-86633973D01*
X120923223Y-86623223D01*
X120950852Y-86604761D01*
X120975390Y-86584172D01*
X120989176Y-86579154D01*
X121004329Y-86569030D01*
X121032259Y-86563474D01*
X121056725Y-86554570D01*
X121077025Y-86554570D01*
X121100000Y-86550000D01*
X121122975Y-86554570D01*
G37*
G36*
X122822975Y-86254570D02*
G01*
X122843275Y-86254570D01*
X122867740Y-86263474D01*
X122895671Y-86269030D01*
X122910823Y-86279154D01*
X122924610Y-86284172D01*
X122949145Y-86304760D01*
X122976777Y-86323223D01*
X122983961Y-86333974D01*
X122990909Y-86339805D01*
X123010313Y-86373413D01*
X123030970Y-86404329D01*
X123032445Y-86411748D01*
X123034187Y-86414764D01*
X123043096Y-86465292D01*
X123050000Y-86500000D01*
X123043095Y-86534710D01*
X123034187Y-86585235D01*
X123032446Y-86588250D01*
X123030970Y-86595671D01*
X123010308Y-86626592D01*
X122990909Y-86660194D01*
X122983962Y-86666022D01*
X122976777Y-86676777D01*
X122949139Y-86695243D01*
X122924610Y-86715827D01*
X122910825Y-86720843D01*
X122895671Y-86730970D01*
X122867739Y-86736525D01*
X122843275Y-86745430D01*
X122822975Y-86745430D01*
X122800000Y-86750000D01*
X122777025Y-86745430D01*
X122756725Y-86745430D01*
X122732260Y-86736525D01*
X122704329Y-86730970D01*
X122689175Y-86720844D01*
X122675389Y-86715827D01*
X122650855Y-86695240D01*
X122623223Y-86676777D01*
X122616038Y-86666024D01*
X122609090Y-86660194D01*
X122589683Y-86626581D01*
X122569030Y-86595671D01*
X122567554Y-86588253D01*
X122565812Y-86585235D01*
X122556895Y-86534666D01*
X122550000Y-86500000D01*
X122556894Y-86465336D01*
X122565812Y-86414764D01*
X122567554Y-86411745D01*
X122569030Y-86404329D01*
X122589677Y-86373427D01*
X122609089Y-86339806D01*
X122616039Y-86333973D01*
X122623223Y-86323223D01*
X122650852Y-86304761D01*
X122675390Y-86284172D01*
X122689176Y-86279154D01*
X122704329Y-86269030D01*
X122732259Y-86263474D01*
X122756725Y-86254570D01*
X122777025Y-86254570D01*
X122800000Y-86250000D01*
X122822975Y-86254570D01*
G37*
G36*
X126492975Y-86134570D02*
G01*
X126513275Y-86134570D01*
X126537740Y-86143474D01*
X126565671Y-86149030D01*
X126580823Y-86159154D01*
X126594610Y-86164172D01*
X126619145Y-86184760D01*
X126646777Y-86203223D01*
X126653961Y-86213974D01*
X126660909Y-86219805D01*
X126680313Y-86253413D01*
X126700970Y-86284329D01*
X126702445Y-86291748D01*
X126704187Y-86294764D01*
X126713096Y-86345292D01*
X126720000Y-86380000D01*
X126713095Y-86414710D01*
X126704187Y-86465235D01*
X126702446Y-86468250D01*
X126700970Y-86475671D01*
X126680308Y-86506592D01*
X126660909Y-86540194D01*
X126653962Y-86546022D01*
X126646777Y-86556777D01*
X126619139Y-86575243D01*
X126594610Y-86595827D01*
X126580825Y-86600843D01*
X126565671Y-86610970D01*
X126537739Y-86616525D01*
X126513275Y-86625430D01*
X126492975Y-86625430D01*
X126470000Y-86630000D01*
X126447025Y-86625430D01*
X126426725Y-86625430D01*
X126402260Y-86616525D01*
X126374329Y-86610970D01*
X126359175Y-86600844D01*
X126345389Y-86595827D01*
X126320855Y-86575240D01*
X126293223Y-86556777D01*
X126286038Y-86546024D01*
X126279090Y-86540194D01*
X126259683Y-86506581D01*
X126239030Y-86475671D01*
X126237554Y-86468253D01*
X126235812Y-86465235D01*
X126226895Y-86414666D01*
X126220000Y-86380000D01*
X126226894Y-86345336D01*
X126235812Y-86294764D01*
X126237554Y-86291745D01*
X126239030Y-86284329D01*
X126259677Y-86253427D01*
X126279089Y-86219806D01*
X126286039Y-86213973D01*
X126293223Y-86203223D01*
X126320852Y-86184761D01*
X126345390Y-86164172D01*
X126359176Y-86159154D01*
X126374329Y-86149030D01*
X126402259Y-86143474D01*
X126426725Y-86134570D01*
X126447025Y-86134570D01*
X126470000Y-86130000D01*
X126492975Y-86134570D01*
G37*
G36*
X118052975Y-86034570D02*
G01*
X118073275Y-86034570D01*
X118097740Y-86043474D01*
X118125671Y-86049030D01*
X118140823Y-86059154D01*
X118154610Y-86064172D01*
X118179145Y-86084760D01*
X118206777Y-86103223D01*
X118213961Y-86113974D01*
X118220909Y-86119805D01*
X118240313Y-86153413D01*
X118260970Y-86184329D01*
X118262445Y-86191748D01*
X118264187Y-86194764D01*
X118273096Y-86245292D01*
X118280000Y-86280000D01*
X118273095Y-86314710D01*
X118264187Y-86365235D01*
X118262446Y-86368250D01*
X118260970Y-86375671D01*
X118240308Y-86406592D01*
X118220909Y-86440194D01*
X118213962Y-86446022D01*
X118206777Y-86456777D01*
X118179139Y-86475243D01*
X118154610Y-86495827D01*
X118140825Y-86500843D01*
X118125671Y-86510970D01*
X118097739Y-86516525D01*
X118073275Y-86525430D01*
X118052975Y-86525430D01*
X118030000Y-86530000D01*
X118007025Y-86525430D01*
X117986725Y-86525430D01*
X117962260Y-86516525D01*
X117934329Y-86510970D01*
X117919175Y-86500844D01*
X117905389Y-86495827D01*
X117880855Y-86475240D01*
X117853223Y-86456777D01*
X117846038Y-86446024D01*
X117839090Y-86440194D01*
X117819683Y-86406581D01*
X117799030Y-86375671D01*
X117797554Y-86368253D01*
X117795812Y-86365235D01*
X117786895Y-86314666D01*
X117780000Y-86280000D01*
X117786894Y-86245336D01*
X117795812Y-86194764D01*
X117797554Y-86191745D01*
X117799030Y-86184329D01*
X117819677Y-86153427D01*
X117839089Y-86119806D01*
X117846039Y-86113973D01*
X117853223Y-86103223D01*
X117880852Y-86084761D01*
X117905390Y-86064172D01*
X117919176Y-86059154D01*
X117934329Y-86049030D01*
X117962259Y-86043474D01*
X117986725Y-86034570D01*
X118007025Y-86034570D01*
X118030000Y-86030000D01*
X118052975Y-86034570D01*
G37*
G36*
X123622975Y-85554570D02*
G01*
X123643275Y-85554570D01*
X123667740Y-85563474D01*
X123695671Y-85569030D01*
X123710823Y-85579154D01*
X123724610Y-85584172D01*
X123749145Y-85604760D01*
X123776777Y-85623223D01*
X123783961Y-85633974D01*
X123790909Y-85639805D01*
X123810313Y-85673413D01*
X123830970Y-85704329D01*
X123832445Y-85711748D01*
X123834187Y-85714764D01*
X123843096Y-85765292D01*
X123850000Y-85800000D01*
X123843095Y-85834710D01*
X123834187Y-85885235D01*
X123832446Y-85888250D01*
X123830970Y-85895671D01*
X123810308Y-85926592D01*
X123790909Y-85960194D01*
X123783962Y-85966022D01*
X123776777Y-85976777D01*
X123749139Y-85995243D01*
X123724610Y-86015827D01*
X123710825Y-86020843D01*
X123695671Y-86030970D01*
X123667739Y-86036525D01*
X123643275Y-86045430D01*
X123622975Y-86045430D01*
X123600000Y-86050000D01*
X123577025Y-86045430D01*
X123556725Y-86045430D01*
X123532260Y-86036525D01*
X123504329Y-86030970D01*
X123489175Y-86020844D01*
X123475389Y-86015827D01*
X123450855Y-85995240D01*
X123423223Y-85976777D01*
X123416038Y-85966024D01*
X123409090Y-85960194D01*
X123389683Y-85926581D01*
X123369030Y-85895671D01*
X123367554Y-85888253D01*
X123365812Y-85885235D01*
X123356895Y-85834666D01*
X123350000Y-85800000D01*
X123356894Y-85765336D01*
X123365812Y-85714764D01*
X123367554Y-85711745D01*
X123369030Y-85704329D01*
X123389677Y-85673427D01*
X123409089Y-85639806D01*
X123416039Y-85633973D01*
X123423223Y-85623223D01*
X123450852Y-85604761D01*
X123475390Y-85584172D01*
X123489176Y-85579154D01*
X123504329Y-85569030D01*
X123532259Y-85563474D01*
X123556725Y-85554570D01*
X123577025Y-85554570D01*
X123600000Y-85550000D01*
X123622975Y-85554570D01*
G37*
G36*
X155769134Y-84984806D02*
G01*
X155785355Y-84995645D01*
X155796194Y-85011866D01*
X155800000Y-85031000D01*
X155800000Y-85931000D01*
X155796194Y-85950134D01*
X155785355Y-85966355D01*
X155769134Y-85977194D01*
X155750000Y-85981000D01*
X152850000Y-85981000D01*
X152830866Y-85977194D01*
X152814645Y-85966355D01*
X152803806Y-85950134D01*
X152800000Y-85931000D01*
X152800000Y-85031000D01*
X152803806Y-85011866D01*
X152814645Y-84995645D01*
X152830866Y-84984806D01*
X152850000Y-84981000D01*
X155750000Y-84981000D01*
X155769134Y-84984806D01*
G37*
G36*
X124422975Y-84554570D02*
G01*
X124443275Y-84554570D01*
X124467740Y-84563474D01*
X124495671Y-84569030D01*
X124510823Y-84579154D01*
X124524610Y-84584172D01*
X124549145Y-84604760D01*
X124576777Y-84623223D01*
X124583961Y-84633974D01*
X124590909Y-84639805D01*
X124610313Y-84673413D01*
X124630970Y-84704329D01*
X124632445Y-84711748D01*
X124634187Y-84714764D01*
X124643096Y-84765292D01*
X124650000Y-84800000D01*
X124643095Y-84834710D01*
X124634187Y-84885235D01*
X124632446Y-84888250D01*
X124630970Y-84895671D01*
X124610308Y-84926592D01*
X124590909Y-84960194D01*
X124583962Y-84966022D01*
X124576777Y-84976777D01*
X124549139Y-84995243D01*
X124524610Y-85015827D01*
X124510825Y-85020843D01*
X124495671Y-85030970D01*
X124467739Y-85036525D01*
X124443275Y-85045430D01*
X124422975Y-85045430D01*
X124400000Y-85050000D01*
X124377025Y-85045430D01*
X124356725Y-85045430D01*
X124332260Y-85036525D01*
X124304329Y-85030970D01*
X124289175Y-85020844D01*
X124275389Y-85015827D01*
X124250855Y-84995240D01*
X124223223Y-84976777D01*
X124216038Y-84966024D01*
X124209090Y-84960194D01*
X124189683Y-84926581D01*
X124169030Y-84895671D01*
X124167554Y-84888253D01*
X124165812Y-84885235D01*
X124156895Y-84834666D01*
X124150000Y-84800000D01*
X124156894Y-84765336D01*
X124165812Y-84714764D01*
X124167554Y-84711745D01*
X124169030Y-84704329D01*
X124189677Y-84673427D01*
X124209089Y-84639806D01*
X124216039Y-84633973D01*
X124223223Y-84623223D01*
X124250852Y-84604761D01*
X124275390Y-84584172D01*
X124289176Y-84579154D01*
X124304329Y-84569030D01*
X124332259Y-84563474D01*
X124356725Y-84554570D01*
X124377025Y-84554570D01*
X124400000Y-84550000D01*
X124422975Y-84554570D01*
G37*
G36*
X136742975Y-84174570D02*
G01*
X136763275Y-84174570D01*
X136787740Y-84183474D01*
X136815671Y-84189030D01*
X136830823Y-84199154D01*
X136844610Y-84204172D01*
X136869145Y-84224760D01*
X136896777Y-84243223D01*
X136903961Y-84253974D01*
X136910909Y-84259805D01*
X136930313Y-84293413D01*
X136950970Y-84324329D01*
X136952445Y-84331748D01*
X136954187Y-84334764D01*
X136963096Y-84385292D01*
X136970000Y-84420000D01*
X136963095Y-84454710D01*
X136954187Y-84505235D01*
X136952446Y-84508250D01*
X136950970Y-84515671D01*
X136930308Y-84546592D01*
X136910909Y-84580194D01*
X136903962Y-84586022D01*
X136896777Y-84596777D01*
X136869139Y-84615243D01*
X136844610Y-84635827D01*
X136830825Y-84640843D01*
X136815671Y-84650970D01*
X136787739Y-84656525D01*
X136763275Y-84665430D01*
X136742975Y-84665430D01*
X136720000Y-84670000D01*
X136697025Y-84665430D01*
X136676725Y-84665430D01*
X136652260Y-84656525D01*
X136624329Y-84650970D01*
X136609175Y-84640844D01*
X136595389Y-84635827D01*
X136570855Y-84615240D01*
X136543223Y-84596777D01*
X136536038Y-84586024D01*
X136529090Y-84580194D01*
X136509683Y-84546581D01*
X136489030Y-84515671D01*
X136487554Y-84508253D01*
X136485812Y-84505235D01*
X136476895Y-84454666D01*
X136470000Y-84420000D01*
X136476894Y-84385336D01*
X136485812Y-84334764D01*
X136487554Y-84331745D01*
X136489030Y-84324329D01*
X136509677Y-84293427D01*
X136529089Y-84259806D01*
X136536039Y-84253973D01*
X136543223Y-84243223D01*
X136570852Y-84224761D01*
X136595390Y-84204172D01*
X136609176Y-84199154D01*
X136624329Y-84189030D01*
X136652259Y-84183474D01*
X136676725Y-84174570D01*
X136697025Y-84174570D01*
X136720000Y-84170000D01*
X136742975Y-84174570D01*
G37*
G36*
X125222975Y-83654570D02*
G01*
X125243275Y-83654570D01*
X125267740Y-83663474D01*
X125295671Y-83669030D01*
X125310823Y-83679154D01*
X125324610Y-83684172D01*
X125349145Y-83704760D01*
X125376777Y-83723223D01*
X125383961Y-83733974D01*
X125390909Y-83739805D01*
X125410313Y-83773413D01*
X125430970Y-83804329D01*
X125432445Y-83811748D01*
X125434187Y-83814764D01*
X125443096Y-83865292D01*
X125450000Y-83900000D01*
X125443095Y-83934710D01*
X125434187Y-83985235D01*
X125432446Y-83988250D01*
X125430970Y-83995671D01*
X125410308Y-84026592D01*
X125390909Y-84060194D01*
X125383962Y-84066022D01*
X125376777Y-84076777D01*
X125349139Y-84095243D01*
X125324610Y-84115827D01*
X125310825Y-84120843D01*
X125295671Y-84130970D01*
X125267739Y-84136525D01*
X125243275Y-84145430D01*
X125222975Y-84145430D01*
X125200000Y-84150000D01*
X125177025Y-84145430D01*
X125156725Y-84145430D01*
X125132260Y-84136525D01*
X125104329Y-84130970D01*
X125089175Y-84120844D01*
X125075389Y-84115827D01*
X125050855Y-84095240D01*
X125023223Y-84076777D01*
X125016038Y-84066024D01*
X125009090Y-84060194D01*
X124989683Y-84026581D01*
X124969030Y-83995671D01*
X124967554Y-83988253D01*
X124965812Y-83985235D01*
X124956895Y-83934666D01*
X124950000Y-83900000D01*
X124956894Y-83865336D01*
X124965812Y-83814764D01*
X124967554Y-83811745D01*
X124969030Y-83804329D01*
X124989677Y-83773427D01*
X125009089Y-83739806D01*
X125016039Y-83733973D01*
X125023223Y-83723223D01*
X125050852Y-83704761D01*
X125075390Y-83684172D01*
X125089176Y-83679154D01*
X125104329Y-83669030D01*
X125132259Y-83663474D01*
X125156725Y-83654570D01*
X125177025Y-83654570D01*
X125200000Y-83650000D01*
X125222975Y-83654570D01*
G37*
G36*
X155769134Y-82762306D02*
G01*
X155785355Y-82773145D01*
X155796194Y-82789366D01*
X155800000Y-82808500D01*
X155800000Y-83708500D01*
X155796194Y-83727634D01*
X155785355Y-83743855D01*
X155769134Y-83754694D01*
X155750000Y-83758500D01*
X152850000Y-83758500D01*
X152830866Y-83754694D01*
X152814645Y-83743855D01*
X152803806Y-83727634D01*
X152800000Y-83708500D01*
X152800000Y-82808500D01*
X152803806Y-82789366D01*
X152814645Y-82773145D01*
X152830866Y-82762306D01*
X152850000Y-82758500D01*
X155750000Y-82758500D01*
X155769134Y-82762306D01*
G37*
G36*
X135022975Y-82054570D02*
G01*
X135043275Y-82054570D01*
X135067740Y-82063474D01*
X135095671Y-82069030D01*
X135110823Y-82079154D01*
X135124610Y-82084172D01*
X135149145Y-82104760D01*
X135176777Y-82123223D01*
X135183961Y-82133974D01*
X135190909Y-82139805D01*
X135210313Y-82173413D01*
X135230970Y-82204329D01*
X135232445Y-82211748D01*
X135234187Y-82214764D01*
X135243096Y-82265292D01*
X135250000Y-82300000D01*
X135243095Y-82334710D01*
X135234187Y-82385235D01*
X135232446Y-82388250D01*
X135230970Y-82395671D01*
X135210308Y-82426592D01*
X135190909Y-82460194D01*
X135183962Y-82466022D01*
X135176777Y-82476777D01*
X135149139Y-82495243D01*
X135124610Y-82515827D01*
X135110825Y-82520843D01*
X135095671Y-82530970D01*
X135067739Y-82536525D01*
X135043275Y-82545430D01*
X135022975Y-82545430D01*
X135000000Y-82550000D01*
X134977025Y-82545430D01*
X134956725Y-82545430D01*
X134932260Y-82536525D01*
X134904329Y-82530970D01*
X134889175Y-82520844D01*
X134875389Y-82515827D01*
X134850855Y-82495240D01*
X134823223Y-82476777D01*
X134816038Y-82466024D01*
X134809090Y-82460194D01*
X134789683Y-82426581D01*
X134769030Y-82395671D01*
X134767554Y-82388253D01*
X134765812Y-82385235D01*
X134756895Y-82334666D01*
X134750000Y-82300000D01*
X134756894Y-82265336D01*
X134765812Y-82214764D01*
X134767554Y-82211745D01*
X134769030Y-82204329D01*
X134789677Y-82173427D01*
X134809089Y-82139806D01*
X134816039Y-82133973D01*
X134823223Y-82123223D01*
X134850852Y-82104761D01*
X134875390Y-82084172D01*
X134889176Y-82079154D01*
X134904329Y-82069030D01*
X134932259Y-82063474D01*
X134956725Y-82054570D01*
X134977025Y-82054570D01*
X135000000Y-82050000D01*
X135022975Y-82054570D01*
G37*
G36*
X122122975Y-81954570D02*
G01*
X122143275Y-81954570D01*
X122167740Y-81963474D01*
X122195671Y-81969030D01*
X122210823Y-81979154D01*
X122224610Y-81984172D01*
X122249145Y-82004760D01*
X122276777Y-82023223D01*
X122283961Y-82033974D01*
X122290909Y-82039805D01*
X122310313Y-82073413D01*
X122330970Y-82104329D01*
X122332445Y-82111748D01*
X122334187Y-82114764D01*
X122343096Y-82165292D01*
X122350000Y-82200000D01*
X122343095Y-82234710D01*
X122334187Y-82285235D01*
X122332446Y-82288250D01*
X122330970Y-82295671D01*
X122310308Y-82326592D01*
X122290909Y-82360194D01*
X122283962Y-82366022D01*
X122276777Y-82376777D01*
X122249139Y-82395243D01*
X122224610Y-82415827D01*
X122210825Y-82420843D01*
X122195671Y-82430970D01*
X122167739Y-82436525D01*
X122143275Y-82445430D01*
X122122975Y-82445430D01*
X122100000Y-82450000D01*
X122077025Y-82445430D01*
X122056725Y-82445430D01*
X122032260Y-82436525D01*
X122004329Y-82430970D01*
X121989175Y-82420844D01*
X121975389Y-82415827D01*
X121950855Y-82395240D01*
X121923223Y-82376777D01*
X121916038Y-82366024D01*
X121909090Y-82360194D01*
X121889683Y-82326581D01*
X121869030Y-82295671D01*
X121867554Y-82288253D01*
X121865812Y-82285235D01*
X121856895Y-82234666D01*
X121850000Y-82200000D01*
X121856894Y-82165336D01*
X121865812Y-82114764D01*
X121867554Y-82111745D01*
X121869030Y-82104329D01*
X121889677Y-82073427D01*
X121909089Y-82039806D01*
X121916039Y-82033973D01*
X121923223Y-82023223D01*
X121950852Y-82004761D01*
X121975390Y-81984172D01*
X121989176Y-81979154D01*
X122004329Y-81969030D01*
X122032259Y-81963474D01*
X122056725Y-81954570D01*
X122077025Y-81954570D01*
X122100000Y-81950000D01*
X122122975Y-81954570D01*
G37*
G36*
X128442975Y-81864570D02*
G01*
X128463275Y-81864570D01*
X128487740Y-81873474D01*
X128515671Y-81879030D01*
X128530823Y-81889154D01*
X128544610Y-81894172D01*
X128569145Y-81914760D01*
X128596777Y-81933223D01*
X128603961Y-81943974D01*
X128610909Y-81949805D01*
X128630313Y-81983413D01*
X128650970Y-82014329D01*
X128652445Y-82021748D01*
X128654187Y-82024764D01*
X128663096Y-82075292D01*
X128670000Y-82110000D01*
X128663095Y-82144710D01*
X128654187Y-82195235D01*
X128652446Y-82198250D01*
X128650970Y-82205671D01*
X128630308Y-82236592D01*
X128610909Y-82270194D01*
X128603962Y-82276022D01*
X128596777Y-82286777D01*
X128569139Y-82305243D01*
X128544610Y-82325827D01*
X128530825Y-82330843D01*
X128515671Y-82340970D01*
X128487739Y-82346525D01*
X128463275Y-82355430D01*
X128442975Y-82355430D01*
X128420000Y-82360000D01*
X128397025Y-82355430D01*
X128376725Y-82355430D01*
X128352260Y-82346525D01*
X128324329Y-82340970D01*
X128309175Y-82330844D01*
X128295389Y-82325827D01*
X128270855Y-82305240D01*
X128243223Y-82286777D01*
X128236038Y-82276024D01*
X128229090Y-82270194D01*
X128209683Y-82236581D01*
X128189030Y-82205671D01*
X128187554Y-82198253D01*
X128185812Y-82195235D01*
X128176895Y-82144666D01*
X128170000Y-82110000D01*
X128176894Y-82075336D01*
X128185812Y-82024764D01*
X128187554Y-82021745D01*
X128189030Y-82014329D01*
X128209677Y-81983427D01*
X128229089Y-81949806D01*
X128236039Y-81943973D01*
X128243223Y-81933223D01*
X128270852Y-81914761D01*
X128295390Y-81894172D01*
X128309176Y-81889154D01*
X128324329Y-81879030D01*
X128352259Y-81873474D01*
X128376725Y-81864570D01*
X128397025Y-81864570D01*
X128420000Y-81860000D01*
X128442975Y-81864570D01*
G37*
G36*
X121222975Y-81754570D02*
G01*
X121243275Y-81754570D01*
X121267740Y-81763474D01*
X121295671Y-81769030D01*
X121310823Y-81779154D01*
X121324610Y-81784172D01*
X121349145Y-81804760D01*
X121376777Y-81823223D01*
X121383961Y-81833974D01*
X121390909Y-81839805D01*
X121410313Y-81873413D01*
X121430970Y-81904329D01*
X121432445Y-81911748D01*
X121434187Y-81914764D01*
X121443096Y-81965292D01*
X121450000Y-82000000D01*
X121443095Y-82034710D01*
X121434187Y-82085235D01*
X121432446Y-82088250D01*
X121430970Y-82095671D01*
X121410308Y-82126592D01*
X121390909Y-82160194D01*
X121383962Y-82166022D01*
X121376777Y-82176777D01*
X121349139Y-82195243D01*
X121324610Y-82215827D01*
X121310825Y-82220843D01*
X121295671Y-82230970D01*
X121267739Y-82236525D01*
X121243275Y-82245430D01*
X121222975Y-82245430D01*
X121200000Y-82250000D01*
X121177025Y-82245430D01*
X121156725Y-82245430D01*
X121132260Y-82236525D01*
X121104329Y-82230970D01*
X121089175Y-82220844D01*
X121075389Y-82215827D01*
X121050855Y-82195240D01*
X121023223Y-82176777D01*
X121016038Y-82166024D01*
X121009090Y-82160194D01*
X120989683Y-82126581D01*
X120969030Y-82095671D01*
X120967554Y-82088253D01*
X120965812Y-82085235D01*
X120956895Y-82034666D01*
X120950000Y-82000000D01*
X120956894Y-81965336D01*
X120965812Y-81914764D01*
X120967554Y-81911745D01*
X120969030Y-81904329D01*
X120989677Y-81873427D01*
X121009089Y-81839806D01*
X121016039Y-81833973D01*
X121023223Y-81823223D01*
X121050852Y-81804761D01*
X121075390Y-81784172D01*
X121089176Y-81779154D01*
X121104329Y-81769030D01*
X121132259Y-81763474D01*
X121156725Y-81754570D01*
X121177025Y-81754570D01*
X121200000Y-81750000D01*
X121222975Y-81754570D01*
G37*
G36*
X130462975Y-81264570D02*
G01*
X130483275Y-81264570D01*
X130507740Y-81273474D01*
X130535671Y-81279030D01*
X130550823Y-81289154D01*
X130564610Y-81294172D01*
X130589145Y-81314760D01*
X130616777Y-81333223D01*
X130623961Y-81343974D01*
X130630909Y-81349805D01*
X130650313Y-81383413D01*
X130670970Y-81414329D01*
X130672445Y-81421748D01*
X130674187Y-81424764D01*
X130683096Y-81475292D01*
X130690000Y-81510000D01*
X130683095Y-81544710D01*
X130674187Y-81595235D01*
X130672446Y-81598250D01*
X130670970Y-81605671D01*
X130650308Y-81636592D01*
X130630909Y-81670194D01*
X130623962Y-81676022D01*
X130616777Y-81686777D01*
X130589139Y-81705243D01*
X130564610Y-81725827D01*
X130550825Y-81730843D01*
X130535671Y-81740970D01*
X130507739Y-81746525D01*
X130483275Y-81755430D01*
X130462975Y-81755430D01*
X130440000Y-81760000D01*
X130417025Y-81755430D01*
X130396725Y-81755430D01*
X130372260Y-81746525D01*
X130344329Y-81740970D01*
X130329175Y-81730844D01*
X130315389Y-81725827D01*
X130290855Y-81705240D01*
X130263223Y-81686777D01*
X130256038Y-81676024D01*
X130249090Y-81670194D01*
X130229683Y-81636581D01*
X130209030Y-81605671D01*
X130207554Y-81598253D01*
X130205812Y-81595235D01*
X130196895Y-81544666D01*
X130190000Y-81510000D01*
X130196894Y-81475336D01*
X130205812Y-81424764D01*
X130207554Y-81421745D01*
X130209030Y-81414329D01*
X130229677Y-81383427D01*
X130249089Y-81349806D01*
X130256039Y-81343973D01*
X130263223Y-81333223D01*
X130290852Y-81314761D01*
X130315390Y-81294172D01*
X130329176Y-81289154D01*
X130344329Y-81279030D01*
X130372259Y-81273474D01*
X130396725Y-81264570D01*
X130417025Y-81264570D01*
X130440000Y-81260000D01*
X130462975Y-81264570D01*
G37*
G36*
X117962975Y-81044570D02*
G01*
X117983275Y-81044570D01*
X118007740Y-81053474D01*
X118035671Y-81059030D01*
X118050823Y-81069154D01*
X118064610Y-81074172D01*
X118089145Y-81094760D01*
X118116777Y-81113223D01*
X118123961Y-81123974D01*
X118130909Y-81129805D01*
X118150313Y-81163413D01*
X118170970Y-81194329D01*
X118172445Y-81201748D01*
X118174187Y-81204764D01*
X118183096Y-81255292D01*
X118190000Y-81290000D01*
X118183095Y-81324710D01*
X118174187Y-81375235D01*
X118172446Y-81378250D01*
X118170970Y-81385671D01*
X118150308Y-81416592D01*
X118130909Y-81450194D01*
X118123962Y-81456022D01*
X118116777Y-81466777D01*
X118089139Y-81485243D01*
X118064610Y-81505827D01*
X118050825Y-81510843D01*
X118035671Y-81520970D01*
X118007739Y-81526525D01*
X117983275Y-81535430D01*
X117962975Y-81535430D01*
X117940000Y-81540000D01*
X117917025Y-81535430D01*
X117896725Y-81535430D01*
X117872260Y-81526525D01*
X117844329Y-81520970D01*
X117829175Y-81510844D01*
X117815389Y-81505827D01*
X117790855Y-81485240D01*
X117763223Y-81466777D01*
X117756038Y-81456024D01*
X117749090Y-81450194D01*
X117729683Y-81416581D01*
X117709030Y-81385671D01*
X117707554Y-81378253D01*
X117705812Y-81375235D01*
X117696895Y-81324666D01*
X117690000Y-81290000D01*
X117696894Y-81255336D01*
X117705812Y-81204764D01*
X117707554Y-81201745D01*
X117709030Y-81194329D01*
X117729677Y-81163427D01*
X117749089Y-81129806D01*
X117756039Y-81123973D01*
X117763223Y-81113223D01*
X117790852Y-81094761D01*
X117815390Y-81074172D01*
X117829176Y-81069154D01*
X117844329Y-81059030D01*
X117872259Y-81053474D01*
X117896725Y-81044570D01*
X117917025Y-81044570D01*
X117940000Y-81040000D01*
X117962975Y-81044570D01*
G37*
G36*
X155769134Y-80539806D02*
G01*
X155785355Y-80550645D01*
X155796194Y-80566866D01*
X155800000Y-80586000D01*
X155800000Y-81486000D01*
X155796194Y-81505134D01*
X155785355Y-81521355D01*
X155769134Y-81532194D01*
X155750000Y-81536000D01*
X152850000Y-81536000D01*
X152830866Y-81532194D01*
X152814645Y-81521355D01*
X152803806Y-81505134D01*
X152800000Y-81486000D01*
X152800000Y-80586000D01*
X152803806Y-80566866D01*
X152814645Y-80550645D01*
X152830866Y-80539806D01*
X152850000Y-80536000D01*
X155750000Y-80536000D01*
X155769134Y-80539806D01*
G37*
G36*
X140997975Y-80704570D02*
G01*
X141018275Y-80704570D01*
X141042740Y-80713474D01*
X141070671Y-80719030D01*
X141085823Y-80729154D01*
X141099610Y-80734172D01*
X141124145Y-80754760D01*
X141151777Y-80773223D01*
X141158961Y-80783974D01*
X141165909Y-80789805D01*
X141185313Y-80823413D01*
X141205970Y-80854329D01*
X141207445Y-80861748D01*
X141209187Y-80864764D01*
X141218096Y-80915292D01*
X141225000Y-80950000D01*
X141218095Y-80984710D01*
X141209187Y-81035235D01*
X141207446Y-81038250D01*
X141205970Y-81045671D01*
X141185308Y-81076592D01*
X141165909Y-81110194D01*
X141158962Y-81116022D01*
X141151777Y-81126777D01*
X141124139Y-81145243D01*
X141099610Y-81165827D01*
X141085825Y-81170843D01*
X141070671Y-81180970D01*
X141042739Y-81186525D01*
X141018275Y-81195430D01*
X140997975Y-81195430D01*
X140975000Y-81200000D01*
X140952025Y-81195430D01*
X140931725Y-81195430D01*
X140907260Y-81186525D01*
X140879329Y-81180970D01*
X140864175Y-81170844D01*
X140850389Y-81165827D01*
X140825855Y-81145240D01*
X140798223Y-81126777D01*
X140791038Y-81116024D01*
X140784090Y-81110194D01*
X140764683Y-81076581D01*
X140744030Y-81045671D01*
X140742554Y-81038253D01*
X140740812Y-81035235D01*
X140731895Y-80984666D01*
X140725000Y-80950000D01*
X140731894Y-80915336D01*
X140740812Y-80864764D01*
X140742554Y-80861745D01*
X140744030Y-80854329D01*
X140764677Y-80823427D01*
X140784089Y-80789806D01*
X140791039Y-80783973D01*
X140798223Y-80773223D01*
X140825852Y-80754761D01*
X140850390Y-80734172D01*
X140864176Y-80729154D01*
X140879329Y-80719030D01*
X140907259Y-80713474D01*
X140931725Y-80704570D01*
X140952025Y-80704570D01*
X140975000Y-80700000D01*
X140997975Y-80704570D01*
G37*
G36*
X129472975Y-80108570D02*
G01*
X129493275Y-80108570D01*
X129517740Y-80117474D01*
X129545671Y-80123030D01*
X129560823Y-80133154D01*
X129574610Y-80138172D01*
X129599145Y-80158760D01*
X129626777Y-80177223D01*
X129633961Y-80187974D01*
X129640909Y-80193805D01*
X129660313Y-80227413D01*
X129680970Y-80258329D01*
X129682445Y-80265748D01*
X129684187Y-80268764D01*
X129693096Y-80319292D01*
X129700000Y-80354000D01*
X129693095Y-80388710D01*
X129684187Y-80439235D01*
X129682446Y-80442250D01*
X129680970Y-80449671D01*
X129660308Y-80480592D01*
X129640909Y-80514194D01*
X129633962Y-80520022D01*
X129626777Y-80530777D01*
X129599139Y-80549243D01*
X129574610Y-80569827D01*
X129560825Y-80574843D01*
X129545671Y-80584970D01*
X129517739Y-80590525D01*
X129493275Y-80599430D01*
X129472975Y-80599430D01*
X129450000Y-80604000D01*
X129427025Y-80599430D01*
X129406725Y-80599430D01*
X129382260Y-80590525D01*
X129354329Y-80584970D01*
X129339175Y-80574844D01*
X129325389Y-80569827D01*
X129300855Y-80549240D01*
X129273223Y-80530777D01*
X129266038Y-80520024D01*
X129259090Y-80514194D01*
X129239683Y-80480581D01*
X129219030Y-80449671D01*
X129217554Y-80442253D01*
X129215812Y-80439235D01*
X129206895Y-80388666D01*
X129200000Y-80354000D01*
X129206894Y-80319336D01*
X129215812Y-80268764D01*
X129217554Y-80265745D01*
X129219030Y-80258329D01*
X129239677Y-80227427D01*
X129259089Y-80193806D01*
X129266039Y-80187973D01*
X129273223Y-80177223D01*
X129300852Y-80158761D01*
X129325390Y-80138172D01*
X129339176Y-80133154D01*
X129354329Y-80123030D01*
X129382259Y-80117474D01*
X129406725Y-80108570D01*
X129427025Y-80108570D01*
X129450000Y-80104000D01*
X129472975Y-80108570D01*
G37*
G36*
X122032975Y-80084570D02*
G01*
X122053275Y-80084570D01*
X122077740Y-80093474D01*
X122105671Y-80099030D01*
X122120823Y-80109154D01*
X122134610Y-80114172D01*
X122159145Y-80134760D01*
X122186777Y-80153223D01*
X122193961Y-80163974D01*
X122200909Y-80169805D01*
X122220313Y-80203413D01*
X122240970Y-80234329D01*
X122242445Y-80241748D01*
X122244187Y-80244764D01*
X122253096Y-80295292D01*
X122260000Y-80330000D01*
X122253095Y-80364710D01*
X122244187Y-80415235D01*
X122242446Y-80418250D01*
X122240970Y-80425671D01*
X122220308Y-80456592D01*
X122200909Y-80490194D01*
X122193962Y-80496022D01*
X122186777Y-80506777D01*
X122159139Y-80525243D01*
X122134610Y-80545827D01*
X122120825Y-80550843D01*
X122105671Y-80560970D01*
X122077739Y-80566525D01*
X122053275Y-80575430D01*
X122032975Y-80575430D01*
X122010000Y-80580000D01*
X121987025Y-80575430D01*
X121966725Y-80575430D01*
X121942260Y-80566525D01*
X121914329Y-80560970D01*
X121899175Y-80550844D01*
X121885389Y-80545827D01*
X121860855Y-80525240D01*
X121833223Y-80506777D01*
X121826038Y-80496024D01*
X121819090Y-80490194D01*
X121799683Y-80456581D01*
X121779030Y-80425671D01*
X121777554Y-80418253D01*
X121775812Y-80415235D01*
X121766895Y-80364666D01*
X121760000Y-80330000D01*
X121766894Y-80295336D01*
X121775812Y-80244764D01*
X121777554Y-80241745D01*
X121779030Y-80234329D01*
X121799677Y-80203427D01*
X121819089Y-80169806D01*
X121826039Y-80163973D01*
X121833223Y-80153223D01*
X121860852Y-80134761D01*
X121885390Y-80114172D01*
X121899176Y-80109154D01*
X121914329Y-80099030D01*
X121942259Y-80093474D01*
X121966725Y-80084570D01*
X121987025Y-80084570D01*
X122010000Y-80080000D01*
X122032975Y-80084570D01*
G37*
G36*
X143957975Y-79944570D02*
G01*
X143978275Y-79944570D01*
X144002740Y-79953474D01*
X144030671Y-79959030D01*
X144045823Y-79969154D01*
X144059610Y-79974172D01*
X144084145Y-79994760D01*
X144111777Y-80013223D01*
X144118961Y-80023974D01*
X144125909Y-80029805D01*
X144145313Y-80063413D01*
X144165970Y-80094329D01*
X144167445Y-80101748D01*
X144169187Y-80104764D01*
X144178096Y-80155292D01*
X144185000Y-80190000D01*
X144178095Y-80224710D01*
X144169187Y-80275235D01*
X144167446Y-80278250D01*
X144165970Y-80285671D01*
X144145308Y-80316592D01*
X144125909Y-80350194D01*
X144118962Y-80356022D01*
X144111777Y-80366777D01*
X144084139Y-80385243D01*
X144059610Y-80405827D01*
X144045825Y-80410843D01*
X144030671Y-80420970D01*
X144002739Y-80426525D01*
X143978275Y-80435430D01*
X143957975Y-80435430D01*
X143935000Y-80440000D01*
X143912025Y-80435430D01*
X143891725Y-80435430D01*
X143867260Y-80426525D01*
X143839329Y-80420970D01*
X143824175Y-80410844D01*
X143810389Y-80405827D01*
X143785855Y-80385240D01*
X143758223Y-80366777D01*
X143751038Y-80356024D01*
X143744090Y-80350194D01*
X143724683Y-80316581D01*
X143704030Y-80285671D01*
X143702554Y-80278253D01*
X143700812Y-80275235D01*
X143691895Y-80224666D01*
X143685000Y-80190000D01*
X143691894Y-80155336D01*
X143700812Y-80104764D01*
X143702554Y-80101745D01*
X143704030Y-80094329D01*
X143724677Y-80063427D01*
X143744089Y-80029806D01*
X143751039Y-80023973D01*
X143758223Y-80013223D01*
X143785852Y-79994761D01*
X143810390Y-79974172D01*
X143824176Y-79969154D01*
X143839329Y-79959030D01*
X143867259Y-79953474D01*
X143891725Y-79944570D01*
X143912025Y-79944570D01*
X143935000Y-79940000D01*
X143957975Y-79944570D01*
G37*
G36*
X131432975Y-79630570D02*
G01*
X131453275Y-79630570D01*
X131477740Y-79639474D01*
X131505671Y-79645030D01*
X131520823Y-79655154D01*
X131534610Y-79660172D01*
X131559145Y-79680760D01*
X131586777Y-79699223D01*
X131593961Y-79709974D01*
X131600909Y-79715805D01*
X131620313Y-79749413D01*
X131640970Y-79780329D01*
X131642445Y-79787748D01*
X131644187Y-79790764D01*
X131653096Y-79841292D01*
X131660000Y-79876000D01*
X131653095Y-79910710D01*
X131644187Y-79961235D01*
X131642446Y-79964250D01*
X131640970Y-79971671D01*
X131620308Y-80002592D01*
X131600909Y-80036194D01*
X131593962Y-80042022D01*
X131586777Y-80052777D01*
X131559139Y-80071243D01*
X131534610Y-80091827D01*
X131520825Y-80096843D01*
X131505671Y-80106970D01*
X131477739Y-80112525D01*
X131453275Y-80121430D01*
X131432975Y-80121430D01*
X131410000Y-80126000D01*
X131387025Y-80121430D01*
X131366725Y-80121430D01*
X131342260Y-80112525D01*
X131314329Y-80106970D01*
X131299175Y-80096844D01*
X131285389Y-80091827D01*
X131260855Y-80071240D01*
X131233223Y-80052777D01*
X131226038Y-80042024D01*
X131219090Y-80036194D01*
X131199683Y-80002581D01*
X131179030Y-79971671D01*
X131177554Y-79964253D01*
X131175812Y-79961235D01*
X131166895Y-79910666D01*
X131160000Y-79876000D01*
X131166894Y-79841336D01*
X131175812Y-79790764D01*
X131177554Y-79787745D01*
X131179030Y-79780329D01*
X131199677Y-79749427D01*
X131219089Y-79715806D01*
X131226039Y-79709973D01*
X131233223Y-79699223D01*
X131260852Y-79680761D01*
X131285390Y-79660172D01*
X131299176Y-79655154D01*
X131314329Y-79645030D01*
X131342259Y-79639474D01*
X131366725Y-79630570D01*
X131387025Y-79630570D01*
X131410000Y-79626000D01*
X131432975Y-79630570D01*
G37*
G36*
X121592975Y-79524570D02*
G01*
X121613275Y-79524570D01*
X121637740Y-79533474D01*
X121665671Y-79539030D01*
X121680823Y-79549154D01*
X121694610Y-79554172D01*
X121719145Y-79574760D01*
X121746777Y-79593223D01*
X121753961Y-79603974D01*
X121760909Y-79609805D01*
X121780313Y-79643413D01*
X121800970Y-79674329D01*
X121802445Y-79681748D01*
X121804187Y-79684764D01*
X121813096Y-79735292D01*
X121820000Y-79770000D01*
X121813095Y-79804710D01*
X121804187Y-79855235D01*
X121802446Y-79858250D01*
X121800970Y-79865671D01*
X121780308Y-79896592D01*
X121760909Y-79930194D01*
X121753962Y-79936022D01*
X121746777Y-79946777D01*
X121719139Y-79965243D01*
X121694610Y-79985827D01*
X121680825Y-79990843D01*
X121665671Y-80000970D01*
X121637739Y-80006525D01*
X121613275Y-80015430D01*
X121592975Y-80015430D01*
X121570000Y-80020000D01*
X121547025Y-80015430D01*
X121526725Y-80015430D01*
X121502260Y-80006525D01*
X121474329Y-80000970D01*
X121459175Y-79990844D01*
X121445389Y-79985827D01*
X121420855Y-79965240D01*
X121393223Y-79946777D01*
X121386038Y-79936024D01*
X121379090Y-79930194D01*
X121359683Y-79896581D01*
X121339030Y-79865671D01*
X121337554Y-79858253D01*
X121335812Y-79855235D01*
X121326895Y-79804666D01*
X121320000Y-79770000D01*
X121326894Y-79735336D01*
X121335812Y-79684764D01*
X121337554Y-79681745D01*
X121339030Y-79674329D01*
X121359677Y-79643427D01*
X121379089Y-79609806D01*
X121386039Y-79603973D01*
X121393223Y-79593223D01*
X121420852Y-79574761D01*
X121445390Y-79554172D01*
X121459176Y-79549154D01*
X121474329Y-79539030D01*
X121502259Y-79533474D01*
X121526725Y-79524570D01*
X121547025Y-79524570D01*
X121570000Y-79520000D01*
X121592975Y-79524570D01*
G37*
G36*
X121617975Y-78559570D02*
G01*
X121638275Y-78559570D01*
X121662740Y-78568474D01*
X121690671Y-78574030D01*
X121705823Y-78584154D01*
X121719610Y-78589172D01*
X121744145Y-78609760D01*
X121771777Y-78628223D01*
X121778961Y-78638974D01*
X121785909Y-78644805D01*
X121805313Y-78678413D01*
X121825970Y-78709329D01*
X121827445Y-78716748D01*
X121829187Y-78719764D01*
X121838096Y-78770292D01*
X121845000Y-78805000D01*
X121838095Y-78839710D01*
X121829187Y-78890235D01*
X121827446Y-78893250D01*
X121825970Y-78900671D01*
X121805308Y-78931592D01*
X121785909Y-78965194D01*
X121778962Y-78971022D01*
X121771777Y-78981777D01*
X121744139Y-79000243D01*
X121719610Y-79020827D01*
X121705825Y-79025843D01*
X121690671Y-79035970D01*
X121662739Y-79041525D01*
X121638275Y-79050430D01*
X121617975Y-79050430D01*
X121595000Y-79055000D01*
X121572025Y-79050430D01*
X121551725Y-79050430D01*
X121527260Y-79041525D01*
X121499329Y-79035970D01*
X121484175Y-79025844D01*
X121470389Y-79020827D01*
X121445855Y-79000240D01*
X121418223Y-78981777D01*
X121411038Y-78971024D01*
X121404090Y-78965194D01*
X121384683Y-78931581D01*
X121364030Y-78900671D01*
X121362554Y-78893253D01*
X121360812Y-78890235D01*
X121351895Y-78839666D01*
X121345000Y-78805000D01*
X121351894Y-78770336D01*
X121360812Y-78719764D01*
X121362554Y-78716745D01*
X121364030Y-78709329D01*
X121384677Y-78678427D01*
X121404089Y-78644806D01*
X121411039Y-78638973D01*
X121418223Y-78628223D01*
X121445852Y-78609761D01*
X121470390Y-78589172D01*
X121484176Y-78584154D01*
X121499329Y-78574030D01*
X121527259Y-78568474D01*
X121551725Y-78559570D01*
X121572025Y-78559570D01*
X121595000Y-78555000D01*
X121617975Y-78559570D01*
G37*
G36*
X121305725Y-77927320D02*
G01*
X121326025Y-77927320D01*
X121350490Y-77936224D01*
X121378421Y-77941780D01*
X121393573Y-77951904D01*
X121407360Y-77956922D01*
X121431895Y-77977510D01*
X121459527Y-77995973D01*
X121466711Y-78006724D01*
X121473659Y-78012555D01*
X121493063Y-78046163D01*
X121513720Y-78077079D01*
X121515195Y-78084498D01*
X121516937Y-78087514D01*
X121525846Y-78138042D01*
X121532750Y-78172750D01*
X121525845Y-78207460D01*
X121516937Y-78257985D01*
X121515196Y-78261000D01*
X121513720Y-78268421D01*
X121493058Y-78299342D01*
X121473659Y-78332944D01*
X121466712Y-78338772D01*
X121459527Y-78349527D01*
X121431889Y-78367993D01*
X121407360Y-78388577D01*
X121393575Y-78393593D01*
X121378421Y-78403720D01*
X121350489Y-78409275D01*
X121326025Y-78418180D01*
X121305725Y-78418180D01*
X121282750Y-78422750D01*
X121259775Y-78418180D01*
X121239475Y-78418180D01*
X121215010Y-78409275D01*
X121187079Y-78403720D01*
X121171925Y-78393594D01*
X121158139Y-78388577D01*
X121133605Y-78367990D01*
X121105973Y-78349527D01*
X121098788Y-78338774D01*
X121091840Y-78332944D01*
X121072433Y-78299331D01*
X121051780Y-78268421D01*
X121050304Y-78261003D01*
X121048562Y-78257985D01*
X121039645Y-78207416D01*
X121032750Y-78172750D01*
X121039644Y-78138086D01*
X121048562Y-78087514D01*
X121050304Y-78084495D01*
X121051780Y-78077079D01*
X121072427Y-78046177D01*
X121091839Y-78012556D01*
X121098789Y-78006723D01*
X121105973Y-77995973D01*
X121133602Y-77977511D01*
X121158140Y-77956922D01*
X121171926Y-77951904D01*
X121187079Y-77941780D01*
X121215009Y-77936224D01*
X121239475Y-77927320D01*
X121259775Y-77927320D01*
X121282750Y-77922750D01*
X121305725Y-77927320D01*
G37*
G36*
X120632975Y-77784570D02*
G01*
X120653275Y-77784570D01*
X120677740Y-77793474D01*
X120705671Y-77799030D01*
X120720823Y-77809154D01*
X120734610Y-77814172D01*
X120759145Y-77834760D01*
X120786777Y-77853223D01*
X120793961Y-77863974D01*
X120800909Y-77869805D01*
X120820313Y-77903413D01*
X120840970Y-77934329D01*
X120842445Y-77941748D01*
X120844187Y-77944764D01*
X120853096Y-77995292D01*
X120860000Y-78030000D01*
X120853095Y-78064710D01*
X120844187Y-78115235D01*
X120842446Y-78118250D01*
X120840970Y-78125671D01*
X120820308Y-78156592D01*
X120800909Y-78190194D01*
X120793962Y-78196022D01*
X120786777Y-78206777D01*
X120759139Y-78225243D01*
X120734610Y-78245827D01*
X120720825Y-78250843D01*
X120705671Y-78260970D01*
X120677739Y-78266525D01*
X120653275Y-78275430D01*
X120632975Y-78275430D01*
X120610000Y-78280000D01*
X120587025Y-78275430D01*
X120566725Y-78275430D01*
X120542260Y-78266525D01*
X120514329Y-78260970D01*
X120499175Y-78250844D01*
X120485389Y-78245827D01*
X120460855Y-78225240D01*
X120433223Y-78206777D01*
X120426038Y-78196024D01*
X120419090Y-78190194D01*
X120399683Y-78156581D01*
X120379030Y-78125671D01*
X120377554Y-78118253D01*
X120375812Y-78115235D01*
X120366895Y-78064666D01*
X120360000Y-78030000D01*
X120366894Y-77995336D01*
X120375812Y-77944764D01*
X120377554Y-77941745D01*
X120379030Y-77934329D01*
X120399677Y-77903427D01*
X120419089Y-77869806D01*
X120426039Y-77863973D01*
X120433223Y-77853223D01*
X120460852Y-77834761D01*
X120485390Y-77814172D01*
X120499176Y-77809154D01*
X120514329Y-77799030D01*
X120542259Y-77793474D01*
X120566725Y-77784570D01*
X120587025Y-77784570D01*
X120610000Y-77780000D01*
X120632975Y-77784570D01*
G37*
G36*
X130067975Y-77589570D02*
G01*
X130088275Y-77589570D01*
X130112740Y-77598474D01*
X130140671Y-77604030D01*
X130155823Y-77614154D01*
X130169610Y-77619172D01*
X130194145Y-77639760D01*
X130221777Y-77658223D01*
X130228961Y-77668974D01*
X130235909Y-77674805D01*
X130255313Y-77708413D01*
X130275970Y-77739329D01*
X130277445Y-77746748D01*
X130279187Y-77749764D01*
X130288096Y-77800292D01*
X130295000Y-77835000D01*
X130288095Y-77869710D01*
X130279187Y-77920235D01*
X130277446Y-77923250D01*
X130275970Y-77930671D01*
X130255308Y-77961592D01*
X130235909Y-77995194D01*
X130228962Y-78001022D01*
X130221777Y-78011777D01*
X130194139Y-78030243D01*
X130169610Y-78050827D01*
X130155825Y-78055843D01*
X130140671Y-78065970D01*
X130112739Y-78071525D01*
X130088275Y-78080430D01*
X130067975Y-78080430D01*
X130045000Y-78085000D01*
X130022025Y-78080430D01*
X130001725Y-78080430D01*
X129977260Y-78071525D01*
X129949329Y-78065970D01*
X129934175Y-78055844D01*
X129920389Y-78050827D01*
X129895855Y-78030240D01*
X129868223Y-78011777D01*
X129861038Y-78001024D01*
X129854090Y-77995194D01*
X129834683Y-77961581D01*
X129814030Y-77930671D01*
X129812554Y-77923253D01*
X129810812Y-77920235D01*
X129801895Y-77869666D01*
X129795000Y-77835000D01*
X129801894Y-77800336D01*
X129810812Y-77749764D01*
X129812554Y-77746745D01*
X129814030Y-77739329D01*
X129834677Y-77708427D01*
X129854089Y-77674806D01*
X129861039Y-77668973D01*
X129868223Y-77658223D01*
X129895852Y-77639761D01*
X129920390Y-77619172D01*
X129934176Y-77614154D01*
X129949329Y-77604030D01*
X129977259Y-77598474D01*
X130001725Y-77589570D01*
X130022025Y-77589570D01*
X130045000Y-77585000D01*
X130067975Y-77589570D01*
G37*
M02*
