%TF.GenerationSoftware,KiCad,Pcbnew,8.0.9-8.0.9-0~ubuntu20.04.1*%
%TF.CreationDate,2025-05-20T18:40:30+02:00*%
%TF.ProjectId,tobo,746f626f-2e6b-4696-9361-645f70636258,rev?*%
%TF.SameCoordinates,Original*%
%TF.FileFunction,Profile,NP*%
%FSLAX46Y46*%
G04 Gerber Fmt 4.6, Leading zero omitted, Abs format (unit mm)*
G04 Created by KiCad (PCBNEW 8.0.9-8.0.9-0~ubuntu20.04.1) date 2025-05-20 18:40:30*
%MOMM*%
%LPD*%
G01*
G04 APERTURE LIST*
%TA.AperFunction,Profile*%
%ADD10C,0.050000*%
%TD*%
G04 APERTURE END LIST*
D10*
X141350000Y-112500000D02*
X144818990Y-112500000D01*
X160183015Y-106089000D02*
G75*
G02*
X159303242Y-107139490I-20509715J16283000D01*
G01*
X165935747Y-87744274D02*
X171882161Y-87226596D01*
X165935747Y-87744274D02*
G75*
G02*
X165351108Y-87276763I-520847J-52026D01*
G01*
X157669999Y-108379999D02*
G75*
G02*
X151998185Y-112496595I-17669999J18379999D01*
G01*
X157669999Y-108379999D02*
G75*
G02*
X158402173Y-108387873I370001J359999D01*
G01*
X163827934Y-97957826D02*
G75*
G02*
X164475312Y-98172927I307766J-155474D01*
G01*
X165800388Y-89424893D02*
G75*
G02*
X165801686Y-90795123I-26176388J-709907D01*
G01*
X128000000Y-112500000D02*
G75*
G02*
X131380359Y-66001004I12000000J22500000D01*
G01*
X133750000Y-126300000D02*
X134450000Y-127000000D01*
X146250000Y-116100000D02*
X147733826Y-113354518D01*
X161990237Y-103499177D02*
G75*
G02*
X161410646Y-103144628I-277437J197477D01*
G01*
X148100000Y-112500000D02*
X152000000Y-112499999D01*
X164007860Y-99460961D02*
G75*
G02*
X163375384Y-99212404I-307560J146361D01*
G01*
X164475288Y-98172923D02*
G75*
G02*
X164007861Y-99460961I-24841288J8286023D01*
G01*
X144818990Y-112500000D02*
G75*
G02*
X144801741Y-113179198I-8590J-339600D01*
G01*
X135070000Y-112500000D02*
X138538990Y-112500000D01*
X138538990Y-112500000D02*
G75*
G02*
X138521741Y-113179198I-8590J-339600D01*
G01*
X163829122Y-97957380D02*
G75*
G02*
X163373848Y-99211922I-24194122J8070180D01*
G01*
X159303241Y-107139490D02*
G75*
G02*
X158793972Y-106689643I-238941J242690D01*
G01*
X135087251Y-113179272D02*
G75*
G02*
X135069998Y-112499927I-8651J339672D01*
G01*
X165292841Y-95173271D02*
G75*
G02*
X164626955Y-95038337I-328241J90671D01*
G01*
X135089281Y-113179272D02*
X138521739Y-113179272D01*
X133750000Y-116100000D02*
X133750000Y-126300000D01*
X147733826Y-113354518D02*
G75*
G02*
X148100000Y-112500000I376174J344518D01*
G01*
X162074061Y-101987634D02*
G75*
G02*
X162674174Y-102311856I276039J-206566D01*
G01*
X165119470Y-89443352D02*
G75*
G02*
X165120734Y-90777948I-25496770J-691448D01*
G01*
X171882161Y-87226596D02*
G75*
G02*
X162647002Y-112611441I-31882161J-2773404D01*
G01*
X131380359Y-66001004D02*
X148620000Y-66000001D01*
X165118507Y-89444177D02*
G75*
G02*
X165800437Y-89424885I342393J-40823D01*
G01*
X148618610Y-66003870D02*
G75*
G02*
X165351115Y-87276832I-8618610J-23996130D01*
G01*
X146250000Y-126300000D02*
X146250000Y-116100000D01*
X165529502Y-93823633D02*
G75*
G02*
X165292839Y-95173271I-25904302J3846833D01*
G01*
X131900000Y-112500001D02*
G75*
G02*
X132361844Y-113417041I-50000J-599999D01*
G01*
X158402173Y-108387873D02*
X162647002Y-112611441D01*
X159648269Y-105665467D02*
G75*
G02*
X160183009Y-106088997I236031J-251333D01*
G01*
X141367251Y-113179272D02*
G75*
G02*
X141349998Y-112499927I-8651J339672D01*
G01*
X134450000Y-127000000D02*
X145550000Y-127000000D01*
X159649537Y-105665454D02*
G75*
G02*
X158792642Y-106688625I-19975737J15859054D01*
G01*
X164855724Y-93723571D02*
G75*
G02*
X164625216Y-95038111I-25228924J3746471D01*
G01*
X162075308Y-101987401D02*
G75*
G02*
X161409105Y-103143827I-22424908J12148601D01*
G01*
X141369281Y-113179272D02*
X144801739Y-113179272D01*
X128000000Y-112500000D02*
X131900000Y-112500000D01*
X162674229Y-102311875D02*
G75*
G02*
X161990237Y-103499177I-23025829J12474275D01*
G01*
X164854632Y-93724216D02*
G75*
G02*
X165529492Y-93823634I330068J-99684D01*
G01*
X133750000Y-116100000D02*
X132361844Y-113417041D01*
X165801684Y-90795123D02*
G75*
G02*
X165122313Y-90777876I-339084J32323D01*
G01*
X145550000Y-127000000D02*
X146250000Y-126300000D01*
M02*
