%TF.GenerationSoftware,KiCad,Pcbnew,8.0.9-8.0.9-0~ubuntu20.04.1*%
%TF.CreationDate,2025-05-20T18:40:30+02:00*%
%TF.ProjectId,tobo,746f626f-2e6b-4696-9361-645f70636258,rev?*%
%TF.SameCoordinates,Original*%
%TF.FileFunction,Paste,Top*%
%TF.FilePolarity,Positive*%
%FSLAX46Y46*%
G04 Gerber Fmt 4.6, Leading zero omitted, Abs format (unit mm)*
G04 Created by KiCad (PCBNEW 8.0.9-8.0.9-0~ubuntu20.04.1) date 2025-05-20 18:40:30*
%MOMM*%
%LPD*%
G01*
G04 APERTURE LIST*
G04 Aperture macros list*
%AMRoundRect*
0 Rectangle with rounded corners*
0 $1 Rounding radius*
0 $2 $3 $4 $5 $6 $7 $8 $9 X,Y pos of 4 corners*
0 Add a 4 corners polygon primitive as box body*
4,1,4,$2,$3,$4,$5,$6,$7,$8,$9,$2,$3,0*
0 Add four circle primitives for the rounded corners*
1,1,$1+$1,$2,$3*
1,1,$1+$1,$4,$5*
1,1,$1+$1,$6,$7*
1,1,$1+$1,$8,$9*
0 Add four rect primitives between the rounded corners*
20,1,$1+$1,$2,$3,$4,$5,0*
20,1,$1+$1,$4,$5,$6,$7,0*
20,1,$1+$1,$6,$7,$8,$9,0*
20,1,$1+$1,$8,$9,$2,$3,0*%
%AMRotRect*
0 Rectangle, with rotation*
0 The origin of the aperture is its center*
0 $1 length*
0 $2 width*
0 $3 Rotation angle, in degrees counterclockwise*
0 Add horizontal line*
21,1,$1,$2,0,0,$3*%
G04 Aperture macros list end*
%ADD10RotRect,0.750000X1.800000X70.000000*%
%ADD11RotRect,0.600000X1.800000X70.000000*%
%ADD12RotRect,0.900000X1.300000X160.000000*%
%ADD13RoundRect,0.140000X0.140000X0.170000X-0.140000X0.170000X-0.140000X-0.170000X0.140000X-0.170000X0*%
%ADD14R,1.600000X0.550000*%
%ADD15R,0.550000X1.600000*%
%ADD16R,1.780000X3.430000*%
%ADD17RoundRect,0.079500X0.079500X0.100500X-0.079500X0.100500X-0.079500X-0.100500X0.079500X-0.100500X0*%
%ADD18RoundRect,0.079500X-0.079500X-0.100500X0.079500X-0.100500X0.079500X0.100500X-0.079500X0.100500X0*%
%ADD19RoundRect,0.140000X-0.140000X-0.170000X0.140000X-0.170000X0.140000X0.170000X-0.140000X0.170000X0*%
%ADD20RoundRect,0.079500X0.100500X-0.079500X0.100500X0.079500X-0.100500X0.079500X-0.100500X-0.079500X0*%
%ADD21RotRect,0.750000X1.800000X50.000000*%
%ADD22RotRect,0.600000X1.800000X50.000000*%
%ADD23RotRect,0.900000X1.300000X140.000000*%
%ADD24RoundRect,0.079500X-0.100500X0.079500X-0.100500X-0.079500X0.100500X-0.079500X0.100500X0.079500X0*%
%ADD25R,1.800000X0.750000*%
%ADD26R,1.800000X0.600000*%
%ADD27R,0.900000X1.300000*%
%ADD28R,0.600000X1.450000*%
%ADD29R,0.300000X1.450000*%
%ADD30R,0.300000X1.400000*%
%ADD31RoundRect,0.010000X-0.740000X0.090000X-0.740000X-0.090000X0.740000X-0.090000X0.740000X0.090000X0*%
%ADD32R,0.800000X0.300000*%
%ADD33RotRect,0.750000X1.800000X80.000000*%
%ADD34RotRect,0.600000X1.800000X80.000000*%
%ADD35RotRect,0.900000X1.300000X170.000000*%
%ADD36RoundRect,0.375000X0.375000X-1.625000X0.375000X1.625000X-0.375000X1.625000X-0.375000X-1.625000X0*%
%ADD37RoundRect,0.140000X0.170000X-0.140000X0.170000X0.140000X-0.170000X0.140000X-0.170000X-0.140000X0*%
%ADD38R,3.430000X1.780000*%
%ADD39RoundRect,0.250000X-0.262500X-0.450000X0.262500X-0.450000X0.262500X0.450000X-0.262500X0.450000X0*%
%ADD40RoundRect,0.030000X0.470000X-0.120000X0.470000X0.120000X-0.470000X0.120000X-0.470000X-0.120000X0*%
%ADD41RoundRect,0.130000X0.520000X-0.695000X0.520000X0.695000X-0.520000X0.695000X-0.520000X-0.695000X0*%
%ADD42RotRect,0.750000X1.800000X60.000000*%
%ADD43RotRect,0.600000X1.800000X60.000000*%
%ADD44RotRect,0.900000X1.300000X150.000000*%
G04 APERTURE END LIST*
D10*
%TO.C,S3*%
X168029311Y-98873505D03*
D11*
X167610337Y-100024629D03*
D10*
X167191362Y-101175752D03*
D12*
X168810000Y-102430000D03*
X170075474Y-98953137D03*
%TD*%
D13*
%TO.C,C1*%
X134792500Y-80250000D03*
X133832500Y-80250000D03*
%TD*%
D14*
%TO.C,U2*%
X118150000Y-89750000D03*
X118150000Y-90550000D03*
X118150000Y-91350000D03*
X118150000Y-92150000D03*
X118150000Y-92950000D03*
X118150000Y-93750000D03*
X118150000Y-94550000D03*
X118150000Y-95350000D03*
D15*
X119600000Y-96800000D03*
X120400000Y-96800000D03*
X121200000Y-96800000D03*
X122000000Y-96800000D03*
X122800000Y-96800000D03*
X123600000Y-96800000D03*
X124400000Y-96800000D03*
X125200000Y-96800000D03*
D14*
X126650000Y-95350000D03*
X126650000Y-94550000D03*
X126650000Y-93750000D03*
X126650000Y-92950000D03*
X126650000Y-92150000D03*
X126650000Y-91350000D03*
X126650000Y-90550000D03*
X126650000Y-89750000D03*
D15*
X125200000Y-88300000D03*
X124400000Y-88300000D03*
X123600000Y-88300000D03*
X122800000Y-88300000D03*
X122000000Y-88300000D03*
X121200000Y-88300000D03*
X120400000Y-88300000D03*
X119600000Y-88300000D03*
%TD*%
D16*
%TO.C,U9*%
X127366667Y-102500000D03*
%TD*%
D17*
%TO.C,R17*%
X138295000Y-116950000D03*
X137605000Y-116950000D03*
%TD*%
D18*
%TO.C,R9*%
X130799996Y-88349999D03*
X131489996Y-88349999D03*
%TD*%
D16*
%TO.C,U16*%
X131760000Y-75290000D03*
%TD*%
D13*
%TO.C,C15*%
X142760000Y-95800000D03*
X141800000Y-95800000D03*
%TD*%
D19*
%TO.C,C14*%
X141805000Y-99070000D03*
X142765000Y-99070000D03*
%TD*%
D13*
%TO.C,C6*%
X134797500Y-87000000D03*
X133837500Y-87000000D03*
%TD*%
D20*
%TO.C,D4*%
X130430000Y-83480000D03*
X130430000Y-82790000D03*
%TD*%
%TO.C,C22*%
X135700000Y-103700000D03*
X135700000Y-103010000D03*
%TD*%
D21*
%TO.C,S5*%
X163262785Y-107930978D03*
D22*
X162475371Y-108869382D03*
D21*
X161687956Y-109807787D03*
D23*
X162780000Y-111540000D03*
X165158314Y-108705636D03*
%TD*%
D18*
%TO.C,R4*%
X122010000Y-83900000D03*
X122700000Y-83900000D03*
%TD*%
D16*
%TO.C,U10*%
X130700000Y-102500000D03*
%TD*%
D18*
%TO.C,R10*%
X130799996Y-87369999D03*
X131489996Y-87369999D03*
%TD*%
D20*
%TO.C,R1*%
X129655000Y-91245000D03*
X129655000Y-90555000D03*
%TD*%
D18*
%TO.C,R5*%
X122010000Y-84800000D03*
X122700000Y-84800000D03*
%TD*%
D19*
%TO.C,C4*%
X141795000Y-81770000D03*
X142755000Y-81770000D03*
%TD*%
D24*
%TO.C,C19*%
X132920000Y-103010000D03*
X132920000Y-103700000D03*
%TD*%
D25*
%TO.C,S1*%
X169370000Y-88875000D03*
D26*
X169370000Y-90100000D03*
D25*
X169370000Y-91325000D03*
D27*
X171320000Y-91950000D03*
X171320000Y-88250000D03*
%TD*%
D18*
%TO.C,R13*%
X130799996Y-86389999D03*
X131489996Y-86389999D03*
%TD*%
D24*
%TO.C,R15*%
X131430000Y-84560000D03*
X131430000Y-85250000D03*
%TD*%
D16*
%TO.C,U7*%
X125633333Y-75290000D03*
%TD*%
D28*
%TO.C,J8*%
X136730000Y-118955000D03*
X137530000Y-118955000D03*
D29*
X138730000Y-118955000D03*
X139730000Y-118955000D03*
X140230000Y-118955000D03*
X141230000Y-118955000D03*
D28*
X142430000Y-118955000D03*
X143230000Y-118955000D03*
X143230000Y-118955000D03*
X142430000Y-118955000D03*
D29*
X141730000Y-118955000D03*
X140730000Y-118955000D03*
X139230000Y-118955000D03*
X138230000Y-118955000D03*
D28*
X137530000Y-118955000D03*
X136730000Y-118955000D03*
%TD*%
D24*
%TO.C,R11*%
X128430000Y-84560000D03*
X128430000Y-85250000D03*
%TD*%
%TO.C,R14*%
X129430000Y-84560000D03*
X129430000Y-85250000D03*
%TD*%
D17*
%TO.C,D2*%
X129764997Y-87369999D03*
X129074997Y-87369999D03*
%TD*%
D30*
%TO.C,U14*%
X133200000Y-109800000D03*
X133700000Y-109800000D03*
X134200000Y-109800000D03*
X134700000Y-109800000D03*
X135200000Y-109800000D03*
X135200000Y-105400000D03*
X134700000Y-105400000D03*
X134200000Y-105400000D03*
X133700000Y-105400000D03*
X133200000Y-105400000D03*
%TD*%
D20*
%TO.C,R16*%
X141735000Y-117155000D03*
X141735000Y-116465000D03*
%TD*%
D18*
%TO.C,R3*%
X122035000Y-83000000D03*
X122725000Y-83000000D03*
%TD*%
D16*
%TO.C,U11*%
X124033334Y-102500000D03*
%TD*%
%TO.C,U15*%
X119360000Y-83860000D03*
%TD*%
%TO.C,U12*%
X120700001Y-102500000D03*
%TD*%
D31*
%TO.C,J7*%
X145910000Y-102540000D03*
X145910000Y-102977500D03*
X145910000Y-103415000D03*
X145910000Y-103852500D03*
X145910000Y-104290000D03*
X145910000Y-104727500D03*
X145910000Y-105165000D03*
X145910000Y-105602500D03*
X145910000Y-106040000D03*
%TD*%
D19*
%TO.C,C13*%
X141800000Y-94800000D03*
X142760000Y-94800000D03*
%TD*%
D13*
%TO.C,C12*%
X134817500Y-98000000D03*
X133857500Y-98000000D03*
%TD*%
D17*
%TO.C,D5*%
X129764997Y-86389999D03*
X129074997Y-86389999D03*
%TD*%
D32*
%TO.C,U1*%
X136375000Y-80750000D03*
X136375000Y-81250000D03*
X136375000Y-81750000D03*
X136375000Y-82250000D03*
X139475000Y-82250000D03*
X139475000Y-81750000D03*
X139475000Y-81250000D03*
X139475000Y-80750000D03*
%TD*%
D20*
%TO.C,D6*%
X129430000Y-83480000D03*
X129430000Y-82790000D03*
%TD*%
%TO.C,D7*%
X131430000Y-83480000D03*
X131430000Y-82790000D03*
%TD*%
D33*
%TO.C,S2*%
X169123593Y-93913102D03*
D34*
X168910874Y-95119492D03*
D33*
X168698155Y-96325881D03*
D35*
X170510000Y-97280000D03*
X171152497Y-93636211D03*
%TD*%
D17*
%TO.C,D1*%
X129764997Y-88349999D03*
X129074997Y-88349999D03*
%TD*%
D36*
%TO.C,J2*%
X152070000Y-105050000D03*
X154320000Y-105050000D03*
%TD*%
D19*
%TO.C,C10*%
X133857500Y-99000000D03*
X134817500Y-99000000D03*
%TD*%
D13*
%TO.C,C11*%
X134797500Y-93300000D03*
X133837500Y-93300000D03*
%TD*%
D20*
%TO.C,C21*%
X134900000Y-103700000D03*
X134900000Y-103010000D03*
%TD*%
D37*
%TO.C,C20*%
X133900000Y-103835000D03*
X133900000Y-102875000D03*
%TD*%
D24*
%TO.C,R12*%
X130430000Y-84560000D03*
X130430000Y-85250000D03*
%TD*%
D38*
%TO.C,U13*%
X153120000Y-108850000D03*
%TD*%
D19*
%TO.C,C7*%
X141800000Y-88500000D03*
X142760000Y-88500000D03*
%TD*%
%TO.C,C9*%
X133837500Y-94300000D03*
X134797500Y-94300000D03*
%TD*%
D32*
%TO.C,U5*%
X136400000Y-98500000D03*
X136400000Y-99000000D03*
X136400000Y-99500000D03*
X136400000Y-100000000D03*
X139500000Y-100000000D03*
X139500000Y-99500000D03*
X139500000Y-99000000D03*
X139500000Y-98500000D03*
%TD*%
D20*
%TO.C,C18*%
X128850000Y-99535000D03*
X128850000Y-98845000D03*
%TD*%
D13*
%TO.C,C3*%
X142755000Y-82820000D03*
X141795000Y-82820000D03*
%TD*%
D19*
%TO.C,C2*%
X133832500Y-81250000D03*
X134792500Y-81250000D03*
%TD*%
D32*
%TO.C,U4*%
X136380000Y-93750000D03*
X136380000Y-94250000D03*
X136380000Y-94750000D03*
X136380000Y-95250000D03*
X139480000Y-95250000D03*
X139480000Y-94750000D03*
X139480000Y-94250000D03*
X139480000Y-93750000D03*
%TD*%
%TO.C,U3*%
X136380000Y-87500000D03*
X136380000Y-88000000D03*
X136380000Y-88500000D03*
X136380000Y-89000000D03*
X139480000Y-89000000D03*
X139480000Y-88500000D03*
X139480000Y-88000000D03*
X139480000Y-87500000D03*
%TD*%
D39*
%TO.C,R27*%
X152480000Y-100870000D03*
X154305000Y-100870000D03*
%TD*%
D16*
%TO.C,U8*%
X128696666Y-75290000D03*
%TD*%
D19*
%TO.C,C5*%
X133837500Y-88000000D03*
X134797500Y-88000000D03*
%TD*%
D18*
%TO.C,R7*%
X116555000Y-86280000D03*
X117245000Y-86280000D03*
%TD*%
D40*
%TO.C,J4*%
X151220000Y-95470000D03*
X151220000Y-94970000D03*
X151220000Y-94470000D03*
X151220000Y-93970000D03*
X151220000Y-93470000D03*
X151220000Y-92970000D03*
X151220000Y-92470000D03*
X151220000Y-91970000D03*
X151220000Y-91470000D03*
X151220000Y-90970000D03*
X151220000Y-90470000D03*
X151220000Y-89970000D03*
X151220000Y-89470000D03*
X151220000Y-88970000D03*
X151220000Y-88470000D03*
X151220000Y-87970000D03*
X151220000Y-87470000D03*
X151220000Y-86970000D03*
X151220000Y-86470000D03*
X151220000Y-85970000D03*
X151220000Y-85470000D03*
X151220000Y-84970000D03*
X151220000Y-84470000D03*
X151220000Y-83970000D03*
D41*
X153120000Y-97745000D03*
X153120000Y-81695000D03*
%TD*%
D20*
%TO.C,D3*%
X128430000Y-83480000D03*
X128430000Y-82790000D03*
%TD*%
D13*
%TO.C,C16*%
X142785000Y-100070000D03*
X141825000Y-100070000D03*
%TD*%
D16*
%TO.C,U6*%
X122570000Y-75290000D03*
%TD*%
D17*
%TO.C,R8*%
X121965000Y-81200000D03*
X121275000Y-81200000D03*
%TD*%
D20*
%TO.C,R2*%
X130555000Y-91245000D03*
X130555000Y-90555000D03*
%TD*%
D13*
%TO.C,C8*%
X142760000Y-89500000D03*
X141800000Y-89500000D03*
%TD*%
D18*
%TO.C,R6*%
X122010000Y-85700000D03*
X122700000Y-85700000D03*
%TD*%
D13*
%TO.C,C17*%
X116550000Y-92910000D03*
X115590000Y-92910000D03*
%TD*%
D42*
%TO.C,S4*%
X166028751Y-103571972D03*
D43*
X165416251Y-104632853D03*
D42*
X164803751Y-105693734D03*
D44*
X166180000Y-107210000D03*
X168030000Y-104005706D03*
%TD*%
M02*
