M48
; DRILL file {KiCad 8.0.9-8.0.9-0~ubuntu20.04.1} date 2025-05-20T18:40:31+0200
; FORMAT={-:-/ absolute / metric / decimal}
; #@! TF.CreationDate,2025-05-20T18:40:31+02:00
; #@! TF.GenerationSoftware,Kicad,Pcbnew,8.0.9-8.0.9-0~ubuntu20.04.1
; #@! TF.FileFunction,MixedPlating,1,2
FMAT,2
METRIC
; #@! TA.AperFunction,Plated,PTH,ViaDrill
T1C0.203
; #@! TA.AperFunction,Plated,PTH,ViaDrill
T2C0.254
; #@! TA.AperFunction,Plated,PTH,ViaDrill
T3C0.300
; #@! TA.AperFunction,Plated,PTH,ComponentDrill
T4C0.600
; #@! TA.AperFunction,NonPlated,NPTH,ComponentDrill
T5C0.650
%
G90
G05
T1
X136.72Y-84.42
T2
X116.61Y-91.35
X117.94Y-81.29
X118.03Y-86.28
X118.94Y-87.09
X119.52Y-93.88
X119.6Y-98.3
X119.81Y-94.62
X120.4Y-98.3
X120.61Y-78.03
X121.1Y-86.8
X121.2Y-82.0
X121.2Y-98.3
X121.23Y-95.25
X121.283Y-78.173
X121.57Y-79.77
X121.595Y-78.805
X121.6Y-90.66
X121.78Y-89.86
X121.966Y-95.274
X122.0Y-98.3
X122.01Y-80.33
X122.1Y-82.2
X122.393Y-89.635
X122.8Y-86.5
X122.8Y-98.3
X123.1Y-95.46
X123.125Y-94.782
X123.191Y-94.133
X123.23Y-89.94
X123.6Y-85.8
X123.6Y-98.3
X124.4Y-84.8
X124.527Y-90.157
X125.2Y-83.9
X126.47Y-86.38
X126.53Y-87.77
X127.546Y-97.8
X128.12Y-92.15
X128.198Y-97.822
X128.26Y-90.68
X128.42Y-82.11
X128.85Y-97.793
X129.45Y-80.354
X130.045Y-77.835
X130.44Y-81.51
X130.55Y-89.61
X130.7Y-106.14
X130.81Y-108.71
X131.41Y-79.876
X131.99Y-106.39
X132.0Y-108.2
X133.0Y-111.1
X135.0Y-82.3
X135.0Y-89.2
X135.0Y-95.53
X135.0Y-100.0
X135.5Y-100.9
X136.4Y-89.7
X136.4Y-96.3
X136.7Y-116.95
X137.9Y-121.55
X139.84Y-116.94
X140.35Y-101.31
X140.975Y-80.95
X141.0Y-87.75
X141.0Y-94.0
X141.03Y-101.65
X141.21Y-111.99
X141.71Y-98.09
X141.75Y-102.16
X141.75Y-115.49
X142.0Y-121.55
X142.33Y-102.8
X142.561Y-104.244
X142.564Y-103.527
X142.609Y-104.908
X142.62Y-105.61
X142.91Y-109.25
X142.934Y-116.95
X143.03Y-106.24
X143.935Y-80.19
X143.935Y-96.59
X143.96Y-86.99
X143.96Y-92.99
X148.11Y-96.57
X150.32Y-106.14
X150.33Y-103.85
X150.33Y-105.05
X151.3Y-100.87
X152.07Y-102.54
X157.3Y-106.46
X160.04Y-104.42
X160.37Y-108.69
X162.26Y-99.99
X163.63Y-96.21
X164.21Y-87.93
X164.5Y-91.84
X164.95Y-107.46
X167.719Y-102.9
X167.82Y-88.25
X169.47Y-97.9
X170.35Y-92.72
T3
X116.1Y-96.42
X117.23Y-96.45
T5
X137.09Y-120.4
X142.87Y-120.4
T4
G00X135.66Y-119.32
M15
G01X135.66Y-120.42
M16
G05
G00X135.66Y-123.75
M15
G01X135.66Y-124.35
M16
G05
G00X144.3Y-119.32
M15
G01X144.3Y-120.42
M16
G05
G00X144.3Y-123.75
M15
G01X144.3Y-124.35
M16
G05
M30
